<?xml version='1.0' encoding='utf-8'?>
<!DOCTYPE svg>
<!-- Generator: Adobe Illustrator 15.1.0, SVG Export Plug-In . SVG Version: 6.00 Build 0)  -->
<svg xmlns="http://www.w3.org/2000/svg"  id="Ebene_1" height="0.305986in" version="1.1" x="0px" y="0px" width="0.19in" enable-background="new 0 0 13.68 22.031" viewBox="0 0 13.68 22.031" xml:space="preserve" xmlns:xml="http://www.w3.org/XML/1998/namespace" gorn="0">
    <desc >
        <referenceFile >led.svg</referenceFile>
    </desc>
    <g  id="schematic" gorn="0.1">
        <g >
            <path  d="M13.5,14.966H9.9c-0.193,0-0.35-0.156-0.35-0.35s0.156-0.35,0.35-0.35H13.5c0.193,0,0.35,0.156,0.35,0.35S13.694,14.966,13.5,14.966z"/>
        </g>
        <g >
            <path  d="M9.9,14.966H6.3c-0.193,0-0.35-0.156-0.35-0.35s0.157-0.35,0.35-0.35h3.6c0.193,0,0.35,0.156,0.35,0.35S10.093,14.966,9.9,14.966z"/>
        </g>
        <g >
            <polygon  points="9.9,14.616 6.3,7.416 9.9,7.416 13.5,7.416 " fill="#FFFFFF"/>
            <path  d="M9.9,15.398L5.734,7.066h8.333L9.9,15.398z M6.866,7.766L9.9,13.834l3.034-6.068H6.866z"/>
        </g>
        <g >
            <path  d="M9.9,14.841c-0.124,0-0.225-0.101-0.225-0.225v-7.2c0-0.124,0.101-0.225,0.225-0.225s0.225,0.101,0.225,0.225v7.2C10.124,14.74,10.024,14.841,9.9,14.841z"/>
        </g>
        <g >
            <path  d="M1.8,12.141c-0.058,0-0.115-0.021-0.159-0.065c-0.088-0.088-0.088-0.23,0-0.318l2.34-2.341c0.088-0.088,0.23-0.088,0.318,0s0.088,0.23,0,0.318l-2.34,2.341C1.915,12.12,1.858,12.141,1.8,12.141z"/>
        </g>
        <g >
            <path  d="M2.16,15.381c-0.058,0-0.115-0.021-0.159-0.065c-0.088-0.088-0.088-0.23,0-0.318l2.34-2.34c0.088-0.088,0.23-0.088,0.318,0s0.088,0.23,0,0.318l-2.34,2.34C2.276,15.359,2.218,15.381,2.16,15.381z"/>
        </g>
        <g  id="connector0pin" gorn="0.1.6">
            <path  d="M9.9,22.166c-0.193,0-0.35-0.156-0.35-0.35v-7.2c0-0.193,0.156-0.35,0.35-0.35s0.35,0.156,0.35,0.35v7.2C10.249,22.01,10.093,22.166,9.9,22.166z" fill="#787878"/>
        </g>
        <g  id="connector0terminal" gorn="0.1.7">
            <rect  height="0.001" x="9.9" y="21.816" width="0.001" fill="none"/>
        </g>
        <g  transform="translate(3.429,6.4262)">
            <g >
                <g >
                    <g >
                        <g >
                            <g >
                                <g >
                                    <g >
                                        <g >
                                            <g >
                                                <g >
                                                    <g  transform="rotate(270)">
                                                        <g >
                                                            <g >
                                                                <g >
                                                                    <g >
                                                                        <g >
                                                                            <g >
                                                                                <g >
                                                                                    <g >
                                                                                        <g >
                                                                                            <g >
                                                                                                <g  enable-background="new    ">
                                                                                                    <path  d="M-11.647,5.54h-0.891V5.388l0.342-0.372c0.049-0.053,0.093-0.101,0.131-0.145s0.071-0.086,0.099-0.128c0.026-0.042,0.047-0.084,0.062-0.125c0.015-0.043,0.021-0.088,0.021-0.138c0-0.038-0.005-0.072-0.017-0.102s-0.027-0.054-0.047-0.075c-0.021-0.02-0.045-0.035-0.073-0.046s-0.06-0.016-0.094-0.016c-0.062,0-0.118,0.013-0.167,0.038c-0.051,0.024-0.098,0.057-0.143,0.096l-0.1-0.116c0.025-0.023,0.055-0.046,0.084-0.065c0.029-0.021,0.063-0.039,0.097-0.054s0.071-0.026,0.109-0.036c0.038-0.008,0.079-0.013,0.121-0.013c0.063,0,0.119,0.009,0.169,0.026c0.051,0.018,0.094,0.043,0.129,0.076c0.035,0.032,0.063,0.072,0.082,0.119c0.019,0.048,0.028,0.101,0.028,0.16c0,0.056-0.009,0.108-0.026,0.158c-0.017,0.05-0.041,0.1-0.07,0.148c-0.031,0.048-0.066,0.097-0.109,0.146c-0.041,0.049-0.087,0.1-0.136,0.152L-12.32,5.37v0.008h0.673V5.54z" fill="#787878"/>
                                                                                                </g>
                                                                                            </g>
                                                                                        </g>
                                                                                    </g>
                                                                                </g>
                                                                            </g>
                                                                        </g>
                                                                    </g>
                                                                </g>
                                                            </g>
                                                        </g>
                                                    </g>
                                                </g>
                                            </g>
                                        </g>
                                    </g>
                                </g>
                            </g>
                        </g>
                    </g>
                </g>
            </g>
        </g>
        <g  id="connector1pin" gorn="0.1.9">
            <path  d="M9.9,7.766c-0.193,0-0.35-0.157-0.35-0.35v-7.2c0-0.193,0.156-0.35,0.35-0.35s0.35,0.157,0.35,0.35v7.2C10.249,7.609,10.093,7.766,9.9,7.766z" fill="#787878"/>
        </g>
        <g  id="connector1terminal" gorn="0.1.10">
            <polygon  points="9.9,0.216 9.901,0.216 9.901,0.216 " fill="none"/>
        </g>
        <g  transform="translate(3.429,1.3462)">
            <g >
                <g >
                    <g >
                        <g >
                            <g >
                                <g >
                                    <g >
                                        <g >
                                            <g >
                                                <g >
                                                    <g  transform="rotate(270)">
                                                        <g >
                                                            <g >
                                                                <g >
                                                                    <g >
                                                                        <g >
                                                                            <g >
                                                                                <g >
                                                                                    <g >
                                                                                        <g >
                                                                                            <g >
                                                                                                <g  enable-background="new    ">
                                                                                                    <path  d="M-2.616,5.54h-0.172V4.648c0-0.028,0-0.058,0-0.09s0.001-0.063,0.002-0.095c0.001-0.032,0.002-0.063,0.003-0.092c0.001-0.028,0.002-0.054,0.002-0.076c-0.011,0.012-0.021,0.021-0.029,0.03s-0.017,0.017-0.026,0.024s-0.018,0.016-0.028,0.025c-0.01,0.008-0.021,0.019-0.035,0.03l-0.145,0.118l-0.094-0.12l0.374-0.292h0.146V5.54z" fill="#787878"/>
                                                                                                </g>
                                                                                            </g>
                                                                                        </g>
                                                                                    </g>
                                                                                </g>
                                                                            </g>
                                                                        </g>
                                                                    </g>
                                                                </g>
                                                            </g>
                                                        </g>
                                                    </g>
                                                </g>
                                            </g>
                                        </g>
                                    </g>
                                </g>
                            </g>
                        </g>
                    </g>
                </g>
            </g>
        </g>
        <g >
            <path  d="M0.18,13.536l1.08-2.521l1.44,1.438L0.18,13.536z"/>
        </g>
        <g >
            <path  d="M0.54,16.776l1.08-2.521l1.438,1.438L0.54,16.776z"/>
        </g>
    </g>
</svg>
