<svg version="1.2" xmlns="http://www.w3.org/2000/svg" viewBox="0 0 168 74" width="168" height="74"><style>tspan{white-space:pre}.a{font-size: 7px;fill: #ffffff;font-family: "O CR A"}.b{font-size: 4px;fill: #ffffff;font-family: "O CR A"}.c{fill:none}.d{fill:#241f1c}.e{fill:#454545}.f{fill:#b68b2d}.g{font-size: 3px;fill: #ffffff;font-family: "O CR A"}.h{fill:#bec0c2}.i{fill:#231f20}.j{fill:#1a1a1a}.k{fill:#333}.l{fill:#fca}.m{fill:#b3b3b3}.n{fill:#8c8c8c}.o{fill:#303030}.p{fill:#1f1f1f}.q{fill:#3d3d3d}.r{fill:#4d4d4d}.s{font-size: 3px;fill: #666666;font-family: "Droid  Sans"}.t{font-size: 3px;fill: #808080;font-family: "Droid  Sans"}.u{font-size: 3px;fill: #999999;font-family: "Droid  Sans"}.v{font-size: 2px;fill: #ffffff;font-family: "O CR A"}</style><text style="transform:matrix(1,0,0,1,69.38,41.37)" ><tspan x="0" y="0" class="a">NodeMCU 
</tspan></text><text style="transform:matrix(1,0,0,1,69.38,49.77)" ><tspan x="0" y="0" class="a">V1.0
</tspan></text><text style="transform:matrix(1,0,0,1,68.393,18.76)" ><tspan x="0" y="0" class="b">blog.squix.ch
</tspan></text><path class="c" d="m115.4 52.8h61.5v30.1h-61.5z"/><path fill-rule="evenodd" class="d" d="m162.8 6.1v61.8c0 2.8-2.7 5.1-6 5.1h-150.8c-3.3 0-6-2.3-6-5.1v-61.8c0-2.8 2.7-5.1 6-5.1h150.8c3.3 0 6 2.3 6 5.1zm-160.1 1c0 2.4 2.3 4.3 5.1 4.3 2.8 0 5-1.9 5-4.3 0-2.4-2.2-4.3-5-4.3-2.8 0-5.1 1.9-5.1 4.3zm10.1 60c0-2.4-2.2-4.3-5-4.3-2.8 0-5.1 1.9-5.1 4.3 0 2.4 2.3 4.3 5.1 4.3 2.8 0 5-1.9 5-4.3zm147.7 0c0-2.4-2.3-4.3-5.1-4.3-2.8 0-5.1 1.9-5.1 4.3 0 2.4 2.3 4.3 5.1 4.3 2.8 0 5.1-1.9 5.1-4.3zm0-60c0-2.4-2.3-4.3-5.1-4.3-2.8 0-5.1 1.9-5.1 4.3 0 2.4 2.3 4.3 5.1 4.3 2.8 0 5.1-1.9 5.1-4.3z"/><path class="e" d="m16.3 65.6h3.7v7.4h-3.7z"/><path class="e" d="m16.3 73l-1.9-1.9v-3.7l1.9-1.8z"/><path class="e" d="m21.8 71.1l-1.8 1.9v-7.4l1.8 1.8z"/><path class="f" d="m17.5 68.4h1.3v1.7h-1.3z"/><path class="e" d="m23.5 65.6h3.7v7.4h-3.7z"/><path class="e" d="m23.5 73l-1.9-1.9v-3.7l1.9-1.8z"/><path class="e" d="m29 71.1l-1.8 1.9v-7.4l1.8 1.8z"/><path class="f" d="m24.7 68.4h1.3v1.7h-1.3z"/><path class="e" d="m30.7 65.6h3.7v7.4h-3.7z"/><path class="e" d="m30.7 73l-1.9-1.9v-3.7l1.9-1.8z"/><path class="e" d="m36.2 71.1l-1.8 1.9v-7.4l1.8 1.8z"/><path class="f" d="m31.9 68.4h1.3v1.7h-1.3z"/><path class="e" d="m37.9 65.6h3.7v7.4h-3.7z"/><path class="e" d="m37.9 73l-1.9-1.9v-3.7l1.9-1.8z"/><path class="e" d="m43.4 71.1l-1.8 1.9v-7.4l1.8 1.8z"/><path class="f" d="m39.1 68.4h1.3v1.7h-1.3z"/><path class="e" d="m45.1 65.6h3.7v7.4h-3.7z"/><path class="e" d="m45.1 73l-1.9-1.9v-3.7l1.9-1.8z"/><path class="e" d="m50.6 71.1l-1.8 1.9v-7.4l1.8 1.8z"/><path class="f" d="m46.3 68.4h1.3v1.7h-1.3z"/><path class="e" d="m52.3 65.6h3.7v7.4h-3.7z"/><path class="e" d="m52.3 73l-1.9-1.9v-3.7l1.9-1.8z"/><path class="e" d="m57.8 71.1l-1.8 1.9v-7.4l1.8 1.8z"/><path class="f" d="m53.5 68.4h1.3v1.7h-1.3z"/><path class="e" d="m59.5 65.6h3.7v7.4h-3.7z"/><path class="e" d="m59.5 73l-1.9-1.9v-3.7l1.9-1.8z"/><path class="e" d="m65 71.1l-1.8 1.9v-7.4l1.8 1.8z"/><path class="f" d="m60.7 68.4h1.3v1.7h-1.3z"/><path class="e" d="m66.7 65.6h3.7v7.4h-3.7z"/><path class="e" d="m66.7 73l-1.9-1.9v-3.7l1.9-1.8z"/><path class="e" d="m72.2 71.1l-1.8 1.9v-7.4l1.8 1.8z"/><path class="f" d="m67.9 68.4h1.3v1.7h-1.3z"/><path class="e" d="m73.9 65.6h3.7v7.4h-3.7z"/><path class="e" d="m73.9 73l-1.9-1.9v-3.7l1.9-1.8z"/><path class="e" d="m79.4 71.1l-1.8 1.9v-7.4l1.8 1.8z"/><path class="f" d="m75.1 68.4h1.3v1.7h-1.3z"/><path class="e" d="m81.1 65.6h3.7v7.4h-3.7z"/><path class="e" d="m81.1 73l-1.9-1.9v-3.7l1.9-1.8z"/><path class="e" d="m86.6 71.1l-1.8 1.9v-7.4l1.8 1.8z"/><path class="f" d="m82.3 68.4h1.3v1.7h-1.3z"/><path class="e" d="m88.3 65.6h3.7v7.4h-3.7z"/><path class="e" d="m88.3 73l-1.9-1.9v-3.7l1.9-1.8z"/><path class="e" d="m93.8 71.1l-1.8 1.9v-7.4l1.8 1.8z"/><path class="f" d="m89.5 68.4h1.3v1.7h-1.3z"/><path class="e" d="m95.5 65.6h3.7v7.4h-3.7z"/><path class="e" d="m95.5 73l-1.9-1.9v-3.7l1.9-1.8z"/><path class="e" d="m101 71.1l-1.8 1.9v-7.4l1.8 1.8z"/><path class="f" d="m96.7 68.4h1.3v1.7h-1.3z"/><path class="e" d="m102.7 65.6h3.7v7.4h-3.7z"/><path class="e" d="m102.7 73l-1.9-1.9v-3.7l1.9-1.8z"/><path class="e" d="m108.2 71.1l-1.8 1.9v-7.4l1.8 1.8z"/><path class="f" d="m103.9 68.4h1.3v1.7h-1.3z"/><path class="e" d="m109.9 65.6h3.7v7.4h-3.7z"/><path class="e" d="m109.9 73l-1.9-1.9v-3.7l1.9-1.8z"/><path class="e" d="m115.4 71.1l-1.8 1.9v-7.4l1.8 1.8z"/><path class="f" d="m111.1 68.4h1.3v1.7h-1.3z"/><path class="e" d="m117.1 65.6h3.7v7.4h-3.7z"/><path class="e" d="m117.1 73l-1.9-1.9v-3.7l1.9-1.8z"/><path class="e" d="m122.6 71.1l-1.8 1.9v-7.4l1.8 1.8z"/><path class="f" d="m118.3 68.4h1.3v1.7h-1.3z"/><path class="e" d="m16 1h3.7v7.4h-3.7z"/><path class="e" d="m14.2 2.9l1.8-1.9v7.4l-1.8-1.8z"/><path class="e" d="m19.7 1l1.9 1.9v3.7l-1.9 1.8z"/><path class="f" d="m17.2 3.9h1.3v1.6h-1.3z"/><path class="e" d="m23.2 1h3.7v7.4h-3.7z"/><path class="e" d="m21.4 2.9l1.8-1.9v7.4l-1.8-1.8z"/><path class="e" d="m26.9 1l1.9 1.9v3.7l-1.9 1.8z"/><path class="f" d="m24.4 3.9h1.3v1.6h-1.3z"/><path class="e" d="m30.4 1h3.7v7.4h-3.7z"/><path class="e" d="m28.6 2.9l1.8-1.9v7.4l-1.8-1.8z"/><path class="e" d="m34.1 1l1.9 1.9v3.7l-1.9 1.8z"/><path class="f" d="m31.6 3.9h1.3v1.6h-1.3z"/><path class="e" d="m37.6 1h3.7v7.4h-3.7z"/><path class="e" d="m35.8 2.9l1.8-1.9v7.4l-1.8-1.8z"/><path class="e" d="m41.3 1l1.9 1.9v3.7l-1.9 1.8z"/><path class="f" d="m38.8 3.9h1.3v1.6h-1.3z"/><path class="e" d="m44.8 1h3.7v7.4h-3.7z"/><path class="e" d="m43 2.9l1.8-1.9v7.4l-1.8-1.8z"/><path class="e" d="m48.5 1l1.9 1.9v3.7l-1.9 1.8z"/><path class="f" d="m46 3.9h1.3v1.6h-1.3z"/><path class="e" d="m52 1h3.7v7.4h-3.7z"/><path class="e" d="m50.2 2.9l1.8-1.9v7.4l-1.8-1.8z"/><path class="e" d="m55.7 1l1.9 1.9v3.7l-1.9 1.8z"/><path class="f" d="m53.2 3.9h1.3v1.6h-1.3z"/><path class="e" d="m59.2 1h3.7v7.4h-3.7z"/><path class="e" d="m57.4 2.9l1.8-1.9v7.4l-1.8-1.8z"/><path class="e" d="m62.9 1l1.9 1.9v3.7l-1.9 1.8z"/><path class="f" d="m60.4 3.9h1.3v1.6h-1.3z"/><path class="e" d="m66.4 1h3.7v7.4h-3.7z"/><path class="e" d="m64.6 2.9l1.8-1.9v7.4l-1.8-1.8z"/><path class="e" d="m70.1 1l1.9 1.9v3.7l-1.9 1.8z"/><path class="f" d="m67.6 3.9h1.3v1.6h-1.3z"/><path class="e" d="m73.6 1h3.7v7.4h-3.7z"/><path class="e" d="m71.8 2.9l1.8-1.9v7.4l-1.8-1.8z"/><path class="e" d="m77.3 1l1.9 1.9v3.7l-1.9 1.8z"/><path class="f" d="m74.8 3.9h1.3v1.6h-1.3z"/><path class="e" d="m80.8 1h3.7v7.4h-3.7z"/><path class="e" d="m79 2.9l1.8-1.9v7.4l-1.8-1.8z"/><path class="e" d="m84.5 1l1.9 1.9v3.7l-1.9 1.8z"/><path class="f" d="m82 3.9h1.3v1.6h-1.3z"/><path class="e" d="m88 1h3.7v7.4h-3.7z"/><path class="e" d="m86.2 2.9l1.8-1.9v7.4l-1.8-1.8z"/><path class="e" d="m91.7 1l1.9 1.9v3.7l-1.9 1.8z"/><path class="f" d="m89.2 3.9h1.3v1.6h-1.3z"/><path class="e" d="m95.2 1h3.7v7.4h-3.7z"/><path class="e" d="m93.4 2.9l1.8-1.9v7.4l-1.8-1.8z"/><path class="e" d="m98.9 1l1.9 1.9v3.7l-1.9 1.8z"/><path class="f" d="m96.4 3.9h1.3v1.6h-1.3z"/><path class="e" d="m102.4 1h3.7v7.4h-3.7z"/><path class="e" d="m100.6 2.9l1.8-1.9v7.4l-1.8-1.8z"/><path class="e" d="m106.1 1l1.9 1.9v3.7l-1.9 1.8z"/><path class="f" d="m103.6 3.9h1.3v1.6h-1.3z"/><path class="e" d="m109.6 1h3.7v7.4h-3.7z"/><path class="e" d="m107.8 2.9l1.8-1.9v7.4l-1.8-1.8z"/><path class="e" d="m113.3 1l1.9 1.9v3.7l-1.9 1.8z"/><path class="f" d="m110.8 3.9h1.3v1.6h-1.3z"/><path class="e" d="m116.8 1h3.7v7.4h-3.7z"/><path class="e" d="m115 2.9l1.8-1.9v7.4l-1.8-1.8z"/><path class="e" d="m120.5 1l1.9 1.9v3.7l-1.9 1.8z"/><path class="f" d="m118 3.9h1.3v1.6h-1.3z"/><text style="transform:matrix(-1,0,0,-1,19.95,9.948)" ><tspan x="0" y="0" class="g">D23
</tspan></text><text style="transform:matrix(-1,0,0,-1,27.191,9.911)" ><tspan x="0" y="0" class="g">D22
</tspan></text><text style="transform:matrix(-1,0,0,-1,34.04,9.946)" ><tspan x="0" y="0" class="g">TX0
</tspan></text><text style="transform:matrix(-1,0,0,-1,41.793,9.946)" ><tspan x="0" y="0" class="g">RX0
</tspan></text><text style="transform:matrix(-1,0,0,-1,49.082,9.911)" ><tspan x="0" y="0" class="g">D21
</tspan></text><text style="transform:matrix(-1,0,0,-1,55.524,9.946)" ><tspan x="0" y="0" class="g">D19
</tspan></text><text style="transform:matrix(-1,0,0,-1,62.82,9.946)" ><tspan x="0" y="0" class="g">D18
</tspan></text><text style="transform:matrix(-1,0,0,-1,69.375,9.981)" ><tspan x="0" y="0" class="g">D5
</tspan></text><text style="transform:matrix(-1,0,0,-1,77.699,9.911)" ><tspan x="0" y="0" class="g">TX2
</tspan></text><text style="transform:matrix(-1,0,0,-1,85.453,9.913)" ><tspan x="0" y="0" class="g">RX2
</tspan></text><text style="transform:matrix(-1,0,0,-1,91.325,9.944)" ><tspan x="0" y="0" class="g">D4
</tspan></text><text style="transform:matrix(-1,0,0,-1,98.506,9.913)" ><tspan x="0" y="0" class="g">D2
</tspan></text><text style="transform:matrix(-1,0,0,-1,107.42,9.979)" ><tspan x="0" y="0" class="g">D15
</tspan></text><text style="transform:matrix(-1,0,0,-1,113.397,10.199)" ><tspan x="0" y="0" class="g">D0
</tspan></text><text style="transform:matrix(-1,0,0,-1,120.846,9.946)" ><tspan x="0" y="0" class="g">SD1
</tspan></text><path class="e" d="m124.3 1h3.7v7.4h-3.7z"/><path class="e" d="m124.3 1v7.4l-1.9-1.8v-3.7z"/><path class="e" d="m129.8 2.9v3.7l-1.8 1.8v-7.4z"/><path class="f" d="m125.5 3.9h1.3v1.6h-1.3z"/><path class="e" d="m131.7 1h3.7v7.4h-3.7z"/><path class="e" d="m131.7 1v7.4l-1.9-1.8v-3.7z"/><path class="e" d="m137.3 2.9v3.7l-1.9 1.8v-7.4z"/><path class="f" d="m132.9 3.9h1.3v1.6h-1.3z"/><path class="e" d="m139.1 1h3.7v7.4h-3.7z"/><path class="e" d="m139.1 1v7.4l-1.8-1.8v-3.7z"/><path class="e" d="m144.7 2.9v3.7l-1.9 1.8v-7.4z"/><path class="f" d="m140.3 3.9h1.3v1.6h-1.3z"/><text style="transform:matrix(-1,0,0,-1,128.272,61.692)" ><tspan x="0" y="0" class="g">CMD
</tspan></text><text style="transform:matrix(-1,0,0,-1,114.481,61.942)" ><tspan x="0" y="0" class="g">SD2
</tspan></text><text style="transform:matrix(-1,0,0,-1,107.332,61.942)" ><tspan x="0" y="0" class="g">D13
</tspan></text><text style="transform:matrix(-1,0,0,-1,99.1,61.942)" ><tspan x="0" y="0" class="g">D12
</tspan></text><text style="transform:matrix(-1,0,0,-1,93.035,61.942)" ><tspan x="0" y="0" class="g">D14
</tspan></text><text style="transform:matrix(-1,0,0,-1,85.887,61.942)" ><tspan x="0" y="0" class="g">D27
</tspan></text><text style="transform:matrix(-1,0,0,-1,78.738,61.942)" ><tspan x="0" y="0" class="g">D26
</tspan></text><text style="transform:matrix(-1,0,0,-1,71.59,61.942)" ><tspan x="0" y="0" class="g">D25
</tspan></text><text style="transform:matrix(-1,0,0,-1,64.44,61.942)" ><tspan x="0" y="0" class="g">D33
</tspan></text><text style="transform:matrix(-1,0,0,-1,57.291,61.942)" ><tspan x="0" y="0" class="g">D32
</tspan></text><text style="transform:matrix(-1,0,0,-1,50.143,61.942)" ><tspan x="0" y="0" class="g">D35
</tspan></text><text style="transform:matrix(-1,0,0,-1,42.994,61.942)" ><tspan x="0" y="0" class="g">D34
</tspan></text><text style="transform:matrix(-1,0,0,-1,35.846,61.942)" ><tspan x="0" y="0" class="g">VN
</tspan></text><text style="transform:matrix(-1,0,0,-1,28.697,61.942)" ><tspan x="0" y="0" class="g">VP
</tspan></text><text style="transform:matrix(-1,0,0,-1,20.465,61.942)" ><tspan x="0" y="0" class="g">EN
</tspan></text><path class="h" d="m151.1 26.1h17.4v21.8h-17.4z"/><path class="h" d="m151 14.6h7.8v8h-7.8z"/><path class="i" d="m154.9 21.4c-1.5 0-2.8-1.2-2.8-2.7 0-1.5 1.3-2.8 2.8-2.8 1.5 0 2.7 1.3 2.7 2.8 0 1.5-1.2 2.7-2.7 2.7z"/><path class="h" d="m151 51.4h7.8v8h-7.8z"/><path class="i" d="m154.9 58.2c-1.5 0-2.8-1.2-2.8-2.7 0-1.5 1.3-2.8 2.8-2.8 1.5 0 2.7 1.3 2.7 2.8 0 1.5-1.2 2.7-2.7 2.7z"/><text style="transform:matrix(-1,0,0,-1,158.867,23.149)" ><tspan x="0" y="0" class="g">BOOT
</tspan></text><text style="transform:matrix(-1,0,0,-1,157.291,48.892)" ><tspan x="0" y="0" class="g">EN
</tspan></text><path class="j" d="m0.3 13.9h63.5v45h-63.5z"/><path class="k" d="m1.8 19.5h1.2v11.4h-1.2z"/><path class="k" d="m1.9 29.8h10.6v1.1h-10.6z"/><path class="k" d="m1.9 33.4h10.6v1.1h-10.6z"/><path class="k" d="m1.9 37.1h10.6v1.1h-10.6z"/><path class="k" d="m1.9 40.7h10.6v1.2h-10.6z"/><path class="k" d="m1.9 44.4h10.6v1.1h-10.6z"/><path class="k" d="m1.9 48h10.6v1.2h-10.6z"/><path class="k" d="m11.3 29.8h1.2v4.7h-1.2z"/><path class="k" d="m1.9 34.2h1.3v4h-1.3z"/><path class="k" d="m11.3 37.1h1.2v4.8h-1.2z"/><path class="k" d="m1.9 40.7h1.3v4.8h-1.3z"/><path class="k" d="m11.3 44.4h1.2v4.8h-1.2z"/><path class="k" d="m2 48h1.3v5.7h-1.3z"/><path class="k" d="m2.4 52.6h17.9v1.1h-17.9z"/><path class="k" d="m15.4 30.3h1.2v23.4h-1.2z"/><path fill-rule="evenodd" class="l" d="m63.8 24.4h-4.4v-3.6h4.4v0.7c-0.6 0-1.1 0.5-1.1 1.1 0 0.6 0.5 1.1 1.1 1.1zm-2.6-0.7c0.6 0 1.1-0.5 1.1-1.1 0-0.6-0.5-1.1-1.1-1.1-0.6 0-1.1 0.5-1.1 1.1 0 0.6 0.5 1.1 1.1 1.1z"/><path fill-rule="evenodd" class="l" d="m63.8 30.1h-4.4v-3.5h4.4v0.6c-0.6 0-1.1 0.5-1.1 1.1 0 0.6 0.5 1.1 1.1 1.1zm-2.6-0.7c0.6 0 1.1-0.4 1.1-1.1 0-0.6-0.5-1-1.1-1-0.6 0-1.1 0.4-1.1 1 0 0.7 0.5 1.1 1.1 1.1z"/><path fill-rule="evenodd" class="l" d="m63.8 35.8h-4.4v-3.5h4.4v0.6c-0.6 0-1.1 0.5-1.1 1.1 0 0.6 0.5 1.1 1.1 1.1zm-2.6-0.6c0.6 0 1.1-0.5 1.1-1.1 0-0.6-0.5-1.1-1.1-1.1-0.6 0-1.1 0.5-1.1 1.1 0 0.6 0.5 1.1 1.1 1.1z"/><path fill-rule="evenodd" class="l" d="m63.8 41.5h-4.4v-3.5h4.4v0.7c-0.6 0-1.1 0.5-1.1 1.1 0 0.6 0.5 1 1.1 1.1zm-2.6-0.7c0.6 0 1.1-0.5 1.1-1.1 0-0.6-0.5-1.1-1.1-1.1-0.6 0-1.1 0.5-1.1 1.1 0 0.6 0.5 1.1 1.1 1.1z"/><path fill-rule="evenodd" class="l" d="m63.8 47.2h-4.4v-3.5h4.4v0.7c-0.6 0-1.1 0.5-1.1 1.1 0 0.6 0.5 1.1 1.1 1.1zm-2.6-0.7c0.6 0 1.1-0.5 1.1-1.1 0-0.6-0.5-1.1-1.1-1.1-0.6 0-1.1 0.5-1.1 1.1 0 0.6 0.5 1.1 1.1 1.1z"/><path fill-rule="evenodd" class="l" d="m63.8 53h-4.4v-3.6h4.4v0.7c-0.6 0-1.1 0.5-1.1 1.1 0 0.6 0.5 1.1 1.1 1.1zm-2.6-0.7c0.6 0 1.1-0.5 1.1-1.1 0-0.6-0.5-1.1-1.1-1.1-0.6 0-1.1 0.5-1.1 1.1 0 0.6 0.5 1.1 1.1 1.1z"/><path class="k" d="m20.1 19.4h41.6v34.5h-41.6z"/><path class="c" d="m23.8 32.4h13.9v6h-13.9z"/><path class="c" d="m23 77c-1 0-1.7-0.7-1.7-1.7 0-1 0.7-1.7 1.7-1.7 1 0 1.7 0.7 1.7 1.7 0 1-0.7 1.7-1.7 1.7z"/><path class="m" d="m46.9 29.7c-1.9 2-5.2 2-7.1 0-2.5-2.5-1.7-5.2-0.1-7.1l0.5 0.3c-2.6 2.6-1.1 5.5 0 6.5 1.5 1.4 4 2.1 6.3 0z"/><path class="m" d="m40.6 28q0.3 0 0.5 0.2 0.2 0.3 0.2 0.6 0 0.3-0.2 0.5-0.2 0.2-0.5 0.3-0.3-0.1-0.6-0.3-0.2-0.2-0.2-0.5 0-0.3 0.2-0.6 0.3-0.2 0.6-0.2z"/><path class="m" d="m41.7 29.9c0.5-1.8-0.1-2.8-2.1-2.2-0.9-0.9-0.8-2.1-0.1-3.5 1.9-0.3 3.2 0.2 4.3 1.2 1.2 1.3 1.6 2.8 1.4 4.5-0.5 0.4-1 0.4-1.4 0.1 0.3-1.4-0.1-2.6-0.9-3.5-1-0.9-2.2-1.1-3.4-0.8-0.1 0.2-0.1 0.4 0 0.6 1.1-0.5 2-0.1 3 0.4 1 0.9 1.1 2.2 0.6 3.7-0.7-0.1-1.1-0.3-1.4-0.5z"/><path class="m" d="m40.5 23.7c-0.3-0.9 0.1-1.2 0.8-1.4 4.2 0.8 5.2 3.2 5.8 5.8-0.2 0.8-0.7 1-1.3 0.9-0.7-4.3-2.9-5.1-5.3-5.3z"/><path class="m" d="m47.3 26.6c-0.9-2.1-2-3.8-4.4-4.4-0.2-0.1-0.2-0.3 0.2-0.3 3.1 0.1 4.5 1.7 4.5 4.5-0.1 0.3-0.2 0.2-0.3 0.2z"/><path class="j" d="m72.6 18.6h4.1v2.1h-4.1z"/><path class="n" d="m72.6 18.6h1.1v2.1h-1.1z"/><path class="n" d="m75.7 18.6h1v2.1h-1z"/><path class="j" d="m72.6 22.4h4.1v2.1h-4.1z"/><path class="n" d="m72.6 22.4h1.1v2.1h-1.1z"/><path class="n" d="m75.7 22.4h1v2.1h-1z"/><path class="j" d="m72.6 26.3h4.1v2.1h-4.1z"/><path class="n" d="m72.6 26.3h1.1v2.1h-1.1z"/><path class="n" d="m75.7 26.3h1v2.1h-1z"/><path class="j" d="m72.6 34h4.1v2h-4.1z"/><path class="n" d="m72.6 34h1.1v2h-1.1z"/><path class="n" d="m75.7 34h1v2h-1z"/><path class="j" d="m72.6 41.6h4.1v2.1h-4.1z"/><path class="n" d="m72.6 41.6h1.1v2.1h-1.1z"/><path class="n" d="m75.7 41.6h1v2.1h-1z"/><path class="j" d="m72.6 49.3h4.1v2.1h-4.1z"/><path class="n" d="m72.6 49.3h1.1v2.1h-1.1z"/><path class="n" d="m75.7 49.3h1v2.1h-1z"/><path class="j" d="m72.6 30.1h4.1v2.1h-4.1z"/><path class="n" d="m72.6 30.1h1.1v2.1h-1.1z"/><path class="n" d="m75.7 30.1h1v2.1h-1z"/><path class="j" d="m72.6 37.8h4.1v2.1h-4.1z"/><path class="n" d="m72.6 37.8h1.1v2.1h-1.1z"/><path class="n" d="m75.7 37.8h1v2.1h-1z"/><path class="j" d="m72.6 45.5h4.1v2.1h-4.1z"/><path class="n" d="m72.6 45.5h1.1v2.1h-1.1z"/><path class="n" d="m75.7 45.5h1v2.1h-1z"/><path class="j" d="m72.6 14.8h4.1v2.1h-4.1z"/><path class="n" d="m72.6 14.8h1.1v2.1h-1.1z"/><path class="n" d="m75.7 14.8h1v2.1h-1z"/><path class="j" d="m72.6 53.2h4.1v2h-4.1z"/><path class="n" d="m72.6 53.2h1.1v2h-1.1z"/><path class="n" d="m75.7 53.2h1v2h-1z"/><path class="n" d="m137.3 44.8h-2.1v-4h2.1z"/><path class="n" d="m133.2 44.8h-2.1v-4h2.1z"/><path class="n" d="m129.1 44.8h-2.1v-4h2.1z"/><path class="n" d="m135.3 55.7h-6.3v-3.9h6.3z"/><path class="o" d="m138.1 51.4h-11.9v-6.3h11.9z"/><path class="p" d="m126.6 50.9h11.1l0.4 0.5h-11.9z"/><path class="p" d="m126.2 45.1h11.9l-0.4 0.5h-11.1z"/><path  d="m138.1 45.1v6.3l-0.4-0.5v-5.3z"/><path class="q" d="m126.6 45.6v5.3l-0.4 0.5v-6.3z"/><path class="p" d="m136.8 46c0.2 0 0.4 0.3 0.4 0.5 0 0.2-0.2 0.4-0.4 0.4-0.3 0-0.5-0.2-0.5-0.4 0-0.2 0.2-0.5 0.5-0.5z"/><path class="n" d="m124.1 13.8h1v2.4h-1z"/><path class="n" d="m125.9 13.8h1v2.4h-1z"/><path class="n" d="m127.5 13.8h1v2.4h-1z"/><path class="n" d="m129.1 13.8h1.1v2.4h-1.1z"/><path class="n" d="m131 13.8h1v2.4h-1z"/><path class="n" d="m132.6 13.8h1v2.4h-1z"/><path class="n" d="m134.2 13.8h1v2.4h-1z"/><path class="n" d="m136.1 13.8h1v2.4h-1z"/><path class="n" d="m124.1 29.1h1v2.4h-1z"/><path class="n" d="m125.9 29.1h1v2.4h-1z"/><path class="n" d="m127.5 29.1h1v2.4h-1z"/><path class="n" d="m129.2 29.1h1v2.4h-1z"/><path class="n" d="m131 29.1h1v2.4h-1z"/><path class="n" d="m132.6 29.1h1v2.4h-1z"/><path class="n" d="m134.2 29.1h1v2.4h-1z"/><path class="n" d="m136.1 29.1h1.1v2.4h-1.1z"/><path class="n" d="m124.3 15.9v1h-2.4v-1z"/><path class="n" d="m124.3 17.7v1h-2.4v-1z"/><path class="n" d="m124.3 19.3v1h-2.4v-1z"/><path class="n" d="m124.3 21v1h-2.4v-1z"/><path class="n" d="m124.2 22.7v1h-2.3v-1z"/><path class="n" d="m124.3 24.4v1h-2.4v-1z"/><path class="n" d="m124.3 26.1v1h-2.4v-1z"/><path class="n" d="m124.3 28v1h-2.4v-1z"/><path class="n" d="m139.3 16.1v1h-2.3v-1z"/><path class="n" d="m139.3 17.9v1h-2.3v-1z"/><path class="n" d="m139.3 19.5v1h-2.3v-1z"/><path class="n" d="m139.3 21.2v1h-2.3v-1z"/><path class="n" d="m139.3 23v1h-2.3v-1z"/><path class="n" d="m139.3 24.6v1h-2.3v-1z"/><path class="n" d="m139.3 26.2v1h-2.3v-1z"/><path class="n" d="m139.3 28.1v1.1h-2.3v-1.1z"/><path class="j" d="m123.2 15.1h15v15.2h-15z"/><path class="n" d="m135.3 24h0.1v0.8h-0.1z"/><path class="m" d="m20.7 50.6v-19.5h8.7v19.5z"/><path class="r" d="m27.1 48.8c-0.1 0-4.2 1-4.3 1 0 0 0-0.2 0-0.6 0-0.4 0-0.6 0-0.6 0.1 0 2.3-0.4 2.4-0.4q0.1 0 0 0c-0.1 0-0.6-0.2-1.3-0.3l-1.1-0.2v-0.6-0.5l1.2-0.2c0.6-0.2 1.2-0.3 1.2-0.3 0 0 0 0-1.3-0.2l-1.1-0.2v-0.6c0-0.3 0-0.5 0.1-0.5 0 0 4.1 0.9 4.2 0.9 0 0.1 0 0.1 0 0.6 0 0.5 0 0.6 0 0.6-0.1 0-0.6 0.1-1.3 0.2-0.6 0.1-1.1 0.2-1.2 0.3 0 0 0.1 0 1.3 0.2l1.2 0.3v0.5c0 0.4 0 0.6 0 0.6z"/><path class="r" d="m25.6 43.9h-1.6v-0.5-0.5h1.6 1.5v0.5 0.5z"/><path class="r" d="m23.6 43.6c0 0.1-0.1 0.2-0.2 0.3-0.2 0.2-0.5 0.2-0.7-0.1-0.1-0.1-0.1-0.2-0.1-0.4 0-0.8 1-0.9 1 0 0 0 0 0.2 0 0.2z"/><path fill-rule="evenodd" class="r" d="m28.5 42.1c-0.4-0.4-0.9-0.7-1.4-0.9-0.3-0.1-0.3-0.1-1.9-0.1-1.8 0-1.8 0-2.2-0.2-0.3-0.1-0.7-0.4-0.9-0.7q-0.4-0.4-0.6-0.9l-0.1-0.3v-2.2c0-2.6 0-2.5 0.3-3 0.3-0.7 1-1.3 1.7-1.4 0.3-0.1 3.1-0.1 3.5 0 0.6 0.1 1.2 0.6 1.6 1.3 0.3 0.5 0.3 0.2 0.3 4.7v4c0 0-0.3-0.3-0.3-0.3zm-4.5-8.1v1.1h3.2v-1.1zm2.5 4.4h-0.7v-2.3h-1v2.3h-1v-2.6h-1v3.9l0.6-0.1c0.3 0 1.3 0 2.2 0h1.5v-1.2zm-2.8-4.1c-0.1-0.4-0.6-0.6-0.9-0.3-0.3 0.3-0.3 0.8 0 1.1 0.3 0.2 0.5 0.2 0.7 0 0.2-0.2 0.3-0.5 0.2-0.8z"/><path class="c" d="m102.6 69.7h17.3v7.5h-17.3z"/><path fill-rule="evenodd" class="l" d="m61.9 14.2v4.4h-3.6v-4.4h0.7c0 0.6 0.5 1.1 1.1 1.1 0.6 0 1.1-0.5 1.1-1.1zm-0.7 2.6c0-0.6-0.5-1.1-1.1-1.1-0.6 0-1.1 0.5-1.1 1.1 0 0.6 0.5 1.1 1.1 1.1 0.6 0 1.1-0.5 1.1-1.1z"/><path fill-rule="evenodd" class="l" d="m23.8 14.2v4.4h-3.6v-4.4h0.7c0 0.6 0.5 1.1 1.1 1.1 0.6 0 1.1-0.5 1.1-1.1zm-0.7 2.6c0-0.6-0.5-1.1-1.1-1.1-0.6 0-1.1 0.5-1.1 1.1 0 0.6 0.5 1.1 1.1 1.1 0.6 0 1.1-0.5 1.1-1.1z"/><path fill-rule="evenodd" class="l" d="m51 14.2v4.4h-3.6v-4.4h0.7c0 0.6 0.5 1.1 1.1 1.1 0.6 0 1.1-0.5 1.1-1.1zm-0.7 2.6c0-0.6-0.5-1.1-1.1-1.1-0.6 0-1.1 0.5-1.1 1.1 0 0.6 0.5 1.1 1.1 1.1 0.6 0 1.1-0.5 1.1-1.1z"/><path fill-rule="evenodd" class="l" d="m56.4 14.2v4.4h-3.5v-4.4h0.7c0 0.6 0.5 1.1 1.1 1.1 0.6 0 1.1-0.5 1.1-1.1zm-0.7 2.6c0-0.6-0.5-1.1-1.1-1.1-0.6 0-1.1 0.5-1.1 1.1 0 0.6 0.5 1.1 1.1 1.1 0.6 0 1.1-0.5 1.1-1.1z"/><path fill-rule="evenodd" class="l" d="m45.5 14.2v4.4h-3.5v-4.4h0.7c0 0.6 0.5 1.1 1.1 1.1 0.6 0 1.1-0.5 1.1-1.1zm-0.7 2.6c0-0.6-0.5-1.1-1.1-1.1-0.6 0-1.1 0.5-1.1 1.1 0 0.6 0.5 1.1 1.1 1.1 0.6 0 1.1-0.5 1.1-1.1z"/><path fill-rule="evenodd" class="l" d="m40.1 14.2v4.4h-3.5v-4.4h0.6c0 0.6 0.5 1.1 1.1 1.1 0.6 0 1.1-0.5 1.1-1.1zm-0.7 2.6c0-0.6-0.4-1.1-1-1.1-0.6 0-1.1 0.5-1.1 1.1 0 0.6 0.5 1.1 1.1 1.1 0.6 0 1-0.5 1-1.1z"/><path fill-rule="evenodd" class="l" d="m34.7 14.2v4.4h-3.6v-4.4h0.7c0 0.6 0.5 1.1 1.1 1.1 0.6 0 1.1-0.5 1.1-1.1zm-0.7 2.6c0-0.6-0.5-1.1-1.1-1.1-0.6 0-1.1 0.5-1.1 1.1 0 0.6 0.5 1.1 1.1 1.1 0.6 0 1.1-0.5 1.1-1.1z"/><path fill-rule="evenodd" class="l" d="m29.2 14.2v4.4h-3.5v-4.4h0.6c0.1 0.6 0.5 1.1 1.1 1.1 0.6 0 1.1-0.5 1.1-1.1zm-0.6 2.6c0-0.6-0.5-1.1-1.1-1.1-0.6 0-1.1 0.5-1.1 1.1 0 0.6 0.5 1.1 1.1 1.1 0.6 0 1.1-0.5 1.1-1.1z"/><path fill-rule="evenodd" class="l" d="m58.2 58.9v-4.4h3.5v4.4h-0.7c0-0.6-0.5-1.1-1.1-1.1-0.6 0-1.1 0.5-1.1 1.1zm0.7-2.6c0 0.6 0.5 1.1 1.1 1.1 0.6 0 1.1-0.5 1.1-1.1 0-0.6-0.5-1.1-1.1-1.1-0.6 0-1.1 0.5-1.1 1.1z"/><path fill-rule="evenodd" class="l" d="m20.1 58.9v-4.4h3.5v4.4h-0.7c0-0.6-0.5-1.1-1.1-1.1-0.6 0-1.1 0.5-1.1 1.1zm0.7-2.6c0 0.6 0.5 1.1 1.1 1.1 0.6 0 1.1-0.5 1.1-1.1 0-0.6-0.5-1.1-1.1-1.1-0.6 0-1.1 0.5-1.1 1.1z"/><path fill-rule="evenodd" class="l" d="m47.3 58.9v-4.4h3.5v4.4h-0.7c0-0.6-0.4-1.1-1.1-1.1-0.6 0-1 0.5-1 1.1zm0.6-2.6c0 0.6 0.5 1.1 1.1 1.1 0.6 0 1.1-0.5 1.1-1.1 0-0.6-0.5-1.1-1.1-1.1-0.6 0-1.1 0.5-1.1 1.1z"/><path fill-rule="evenodd" class="l" d="m52.7 58.9v-4.4h3.6v4.4h-0.7c0-0.6-0.5-1.1-1.1-1.1-0.6 0-1.1 0.5-1.1 1.1zm0.7-2.6c0 0.6 0.5 1.1 1.1 1.1 0.6 0 1.1-0.5 1.1-1.1 0-0.6-0.5-1.1-1.1-1.1-0.6 0-1.1 0.5-1.1 1.1z"/><path fill-rule="evenodd" class="l" d="m41.8 58.9v-4.4h3.6v4.4h-0.7c0-0.6-0.5-1.1-1.1-1.1-0.6 0-1.1 0.5-1.1 1.1zm0.7-2.6c0 0.6 0.5 1.1 1.1 1.1 0.6 0 1.1-0.5 1.1-1.1 0-0.6-0.5-1.1-1.1-1.1-0.6 0-1.1 0.5-1.1 1.1z"/><path fill-rule="evenodd" class="l" d="m36.4 58.9v-4.4h3.5v4.4h-0.6c0-0.6-0.5-1.1-1.1-1.1-0.6 0-1.1 0.5-1.1 1.1zm0.6-2.6c0 0.6 0.5 1.1 1.1 1.1 0.6 0 1.1-0.5 1.1-1.1 0-0.6-0.5-1.1-1.1-1.1-0.6 0-1.1 0.5-1.1 1.1z"/><path fill-rule="evenodd" class="l" d="m30.9 58.9v-4.4h3.6v4.4h-0.7c0-0.6-0.5-1.1-1.1-1.1-0.6 0-1.1 0.5-1.1 1.1zm0.7-2.6c0 0.6 0.5 1.1 1.1 1.1 0.6 0 1.1-0.5 1.1-1.1 0-0.6-0.5-1.1-1.1-1.1-0.6 0-1.1 0.5-1.1 1.1z"/><path fill-rule="evenodd" class="l" d="m25.5 58.9v-4.4h3.5v4.4h-0.6c0-0.6-0.5-1.1-1.1-1.1-0.6 0-1.1 0.5-1.1 1.1zm0.7-2.6c0 0.6 0.4 1.1 1.1 1.1 0.6 0 1-0.5 1-1.1 0-0.6-0.4-1.1-1-1.1-0.7 0-1.1 0.5-1.1 1.1z"/><text style="transform:matrix(0,-1,1,0,35.211,52.851)" ><tspan x="0" y="0" class="s">ESP-WROOM-32
</tspan></text><text style="transform:matrix(0,-1,1,0,131.828,28.603)" ><tspan x="0" y="0" class="t">CP2102
</tspan></text><text style="transform:matrix(0,-1,1,0,88.424,60.323)" ><tspan x="0" y="0" class="u">RandomNerdTutorials.com
</tspan></text><path class="e" d="m124.5 65.6h3.7v7.4h-3.7z"/><path class="e" d="m122.6 71.1v-3.7l1.9-1.8v7.4z"/><path class="e" d="m128.2 73v-7.4l1.9 1.8v3.7z"/><path class="f" d="m125.7 68.4h1.3v1.7h-1.3z"/><path class="e" d="m131.9 65.6h3.7v7.4h-3.7z"/><path class="e" d="m130.1 71.1v-3.7l1.8-1.8v7.4z"/><path class="e" d="m135.6 73v-7.4l1.9 1.8v3.7z"/><path class="f" d="m133.1 68.4h1.3v1.7h-1.3z"/><text style="transform:matrix(-1,0,0,-1,136.086,61.635)" ><tspan x="0" y="0" class="v">GND
</tspan></text><path class="e" d="m139.4 65.6h3.7v7.4h-3.7z"/><path class="e" d="m137.5 71.1v-3.7l1.9-1.8v7.4z"/><path class="e" d="m143.1 73v-7.4l1.8 1.8v3.7z"/><path class="f" d="m140.5 68.4h1.4v1.7h-1.4z"/><text style="transform:matrix(-1,0,0,-1,143.042,61.692)" ><tspan x="0" y="0" class="v">Vin
</tspan></text><text style="transform:matrix(-1,0,0,-1,127.597,10.191)" ><tspan x="0" y="0" class="v">SD0
</tspan></text><text style="transform:matrix(-1,0,0,-1,135.368,10.191)" ><tspan x="0" y="0" class="v">CLK
</tspan></text><text style="transform:matrix(-1,0,0,-1,142.762,9.94)" ><tspan x="0" y="0" class="v">3V3
</tspan></text><text style="transform:matrix(-1,0,0,-1,120.99,61.617)" ><tspan x="0" y="0" class="g">SD3
</tspan></text></svg>