<?xml version='1.0' encoding='UTF-8' standalone='no'?>
<!-- Created with Fritzing (http://www.fritzing.org/) -->
<svg xmlns="http://www.w3.org/2000/svg" x="0in" y="0in" viewBox="0 0 141.84 75.6" baseProfile="tiny" width="1.97in" version="1.2"  height="1.05in">
    <desc >
        <referenceFile >Adafruit 7-segment LED Backpack_pcb.svg</referenceFile>
    </desc>
    <desc >Fritzing footprint generated by brd2svg</desc>
    <g id="silkscreen" gorn="0.2" >
        <path fill="none" stroke="white"  d="M7.45877,75.312A6.912,6.912,0,0,1,0.288,68.1669L0.288,7.43314A6.912,6.912,0,0,1,7.45877,0.288L134.382,0.288A6.912,6.912,0,0,1,141.552,7.43314L141.552,68.1669A6.912,6.912,0,0,1,134.382,75.312L7.45877,75.312M130.293,70.2a2.54665,2.54665,0,1,0,5.09329,0,2.54665,2.54665,0,1,0,-5.09329,0zM6.45335,70.2a2.54665,2.54665,0,1,0,5.09329,0,2.54665,2.54665,0,1,0,-5.09329,0zM130.293,5.4a2.54665,2.54665,0,1,0,5.09329,0,2.54665,2.54665,0,1,0,-5.09329,0zM6.45335,5.4a2.54665,2.54665,0,1,0,5.09329,0,2.54665,2.54665,0,1,0,-5.09329,0z" stroke-width="0.576"/>
        <g >
            <title >element:LED2</title>
            <g >
                <title >package:SEGMENT-BL-Q56C43</title>
                <line y1="10.8708" stroke-linecap="round" y2="10.8708" x1="0.0538582" stroke="white" x2="141.786"  stroke-width="0.36"/>
                <line y1="64.7292" stroke-linecap="round" y2="10.8708" x1="0.0538582" stroke="white" x2="0.0538582"  stroke-width="0.36"/>
                <line y1="10.8708" stroke-linecap="round" y2="64.7292" x1="141.786" stroke="white" x2="141.786"  stroke-width="0.36"/>
                <line y1="64.7292" stroke-linecap="round" y2="64.7292" x1="141.786" stroke="white" x2="0.0538582"  stroke-width="0.36"/>
                <circle fill="none" cx="42.12" cy="59.4" r="1.8" stroke="white"  stroke-width="3.6"/>
            </g>
        </g>
        <g >
            <title >element:U$3</title>
            <g >
                <title >package:ADAFRUIT_TEXT_20MM</title>
            </g>
        </g>
        <g >
            <title >element:U2</title>
            <g >
                <title >package:SOP28_300MIL</title>
            </g>
        </g>
    </g>
    <g id="copper1" gorn="0.3" >
        <g id="copper0" gorn="0.3.0" >
            <circle fill="none" connectorname="SDA" id="connector6pad" cx="73.8" cy="5.4" r="1.98" gorn="0.3.0.0" stroke="#F7BD13"  stroke-width="1.08"/>
            <circle fill="none" connectorname="GND" id="connector7pad" cx="66.6" cy="5.4" r="1.98" gorn="0.3.0.1" stroke="#F7BD13"  stroke-width="1.08"/>
            <circle fill="none" connectorname="VDD" id="connector8pad" cx="59.4" cy="5.4" r="1.98" gorn="0.3.0.2" stroke="#F7BD13"  stroke-width="1.08"/>
            <circle fill="none" connectorname="SCL" id="connector5pad" cx="81" cy="5.4" r="1.98" gorn="0.3.0.3" stroke="#F7BD13"  stroke-width="1.08"/>
        </g>
    </g>
</svg>
