<?xml version='1.0' encoding='UTF-8' standalone='no'?>
<!-- Created with Fritzing (http://www.fritzing.org/) -->
<svg xmlns="http://www.w3.org/2000/svg" width="1.6in" version="1.2" baseProfile="tiny"  x="0in" height="1.26in" y="0in" viewBox="0 0 115.2 90.72">
    <desc >
        <referenceFile >Adafruit 1.2 Inch 8x8 LED Matrix Backpack_pcb.svg</referenceFile>
    </desc>
    <desc >Fritzing footprint generated by brd2svg</desc>
    <g gorn="0.2"  id="silkscreen">
        <path stroke-width="0.576" stroke="white" d="M114.912,83.2774A6.91228,6.91228,0,0,1,107.748,90.432L7.452,90.432A6.91228,6.91228,0,0,1,0.288,83.2774L0.288,7.44228A6.91228,6.91228,0,0,1,7.452,0.288L107.748,0.288A6.912,6.912,0,0,1,114.912,7.44228L114.912,83.2774M107.253,5.76a2.54665,2.54665,0,1,0,5.09329,0,2.54665,2.54665,0,1,0,-5.09329,0zM107.253,84.96a2.54665,2.54665,0,1,0,5.09329,0,2.54665,2.54665,0,1,0,-5.09329,0zM2.85335,5.76a2.54665,2.54665,0,1,0,5.09329,0,2.54665,2.54665,0,1,0,-5.09329,0zM2.85335,84.96a2.54665,2.54665,0,1,0,5.09329,0,2.54665,2.54665,0,1,0,-5.09329,0z"  fill="none"/>
        <g >
            <title >element:LED1</title>
            <g >
                <title >package:SEGMENT_BL-M12A881UR</title>
                <line y1="0.00566928" y2="0.00566928" stroke-width="0.576" x1="12.2457" x2="102.954" stroke="white" stroke-linecap="round" />
                <line y1="0.00566928" y2="90.7142" stroke-width="0.576" x1="102.954" x2="102.954" stroke="white" stroke-linecap="round" />
                <line y1="90.7142" y2="90.7142" stroke-width="0.576" x1="102.954" x2="12.2457" stroke="white" stroke-linecap="round" />
                <line y1="90.7142" y2="0.00566928" stroke-width="0.576" x1="12.2457" x2="12.2457" stroke="white" stroke-linecap="round" />
            </g>
        </g>
        <g >
            <title >element:U2</title>
            <g >
                <title >package:SOP28_300MIL</title>
            </g>
        </g>
    </g>
    <g gorn="0.3"  id="copper1">
        <g gorn="0.3.0"  id="copper0">
            <circle cx="5.4" stroke-width="1.08" cy="41.76" r="1.98" gorn="0.3.0.0" stroke="#F7BD13" connectorname="SDA"  fill="none" id="connector6pad"/>
            <circle cx="5.4" stroke-width="1.08" cy="48.96" r="1.98" gorn="0.3.0.1" stroke="#F7BD13" connectorname="GND"  fill="none" id="connector7pad"/>
            <circle cx="5.4" stroke-width="1.08" cy="56.16" r="1.98" gorn="0.3.0.2" stroke="#F7BD13" connectorname="VDD"  fill="none" id="connector8pad"/>
            <circle cx="5.4" stroke-width="1.08" cy="34.56" r="1.98" gorn="0.3.0.3" stroke="#F7BD13" connectorname="SCL"  fill="none" id="connector5pad"/>
        </g>
    </g>
</svg>
