<?xml version='1.0' encoding='UTF-8' standalone='no'?>
<!-- Created with Fritzing (http://www.fritzing.org/) -->
<svg xmlns="http://www.w3.org/2000/svg" x="0in" viewBox="0 0 157.076 64.8" height="0.9in" baseProfile="tiny" width="2.18161in"  version="1.2" y="0in">
    <desc>
        <referenceFile>ESP32 Feather V2 rev E_pcb.svg</referenceFile>
    </desc>
    <desc >Fritzing footprint generated by brd2svg</desc>
    <g gorn="0.1"  id="silkscreen">
        <path d="M10.6897,64.512A6.912,6.912,0,0,1,3.51612,57.376L3.51612,39.536L4.95084,38.1088L4.95084,26.6912L3.51612,25.264L3.51612,7.42399A6.912,6.912,0,0,1,10.6897,0.288L139.815,0.288A6.912,6.912,0,0,1,146.988,7.42399L146.988,57.376A6.912,6.912,0,0,1,139.815,64.512L10.6897,64.512M17.1683,40.5922a0.63326,0.63326,0,1,0,1.26652,0,0.63326,0.63326,0,1,0,-1.26652,0zM17.1683,24.2078a0.63326,0.63326,0,1,0,1.26652,0,0.63326,0.63326,0,1,0,-1.26652,0zM137.21,59.58a2.83011,2.83011,0,1,0,5.66022,0,2.83011,2.83011,0,1,0,-5.66022,0zM137.21,5.4a2.83011,2.83011,0,1,0,5.66022,0,2.83011,2.83011,0,1,0,-5.66022,0z"  fill="none" stroke="white" stroke-width="0.576"/>
        <g >
            <title >element:JP1</title>
            <g >
                <title >package:1X16_ROUND</title>
            </g>
        </g>
        <g >
            <title >element:JP3</title>
            <g >
                <title >package:1X12_ROUND</title>
            </g>
        </g>
        <g >
            <title >element:U$9</title>
            <g >
                <title >package:FEATHERLOGO_MED</title>
            </g>
        </g>
        <g >
            <title >element:U$43</title>
            <g >
                <title >package:HUZZAH32</title>
            </g>
        </g>
        <g >
            <title >element:X1</title>
            <g >
                <title >package:JSTPH2_BATT</title>
                <line x1="28.002" y1="1.57607" x2="40.758"  stroke-linecap="round" y2="1.57607" stroke="white" stroke-width="0.576"/>
                <line x1="45.7186" y1="11.4973" x2="45.7186"  stroke-linecap="round" y2="22.8359" stroke="white" stroke-width="0.576"/>
                <line x1="45.7186" y1="22.8359" x2="43.3092"  stroke-linecap="round" y2="22.8359" stroke="white" stroke-width="0.576"/>
                <line x1="43.3092" y1="22.8359" x2="43.3092"  stroke-linecap="round" y2="15.7493" stroke="white" stroke-width="0.576"/>
                <line x1="43.3092" y1="15.7493" x2="39.3407"  stroke-linecap="round" y2="15.7493" stroke="white" stroke-width="0.576"/>
                <line x1="29.4193" y1="15.7493" x2="25.4508"  stroke-linecap="round" y2="15.7493" stroke="white" stroke-width="0.576"/>
                <line x1="25.4508" y1="15.7493" x2="25.4508"  stroke-linecap="round" y2="22.8359" stroke="white" stroke-width="0.576"/>
                <line x1="25.4508" y1="22.8359" x2="23.0414"  stroke-linecap="round" y2="22.8359" stroke="white" stroke-width="0.576"/>
                <line x1="23.0414" y1="22.8359" x2="23.0414"  stroke-linecap="round" y2="11.4973" stroke="white" stroke-width="0.576"/>
                <line x1="39.78" y1="20.16" x2="42.3"  stroke-linecap="round" y2="20.16" stroke="white" stroke-width="0.864"/>
                <line x1="41.04" y1="21.6" x2="41.04"  stroke-linecap="round" y2="18.9" stroke="white" stroke-width="0.864"/>
                <line x1="26.46" y1="20.16" x2="28.98"  stroke-linecap="round" y2="20.16" stroke="white" stroke-width="0.864"/>
            </g>
        </g>
        <g >
            <title >element:X3</title>
            <g >
                <title >package:ESP32-PICO-MINI</title>
                <line x1="146.021" y1="13.6913" x2="146.021"  stroke-linecap="round" y2="51.1087" stroke="white" stroke-width="0.36"/>
                <line x1="146.021" y1="51.1087" x2="130.714"  stroke-linecap="round" y2="51.1087" stroke="white" stroke-width="0.36"/>
                <line x1="130.714" y1="13.6913" x2="146.021"  stroke-linecap="round" y2="13.6913" stroke="white" stroke-width="0.36"/>
            </g>
        </g>
        <g >
            <title >element:X6</title>
            <g >
                <title >package:USB_C_CUSB31-CFM2AX-01-X</title>
                <line x1="11.3386" y1="19.7292" x2="15.1654"  stroke-linecap="round" y2="19.7292" stroke="white" stroke-width="0.288"/>
                <line x1="15.1654" y1="45.0708" x2="11.3386"  stroke-linecap="round" y2="45.0708" stroke="white" stroke-width="0.288"/>
                <line x1="0" y1="45.0708" x2="0"  stroke-linecap="round" y2="19.7292" stroke="white" stroke-width="0.288"/>
                <line x1="0" y1="19.7292" x2="3.82677"  stroke-linecap="round" y2="19.7292" stroke="white" stroke-width="0.288"/>
                <line x1="3.82677" y1="45.0708" x2="0"  stroke-linecap="round" y2="45.0708" stroke="white" stroke-width="0.288"/>
            </g>
        </g>
        <line x1="0.288" fill-opacity="1" y1="46.044" x2="3.24"  fill="none" y2="46.044" stroke="white" stroke-width="0.576"/>
        <line x1="0.288" fill-opacity="1" y1="18.72" x2="3.24"  fill="none" y2="18.72" stroke="white" stroke-width="0.576"/>
        <line x1="0.288" fill-opacity="1" y1="46.044" x2="0.288"  fill="none" y2="18.72" stroke="white" stroke-width="0.576"/>
    </g>
    <g gorn="0.2"  id="copper1">
        <g gorn="0.2.0"  id="copper0">
            <rect x="30.128" gorn="0.2.0.0" height="13.0393" width="2.83465"  fill="#F7BD13" id="connector166pad" stroke="none" stroke-width="0" y="14.0485"/>
            <circle gorn="0.2.0.1" connectorname="M4" cx="7.37006" r="1.21039"  fill="none" cy="44.6457" id="connector246pad" stroke="#F7BD13" stroke-width="0.72"/>
            <path d="m4.58618,43.4353,5.56781,0,0,2.42078,-5.56781,0,0,-2.42078M6.15969,44.6457a1.21039,1.21039,0,1,0,2.42078,0,1.21039,1.21039,0,1,0,-2.42078,0z"  fill="#F7BD13" stroke="none" stroke-width="0"/>
            <g transform="matrix(-1, 0, 0, -1, 184.879, 48.8239)" >
                <g >
                    <rect x="90.2426" gorn="0.2.0.3.0.0" height="1.70078" width="4.3937"  fill="#F7BD13" id="connector33pad" stroke="none" stroke-width="0" y="23.5616"/>
                </g>
            </g>
            <g transform="matrix(-1, 0, 0, -1, 184.879, 43.1546)" >
                <g >
                    <rect x="90.2426" gorn="0.2.0.4.0.0" height="1.70078" width="4.3937"  fill="#F7BD13" id="connector34pad" stroke="none" stroke-width="0" y="20.7269"/>
                </g>
            </g>
            <g transform="matrix(-1, 0, 0, -1, 184.879, 37.4854)" >
                <g >
                    <rect x="90.2426" gorn="0.2.0.5.0.0" height="1.70078" width="4.3937"  fill="#F7BD13" id="connector35pad" stroke="none" stroke-width="0" y="17.8923"/>
                </g>
            </g>
            <g transform="matrix(-1, 0, 0, -1, 184.879, 31.8161)" >
                <g >
                    <rect x="90.2426" gorn="0.2.0.6.0.0" height="1.70078" width="4.3937"  fill="#F7BD13" id="connector36pad" stroke="none" stroke-width="0" y="15.0576"/>
                </g>
            </g>
            <circle gorn="0.2.0.7" connectorname="P$1" cx="10.44" r="4.26331"  fill="none" cy="57.6" id="connector148pad" stroke="#F7BD13" stroke-width="1.44"/>
            <circle gorn="0.2.0.8" connectorname="M2" cx="19.2189" r="1.21039"  fill="none" cy="44.6457" id="connector244pad" stroke="#F7BD13" stroke-width="0.72"/>
            <path d="m16.435,43.4353,5.56781,0,0,2.42078,-5.56781,0,0,-2.42078M18.0085,44.6457a1.21039,1.21039,0,1,0,2.42078,0,1.21039,1.21039,0,1,0,-2.42078,0z"  fill="#F7BD13" stroke="none" stroke-width="0"/>
            <circle gorn="0.2.0.10" connectorname="I37" cx="129.24" r="1.89666"  fill="none" cy="61.2" id="connector68pad" stroke="#F7BD13" stroke-width="0.95868"/>
            <circle gorn="0.2.0.11" connectorname="RX/IO8" cx="122.04" r="1.89666"  fill="none" cy="61.2" id="connector69pad" stroke="#F7BD13" stroke-width="0.95868"/>
            <circle gorn="0.2.0.12" connectorname="TX/IO7" cx="114.84" r="1.89666"  fill="none" cy="61.2" id="connector70pad" stroke="#F7BD13" stroke-width="0.95868"/>
            <circle gorn="0.2.0.13" connectorname="MISO" cx="107.64" r="1.89666"  fill="none" cy="61.2" id="connector71pad" stroke="#F7BD13" stroke-width="0.95868"/>
            <circle gorn="0.2.0.14" connectorname="MOSI" cx="100.44" r="1.89666"  fill="none" cy="61.2" id="connector72pad" stroke="#F7BD13" stroke-width="0.95868"/>
            <circle gorn="0.2.0.15" connectorname="SCK" cx="93.24" r="1.89666"  fill="none" cy="61.2" id="connector73pad" stroke="#F7BD13" stroke-width="0.95868"/>
            <circle gorn="0.2.0.16" connectorname="A5_IO4" cx="86.04" r="1.89666"  fill="none" cy="61.2" id="connector74pad" stroke="#F7BD13" stroke-width="0.95868"/>
            <circle gorn="0.2.0.17" connectorname="A4_I36" cx="78.84" r="1.89666"  fill="none" cy="61.2" id="connector75pad" stroke="#F7BD13" stroke-width="0.95868"/>
            <circle gorn="0.2.0.18" connectorname="P$1" cx="10.44" r="4.26331"  fill="none" cy="7.2" id="connector147pad" stroke="#F7BD13" stroke-width="1.44"/>
            <circle gorn="0.2.0.19" connectorname="A3_I39" cx="71.64" r="1.89666"  fill="none" cy="61.2" id="connector76pad" stroke="#F7BD13" stroke-width="0.95868"/>
            <circle gorn="0.2.0.20" connectorname="A2_I34" cx="64.44" r="1.89666"  fill="none" cy="61.2" id="connector77pad" stroke="#F7BD13" stroke-width="0.95868"/>
            <circle gorn="0.2.0.21" connectorname="A1_DAC1" cx="57.24" r="1.89666"  fill="none" cy="61.2" id="connector78pad" stroke="#F7BD13" stroke-width="0.95868"/>
            <circle gorn="0.2.0.22" connectorname="A0_DAC2" cx="50.04" r="1.89666"  fill="none" cy="61.2" id="connector79pad" stroke="#F7BD13" stroke-width="0.95868"/>
            <circle gorn="0.2.0.23" connectorname="GND" cx="42.84" r="1.89666"  fill="none" cy="61.2" id="connector80pad" stroke="#F7BD13" stroke-width="0.95868"/>
            <circle gorn="0.2.0.24" connectorname="14" cx="35.64" r="1.89666"  fill="none" cy="61.2" id="connector81pad" stroke="#F7BD13" stroke-width="0.95868"/>
            <circle gorn="0.2.0.25" connectorname="3.3V" cx="28.44" r="1.89666"  fill="none" cy="61.2" id="connector82pad" stroke="#F7BD13" stroke-width="0.95868"/>
            <circle gorn="0.2.0.26" connectorname="!RESET" cx="21.24" r="1.89666"  fill="none" cy="61.2" id="connector83pad" stroke="#F7BD13" stroke-width="0.95868"/>
            <circle gorn="0.2.0.27" connectorname="VBAT" cx="50.04" r="1.89666"  fill="none" cy="3.6" id="connector84pad" stroke="#F7BD13" stroke-width="0.95868"/>
            <circle gorn="0.2.0.28" connectorname="EN" cx="57.24" r="1.89666"  fill="none" cy="3.6" id="connector85pad" stroke="#F7BD13" stroke-width="0.95868"/>
            <rect x="35.7973" gorn="0.2.0.29" height="13.0393" width="2.83465"  fill="#F7BD13" id="connector167pad" stroke="none" stroke-width="0" y="14.0485"/>
            <circle gorn="0.2.0.30" connectorname="VBUS" cx="64.44" r="1.89666"  fill="none" cy="3.6" id="connector86pad" stroke="#F7BD13" stroke-width="0.95868"/>
            <circle gorn="0.2.0.31" connectorname="IO13_A12" cx="71.64" r="1.89666"  fill="none" cy="3.6" id="connector87pad" stroke="#F7BD13" stroke-width="0.95868"/>
            <circle gorn="0.2.0.32" connectorname="IO12_A11" cx="78.84" r="1.89666"  fill="none" cy="3.6" id="connector88pad" stroke="#F7BD13" stroke-width="0.95868"/>
            <circle gorn="0.2.0.33" connectorname="IO27_A10" cx="86.04" r="1.89666"  fill="none" cy="3.6" id="connector89pad" stroke="#F7BD13" stroke-width="0.95868"/>
            <circle gorn="0.2.0.34" connectorname="IO33_A9" cx="93.24" r="1.89666"  fill="none" cy="3.6" id="connector90pad" stroke="#F7BD13" stroke-width="0.95868"/>
            <circle gorn="0.2.0.35" connectorname="IO15_A8" cx="100.44" r="1.89666"  fill="none" cy="3.6" id="connector91pad" stroke="#F7BD13" stroke-width="0.95868"/>
            <circle gorn="0.2.0.36" connectorname="IO32_A7" cx="107.64" r="1.89666"  fill="none" cy="3.6" id="connector92pad" stroke="#F7BD13" stroke-width="0.95868"/>
            <circle gorn="0.2.0.37" connectorname="IO14_A6" cx="114.84" r="1.89666"  fill="none" cy="3.6" id="connector93pad" stroke="#F7BD13" stroke-width="0.95868"/>
            <circle gorn="0.2.0.38" connectorname="SCL" cx="122.04" r="1.89666"  fill="none" cy="3.6" id="connector94pad" stroke="#F7BD13" stroke-width="0.95868"/>
            <circle gorn="0.2.0.39" connectorname="SDA" cx="129.24" r="1.89666"  fill="none" cy="3.6" id="connector95pad" stroke="#F7BD13" stroke-width="0.95868"/>
            <circle gorn="0.2.0.40" connectorname="M1" cx="19.2189" r="1.21039"  fill="none" cy="20.1543" id="connector243pad" stroke="#F7BD13" stroke-width="0.72"/>
            <path d="m16.435,18.9439,5.56781,0,0,2.42078,-5.56781,0,0,-2.42078M18.0085,20.1543a1.21039,1.21039,0,1,0,2.42078,0,1.21039,1.21039,0,1,0,-2.42078,0z"  fill="#F7BD13" stroke="none" stroke-width="0"/>
            <circle gorn="0.2.0.42" connectorname="M3" cx="7.37006" r="1.21039"  fill="none" cy="20.1543" id="connector245pad" stroke="#F7BD13" stroke-width="0.72"/>
            <path d="m4.58618,18.9439,5.56781,0,0,2.42078,-5.56781,0,0,-2.42078M6.15969,20.1543a1.21039,1.21039,0,1,0,2.42078,0,1.21039,1.21039,0,1,0,-2.42078,0z"  fill="#F7BD13" stroke="none" stroke-width="0"/>
        </g>
    </g>
</svg>
