<?xml version='1.0' encoding='UTF-8' standalone='no'?>
<!-- Created with Fritzing (http://www.fritzing.org/) -->
<svg xmlns="http://www.w3.org/2000/svg" width="2in" version="1.2"  baseProfile="tiny" viewBox="0 0 144 64.8" x="0in" height="0.9in" y="0in">
    <desc >
        <referenceFile >Adafruit 8x16 LED Matrix FeatherWing_pcb.svg</referenceFile>
    </desc>
    <desc >Fritzing footprint generated by brd2svg</desc>
    <g  gorn="0.2" id="silkscreen">
        <path stroke-width="0.576"  stroke="white" d="M7.4592,64.512A6.912,6.912,0,0,1,0.288,57.376L0.288,7.42399A6.912,6.912,0,0,1,7.4592,0.288L136.541,0.288A6.912,6.912,0,0,1,143.712,7.42399L143.712,57.376A6.912,6.912,0,0,1,136.541,64.512L7.4592,64.512M133.488,7.2a3.312,3.312,0,1,0,6.624,0,3.312,3.312,0,1,0,-6.624,0zM133.488,57.6a3.312,3.312,0,1,0,6.624,0,3.312,3.312,0,1,0,-6.624,0z" fill="none"/>
        <g >
            <title >element:LED1</title>
            <g >
                <title >package:SEGMENT_BL-M07C881UR</title>
                <line stroke-width="0.576"  stroke-linecap="round" stroke="white" y1="3.77008" y2="3.77008" x1="14.5701" x2="71.8299"/>
                <line stroke-width="0.576"  stroke-linecap="round" stroke="white" y1="3.77008" y2="61.0299" x1="71.8299" x2="71.8299"/>
                <line stroke-width="0.576"  stroke-linecap="round" stroke="white" y1="61.0299" y2="61.0299" x1="71.8299" x2="14.5701"/>
                <line stroke-width="0.576"  stroke-linecap="round" stroke="white" y1="61.0299" y2="3.77008" x1="14.5701" x2="14.5701"/>
                <circle stroke-width="0"  r="2.88" stroke="white" fill="none" cx="18.36" cy="57.24"/>
            </g>
        </g>
        <g >
            <title >element:LED2</title>
            <g >
                <title >package:SEGMENT_BL-M07C881UR</title>
                <line stroke-width="0.576"  stroke-linecap="round" stroke="white" y1="3.77008" y2="3.77008" x1="72.1699" x2="129.43"/>
                <line stroke-width="0.576"  stroke-linecap="round" stroke="white" y1="3.77008" y2="61.0299" x1="129.43" x2="129.43"/>
                <line stroke-width="0.576"  stroke-linecap="round" stroke="white" y1="61.0299" y2="61.0299" x1="129.43" x2="72.1699"/>
                <line stroke-width="0.576"  stroke-linecap="round" stroke="white" y1="61.0299" y2="3.77008" x1="72.1699" x2="72.1699"/>
                <circle stroke-width="0"  r="2.88" stroke="white" fill="none" cx="75.96" cy="57.24"/>
            </g>
        </g>
        <g >
            <title >element:MS1</title>
            <g >
                <title >package:FEATHERWING</title>
            </g>
        </g>
        <g >
            <title >element:U$1</title>
            <g >
                <title >package:FEATHERLOGO_SMALL</title>
            </g>
        </g>
        <g >
            <title >element:U2</title>
            <g >
                <title >package:SOP28_300MIL_SKINNY</title>
            </g>
        </g>
    </g>
    <g  gorn="0.3" id="copper1">
        <g  gorn="0.3.0" id="copper0">
            <circle stroke-width="1.10268"  connectorname="SCL" gorn="0.3.0.0" r="1.96866" id="connector49pad" stroke="#F7BD13" fill="none" cx="118.8" cy="3.6"/>
            <circle stroke-width="1.10268"  connectorname="VDD" gorn="0.3.0.1" r="1.96866" id="connector33pad" stroke="#F7BD13" fill="none" cx="25.2" cy="61.2"/>
            <circle stroke-width="1.10268"  connectorname="F" gorn="0.3.0.2" r="1.96866" id="connector41pad" stroke="#F7BD13" fill="none" cx="82.8" cy="61.2"/>
            <circle stroke-width="1.10268"  connectorname="USB" gorn="0.3.0.3" r="1.96866" id="connector57pad" stroke="#F7BD13" fill="none" cx="61.2" cy="3.6"/>
            <circle stroke-width="1.10268"  connectorname="B" gorn="0.3.0.4" r="1.96866" id="connector37pad" stroke="#F7BD13" fill="none" cx="54" cy="61.2"/>
            <circle stroke-width="1.10268"  connectorname="RX" gorn="0.3.0.5" r="1.96866" id="connector45pad" stroke="#F7BD13" fill="none" cx="111.6" cy="61.2"/>
            <circle stroke-width="1.10268"  connectorname="K" gorn="0.3.0.6" r="1.96866" id="connector53pad" stroke="#F7BD13" fill="none" cx="90" cy="3.6"/>
            <circle stroke-width="1.85669"  connectorname="P$2" gorn="0.3.0.7" r="4.47165" id="connector61pad" stroke="#F7BD13" fill="none" cx="7.2" cy="57.6"/>
            <circle stroke-width="1.10268"  connectorname="GND" gorn="0.3.0.8" r="1.96866" id="connector35pad" stroke="#F7BD13" fill="none" cx="39.6" cy="61.2"/>
            <circle stroke-width="1.10268"  connectorname="D" gorn="0.3.0.9" r="1.96866" id="connector39pad" stroke="#F7BD13" fill="none" cx="68.4" cy="61.2"/>
            <circle stroke-width="1.10268"  connectorname="MOSI" gorn="0.3.0.10" r="1.96866" id="connector43pad" stroke="#F7BD13" fill="none" cx="97.2" cy="61.2"/>
            <circle stroke-width="1.10268"  connectorname="G" gorn="0.3.0.11" r="1.96866" id="connector47pad" stroke="#F7BD13" fill="none" cx="126" cy="61.2"/>
            <circle stroke-width="1.10268"  connectorname="I" gorn="0.3.0.12" r="1.96866" id="connector51pad" stroke="#F7BD13" fill="none" cx="104.4" cy="3.6"/>
            <circle stroke-width="1.10268"  connectorname="M" gorn="0.3.0.13" r="1.96866" id="connector55pad" stroke="#F7BD13" fill="none" cx="75.6" cy="3.6"/>
            <circle stroke-width="1.10268"  connectorname="VBAT" gorn="0.3.0.14" r="1.96866" id="connector59pad" stroke="#F7BD13" fill="none" cx="46.8" cy="3.6"/>
            <circle stroke-width="1.10268"  connectorname="RESET" gorn="0.3.0.15" r="1.96866" id="connector32pad" stroke="#F7BD13" fill="none" cx="18" cy="61.2"/>
            <circle stroke-width="1.10268"  connectorname="AREF" gorn="0.3.0.16" r="1.96866" id="connector34pad" stroke="#F7BD13" fill="none" cx="32.4" cy="61.2"/>
            <circle stroke-width="1.10268"  connectorname="A" gorn="0.3.0.17" r="1.96866" id="connector36pad" stroke="#F7BD13" fill="none" cx="46.8" cy="61.2"/>
            <circle stroke-width="1.10268"  connectorname="C" gorn="0.3.0.18" r="1.96866" id="connector38pad" stroke="#F7BD13" fill="none" cx="61.2" cy="61.2"/>
            <circle stroke-width="1.10268"  connectorname="E" gorn="0.3.0.19" r="1.96866" id="connector40pad" stroke="#F7BD13" fill="none" cx="75.6" cy="61.2"/>
            <circle stroke-width="1.10268"  connectorname="SCK" gorn="0.3.0.20" r="1.96866" id="connector42pad" stroke="#F7BD13" fill="none" cx="90" cy="61.2"/>
            <circle stroke-width="1.10268"  connectorname="MISO" gorn="0.3.0.21" r="1.96866" id="connector44pad" stroke="#F7BD13" fill="none" cx="104.4" cy="61.2"/>
            <circle stroke-width="1.10268"  connectorname="TX" gorn="0.3.0.22" r="1.96866" id="connector46pad" stroke="#F7BD13" fill="none" cx="118.8" cy="61.2"/>
            <circle stroke-width="1.10268"  connectorname="SDA" gorn="0.3.0.23" r="1.96866" id="connector48pad" stroke="#F7BD13" fill="none" cx="126" cy="3.6"/>
            <circle stroke-width="1.10268"  connectorname="H" gorn="0.3.0.24" r="1.96866" id="connector50pad" stroke="#F7BD13" fill="none" cx="111.6" cy="3.6"/>
            <circle stroke-width="1.10268"  connectorname="J" gorn="0.3.0.25" r="1.96866" id="connector52pad" stroke="#F7BD13" fill="none" cx="97.2" cy="3.6"/>
            <circle stroke-width="1.10268"  connectorname="L" gorn="0.3.0.26" r="1.96866" id="connector54pad" stroke="#F7BD13" fill="none" cx="82.8" cy="3.6"/>
            <circle stroke-width="1.10268"  connectorname="N" gorn="0.3.0.27" r="1.96866" id="connector56pad" stroke="#F7BD13" fill="none" cx="68.4" cy="3.6"/>
            <circle stroke-width="1.10268"  connectorname="EN" gorn="0.3.0.28" r="1.96866" id="connector58pad" stroke="#F7BD13" fill="none" cx="54" cy="3.6"/>
            <circle stroke-width="1.85669"  connectorname="P$1" gorn="0.3.0.29" r="4.47165" id="connector60pad" stroke="#F7BD13" fill="none" cx="7.2" cy="7.2"/>
        </g>
    </g>
</svg>
