<?xml version='1.0' encoding='utf-8'?>
<!DOCTYPE svg>
<!-- Generator: Adobe Illustrator 16.0.0, SVG Export Plug-In . SVG Version: 6.00 Build 0)  -->
<svg xmlns="http://www.w3.org/2000/svg" width="1.67478in" x="0px" version="1.1" y="0px" gorn="0"  height="1.65814in" viewBox="0 0 120.584 119.386" xmlns:xml="http://www.w3.org/XML/1998/namespace" id="Ebene_1" enable-background="new 0 0 120.584 119.386" xml:space="preserve">
    <desc >
        <referenceFile >pn532_elechouse_pcb.svg</referenceFile>
    </desc>
    <desc >Fritzing footprint generated by brd2svg</desc>
    <g gorn="0.2"  id="silkscreen">
        <path fill="none"  stroke="#FFFFFF" stroke-width="0.576" d="M0.455,119.386H121.04V0H0.455V119.386"/>
        <g >
            <title >element:J1</title>
            <g >
                <title >package:HEAD15-NOSS</title>
            </g>
        </g>
        <g >
            <title >element:J2</title>
            <g >
                <title >package:HEAD15-NOSS-1</title>
            </g>
        </g>
        <g >
            <title >element:U2</title>
            <g >
                <title >package:SSOP28</title>
            </g>
        </g>
        <g >
            <title >element:U3</title>
            <g >
                <title >package:SOT223</title>
            </g>
        </g>
    </g>
    <g gorn="0.3"  id="copper1">
        <g gorn="0.3.0"  id="copper0">
            <path fill="#F7BD13" gorn="0.3.0.0"  id="connector1pin" d="M24.481,52.754c0,1.242-1.01,2.254-2.252,2.254s-2.254-1.012-2.254-2.254c0-1.24,1.012-2.252,2.254-2.252S24.481,51.514,24.481,52.754z M21.069,52.754c0,0.639,0.52,1.158,1.16,1.158c0.639,0,1.158-0.52,1.158-1.158c0-0.638-0.52-1.158-1.158-1.158C21.588,51.596,21.069,52.117,21.069,52.754z"/>
            <path fill="#F7BD13" gorn="0.3.0.1"  id="connector2pin" d="M24.481,58.723c0,1.24-1.01,2.251-2.252,2.251s-2.254-1.011-2.254-2.251c0-1.242,1.012-2.254,2.254-2.254S24.481,57.481,24.481,58.723z M21.069,58.723c0,0.639,0.52,1.158,1.16,1.158c0.639,0,1.158-0.52,1.158-1.158c0-0.638-0.52-1.158-1.158-1.158C21.588,57.565,21.069,58.084,21.069,58.723z"/>
            <path fill="#F7BD13" gorn="0.3.0.2"  id="connector12pin" d="M90.198,21.679c-1.242,0-2.254-1.011-2.254-2.253c0-1.243,1.012-2.253,2.254-2.253c1.24,0,2.252,1.01,2.252,2.253C92.452,20.668,91.438,21.679,90.198,21.679z M90.198,18.267c-0.639,0-1.158,0.52-1.158,1.159c0,0.639,0.521,1.159,1.158,1.159c0.639,0,1.158-0.52,1.158-1.159C91.356,18.787,90.836,18.267,90.198,18.267z"/>
            <path fill="#F7BD13" gorn="0.3.0.3"  id="connector11pin" d="M84.229,21.679c-1.24,0-2.252-1.011-2.252-2.253c0-1.243,1.012-2.253,2.252-2.253c1.242,0,2.254,1.01,2.254,2.253C86.483,20.668,85.472,21.679,84.229,21.679z M84.229,18.267c-0.638,0-1.156,0.52-1.156,1.159c0,0.639,0.52,1.159,1.156,1.159c0.641,0,1.16-0.52,1.16-1.159C85.39,18.787,84.87,18.267,84.229,18.267z"/>
            <path fill="#F7BD13" gorn="0.3.0.4"  id="connector10pin" d="M78.263,21.679c-1.24,0-2.253-1.011-2.253-2.253c0-1.243,1.013-2.253,2.253-2.253c1.241,0,2.254,1.01,2.254,2.253C80.517,20.668,79.504,21.679,78.263,21.679z M78.263,18.267c-0.638,0-1.158,0.52-1.158,1.159c0,0.639,0.521,1.159,1.158,1.159c0.639,0,1.159-0.52,1.159-1.159C79.422,18.787,78.901,18.267,78.263,18.267z"/>
            <path fill="#F7BD13" gorn="0.3.0.5"  id="connector9pin" d="M72.295,21.679c-1.241,0-2.252-1.011-2.252-2.253c0-1.243,1.011-2.253,2.252-2.253c1.242,0,2.252,1.01,2.252,2.253C74.549,20.668,73.538,21.679,72.295,21.679z M72.295,18.267c-0.64,0-1.157,0.52-1.157,1.159c0,0.639,0.521,1.159,1.157,1.159c0.64,0,1.158-0.52,1.158-1.159C73.453,18.787,72.935,18.267,72.295,18.267z"/>
            <path fill="#F7BD13" gorn="0.3.0.6"  id="connector8pin" d="M66.329,21.679c-1.242,0-2.252-1.011-2.252-2.253c0-1.243,1.01-2.253,2.252-2.253s2.254,1.01,2.254,2.253C68.583,20.668,67.571,21.679,66.329,21.679z M66.329,18.267c-0.639,0-1.158,0.52-1.158,1.159c0,0.639,0.521,1.159,1.158,1.159c0.639,0,1.158-0.52,1.158-1.159C67.487,18.787,66.967,18.267,66.329,18.267z"/>
            <path fill="#F7BD13" gorn="0.3.0.7"  id="connector7pin" d="M60.36,21.679c-1.242,0-2.252-1.011-2.252-2.253c0-1.243,1.012-2.253,2.252-2.253c1.243,0,2.254,1.01,2.254,2.253C62.616,20.668,61.603,21.679,60.36,21.679z M60.36,18.267c-0.637,0-1.158,0.52-1.158,1.159c0,0.639,0.521,1.159,1.158,1.159c0.639,0,1.161-0.52,1.161-1.159C61.521,18.787,60.999,18.267,60.36,18.267z"/>
            <path fill="#F7BD13" gorn="0.3.0.8"  id="connector6pin" d="M54.393,21.679c-1.24,0-2.252-1.011-2.252-2.253c0-1.243,1.012-2.253,2.252-2.253c1.242,0,2.254,1.01,2.254,2.253C56.647,20.668,55.635,21.679,54.393,21.679z M54.393,18.267c-0.639,0-1.158,0.52-1.158,1.159c0,0.639,0.52,1.159,1.158,1.159c0.638,0,1.16-0.52,1.16-1.159C55.553,18.787,55.032,18.267,54.393,18.267z"/>
            <path fill="#F7BD13" gorn="0.3.0.9"  id="connector5pin" d="M48.426,21.679c-1.24,0-2.252-1.011-2.252-2.253c0-1.243,1.012-2.253,2.252-2.253c1.242,0,2.254,1.01,2.254,2.253C50.68,20.668,49.668,21.679,48.426,21.679z M48.426,18.267c-0.639,0-1.158,0.52-1.158,1.159c0,0.639,0.52,1.159,1.158,1.159c0.638,0,1.158-0.52,1.158-1.159C49.584,18.787,49.065,18.267,48.426,18.267z"/>
            <path fill="#F7BD13" gorn="0.3.0.10"  id="connector3pin" d="M24.481,64.688c0,1.239-1.01,2.253-2.252,2.253s-2.254-1.014-2.254-2.253c0-1.241,1.012-2.254,2.254-2.254C23.471,62.435,24.481,63.447,24.481,64.688z M21.069,64.688c0,0.64,0.52,1.158,1.16,1.158c0.639,0,1.158-0.521,1.158-1.158s-0.52-1.159-1.158-1.159C21.588,63.529,21.069,64.05,21.069,64.688z"/>
            <path fill="#F7BD13" gorn="0.3.0.11"  id="connector4pin" d="M24.481,70.656c0,1.239-1.01,2.252-2.252,2.252s-2.254-1.013-2.254-2.252c0-1.242,1.012-2.254,2.254-2.254S24.481,69.414,24.481,70.656z M21.069,70.656c0,0.639,0.52,1.157,1.16,1.157c0.639,0,1.158-0.521,1.158-1.157c0-0.639-0.52-1.158-1.158-1.158C21.588,69.498,21.069,70.017,21.069,70.656z"/>
            <path fill="#F7BD13" gorn="0.3.0.12"  id="connector13pin" d="M56.643,89.917c-0.91,0-1.652-0.742-1.652-1.653c0-0.912,0.742-1.652,1.652-1.652c0.912,0,1.654,0.74,1.654,1.652C58.297,89.175,57.555,89.917,56.643,89.917z M56.643,87.414c-0.467,0-0.85,0.381-0.85,0.851c0,0.469,0.381,0.853,0.85,0.853c0.469,0,0.85-0.384,0.85-0.853C57.493,87.794,57.112,87.414,56.643,87.414z"/>
            <path fill="#F7BD13" gorn="0.3.0.13"  id="connector14pin" d="M60.12,89.917c-0.91,0-1.652-0.742-1.652-1.653c0-0.912,0.742-1.652,1.652-1.652c0.912,0,1.654,0.74,1.654,1.652C61.774,89.175,61.032,89.917,60.12,89.917z M60.12,87.414c-0.467,0-0.85,0.381-0.85,0.851c0,0.469,0.381,0.853,0.85,0.853c0.469,0,0.852-0.384,0.852-0.853C60.972,87.794,60.588,87.414,60.12,87.414z"/>
            <path fill="#F7BD13" gorn="0.3.0.14"  id="connector15pin" d="M63.599,89.917c-0.912,0-1.654-0.742-1.654-1.653c0-0.912,0.742-1.652,1.654-1.652c0.911,0,1.653,0.74,1.653,1.652C65.252,89.175,64.51,89.917,63.599,89.917z M63.599,87.414c-0.47,0-0.851,0.381-0.851,0.851c0,0.469,0.381,0.853,0.851,0.853c0.469,0,0.851-0.384,0.851-0.853C64.449,87.794,64.067,87.414,63.599,87.414z"/>
            <path fill="#F7BD13" gorn="0.3.0.15"  id="connector16pin" d="M67.075,89.917c-0.91,0-1.652-0.742-1.652-1.653c0-0.912,0.742-1.652,1.652-1.652c0.912,0,1.654,0.74,1.654,1.652C68.729,89.175,67.987,89.917,67.075,89.917z M67.075,87.414c-0.469,0-0.85,0.381-0.85,0.851c0,0.469,0.381,0.853,0.85,0.853s0.85-0.384,0.85-0.853C67.925,87.794,67.543,87.414,67.075,87.414z"/>
            <path fill="#F7BD13" gorn="0.3.0.16"  id="connector17pin" d="M70.551,89.917c-0.909,0-1.651-0.742-1.651-1.653c0-0.912,0.742-1.652,1.651-1.652c0.912,0,1.654,0.74,1.654,1.652C72.205,89.175,71.463,89.917,70.551,89.917z M70.551,87.414c-0.467,0-0.85,0.381-0.85,0.851c0,0.469,0.381,0.853,0.85,0.853c0.47,0,0.851-0.384,0.851-0.853C71.401,87.794,71.021,87.414,70.551,87.414z"/>
            <path fill="#F7BD13" gorn="0.3.0.17"  id="connector18pin" d="M74.028,89.917c-0.91,0-1.652-0.742-1.652-1.653c0-0.912,0.742-1.652,1.652-1.652c0.912,0,1.654,0.74,1.654,1.652C75.683,89.175,74.94,89.917,74.028,89.917z M74.028,87.414c-0.467,0-0.85,0.381-0.85,0.851c0,0.469,0.381,0.853,0.85,0.853c0.471,0,0.852-0.384,0.852-0.853C74.88,87.794,74.499,87.414,74.028,87.414z"/>
            <path fill="#F7BD13" gorn="0.3.0.18"  id="connector19pin" d="M77.506,89.917c-0.912,0-1.653-0.742-1.653-1.653c0-0.912,0.741-1.652,1.653-1.652s1.652,0.74,1.652,1.652C79.161,89.175,78.418,89.917,77.506,89.917z M77.506,87.414c-0.469,0-0.851,0.381-0.851,0.851c0,0.469,0.382,0.853,0.851,0.853c0.47,0,0.851-0.384,0.851-0.853C78.356,87.794,77.976,87.414,77.506,87.414z"/>
            <path fill="#F7BD13" gorn="0.3.0.19"  id="connector20pin" d="M80.983,89.917c-0.91,0-1.652-0.742-1.652-1.653c0-0.912,0.742-1.652,1.652-1.652c0.912,0,1.651,0.74,1.651,1.652C82.638,89.175,81.896,89.917,80.983,89.917z M80.983,87.414c-0.469,0-0.851,0.381-0.851,0.851c0,0.469,0.382,0.853,0.851,0.853s0.85-0.384,0.85-0.853C81.833,87.794,81.452,87.414,80.983,87.414z"/>
            <path fill="#F7BD13" gorn="0.3.0.20"  id="connector21pin" d="M84.459,89.917c-0.91,0-1.651-0.742-1.651-1.653c0-0.912,0.741-1.652,1.651-1.652c0.912,0,1.653,0.74,1.653,1.652C86.112,89.175,85.372,89.917,84.459,89.917z M84.459,87.414c-0.467,0-0.851,0.381-0.851,0.851c0,0.469,0.384,0.853,0.851,0.853c0.47,0,0.851-0.384,0.851-0.853C85.31,87.794,84.929,87.414,84.459,87.414z"/>
            <path fill="#F7BD13" gorn="0.3.0.21"  id="connector22pin" d="M87.937,89.917c-0.91,0-1.652-0.742-1.652-1.653c0-0.912,0.742-1.652,1.652-1.652c0.912,0,1.653,0.74,1.653,1.652C89.59,89.175,88.849,89.917,87.937,89.917z M87.937,87.414c-0.468,0-0.851,0.381-0.851,0.851c0,0.469,0.384,0.853,0.851,0.853c0.471,0,0.852-0.384,0.852-0.853C88.788,87.794,88.407,87.414,87.937,87.414z"/>
        </g>
    </g>
    <g >
        <g >
            <title >text:A0</title>
            <g  transform="matrix(1, 0, 0, 1, 43.488, 91.944)">
                <g >
                    <g >
                        <g  transform="rotate(270)">
                            <g >
                                <g >
                                    <g  transform="matrix(0 1 -1 0 38.0324 -18.2595)">
                                        <g >
                                            <text fill="#FFFFFF" font-family="Droid Sans"  font-size="3.5929">GND</text>
                                        </g>
                                    </g>
                                </g>
                            </g>
                        </g>
                    </g>
                </g>
            </g>
        </g>
        <g >
            <title >text:A0</title>
            <g  transform="matrix(1, 0, 0, 1, 43.488, 91.944)">
                <g >
                    <g >
                        <g  transform="rotate(270)">
                            <g >
                                <g >
                                    <g  transform="matrix(0 1 -1 0 32.0636 -18.2595)">
                                        <g >
                                            <text fill="#FFFFFF" font-family="Droid Sans"  font-size="3.5929">VCC</text>
                                        </g>
                                    </g>
                                </g>
                            </g>
                        </g>
                    </g>
                </g>
            </g>
        </g>
        <g >
            <title >text:A0</title>
            <g  transform="matrix(1, 0, 0, 1, 43.488, 91.944)">
                <g >
                    <g >
                        <g  transform="rotate(270)">
                            <g >
                                <g >
                                    <g  transform="matrix(0 1 -1 0 26.0968 -18.2595)">
                                        <g >
                                            <text fill="#FFFFFF" font-family="Droid Sans"  font-size="3.5929">SDA</text>
                                        </g>
                                    </g>
                                </g>
                            </g>
                        </g>
                    </g>
                </g>
            </g>
        </g>
        <g >
            <title >text:A0</title>
            <g  transform="matrix(1, 0, 0, 1, 43.488, 91.944)">
                <g >
                    <g >
                        <g  transform="rotate(270)">
                            <g >
                                <g >
                                    <g  transform="matrix(0 1 -1 0 20.1281 -18.2595)">
                                        <g >
                                            <text fill="#FFFFFF" font-family="Droid Sans"  font-size="3.5929">SCL</text>
                                        </g>
                                    </g>
                                </g>
                            </g>
                        </g>
                    </g>
                </g>
            </g>
        </g>
        <g >
            <title >text:A0</title>
            <g  transform="matrix(1, 0, 0, 1, 43.488, 91.944)">
                <g >
                    <g >
                        <g  transform="rotate(270)">
                            <g >
                                <g >
                                    <g  transform="matrix(1 0 0 1 60.8009 6.097)">
                                        <g >
                                            <text fill="#FFFFFF" font-family="Droid Sans"  font-size="3.5929">SCK</text>
                                        </g>
                                    </g>
                                </g>
                            </g>
                        </g>
                    </g>
                </g>
            </g>
        </g>
        <g >
            <title >text:A0</title>
            <g  transform="matrix(1, 0, 0, 1, 43.488, 91.944)">
                <g >
                    <g >
                        <g  transform="rotate(270)">
                            <g >
                                <g >
                                    <g  transform="matrix(1 0 0 1 58.214 12.0647)">
                                        <g >
                                            <text fill="#FFFFFF" font-family="Droid Sans"  font-size="3.5929">MISO</text>
                                        </g>
                                    </g>
                                </g>
                            </g>
                        </g>
                    </g>
                </g>
            </g>
        </g>
        <g >
            <title >text:A0</title>
            <g  transform="matrix(1, 0, 0, 1, 43.488, 91.944)">
                <g >
                    <g >
                        <g  transform="rotate(270)">
                            <g >
                                <g >
                                    <g  transform="matrix(1 0 0 1 58.214 18.0315)">
                                        <g >
                                            <text fill="#FFFFFF" font-family="Droid Sans"  font-size="3.5929">MOSI</text>
                                        </g>
                                    </g>
                                </g>
                            </g>
                        </g>
                    </g>
                </g>
            </g>
        </g>
        <g >
            <title >text:A0</title>
            <g  transform="matrix(1, 0, 0, 1, 43.488, 91.944)">
                <g >
                    <g >
                        <g  transform="rotate(270)">
                            <g >
                                <g >
                                    <g  transform="matrix(1 0 0 1 63.3878 24.0003)">
                                        <g >
                                            <text fill="#FFFFFF" font-family="Droid Sans"  font-size="3.5929">SS</text>
                                        </g>
                                    </g>
                                </g>
                            </g>
                        </g>
                    </g>
                </g>
            </g>
        </g>
        <g >
            <title >text:A0</title>
            <g  transform="matrix(1, 0, 0, 1, 43.488, 91.944)">
                <g >
                    <g >
                        <g  transform="rotate(270)">
                            <g >
                                <g >
                                    <g  transform="matrix(1 0 0 1 60.8009 29.968)">
                                        <g >
                                            <text fill="#FFFFFF" font-family="Droid Sans"  font-size="3.5929">VCC</text>
                                        </g>
                                    </g>
                                </g>
                            </g>
                        </g>
                    </g>
                </g>
            </g>
        </g>
        <g >
            <title >text:A0</title>
            <g  transform="matrix(1, 0, 0, 1, 43.488, 91.944)">
                <g >
                    <g >
                        <g  transform="rotate(270)">
                            <g >
                                <g >
                                    <g  transform="matrix(1 0 0 1 60.8009 35.9348)">
                                        <g >
                                            <text fill="#FFFFFF" font-family="Droid Sans"  font-size="3.5929">GND</text>
                                        </g>
                                    </g>
                                </g>
                            </g>
                        </g>
                    </g>
                </g>
            </g>
        </g>
        <g >
            <title >text:A0</title>
            <g  transform="matrix(1, 0, 0, 1, 43.488, 91.944)">
                <g >
                    <g >
                        <g  transform="rotate(270)">
                            <g >
                                <g >
                                    <g  transform="matrix(1 0 0 1 60.8009 41.9026)">
                                        <g >
                                            <text fill="#FFFFFF" font-family="Droid Sans"  font-size="3.5929">TRQ</text>
                                        </g>
                                    </g>
                                </g>
                            </g>
                        </g>
                    </g>
                </g>
            </g>
        </g>
        <g >
            <title >text:A0</title>
            <g  transform="matrix(1, 0, 0, 1, 43.488, 91.944)">
                <g >
                    <g >
                        <g  transform="rotate(270)">
                            <g >
                                <g >
                                    <g  transform="matrix(1 0 0 1 58.214 47.8714)">
                                        <g >
                                            <text fill="#FFFFFF" font-family="Droid Sans"  font-size="3.5929">RSTO</text>
                                        </g>
                                    </g>
                                </g>
                            </g>
                        </g>
                    </g>
                </g>
            </g>
        </g>
    </g>
</svg>
