<?xml version='1.0' encoding='utf-8'?>
<!-- Generator: Adobe Illustrator 20.0.0, SVG Export Plug-In . SVG Version: 6.00 Build 0)  -->
<svg xmlns="http://www.w3.org/2000/svg" xml:space="preserve" xmlns:xml="http://www.w3.org/XML/1998/namespace" version="1.2" width="1.26785in" gorn="0" baseProfile="tiny"  x="0px" height="1.60324in" y="0px" id="Layer_1" viewBox="0 0 91.285 115.433">
    <desc >
        <referenceFile >Adafruit 1.2 Inch 8x8 LED Matrix Backpack_breadboard-blue.svg</referenceFile>
    </desc>
    <desc >Fritzing breadboard generated by brd2svg</desc>
    <g gorn="0.2"  id="breadboard">
        <g gorn="0.2.0"  id="icon">
            <path d="M7.482,115.2c-3.976,0-7.2-3.224-7.2-7.2V7.2c0-3.976,3.224-7.2,7.2-7.2h76.32c3.976,0,7.2,3.224,7.2,7.2V108c0,3.976-3.224,7.2-7.2,7.2H7.482 M85.242,106.965c-1.566-0.003-2.837,1.263-2.84,2.829s1.263,2.837,2.829,2.84c0.004,0,0.008,0,0.011,0c1.566,0.003,2.837-1.263,2.84-2.829s-1.263-2.837-2.829-2.84C85.25,106.965,85.246,106.965,85.242,106.965z M6.042,106.965c-1.566-0.003-2.837,1.263-2.84,2.829s1.263,2.837,2.829,2.84c0.004,0,0.008,0,0.011,0c1.566,0.003,2.837-1.263,2.84-2.829s-1.263-2.837-2.829-2.84C6.05,106.965,6.046,106.965,6.042,106.965z M85.242,2.565c-1.566-0.003-2.837,1.264-2.84,2.829c-0.003,1.566,1.264,2.837,2.829,2.84c0.004,0,0.007,0,0.011,0c1.566,0.003,2.837-1.264,2.84-2.829c0.003-1.566-1.264-2.837-2.829-2.84C85.249,2.565,85.246,2.565,85.242,2.565z M6.042,2.565c-1.566-0.003-2.837,1.264-2.84,2.829C3.199,6.96,4.466,8.232,6.031,8.235c0.004,0,0.007,0,0.011,0c1.566,0.003,2.837-1.264,2.84-2.829c0.003-1.566-1.264-2.837-2.829-2.84C6.049,2.565,6.046,2.565,6.042,2.565z M56.442,3.96c-0.795,0-1.44,0.645-1.44,1.44s0.645,1.44,1.44,1.44s1.44-0.645,1.44-1.44S57.237,3.96,56.442,3.96z M49.242,3.96c-0.795,0-1.44,0.645-1.44,1.44s0.645,1.44,1.44,1.44s1.44-0.645,1.44-1.44S50.037,3.96,49.242,3.96z M42.042,3.96c-0.795,0-1.44,0.645-1.44,1.44s0.645,1.44,1.44,1.44s1.44-0.645,1.44-1.44S42.837,3.96,42.042,3.96L42.042,3.96z M34.842,3.96c-0.795,0-1.44,0.645-1.44,1.44s0.645,1.44,1.44,1.44s1.44-0.645,1.44-1.44S35.637,3.96,34.842,3.96L34.842,3.96z"  fill="#014CB1"/>
            <g >
                <title >layer 21</title>
                <g >
                    <title >element:A0</title>
                    <g >
                        <title >package:SOLDERJUMPER_REFLOW_NOPASTE</title>
                    </g>
                </g>
                <g >
                    <title >element:A1</title>
                    <g >
                        <title >package:SOLDERJUMPER_REFLOW_NOPASTE</title>
                    </g>
                </g>
                <g >
                    <title >element:A2</title>
                    <g >
                        <title >package:SOLDERJUMPER_REFLOW_NOPASTE</title>
                    </g>
                </g>
                <g >
                    <title >element:C1</title>
                    <g >
                        <title >package:C0805</title>
                    </g>
                </g>
                <g >
                    <title >element:CN1</title>
                    <g >
                        <title >package:1X04-CLEANBIG</title>
                    </g>
                </g>
                <g >
                    <title >element:D1</title>
                    <g >
                        <title >package:SOD-323F</title>
                    </g>
                </g>
                <g >
                    <title >element:LED1</title>
                    <g >
                        <title >package:SEGMENT_BL-M12A881UR</title>
                        <line y1="12.246" stroke-width="0.576" y2="102.954" x1="90.997" x2="90.997" stroke="#FFFFFF" stroke-linecap="round"  fill="none"/>
                        <line y1="102.954" stroke-width="0.576" y2="102.954" x1="90.997" x2="0.288" stroke="#FFFFFF" stroke-linecap="round"  fill="none"/>
                        <line y1="102.954" stroke-width="0.576" y2="12.246" x1="0.288" x2="0.288" stroke="#FFFFFF" stroke-linecap="round"  fill="none"/>
                        <line y1="12.246" stroke-width="0.576" y2="12.246" x1="0.288" x2="90.997" stroke="#FFFFFF" stroke-linecap="round"  fill="none"/>
                    </g>
                </g>
                <g >
                    <title >element:R1</title>
                    <g >
                        <title >package:R0805</title>
                    </g>
                </g>
                <g >
                    <title >element:R2</title>
                    <g >
                        <title >package:R0805</title>
                    </g>
                </g>
                <g >
                    <title >element:R3</title>
                    <g >
                        <title >package:R0805</title>
                    </g>
                </g>
                <g >
                    <title >element:R4</title>
                    <g >
                        <title >package:R0805</title>
                    </g>
                </g>
                <g >
                    <title >element:R5</title>
                    <g >
                        <title >package:R0805</title>
                    </g>
                </g>
                <g >
                    <title >element:U$1</title>
                    <g >
                        <title >package:FIDUCIAL_1MM</title>
                    </g>
                </g>
                <g >
                    <title >element:U$2</title>
                    <g >
                        <title >package:FIDUCIAL_1MM</title>
                    </g>
                </g>
                <g >
                    <title >element:U$3</title>
                    <g >
                        <title >package:ADAFRUIT_3.5MM</title>
                    </g>
                </g>
                <g >
                    <title >element:U2</title>
                    <g >
                        <title >package:SOP28_300MIL</title>
                    </g>
                </g>
            </g>
            <circle stroke-width="1.08" cx="56.442" cy="5.4" r="1.98" gorn="0.2.0.2" stroke="#9A916C"  fill="none" id="connector5pin"/>
            <circle stroke-width="1.08" cx="49.242" cy="5.4" r="1.98" gorn="0.2.0.3" stroke="#9A916C"  fill="none" id="connector6pin"/>
            <circle stroke-width="1.08" cx="42.042" cy="5.4" r="1.98" gorn="0.2.0.4" stroke="#9A916C"  fill="none" id="connector7pin"/>
            <circle stroke-width="1.08" cx="34.842" cy="5.4" r="1.98" gorn="0.2.0.5" stroke="#9A916C"  fill="none" id="connector8pin"/>
        </g>
        <g transform="matrix(1, 0, 0, 1, 105.653, 39.369)" >
            <g >
                <g gorn="0.2.1.0.0"  id="adafruit_3.5mm">
                    <g transform="matrix(-1, 0, 0, -1, 9.77998, 9.77702)" >
                        <g >
                            <g >
                                <path d="M69.973-54.897c0.2-0.032,0.257-0.141,0.341-0.403c0.064-0.199,0.489-1.533,0.489-1.533s0.351-0.93-0.146-1.619c-0.066-0.093-0.143-0.189-0.224-0.286c0.097,0.082,0.193,0.158,0.286,0.224c0.69,0.495,1.619,0.143,1.619,0.143s1.334-0.427,1.533-0.492c0.262-0.085,0.37-0.142,0.402-0.342s-0.054-0.288-0.277-0.449c-0.17-0.122-1.307-0.939-1.307-0.939s-0.777-0.621-1.586-0.361c-0.109,0.034-0.224,0.077-0.341,0.125c0.108-0.067,0.209-0.135,0.302-0.203c0.684-0.503,0.636-1.496,0.636-1.496s0.006-1.4,0.006-1.61c0.001-0.275-0.02-0.396-0.201-0.488c-0.181-0.091-0.291-0.037-0.513,0.126c-0.169,0.124-1.297,0.953-1.297,0.953s-0.83,0.546-0.834,1.395c0,0.114,0.005,0.236,0.014,0.362c-0.03-0.122-0.064-0.24-0.1-0.348c-0.267-0.806-1.226-1.067-1.226-1.067s-1.33-0.438-1.529-0.503c-0.261-0.086-0.383-0.103-0.526,0.04c-0.143,0.144-0.126,0.265-0.04,0.526c0.065,0.199,0.506,1.528,0.506,1.528s0.263,0.958,1.07,1.224c0.108,0.036,0.225,0.069,0.348,0.1c-0.126-0.009-0.248-0.014-0.362-0.013c-0.849,0.005-1.394,0.836-1.394,0.836s-0.827,1.13-0.951,1.298c-0.162,0.223-0.216,0.333-0.124,0.514s0.213,0.201,0.488,0.2c0.21-0.001,1.61-0.009,1.61-0.009s0.993,0.047,1.495-0.639c0.067-0.092,0.135-0.194,0.202-0.301c-0.047,0.117-0.09,0.232-0.124,0.34c-0.258,0.81,0.364,1.584,0.364,1.584s0.819,1.136,0.941,1.306C69.684-54.951,69.772-54.865,69.973-54.897z M71.004-59.719c-0.024,0.152-0.349,0.228-0.726,0.169c-0.377-0.059-0.662-0.231-0.638-0.384s0.349-0.229,0.725-0.169C70.742-60.044,71.028-59.872,71.004-59.719z M70.005-61.675c0.138,0.07,0.11,0.402-0.063,0.742c-0.173,0.34-0.425,0.558-0.563,0.488s-0.11-0.402,0.063-0.742S69.867-61.745,70.005-61.675z M68.127-60.644c-0.27-0.269-0.4-0.577-0.291-0.686s0.416,0.02,0.686,0.29c0.27,0.269,0.4,0.576,0.291,0.686C68.704-60.245,68.397-60.375,68.127-60.644z M67.494-59.16c-0.07-0.138,0.148-0.39,0.487-0.563c0.34-0.174,0.673-0.203,0.743-0.065s-0.148,0.39-0.487,0.563C67.897-59.052,67.565-59.023,67.494-59.16z M69.067-58.803c-0.06-0.377,0.015-0.701,0.168-0.726c0.153-0.024,0.325,0.262,0.385,0.638c0.06,0.377-0.015,0.701-0.168,0.726C69.299-58.141,69.127-58.426,69.067-58.803z"  fill="#DCDCDC"/>
                            </g>
                        </g>
                    </g>
                </g>
            </g>
        </g>
    </g>
    <g >
        <title >text:C</title>
        <g transform="matrix(1 0 0 1 58.5711 3.5609)" >
            <g >
                <text  fill="#FFFFFF" font-family="OCRA" font-size="2.67264">C</text>
            </g>
        </g>
    </g>
    <g >
        <title >text:D</title>
        <g transform="matrix(1 0 0 1 51.731 3.5609)" >
            <g >
                <text  fill="#FFFFFF" font-family="OCRA" font-size="2.67264">D</text>
            </g>
        </g>
    </g>
    <g >
        <title >text:-</title>
        <g transform="matrix(1 0 0 1 37.3311 3.5609)" >
            <g >
                <text  fill="#FFFFFF" font-family="OCRA" font-size="2.67264">-</text>
            </g>
        </g>
    </g>
    <g >
        <title >text:+</title>
        <g transform="matrix(1 0 0 1 30.1311 3.5609)" >
            <g >
                <text  fill="#FFFFFF" font-family="OCRA" font-size="2.67264">+</text>
            </g>
        </g>
    </g>
    <g >
        <rect width="90.709"  x="0.288" fill="#141414" height="90.709" y="12.245"/>
        <path d="M10.209,17.914c0,2.348-1.904,4.252-4.252,4.252s-4.252-1.903-4.252-4.252s1.904-4.252,4.252-4.252S10.209,15.566,10.209,17.914z M17.296,13.662c-2.348,0-4.252,1.904-4.252,4.252s1.904,4.252,4.252,4.252s4.252-1.904,4.252-4.252S19.644,13.662,17.296,13.662z M28.634,13.662c-2.348,0-4.252,1.904-4.252,4.252s1.904,4.252,4.252,4.252s4.252-1.904,4.252-4.252S30.983,13.662,28.634,13.662z M39.973,13.662c-2.348,0-4.252,1.904-4.252,4.252s1.904,4.252,4.252,4.252s4.252-1.904,4.252-4.252S42.321,13.662,39.973,13.662z M51.312,13.662c-2.348,0-4.252,1.904-4.252,4.252s1.904,4.252,4.252,4.252s4.252-1.904,4.252-4.252S53.66,13.662,51.312,13.662z M62.65,13.662c-2.348,0-4.252,1.904-4.252,4.252s1.904,4.252,4.252,4.252s4.252-1.904,4.252-4.252S64.999,13.662,62.65,13.662z M73.989,13.662c-2.348,0-4.252,1.904-4.252,4.252s1.904,4.252,4.252,4.252s4.252-1.904,4.252-4.252S76.337,13.662,73.989,13.662z M85.327,13.662c-2.348,0-4.252,1.904-4.252,4.252s1.904,4.252,4.252,4.252s4.252-1.904,4.252-4.252S87.676,13.662,85.327,13.662z M5.957,25.001c-2.348,0-4.252,1.904-4.252,4.252s1.904,4.252,4.252,4.252s4.252-1.904,4.252-4.252S8.306,25.001,5.957,25.001z M17.296,25.001c-2.348,0-4.252,1.904-4.252,4.252s1.904,4.252,4.252,4.252s4.252-1.904,4.252-4.252S19.644,25.001,17.296,25.001z M28.634,25.001c-2.348,0-4.252,1.904-4.252,4.252s1.904,4.252,4.252,4.252s4.252-1.904,4.252-4.252S30.983,25.001,28.634,25.001z M39.973,25.001c-2.348,0-4.252,1.904-4.252,4.252s1.904,4.252,4.252,4.252s4.252-1.904,4.252-4.252S42.321,25.001,39.973,25.001z M51.312,25.001c-2.348,0-4.252,1.904-4.252,4.252s1.904,4.252,4.252,4.252s4.252-1.904,4.252-4.252S53.66,25.001,51.312,25.001z M62.65,25.001c-2.348,0-4.252,1.904-4.252,4.252s1.904,4.252,4.252,4.252s4.252-1.904,4.252-4.252S64.999,25.001,62.65,25.001z M73.989,25.001c-2.348,0-4.252,1.904-4.252,4.252s1.904,4.252,4.252,4.252s4.252-1.904,4.252-4.252S76.337,25.001,73.989,25.001z M85.327,25.001c-2.348,0-4.252,1.904-4.252,4.252s1.904,4.252,4.252,4.252s4.252-1.904,4.252-4.252S87.676,25.001,85.327,25.001z M5.957,36.339c-2.348,0-4.252,1.904-4.252,4.252s1.904,4.252,4.252,4.252s4.252-1.904,4.252-4.252S8.306,36.339,5.957,36.339z M17.296,36.339c-2.348,0-4.252,1.904-4.252,4.252s1.904,4.252,4.252,4.252s4.252-1.904,4.252-4.252S19.644,36.339,17.296,36.339z M28.634,36.339c-2.348,0-4.252,1.904-4.252,4.252s1.904,4.252,4.252,4.252s4.252-1.904,4.252-4.252S30.983,36.339,28.634,36.339z M39.973,36.339c-2.348,0-4.252,1.904-4.252,4.252s1.904,4.252,4.252,4.252s4.252-1.904,4.252-4.252S42.321,36.339,39.973,36.339z M51.312,36.339c-2.348,0-4.252,1.904-4.252,4.252s1.904,4.252,4.252,4.252s4.252-1.904,4.252-4.252S53.66,36.339,51.312,36.339z M62.65,36.339c-2.348,0-4.252,1.904-4.252,4.252s1.904,4.252,4.252,4.252s4.252-1.904,4.252-4.252S64.999,36.339,62.65,36.339z M73.989,36.339c-2.348,0-4.252,1.904-4.252,4.252s1.904,4.252,4.252,4.252s4.252-1.904,4.252-4.252S76.337,36.339,73.989,36.339z M85.327,36.339c-2.348,0-4.252,1.904-4.252,4.252s1.904,4.252,4.252,4.252s4.252-1.904,4.252-4.252S87.676,36.339,85.327,36.339z M5.957,47.678c-2.348,0-4.252,1.904-4.252,4.252s1.904,4.252,4.252,4.252s4.252-1.904,4.252-4.252S8.306,47.678,5.957,47.678z M17.296,47.678c-2.348,0-4.252,1.904-4.252,4.252s1.904,4.252,4.252,4.252s4.252-1.904,4.252-4.252S19.644,47.678,17.296,47.678z M28.634,47.678c-2.348,0-4.252,1.904-4.252,4.252s1.904,4.252,4.252,4.252s4.252-1.904,4.252-4.252S30.983,47.678,28.634,47.678z M39.973,47.678c-2.348,0-4.252,1.904-4.252,4.252s1.904,4.252,4.252,4.252s4.252-1.904,4.252-4.252S42.321,47.678,39.973,47.678z M51.312,47.678c-2.348,0-4.252,1.904-4.252,4.252s1.904,4.252,4.252,4.252s4.252-1.904,4.252-4.252S53.66,47.678,51.312,47.678z M62.65,47.678c-2.348,0-4.252,1.904-4.252,4.252s1.904,4.252,4.252,4.252s4.252-1.904,4.252-4.252S64.999,47.678,62.65,47.678z M73.989,47.678c-2.348,0-4.252,1.904-4.252,4.252s1.904,4.252,4.252,4.252s4.252-1.904,4.252-4.252S76.337,47.678,73.989,47.678z M85.327,47.678c-2.348,0-4.252,1.904-4.252,4.252s1.904,4.252,4.252,4.252s4.252-1.904,4.252-4.252S87.676,47.678,85.327,47.678z M5.957,59.017c-2.348,0-4.252,1.904-4.252,4.252s1.904,4.252,4.252,4.252s4.252-1.904,4.252-4.252S8.306,59.017,5.957,59.017z M17.296,59.017c-2.348,0-4.252,1.904-4.252,4.252s1.904,4.252,4.252,4.252s4.252-1.904,4.252-4.252S19.644,59.017,17.296,59.017z M28.634,59.017c-2.348,0-4.252,1.904-4.252,4.252s1.904,4.252,4.252,4.252s4.252-1.904,4.252-4.252S30.983,59.017,28.634,59.017z M39.973,59.017c-2.348,0-4.252,1.904-4.252,4.252s1.904,4.252,4.252,4.252s4.252-1.904,4.252-4.252S42.321,59.017,39.973,59.017z M51.312,59.017c-2.348,0-4.252,1.904-4.252,4.252s1.904,4.252,4.252,4.252s4.252-1.904,4.252-4.252S53.66,59.017,51.312,59.017z M62.65,59.017c-2.348,0-4.252,1.904-4.252,4.252s1.904,4.252,4.252,4.252s4.252-1.904,4.252-4.252S64.999,59.017,62.65,59.017z M73.989,59.017c-2.348,0-4.252,1.904-4.252,4.252s1.904,4.252,4.252,4.252s4.252-1.904,4.252-4.252S76.337,59.017,73.989,59.017z M85.327,59.017c-2.348,0-4.252,1.904-4.252,4.252s1.904,4.252,4.252,4.252s4.252-1.904,4.252-4.252S87.676,59.017,85.327,59.017z M5.957,70.355c-2.348,0-4.252,1.904-4.252,4.252s1.904,4.252,4.252,4.252s4.252-1.904,4.252-4.252S8.306,70.355,5.957,70.355z M17.296,70.355c-2.348,0-4.252,1.904-4.252,4.252s1.904,4.252,4.252,4.252s4.252-1.904,4.252-4.252S19.644,70.355,17.296,70.355z M28.634,70.355c-2.348,0-4.252,1.904-4.252,4.252s1.904,4.252,4.252,4.252s4.252-1.904,4.252-4.252S30.983,70.355,28.634,70.355z M39.973,70.355c-2.348,0-4.252,1.904-4.252,4.252s1.904,4.252,4.252,4.252s4.252-1.904,4.252-4.252S42.321,70.355,39.973,70.355z M51.312,70.355c-2.348,0-4.252,1.904-4.252,4.252s1.904,4.252,4.252,4.252s4.252-1.904,4.252-4.252S53.66,70.355,51.312,70.355z M62.65,70.355c-2.348,0-4.252,1.904-4.252,4.252s1.904,4.252,4.252,4.252s4.252-1.904,4.252-4.252S64.999,70.355,62.65,70.355z M73.989,70.355c-2.348,0-4.252,1.904-4.252,4.252s1.904,4.252,4.252,4.252s4.252-1.904,4.252-4.252S76.337,70.355,73.989,70.355z M85.327,70.355c-2.348,0-4.252,1.904-4.252,4.252s1.904,4.252,4.252,4.252s4.252-1.904,4.252-4.252S87.676,70.355,85.327,70.355z M5.957,81.694c-2.348,0-4.252,1.904-4.252,4.252s1.904,4.252,4.252,4.252s4.252-1.904,4.252-4.252S8.306,81.694,5.957,81.694z M17.296,81.694c-2.348,0-4.252,1.904-4.252,4.252s1.904,4.252,4.252,4.252s4.252-1.904,4.252-4.252S19.644,81.694,17.296,81.694z M28.634,81.694c-2.348,0-4.252,1.904-4.252,4.252s1.904,4.252,4.252,4.252s4.252-1.904,4.252-4.252S30.983,81.694,28.634,81.694z M39.973,81.694c-2.348,0-4.252,1.904-4.252,4.252s1.904,4.252,4.252,4.252s4.252-1.904,4.252-4.252S42.321,81.694,39.973,81.694z M51.312,81.694c-2.348,0-4.252,1.904-4.252,4.252s1.904,4.252,4.252,4.252s4.252-1.904,4.252-4.252S53.66,81.694,51.312,81.694z M62.65,81.694c-2.348,0-4.252,1.904-4.252,4.252s1.904,4.252,4.252,4.252s4.252-1.904,4.252-4.252S64.999,81.694,62.65,81.694z M73.989,81.694c-2.348,0-4.252,1.904-4.252,4.252s1.904,4.252,4.252,4.252s4.252-1.904,4.252-4.252S76.337,81.694,73.989,81.694z M85.327,81.694c-2.348,0-4.252,1.904-4.252,4.252s1.904,4.252,4.252,4.252s4.252-1.904,4.252-4.252S87.676,81.694,85.327,81.694z M5.957,93.032c-2.348,0-4.252,1.904-4.252,4.252s1.904,4.252,4.252,4.252s4.252-1.904,4.252-4.252S8.306,93.032,5.957,93.032z M17.296,93.032c-2.348,0-4.252,1.904-4.252,4.252s1.904,4.252,4.252,4.252s4.252-1.904,4.252-4.252S19.644,93.032,17.296,93.032z M28.634,93.032c-2.348,0-4.252,1.904-4.252,4.252s1.904,4.252,4.252,4.252s4.252-1.904,4.252-4.252S30.983,93.032,28.634,93.032z M39.973,93.032c-2.348,0-4.252,1.904-4.252,4.252s1.904,4.252,4.252,4.252s4.252-1.904,4.252-4.252S42.321,93.032,39.973,93.032z M51.312,93.032c-2.348,0-4.252,1.904-4.252,4.252s1.904,4.252,4.252,4.252s4.252-1.904,4.252-4.252S53.66,93.032,51.312,93.032z M62.65,93.032c-2.348,0-4.252,1.904-4.252,4.252s1.904,4.252,4.252,4.252s4.252-1.904,4.252-4.252S64.999,93.032,62.65,93.032z M73.989,93.032c-2.348,0-4.252,1.904-4.252,4.252s1.904,4.252,4.252,4.252s4.252-1.904,4.252-4.252S76.337,93.032,73.989,93.032z M85.327,93.032c-2.348,0-4.252,1.904-4.252,4.252s1.904,4.252,4.252,4.252s4.252-1.904,4.252-4.252S87.676,93.032,85.327,93.032z"  fill="#50A0FF"/>
    </g>
</svg>
