<?xml version='1.0' encoding='utf-8'?>
<!-- Generator: Adobe Illustrator 23.0.2, SVG Export Plug-In . SVG Version: 6.00 Build 0)  -->
<svg xmlns="http://www.w3.org/2000/svg" gorn="0" version="1.1" width="0.720494in" viewBox="0 0 51.8756 75.2512"  id="Layer_1" x="0px" baseProfile="basic" y="0px" height="1.04516in" xml:space="preserve" xmlns:xml="http://www.w3.org/XML/1998/namespace">
    <desc >
        <referenceFile >ESP32-S.svg</referenceFile>
    </desc>
    <style  type="text/css">
	.st0{fill:#282828;}
	.st1{opacity:0.15;fill:#010101;}
	.st2{fill:none;}
	.st3{fill:#D3C071;}
	.st4{fill:#C6C6C4;}
	.st5{fill:#1F1F1F;}
	.st6{fill:#999999;}
	.st7{fill:none;stroke:#C7B879;stroke-width:1.5;stroke-miterlimit:10;}
	.st8{fill:#333333;}
	.st9{opacity:0.2;fill:#010101;}
	.st10{fill:#CCCCCC;}
	.st11{opacity:0.5;fill:#FFFFFF;}
	.st12{opacity:0.1;fill:#010101;}
	.st13{opacity:0.2;fill:#FFFFFF;}
	.st14{fill:#F7F5ED;}
	.st15{fill:none;stroke:#D3C575;stroke-width:0.25;stroke-miterlimit:10;}
	.st16{fill:#D3C575;}
	.st17{fill:#686868;}
	.st18{fill-rule:evenodd;clip-rule:evenodd;fill:#686868;}
</style>
    <path d="M50.6422,22.9114c0,0.5,0.41,0.91,0.92,0.91c0.02,0,0.03,0,0.05-0.01v1.93c-0.02-0.01-0.03-0.01-0.05-0.01c-0.51,0-0.92,0.41-0.92,0.92c0,0.5,0.41,0.91,0.92,0.91c0.02,0,0.03,0,0.05-0.01v1.87c-0.02-0.01-0.03-0.01-0.05-0.01c-0.51,0-0.92,0.41-0.92,0.92c0,0.5,0.41,0.91,0.92,0.91c0.02,0,0.03,0,0.05-0.01v1.87c-0.02-0.0099-0.03-0.0099-0.05-0.0099c-0.51,0-0.92,0.41-0.92,0.92c0,0.5,0.41,0.91,0.92,0.91c0.02,0,0.03,0,0.05-0.01v1.87c-0.02-0.0099-0.03-0.0099-0.05-0.0099c-0.51,0-0.92,0.41-0.92,0.92c0,0.5,0.41,0.91,0.92,0.91c0.02,0,0.03,0,0.05-0.0099v1.86c-0.02-0.01-0.03-0.01-0.05-0.01c-0.51,0-0.92,0.41-0.92,0.92c0,0.5,0.41,0.91,0.92,0.91c0.02,0,0.03,0,0.05-0.01v1.87c-0.02-0.01-0.03-0.01-0.05-0.01c-0.51,0-0.92,0.41-0.92,0.92c0,0.5,0.41,0.91,0.92,0.91c0.02,0,0.03,0,0.05-0.01v1.87c-0.02-0.01-0.03-0.01-0.05-0.01c-0.51,0-0.92,0.41-0.92,0.92c0,0.5,0.41,0.91,0.92,0.91c0.02,0,0.03,0,0.05-0.01v1.86c-0.02-0.01-0.03-0.01-0.05-0.01c-0.51,0-0.92,0.41-0.92,0.92c0,0.5,0.41,0.91,0.92,0.91c0.02,0,0.03,0,0.05-0.01v1.87c-0.02-0.0099-0.03-0.0099-0.05-0.0099c-0.51,0-0.92,0.41-0.92,0.92c0,0.5,0.41,0.91,0.92,0.91c0.02,0,0.03,0,0.05-0.01v1.8701c-0.02-0.01-0.03-0.01-0.05-0.01c-0.51,0-0.92,0.41-0.92,0.92c0,0.5,0.41,0.91,0.92,0.91c0.02,0,0.03,0,0.05-0.0099v1.86c-0.02-0.01-0.03-0.01-0.05-0.01c-0.51,0-0.92,0.41-0.92,0.92c0,0.5,0.41,0.91,0.92,0.91c0.02,0,0.03,0,0.05-0.01v1.87c-0.02-0.01-0.03-0.01-0.05-0.01c-0.51,0-0.92,0.41-0.92,0.92c0,0.5,0.41,0.91,0.92,0.91c0.02,0,0.03,0,0.05-0.01v1.87c-0.02-0.01-0.03-0.01-0.05-0.01c-0.51,0-0.92,0.41-0.92,0.92c0,0.5,0.41,0.91,0.92,0.91c0.02,0,0.03,0,0.05-0.01v3.48h-8.28c-0.01-0.5-0.42-0.9-0.92-0.9c-0.49,0-0.91,0.4-0.92,0.9h-1.84c-0.01-0.5-0.42-0.9-0.92-0.9c-0.49,0-0.91,0.4-0.92,0.9h-1.83c-0.01-0.5-0.42-0.9-0.92-0.9c-0.49,0-0.91,0.4-0.92,0.9h-1.84c-0.01-0.5-0.42-0.9-0.92-0.9c-0.49,0-0.91,0.4-0.92,0.9h-1.84c-0.01-0.5-0.42-0.9-0.92-0.9c-0.49,0-0.91,0.4-0.92,0.9h-1.84c-0.01-0.5-0.42-0.9-0.92-0.9c-0.4901,0-0.91,0.4-0.92,0.9h-1.83c-0.01-0.5-0.42-0.9-0.92-0.9c-0.49,0-0.91,0.4-0.92,0.9h-1.84c-0.0099-0.5-0.42-0.9-0.92-0.9c-0.49,0-0.91,0.4-0.92,0.9h-1.84c-0.0099-0.5-0.42-0.9-0.92-0.9c-0.49,0-0.91,0.4-0.92,0.9h-1.83c-0.01-0.5-0.42-0.9-0.92-0.9c-0.49,0-0.91,0.4-0.92,0.9h-8.29v-3.46c0.5-0.01,0.9-0.42,0.9-0.92c0-0.49-0.4-0.91-0.9-0.92v-1.84c0.5-0.01,0.9-0.42,0.9-0.92c0-0.49-0.4-0.91-0.9-0.92v-1.84c0.5-0.01,0.9-0.42,0.9-0.92c0-0.49-0.4-0.91-0.9-0.92v-1.83c0.5-0.01,0.9-0.42,0.9-0.92c0-0.49-0.4-0.91-0.9-0.92v-1.84c0.5-0.01,0.9-0.42,0.9-0.92c0-0.49-0.4-0.91-0.9-0.92v-1.84c0.5-0.01,0.9-0.42,0.9-0.92c0-0.49-0.4-0.91-0.9-0.92v-1.83c0.5-0.01,0.9-0.42,0.9-0.92c0-0.49-0.4-0.91-0.9-0.92v-1.84c0.5-0.01,0.9-0.42,0.9-0.92c0-0.49-0.4-0.91-0.9-0.92v-1.84c0.5-0.0099,0.9-0.42,0.9-0.92c0-0.49-0.4-0.91-0.9-0.92v-1.83c0.5-0.01,0.9-0.42,0.9-0.92c0-0.49-0.4-0.91-0.9-0.92v-1.84c0.5-0.01,0.9-0.42,0.9-0.92c0-0.49-0.4-0.91-0.9-0.92v-1.84c0.5-0.01,0.9-0.42,0.9-0.92c0-0.49-0.4-0.91-0.9-0.92v-1.84c0.5-0.01,0.9-0.42,0.9-0.92c0-0.4901-0.4-0.91-0.9-0.92v-1.91c0.47-0.03,0.84-0.43,0.84-0.91c0-0.47-0.37-0.87-0.84-0.91v-21.92h51.5v21.92c-0.02-0.01-0.03-0.01-0.05-0.01C51.0521,21.9914,50.6422,22.4014,50.6422,22.9114z"  class="st0"/>
    <rect width="0.103"  x="-0.8655" y="82.1256" height="2.1193" class="st1"/>
    <line  x2="-0.8655" x1="-0.8655" y2="83.423" class="st2" y1="83.423"/>
    <line  x2="0.9488" x1="50.5788" y2="22.9126" class="st2" y1="22.9126"/>
    <path gorn="0.6" d="M3.02,21.41v3H0.05v-0.58c0.02,0,0.04,0,0.06-0.0099c0.47-0.03,0.84-0.43,0.84-0.91c0-0.47-0.37-0.87-0.84-0.91c-0.02-0.01-0.04-0.01-0.06-0.01v-0.58H3.02z"  id="connector0pin" class="st3"/>
    <path gorn="0.7" d="M50.64,22.91c0,0.5,0.41,0.91,0.92,0.91c0.02,0,0.03,0,0.05-0.01v0.6h-2.29v-3h2.29V22c-0.02-0.01-0.03-0.01-0.05-0.01C51.05,21.99,50.64,22.4,50.64,22.91z"  id="connector51pin" class="st3"/>
    <rect width="46.3"  x="3.02" y="21.41" height="3" class="st3"/>
    <line  x2="1.0155" x1="50.6455" y2="26.6562" class="st2" y1="26.6562"/>
    <path gorn="0.10" d="M3.02,25.15v3H0.11v-0.58c0.5-0.01,0.9-0.42,0.9-0.92c0-0.49-0.4-0.91-0.9-0.92v-0.58H3.02z"  id="connector1pin" class="st3"/>
    <path gorn="0.11" d="M50.64,26.65c0,0.5,0.41,0.91,0.92,0.91c0.02,0,0.03,0,0.05-0.01v0.6h-2.29v-3h2.29v0.59c-0.02-0.01-0.03-0.01-0.05-0.01C51.05,25.73,50.64,26.14,50.64,26.65z"  id="connector50pin" class="st3"/>
    <rect width="46.3"  x="3.02" y="25.15" height="3" class="st3"/>
    <line  x2="1.0155" x1="50.6455" y2="30.3331" class="st2" y1="30.3331"/>
    <path gorn="0.14" d="M3.02,28.83v3H0.11v-0.58c0.5-0.01,0.9-0.42,0.9-0.92c0-0.49-0.4-0.91-0.9-0.92v-0.58H3.02z"  id="connector2pin" class="st3"/>
    <path gorn="0.15" d="M50.64,30.33c0,0.5,0.41,0.91,0.92,0.91c0.02,0,0.03,0,0.05-0.01v0.6h-2.29v-3h2.29v0.59c-0.02-0.01-0.03-0.01-0.05-0.01C51.05,29.41,50.64,29.82,50.64,30.33z"  id="connector49pin" class="st3"/>
    <rect width="46.3"  x="3.02" y="28.83" height="3" class="st3"/>
    <line  x2="1.0155" x1="50.6455" y2="34.01" class="st2" y1="34.01"/>
    <path gorn="0.18" d="M3.02,32.51v3H0.11v-0.58c0.5-0.01,0.9-0.42,0.9-0.92c0-0.4901-0.4-0.91-0.9-0.92v-0.58H3.02z"  id="connector4pin" class="st3"/>
    <path gorn="0.19" d="M50.64,34.01c0,0.5,0.41,0.91,0.92,0.91c0.02,0,0.03,0,0.05-0.01v0.6h-2.29v-3h2.29v0.59c-0.02-0.01-0.03-0.01-0.05-0.01C51.05,33.09,50.64,33.5,50.64,34.01z"  id="connector48pin" class="st3"/>
    <rect width="46.3"  x="3.02" y="32.51" height="3" class="st3"/>
    <line  x2="1.0155" x1="50.6455" y2="37.687" class="st2" y1="37.687"/>
    <path gorn="0.22" d="M3.02,36.19v3H0.11v-0.58c0.5-0.01,0.9-0.42,0.9-0.92c0-0.49-0.4-0.91-0.9-0.92v-0.58H3.02z"  id="connector5pin" class="st3"/>
    <path gorn="0.23" d="M50.64,37.69c0,0.5,0.41,0.91,0.92,0.91c0.02,0,0.03,0,0.05-0.01v0.6h-2.29v-3h2.29v0.59c-0.02-0.01-0.03-0.01-0.05-0.01C51.05,36.77,50.64,37.18,50.64,37.69z"  id="connector47pin" class="st3"/>
    <rect width="46.3"  x="3.02" y="36.19" height="3" class="st3"/>
    <line  x2="1.0155" x1="50.6455" y2="41.3639" class="st2" y1="41.3639"/>
    <path gorn="0.26" d="M3.02,39.86v3H0.11v-0.58c0.5-0.01,0.9-0.42,0.9-0.92c0-0.49-0.4-0.91-0.9-0.92v-0.58H3.02z"  id="connector6pin" class="st3"/>
    <path gorn="0.27" d="M50.64,41.36c0,0.5,0.41,0.91,0.92,0.91c0.02,0,0.03,0,0.05-0.0099v0.6h-2.29v-3h2.29v0.59c-0.02-0.01-0.03-0.01-0.05-0.01C51.05,40.44,50.64,40.85,50.64,41.36z"  id="connector46pin" class="st3"/>
    <rect width="46.3"  x="3.02" y="39.86" height="3" class="st3"/>
    <line  x2="1.0155" x1="50.6455" y2="45.0408" class="st2" y1="45.0408"/>
    <path gorn="0.30" d="M3.02,43.54v3H0.11v-0.58c0.5-0.0099,0.9-0.42,0.9-0.92c0-0.49-0.4-0.91-0.9-0.92v-0.58H3.02z"  id="connector7pin" class="st3"/>
    <path gorn="0.31" d="M50.64,45.04c0,0.5,0.41,0.91,0.92,0.91c0.02,0,0.03,0,0.05-0.01v0.6h-2.29v-3h2.29v0.59c-0.02-0.01-0.03-0.01-0.05-0.01C51.05,44.12,50.64,44.53,50.64,45.04z"  id="connector45pin" class="st3"/>
    <rect width="46.3"  x="3.02" y="43.54" height="3" class="st3"/>
    <line  x2="1.0155" x1="50.6455" y2="48.7177" class="st2" y1="48.7177"/>
    <path gorn="0.34" d="M3.02,47.22v3H0.11v-0.58c0.5-0.01,0.9-0.42,0.9-0.92c0-0.49-0.4-0.91-0.9-0.92v-0.58H3.02z"  id="connector8pin" class="st3"/>
    <path gorn="0.35" d="M50.64,48.72c0,0.5,0.41,0.91,0.92,0.91c0.02,0,0.03,0,0.05-0.01v0.6h-2.29v-3h2.29v0.59c-0.02-0.01-0.03-0.01-0.05-0.01C51.05,47.8,50.64,48.21,50.64,48.72z"  id="connector44pin" class="st3"/>
    <rect width="46.3"  x="3.02" y="47.22" height="3" class="st3"/>
    <line  x2="1.0155" x1="50.6455" y2="52.3946" class="st2" y1="52.3946"/>
    <path gorn="0.38" d="M3.02,50.89v3H0.11v-0.58c0.5-0.01,0.9-0.42,0.9-0.92c0-0.4901-0.4-0.91-0.9-0.92v-0.58H3.02z"  id="connector9pin" class="st3"/>
    <path gorn="0.39" d="M50.64,52.39c0,0.5,0.41,0.91,0.92,0.91c0.02,0,0.03,0,0.05-0.01v0.6h-2.29v-3h2.29v0.59c-0.02-0.01-0.03-0.01-0.05-0.01C51.05,51.47,50.64,51.88,50.64,52.39z"  id="connector43pin" class="st3"/>
    <rect width="46.3"  x="3.02" y="50.89" height="3" class="st3"/>
    <line  x2="1.0155" x1="50.6455" y2="56.0716" class="st2" y1="56.0716"/>
    <path gorn="0.42" d="M3.02,54.57v3H0.11v-0.58c0.5-0.01,0.9-0.42,0.9-0.92c0-0.4901-0.4-0.91-0.9-0.92v-0.58H3.02z"  id="connector10pin" class="st3"/>
    <path gorn="0.43" d="M50.64,56.07c0,0.5,0.41,0.91,0.92,0.91c0.02,0,0.03,0,0.05-0.01v0.6h-2.29v-3h2.29v0.59c-0.02-0.01-0.03-0.01-0.05-0.01C51.05,55.15,50.64,55.56,50.64,56.07z"  id="connector42pin" class="st3"/>
    <rect width="46.3"  x="3.02" y="54.57" height="3" class="st3"/>
    <line  x2="1.0155" x1="50.6455" y2="59.7485" class="st2" y1="59.7485"/>
    <path gorn="0.46" d="M3.02,58.25v3H0.11v-0.58c0.5-0.01,0.9-0.42,0.9-0.92c0-0.49-0.4-0.91-0.9-0.92v-0.58H3.02z"  id="connector11pin" class="st3"/>
    <path gorn="0.47" d="M50.64,59.75c0,0.5,0.41,0.91,0.92,0.91c0.02,0,0.03,0,0.05-0.01v0.6h-2.29v-3h2.29v0.59c-0.02-0.01-0.03-0.01-0.05-0.01C51.05,58.83,50.64,59.24,50.64,59.75z"  id="connector41pin" class="st3"/>
    <rect width="46.3"  x="3.02" y="58.25" height="3" class="st3"/>
    <line  x2="1.0155" x1="50.6455" y2="63.4254" class="st2" y1="63.4254"/>
    <path gorn="0.50" d="M3.02,61.92v3H0.11v-0.58c0.5-0.01,0.9-0.42,0.9-0.92c0-0.49-0.4-0.91-0.9-0.92v-0.58H3.02z"  id="connector12pin" class="st3"/>
    <path gorn="0.51" d="M50.64,63.42c0,0.5,0.41,0.91,0.92,0.91c0.02,0,0.03,0,0.05-0.0099v0.6h-2.29v-3h2.29v0.59c-0.02-0.01-0.03-0.01-0.05-0.01C51.05,62.5,50.64,62.91,50.64,63.42z"  id="connector40pin" class="st3"/>
    <path d="M49.32,61.92v3H33.58c-0.01,0-0.01,0-0.02,0H3.02v-3H49.32z"  class="st3"/>
    <line  x2="1.0155" x1="50.6455" y2="67.1023" class="st2" y1="67.1023"/>
    <path gorn="0.54" d="M3.02,65.6v3H0.11v-0.58c0.5-0.0099,0.9-0.42,0.9-0.92c0-0.49-0.4-0.91-0.9-0.92V65.6H3.02z"  id="connector13pin" class="st3"/>
    <path gorn="0.55" d="M50.64,67.1c0,0.5,0.41,0.91,0.92,0.91c0.02,0,0.03,0,0.05-0.01v0.6h-2.29v-3h2.29v0.59c-0.02-0.01-0.03-0.01-0.05-0.01C51.05,66.18,50.64,66.59,50.64,67.1z"  id="connector39pin" class="st3"/>
    <rect width="46.3"  x="3.02" y="65.6" height="3" class="st3"/>
    <line  x2="1.0155" x1="50.6455" y2="70.7793" class="st2" y1="70.7793"/>
    <path gorn="0.58" d="M3.02,69.28v3H0.11V71.7c0.5-0.01,0.9-0.42,0.9-0.92c0-0.49-0.4-0.91-0.9-0.92v-0.58H3.02z"  id="connector14pin" class="st3"/>
    <path gorn="0.59" d="M50.64,70.78c0,0.5,0.41,0.91,0.92,0.91c0.02,0,0.03,0,0.05-0.01v0.6h-2.29v-3h2.29v0.59c-0.02-0.01-0.03-0.01-0.05-0.01C51.05,69.86,50.64,70.27,50.64,70.78z"  id="connector38pin" class="st3"/>
    <rect width="46.3"  x="3.02" y="69.28" height="3" class="st3"/>
    <line  x2="9.3193" x1="9.3193" y2="74.2625" class="st2" y1="24.6325"/>
    <path gorn="0.62" d="M10.82,73.08v2.08h-0.58c-0.01-0.5-0.42-0.9-0.92-0.9c-0.49,0-0.91,0.4-0.92,0.9H7.82v-2.08H10.82z"  id="connector15pin" class="st3"/>
    <path d="M10.82,23.66v49.42h-3V23.66h0.59C8.4,23.68,8.4,23.69,8.4,23.71c0,0.28,0.13,0.54,0.33,0.7c0.16,0.14,0.36,0.22,0.59,0.22c0.22,0,0.42-0.08,0.58-0.22c0.2-0.16,0.33-0.42,0.33-0.7c0-0.02,0-0.03-0.01-0.05H10.82z"  class="st3"/>
    <line  x2="12.9962" x1="12.9962" y2="74.2625" class="st2" y1="24.6325"/>
    <path gorn="0.65" d="M14.49,73.08v2.08h-0.58c-0.0099-0.5-0.42-0.9-0.92-0.9c-0.49,0-0.91,0.4-0.92,0.9h-0.58v-2.08H14.49z"  id="connector16pin" class="st3"/>
    <path d="M14.49,23.66v49.42h-3V23.66h0.59c-0.01,0.02-0.01,0.03-0.01,0.05c0,0.28,0.13,0.54,0.33,0.7c0.16,0.14,0.36,0.22,0.59,0.22c0.22,0,0.42-0.08,0.58-0.22c0.2-0.16,0.33-0.42,0.33-0.7c0-0.02,0-0.03-0.01-0.05H14.49z"  class="st3"/>
    <line  x2="16.6732" x1="16.6732" y2="74.2625" class="st2" y1="24.6325"/>
    <path gorn="0.68" d="M18.17,73.08v2.08h-0.58c-0.01-0.5-0.42-0.9-0.92-0.9c-0.49,0-0.91,0.4-0.92,0.9h-0.58v-2.08H18.17z"  id="connector17pin" class="st3"/>
    <path d="M18.17,23.66v49.42h-3V23.66h0.59c-0.01,0.02-0.01,0.03-0.01,0.05c0,0.28,0.13,0.54,0.33,0.7c0.16,0.14,0.36,0.22,0.59,0.22c0.22,0,0.42-0.08,0.58-0.22c0.2-0.16,0.33-0.42,0.33-0.7c0-0.02,0-0.03-0.01-0.05H18.17z"  class="st3"/>
    <line  x2="20.3501" x1="20.3501" y2="74.2625" class="st2" y1="24.6325"/>
    <path gorn="0.71" d="M21.85,73.08v2.08h-0.58c-0.01-0.5-0.42-0.9-0.92-0.9c-0.49,0-0.91,0.4-0.92,0.9h-0.58v-2.08H21.85z"  id="connector18pin" class="st3"/>
    <path d="M21.85,23.66v49.42h-3V23.66h0.59c-0.01,0.02-0.01,0.03-0.01,0.05c0,0.28,0.13,0.54,0.33,0.7c0.16,0.14,0.36,0.22,0.59,0.22c0.22,0,0.42-0.08,0.58-0.22c0.2-0.16,0.33-0.42,0.33-0.7c0-0.02,0-0.03-0.01-0.05H21.85z"  class="st3"/>
    <line  x2="24.027" x1="24.027" y2="74.2625" class="st2" y1="24.6325"/>
    <path gorn="0.74" d="M25.52,73.08v2.08h-0.58c-0.01-0.5-0.42-0.9-0.92-0.9c-0.49,0-0.91,0.4-0.92,0.9h-0.58v-2.08H25.52z"  id="connector19pin" class="st3"/>
    <path d="M25.52,23.66v49.42h-3V23.66h0.59c-0.01,0.02-0.01,0.03-0.01,0.05c0,0.28,0.13,0.54,0.33,0.7c0.16,0.14,0.36,0.22,0.59,0.22c0.22,0,0.42-0.08,0.58-0.22c0.2-0.16,0.33-0.42,0.33-0.7c0-0.02,0-0.03-0.01-0.05H25.52z"  class="st3"/>
    <line  x2="27.7039" x1="27.7039" y2="74.2625" class="st2" y1="24.6325"/>
    <path gorn="0.77" d="M29.2,73.08v2.08h-0.58c-0.01-0.5-0.42-0.9-0.92-0.9c-0.49,0-0.91,0.4-0.92,0.9H26.2v-2.08H29.2z"  id="connector20pin" class="st3"/>
    <path d="M29.2,23.66v49.42h-3V23.66h0.59C26.78,23.68,26.78,23.69,26.78,23.71c0,0.28,0.1299,0.54,0.33,0.7c0.16,0.14,0.36,0.22,0.59,0.22c0.22,0,0.42-0.08,0.58-0.22c0.2-0.16,0.33-0.42,0.33-0.7c0-0.02,0-0.03-0.01-0.05H29.2z"  class="st3"/>
    <line  x2="31.3808" x1="31.3808" y2="74.2625" class="st2" y1="24.6325"/>
    <path gorn="0.80" d="M32.88,73.08v2.08H32.3c-0.01-0.5-0.42-0.9-0.92-0.9c-0.49,0-0.91,0.4-0.92,0.9h-0.58v-2.08H32.88z"  id="connector21pin" class="st3"/>
    <path d="M32.88,23.66v49.42h-3V23.66h0.59C30.46,23.68,30.46,23.69,30.46,23.71c0,0.28,0.13,0.54,0.33,0.7c0.02,0.03,0.05,0.05,0.07,0.06c0.15,0.1,0.33,0.16,0.52,0.16c0.02,0,0.04,0,0.06-0.01h0.01c0.2-0.01,0.37-0.08,0.51-0.21c0.2-0.16,0.33-0.42,0.33-0.7c0-0.02,0-0.03-0.0099-0.05H32.88z"  class="st3"/>
    <line  x2="35.0578" x1="35.0578" y2="74.2625" class="st2" y1="24.6325"/>
    <path gorn="0.83" d="M36.56,73.08v2.08h-0.58c-0.01-0.5-0.42-0.9-0.92-0.9c-0.49,0-0.91,0.4-0.92,0.9h-0.58v-2.08H36.56z"  id="connector22pin" class="st3"/>
    <path d="M36.56,23.66v49.42h-3V23.66h0.59c-0.01,0.02-0.01,0.03-0.01,0.05c0,0.28,0.13,0.54,0.33,0.7c0.16,0.14,0.36,0.22,0.59,0.22c0.22,0,0.42-0.08,0.58-0.22c0.2-0.16,0.33-0.42,0.33-0.7c0-0.02,0-0.03-0.0099-0.05H36.56z"  class="st3"/>
    <line  x2="38.7347" x1="38.7347" y2="74.2625" class="st2" y1="24.6325"/>
    <path gorn="0.86" d="M40.23,73.08v2.08h-0.58c-0.01-0.5-0.42-0.9-0.92-0.9c-0.49,0-0.91,0.4-0.92,0.9h-0.58v-2.08H40.23z"  id="connector36pin" class="st3"/>
    <path d="M40.23,23.66v49.42h-3V23.66h0.59c-0.01,0.02-0.01,0.03-0.01,0.05c0,0.28,0.13,0.54,0.33,0.7c0.16,0.14,0.36,0.22,0.59,0.22c0.22,0,0.42-0.08,0.58-0.22c0.09-0.07,0.16-0.15,0.21-0.25c0.08-0.13,0.12-0.29,0.12-0.45c0-0.02,0-0.03-0.01-0.05H40.23z"  class="st3"/>
    <line  x2="42.4116" x1="42.4116" y2="74.2625" class="st2" y1="24.6325"/>
    <path gorn="0.89" d="M43.91,73.08v2.08h-0.58c-0.01-0.5-0.42-0.9-0.92-0.9c-0.49,0-0.91,0.4-0.92,0.9h-0.58v-2.08H43.91z"  id="connector37pin" class="st3"/>
    <path d="M43.91,23.66c0,0,0,0,0,0.01v49.41h-3V23.66h0.59c-0.01,0.02-0.01,0.03-0.01,0.05c0,0.28,0.13,0.54,0.33,0.7c0.16,0.14,0.36,0.22,0.59,0.22c0.22,0,0.42-0.08,0.58-0.22c0.16-0.12,0.27-0.3,0.31-0.5c0.01-0.07,0.02-0.13,0.02-0.2c0-0.02,0-0.03-0.01-0.05H43.91z"  class="st3"/>
    <rect width="46.3"  x="3.02" y="20.68" height="52.4" class="st4"/>
    <rect width="17.87"  x="31.45" y="19.53" height="10.69" class="st5"/>
    <polygon  points="31.4541,20.6908 3.0144,20.6908 4.0795,21.3307 30.382,21.3307 " class="st6"/>
    <polygon  points="49.3166,30.2075 31.4416,30.2075 32.1111,30.8474 48.6428,30.8474 " class="st6"/>
    <polygon  points="49.32,73.08 3,73.08 3.02,73.07 4.75,72.44 47.58,72.44 " class="st6"/>
    <polygon  points="49.3097,73.0902 49.3097,30.2076 48.6698,31.8136 48.6698,71.4736 " class="st6"/>
    <polygon  points="3.013,20.6834 3.013,73.0826 3.6529,71.1202 3.6529,22.6588 " class="st6"/>
    <polygon  points="31.4431,30.2076 31.4431,20.6826 30.8666,21.0393 30.8666,29.8485 " class="st6"/>
    <line  x2="1.9723" x1="1.9723" y2="1.8326" class="st7" y1="15.0326"/>
    <line  x2="8.5057" x1="8.5057" y2="2.0159" class="st7" y1="10.4159"/>
    <line  x2="15.6723" x1="15.6723" y2="1.9492" class="st7" y1="10.3492"/>
    <line  x2="22.6223" x1="22.6223" y2="2.1826" class="st7" y1="10.5826"/>
    <line  x2="29.589" x1="29.589" y2="1.7659" class="st7" y1="10.1659"/>
    <line  x2="35.8723" x1="35.8723" y2="1.8826" class="st7" y1="15.3826"/>
    <line  x2="42.3223" x1="42.3223" y2="1.8326" class="st7" y1="15.3326"/>
    <line  x2="28.8557" x1="43.0723" y2="2.1159" class="st7" y1="2.1159"/>
    <line  x2="1.2223" x1="9.2557" y2="2.0828" class="st7" y1="2.0661"/>
    <line  x2="8.3723" x1="16.4057" y2="9.6661" class="st7" y1="9.6495"/>
    <line  x2="15.339" x1="23.3723" y2="2.6995" class="st7" y1="2.6828"/>
    <line  x2="22.289" x1="30.3223" y2="9.7828" class="st7" y1="9.7661"/>
    <g  transform="matrix(0.7071 -0.7071 0.7071 0.7071 -3.6652 30.4696)">
        <g >
            <rect width="5.671"  x="32.1119" y="18.3791" height="2.56" class="st8"/>
        </g>
    </g>
    <g  transform="matrix(0.7071 -0.7071 0.7071 0.7071 -3.294 29.5724)">
        <g >
            <rect width="5.67"  x="31.2151" y="18.7519" height="0.021" class="st9"/>
        </g>
    </g>
    <path d="M34.4273,21.9879L34.4273,21.9879L34.4273,21.9879l0.0453-0.0453l0,0c-0.0771-0.1648-0.5013-0.647-0.6357-0.7814c-0.1407-0.1407-1.0006-0.9511-1.1738-1.0281l-0.6279,0.6279l1.8095,1.8095L34.4273,21.9879z"  class="st10"/>
    <path d="M37.1794,19.1354l0.0488,0.0488l0.6272-0.6272l-1.8088-1.8088l-0.6272,0.6272c0.0834,0.1725,0.6795,0.845,0.8217,0.9871C36.4093,18.5309,36.975,19.0499,37.1794,19.1354z"  class="st10"/>
    <g  transform="matrix(0.7071 -0.7071 0.7071 0.7071 -1.6036 30.2764)">
        <g >
            <rect width="0.887"  x="35.3015" y="17.0589" height="0.03" class="st1"/>
        </g>
    </g>
    <g  transform="matrix(0.7071 -0.7071 0.7071 0.7071 -2.3442 32.0643)">
        <g >
            <rect width="0.887"  x="37.0894" y="18.8473" height="0.029" class="st11"/>
        </g>
    </g>
    <g  transform="matrix(0.7071 -0.7071 0.7071 0.7071 -4.9863 28.876)">
        <g >
            <rect width="0.888"  x="31.9193" y="20.442" height="0.03" class="st1"/>
        </g>
    </g>
    <g  transform="matrix(0.7071 -0.7071 0.7071 0.7071 -5.7272 30.6638)">
        <g >
            <rect width="0.889"  x="33.7063" y="22.2308" height="0.029" class="st11"/>
        </g>
    </g>
    <line  x2="35.6641" x1="35.6641" y2="17.1336" class="st2" y1="17.1336"/>
    <g  transform="matrix(0.7071 -0.7071 0.7071 0.7071 -5.6395 29.6581)">
        <g >
            <rect width="0.116"  x="32.9227" y="20.3655" height="2.542" class="st12"/>
        </g>
    </g>
    <g  transform="matrix(0.7071 -0.7071 0.7071 0.7071 -1.704 31.2878)">
        <g >
            <rect width="0.114"  x="36.8587" y="16.4298" height="2.542" class="st13"/>
        </g>
    </g>
    <rect width="5.8908"  x="40.3781" y="17.0187" height="12.1034" class="st14"/>
    <rect width="0.0483"  x="40.3804" y="17.0209" height="12.1012" class="st9"/>
    <path d="M46.2666,27.3699L46.2666,27.3699L46.2666,27.3699v-0.1366l0,0c-0.3935-0.1323-1.8685-0.2198-2.3057-0.2198c-0.4579,0-3.1755,0.0747-3.5828,0.2198v1.8952h5.8885V27.3699z"  class="st10"/>
    <path d="M46.1032,18.9118h0.1588v-1.8931h-5.8862v1.8931c0.4165,0.1345,2.4806,0.2497,2.9431,0.2497C43.8665,19.1615,45.6315,19.0911,46.1032,18.9118z"  class="st10"/>
    <rect width="0.069"  x="40.3804" y="17.0187" height="1.8931" class="st1"/>
    <rect width="0.0667"  x="46.1998" y="17.0187" height="1.8931" class="st11"/>
    <rect width="0.069"  x="40.3827" y="27.2269" height="1.8952" class="st1"/>
    <rect width="0.0667"  x="46.2021" y="27.2269" height="1.8974" class="st11"/>
    <line  x2="40.3804" x1="40.3804" y2="18.1776" class="st2" y1="18.1776"/>
    <rect width="5.8494"  x="40.4163" y="28.8989" height="0.2476" class="st12"/>
    <rect width="5.8494"  x="40.4151" y="17.023" height="0.2433" class="st13"/>
    <path d="M46.5552,27.0206h-6.4658c-0.3131,0-0.5669-0.2538-0.5669-0.5669v-6.7422c0-0.3131,0.2538-0.5669,0.5669-0.5669h6.4658c0.3131,0,0.5669,0.2538,0.5669,0.5669v6.7422C47.1222,26.7668,46.8683,27.0206,46.5552,27.0206z"  class="st14"/>
    <circle r="2.7667"  cx="43.3223" cy="23.0826" class="st15"/>
    <circle r="0.8333"  cx="43.3223" cy="23.0826" class="st16"/>
    <path d="M24.6879,42.8v-4.1582h2.6699v0.6421h-1.9141v1.0259h1.7041v0.6304h-1.7041v1.2178h2.0576V42.8H24.6879z"  class="st17"/>
    <path d="M28.9115,42.236c0.2725,0,0.4697-0.0459,0.5938-0.1382c0.124-0.0918,0.1865-0.2217,0.1865-0.3896c0-0.1001-0.0215-0.186-0.0635-0.2583c-0.042-0.0718-0.1016-0.1367-0.1797-0.1948s-0.1729-0.1118-0.2852-0.1621c-0.1123-0.0498-0.2402-0.0991-0.3838-0.147c-0.1436-0.0518-0.2832-0.1089-0.417-0.1709s-0.252-0.1392-0.3545-0.231c-0.1016-0.0923-0.1836-0.2021-0.2451-0.3301c-0.0625-0.1279-0.0938-0.2822-0.0938-0.4619c0-0.376,0.1299-0.6709,0.3906-0.8853c0.2598-0.2139,0.6133-0.3208,1.0615-0.3208c0.2598,0,0.4912,0.0288,0.6934,0.0869s0.3604,0.1211,0.4766,0.189l-0.2334,0.6118c-0.1367-0.0757-0.2852-0.1338-0.4473-0.1738s-0.3291-0.0601-0.501-0.0601c-0.2041,0-0.3633,0.042-0.4775,0.126c-0.1133,0.084-0.1709,0.2021-0.1709,0.354c0,0.0923,0.0195,0.1709,0.0576,0.2373c0.0381,0.0659,0.0918,0.125,0.1621,0.1768c0.0693,0.0522,0.1514,0.1001,0.2461,0.144c0.0938,0.0439,0.1963,0.0859,0.3086,0.126c0.1963,0.0723,0.3711,0.145,0.5254,0.2192c0.1533,0.0737,0.2832,0.1616,0.3896,0.2637c0.1055,0.1021,0.1865,0.2222,0.2432,0.3604c0.0557,0.1377,0.084,0.3047,0.084,0.501c0,0.376-0.1328,0.667-0.3994,0.8726c-0.2656,0.2065-0.6553,0.3091-1.167,0.3091c-0.1719,0-0.3291-0.0107-0.4707-0.0327c-0.1426-0.022-0.2686-0.0493-0.3779-0.0811c-0.1104-0.0322-0.2051-0.0649-0.2852-0.0991c-0.0801-0.0337-0.1445-0.0649-0.1924-0.0928l0.2227-0.6182c0.1074,0.0601,0.2539,0.1201,0.4375,0.1802C28.4301,42.2058,28.6518,42.236,28.9115,42.236z"  class="st17"/>
    <path d="M32.0199,38.5998c0.6045,0,1.0674,0.1104,1.3896,0.3301c0.3213,0.2202,0.4824,0.564,0.4824,1.0322c0,0.2441-0.043,0.4531-0.1289,0.627s-0.2109,0.3159-0.375,0.4258c-0.1641,0.1104-0.3643,0.1914-0.5996,0.2432c-0.2363,0.0522-0.5068,0.0781-0.8105,0.0781H31.6V42.8h-0.7559v-4.0981c0.1758-0.0396,0.3711-0.0669,0.585-0.0811C31.643,38.6071,31.8402,38.5998,32.0199,38.5998z M32.0736,39.2541c-0.1914,0-0.3496,0.0059-0.4736,0.0181v1.416h0.3662c0.3643,0,0.6436-0.0513,0.8398-0.1533S33.1,40.2399,33.1,39.9558c0-0.1357-0.0264-0.2495-0.0781-0.3418c-0.0518-0.0918-0.124-0.1641-0.2158-0.2158c-0.0918-0.0522-0.2012-0.0894-0.3271-0.1113S32.2182,39.2541,32.0736,39.2541z"  class="st17"/>
    <path d="M35.1996,42.8898c-0.1084,0-0.2188-0.0068-0.333-0.021c-0.1143-0.0137-0.2217-0.0317-0.3242-0.0537c-0.1016-0.022-0.1943-0.0459-0.2783-0.0723c-0.084-0.0259-0.1484-0.0508-0.1924-0.0747l0.1436-0.6182c0.084,0.04,0.2061,0.085,0.3662,0.1348c0.1602,0.0503,0.3584,0.0752,0.5938,0.0752c0.3164,0,0.5439-0.061,0.6846-0.1831c0.1396-0.1216,0.21-0.2847,0.21-0.4888c0-0.1323-0.0273-0.2422-0.0811-0.3301s-0.1279-0.1592-0.2217-0.2129c-0.0947-0.0542-0.2021-0.0923-0.3242-0.1143s-0.251-0.0327-0.3867-0.0327H34.81v-0.5884h0.2998c0.0918,0,0.1846-0.0088,0.2793-0.0269c0.0938-0.0181,0.1787-0.0498,0.2549-0.0957c0.0752-0.0464,0.1377-0.1069,0.1855-0.1831s0.0723-0.1743,0.0723-0.2939c0-0.0962-0.0186-0.1782-0.0537-0.2461c-0.0361-0.0679-0.084-0.124-0.1416-0.168s-0.125-0.0762-0.2012-0.0962s-0.1553-0.0298-0.2393-0.0298c-0.1807,0-0.3408,0.0269-0.4805,0.0811c-0.1396,0.0537-0.2637,0.1147-0.3721,0.1826l-0.2637-0.5396c0.0557-0.0361,0.124-0.0742,0.2041-0.1143s0.1689-0.0781,0.2666-0.1138c0.0977-0.0361,0.2031-0.0649,0.3154-0.0874c0.1113-0.022,0.2295-0.0327,0.3535-0.0327c0.2324,0,0.4326,0.0278,0.6006,0.084s0.3066,0.1348,0.417,0.2368c0.1094,0.1021,0.1914,0.2222,0.2451,0.3599c0.0547,0.1382,0.0811,0.2891,0.0811,0.4531c0,0.1919-0.0527,0.3643-0.1582,0.5161c-0.1064,0.1519-0.2432,0.2681-0.4111,0.3481c0.2158,0.0757,0.3945,0.2017,0.5371,0.3779c0.1416,0.1758,0.2129,0.4019,0.2129,0.6777c0,0.1841-0.0322,0.3555-0.0967,0.5132c-0.0635,0.1582-0.1611,0.2939-0.2939,0.4082c-0.1318,0.1138-0.2988,0.2036-0.501,0.27C35.7201,42.8571,35.4799,42.8898,35.1996,42.8898z"  class="st17"/>
    <path d="M39.7777,39.7219c0,0.144-0.0293,0.2852-0.0898,0.4233c-0.0596,0.1377-0.1367,0.272-0.2305,0.4019c-0.0947,0.1299-0.2012,0.2559-0.3213,0.3779s-0.2402,0.2412-0.3604,0.3569c-0.0635,0.0601-0.1357,0.1318-0.2158,0.2163c-0.0801,0.084-0.1563,0.168-0.2275,0.252c-0.0723,0.084-0.1348,0.165-0.1865,0.2427c-0.0518,0.0781-0.0801,0.1431-0.084,0.1953h1.8477V42.8h-2.6455c-0.0039-0.0317-0.0059-0.0708-0.0059-0.1172c0-0.0459,0-0.0811,0-0.105c0-0.1919,0.0303-0.3687,0.0928-0.5308c0.0615-0.1621,0.1426-0.313,0.2432-0.4531c0.0996-0.1401,0.2119-0.272,0.3359-0.396s0.248-0.2461,0.3721-0.3657c0.0957-0.0923,0.1875-0.1821,0.2754-0.27c0.0889-0.0884,0.165-0.1753,0.2314-0.2612s0.1191-0.1738,0.1592-0.2642c0.04-0.0898,0.0596-0.1826,0.0596-0.2788c0-0.208-0.0596-0.356-0.1797-0.4438s-0.2666-0.1323-0.4385-0.1323c-0.1113,0-0.2158,0.0161-0.3115,0.0483c-0.0957,0.0317-0.1807,0.0698-0.2549,0.1138s-0.1396,0.0894-0.1953,0.1353s-0.0977,0.083-0.126,0.1108l-0.3604-0.5103c0.1689-0.1597,0.3652-0.2886,0.5918-0.3867c0.2256-0.0981,0.4688-0.147,0.7285-0.147c0.4443,0,0.7715,0.105,0.9814,0.3149S39.7777,39.3581,39.7777,39.7219z"  class="st17"/>
    <path d="M40.1371,40.7541h1.6143v0.666h-1.6143V40.7541z"  class="st17"/>
    <path d="M43.0951,42.236c0.2725,0,0.4697-0.0459,0.5938-0.1382c0.124-0.0918,0.1865-0.2217,0.1865-0.3896c0-0.1001-0.0215-0.186-0.0635-0.2583c-0.042-0.0718-0.1016-0.1367-0.1797-0.1948s-0.1729-0.1118-0.2852-0.1621c-0.1123-0.0498-0.2402-0.0991-0.3838-0.147c-0.1436-0.0518-0.2832-0.1089-0.417-0.1709s-0.252-0.1392-0.3545-0.231c-0.1016-0.0923-0.1836-0.2021-0.2451-0.3301c-0.0625-0.1279-0.0938-0.2822-0.0938-0.4619c0-0.376,0.1299-0.6709,0.3906-0.8853c0.2598-0.2139,0.6133-0.3208,1.0615-0.3208c0.2598,0,0.4912,0.0288,0.6934,0.0869s0.3604,0.1211,0.4766,0.189l-0.2334,0.6118c-0.1367-0.0757-0.2852-0.1338-0.4473-0.1738s-0.3291-0.0601-0.501-0.0601c-0.2041,0-0.3633,0.042-0.4775,0.126c-0.1133,0.084-0.1709,0.2021-0.1709,0.354c0,0.0923,0.0195,0.1709,0.0576,0.2373c0.0381,0.0659,0.0918,0.125,0.1621,0.1768c0.0693,0.0522,0.1514,0.1001,0.2461,0.144c0.0938,0.0439,0.1963,0.0859,0.3086,0.126c0.1963,0.0723,0.3711,0.145,0.5254,0.2192c0.1533,0.0737,0.2832,0.1616,0.3896,0.2637c0.1055,0.1021,0.1865,0.2222,0.2432,0.3604c0.0557,0.1377,0.084,0.3047,0.084,0.501c0,0.376-0.1328,0.667-0.3994,0.8726c-0.2656,0.2065-0.6553,0.3091-1.167,0.3091c-0.1719,0-0.3291-0.0107-0.4707-0.0327c-0.1426-0.022-0.2686-0.0493-0.3779-0.0811c-0.1104-0.0322-0.2051-0.0649-0.2852-0.0991c-0.0801-0.0337-0.1445-0.0649-0.1924-0.0928l0.2227-0.6182c0.1074,0.0601,0.2539,0.1201,0.4375,0.1802C42.6137,42.2058,42.8354,42.236,43.0951,42.236z"  class="st17"/>
    <path d="M17.5025,53.4457h0.8041v-2.2474h-0.8041V53.4457z M17.9046,50.9424c0.2742,0,0.4752-0.1461,0.4752-0.3836c0-0.2377-0.201-0.3839-0.4752-0.3839c-0.2557,0-0.4566,0.1463-0.4566,0.3839C17.4479,50.7963,17.6487,50.9424,17.9046,50.9424z M14.3233,53.4458h0.8588v-0.9502h1.6445v-0.731H15.182v-0.6943h1.8273v-0.7308h-2.686V53.4458z"  class="st18"/>
    <path d="M17.594,48.7041H8.2204c-1.3156,0-2.3938,1.0781-2.3938,2.3937v1.4253c0,1.3156,1.0783,2.3937,2.3938,2.3937h9.3736c1.3156,0,2.3937-1.0781,2.3937-2.3938v-1.4251C19.9877,49.7823,18.9096,48.7041,17.594,48.7041z M10.084,53.2722H9.2801L9.134,52.5961c-0.0914-0.4752-0.1828-1.0597-0.201-1.279c-0.0184,0.2193-0.1097,0.8039-0.2193,1.279l-0.1463,0.6761H7.7818l-0.7308-3.1063h0.8769l0.0914,0.53c0.0731,0.4385,0.1461,0.9683,0.1826,1.3337c0.0365-0.3654,0.1279-0.8955,0.2375-1.3337l0.1096-0.53h0.7857l0.1097,0.53c0.0912,0.4385,0.1826,0.9683,0.2191,1.3337c0.0367-0.3654,0.1279-0.8955,0.201-1.3337l0.073-0.53h0.8771L10.084,53.2722z M12.0027,53.272h-0.8041v-2.2474h0.8041V53.272z M11.6007,50.7688c-0.2558,0-0.4568-0.1461-0.4568-0.3836c0-0.2377,0.201-0.3839,0.4568-0.3839c0.274,0,0.4752,0.1463,0.4752,0.3839C12.0757,50.6227,11.8748,50.7688,11.6007,50.7688z M19.5125,52.523c0,1.0597-0.8586,1.9368-1.9185,1.9368h-5.3539c0.6031-0.4385,0.9867-1.1329,0.9867-1.937v-1.4251c0-1.0779,0.8771-1.9367,1.9368-1.9367h2.4303c1.0599,0,1.9185,0.8588,1.9185,1.9367V52.523z M17.5025,53.272h0.8041v-2.2474h-0.8041V53.272z M17.9046,50.0013c-0.2557,0-0.4566,0.1463-0.4566,0.3839c0,0.2375,0.2008,0.3836,0.4566,0.3836c0.2742,0,0.4752-0.1461,0.4752-0.3836C18.3798,50.1476,18.1788,50.0013,17.9046,50.0013z M14.3233,53.2722h0.8588v-0.9502h1.6445v-0.731H15.182v-0.6943h1.8273v-0.7308h-2.686V53.2722z"  class="st18"/>
    <rect width="0.8041"  x="17.5025" y="51.0247" height="2.2474" class="st18"/>
    <path d="M17.9046,50.0013c-0.2557,0-0.4566,0.1463-0.4566,0.3839c0,0.2375,0.2008,0.3836,0.4566,0.3836c0.2742,0,0.4752-0.1461,0.4752-0.3836C18.3798,50.1476,18.1788,50.0013,17.9046,50.0013z"  class="st18"/>
    <polygon  points="17.0093,50.8967 17.0093,50.1659 14.3233,50.1659 14.3233,53.2722 15.182,53.2722 15.182,52.3221 16.8265,52.3221 16.8265,51.591 15.182,51.591 15.182,50.8967 " class="st18"/>
    <path d="M24.456,47.6089c-1.8346,0-3.0995,0.8717-3.0995,4.2013c0,3.3299,1.2648,4.2016,3.0995,4.2016v0c1.8347,0,3.0989-0.8716,3.0989-4.2016C27.5549,48.4804,26.2908,47.6089,24.456,47.6089z M24.1837,55.4229v-2.8687l-1.1967,1.1971l-0.4353-0.4355l1.502-1.5058l-1.5018-1.5057l0.4353-0.4352l1.1964,1.197v-2.8684l2.1759,2.1757l-1.4367,1.4367l1.4369,1.4371L24.1837,55.4229z M25.4902,50.3784l-0.6947-0.6947l0.0004,1.3889L25.4902,50.3784z M24.7955,53.9365l0.6947-0.6946l-0.6943-0.6943L24.7955,53.9365z M25.4902,50.3784l-0.6947-0.6947l0.0004,1.3889L25.4902,50.3784z M24.7955,53.9365l0.6947-0.6946l-0.6943-0.6943L24.7955,53.9365z M24.7959,52.5476l-0.0004,1.3889l0.6947-0.6946L24.7959,52.5476z M24.7955,49.6837l0.0004,1.3889l0.6943-0.6942L24.7955,49.6837z"  class="st17"/>
    <path d="M41.4345,55.0971c-1.6004,0.1912-3.0238-1.338-3.0238-3.2866c0-1.9486,1.4235-3.481,3.0236-3.2864v0.9979c-1.1419-0.1989-2.199,0.8829-2.199,2.2884c0,1.4055,1.0572,2.4873,2.199,2.2884L41.4345,55.0971z"  class="st17"/>
    <path d="M43.3887,51.314h2.1984v0.9905h-2.1984L43.3887,51.314z"  class="st17"/>
    <path d="M46.1457,49.5215c-1.1415-0.1988-2.1983,0.8827-2.1983,2.2877s1.0569,2.4865,2.1983,2.2877v0.9976c-1.5996,0.1946-3.0227-1.3373-3.0227-3.2853c0-1.948,1.423-3.4767,3.0229-3.2856L46.1457,49.5215z"  class="st17"/>
    <path d="M29.4457,54.3801v-5.5522h3.5098v0.8569h-2.5v1.4185h2.2187v0.8574h-2.2187v2.4194H29.4457z"  class="st17"/>
    <path d="M35.7592,54.5002c-0.417,0-0.791-0.064-1.1221-0.1924c-0.3311-0.1279-0.6113-0.3164-0.8408-0.5649c-0.2295-0.248-0.4063-0.5513-0.5293-0.9092s-0.1836-0.769-0.1836-1.2339s0.0703-0.876,0.2119-1.2339s0.335-0.6611,0.5811-0.9092c0.2451-0.2485,0.5342-0.437,0.8652-0.5649c0.3311-0.1284,0.6865-0.1924,1.0654-0.1924c0.2295,0,0.4385,0.0176,0.625,0.0522c0.1875,0.0347,0.3496,0.0732,0.4893,0.1162c0.1387,0.0425,0.2529,0.0879,0.3438,0.1362c0.0908,0.0479,0.1553,0.0825,0.1924,0.104l-0.2959,0.8252c-0.1289-0.0801-0.3115-0.1563-0.5488-0.2285c-0.2383-0.0718-0.4961-0.1079-0.7734-0.1079c-0.2402,0-0.4648,0.0415-0.6729,0.124c-0.209,0.083-0.3887,0.207-0.541,0.3726s-0.2715,0.374-0.3564,0.625c-0.0859,0.251-0.1279,0.5425-0.1279,0.8735c0,0.2935,0.0332,0.5635,0.0996,0.8091c0.0674,0.2456,0.1699,0.458,0.3086,0.6372c0.1387,0.1787,0.3154,0.3174,0.5293,0.4165c0.2129,0.0986,0.4697,0.1479,0.7686,0.1479c0.3584,0,0.6494-0.0361,0.873-0.1079c0.2246-0.0723,0.3984-0.1401,0.5215-0.2046l0.2725,0.8257c-0.0645,0.0425-0.1514,0.0854-0.2607,0.1279c-0.1094,0.043-0.2393,0.084-0.3887,0.124s-0.3174,0.0723-0.5049,0.0962C36.1732,54.4885,35.973,54.5002,35.7592,54.5002z"  class="st17"/>
    <path d="M34.4916,51.6281c0-0.2319,0.0361-0.4492,0.1084-0.6509c0.0713-0.2021,0.1748-0.377,0.3086-0.5254c0.1338-0.1479,0.2969-0.2637,0.4893-0.3477c0.1914-0.084,0.4072-0.126,0.6475-0.126c0.2959,0,0.5762,0.0537,0.8398,0.1616l-0.1553,0.5942c-0.084-0.0361-0.1797-0.0659-0.2852-0.0898c-0.1064-0.0244-0.2188-0.0361-0.3389-0.0361c-0.2842,0-0.5,0.0889-0.6484,0.2671c-0.1475,0.1777-0.2217,0.4287-0.2217,0.7529c0,0.312,0.0693,0.5591,0.21,0.7407c0.1396,0.1821,0.376,0.2734,0.708,0.2734c0.124,0,0.2461-0.0122,0.3662-0.0361c0.1191-0.0239,0.2236-0.0542,0.3115-0.0903l0.1025,0.6001c-0.0801,0.04-0.2012,0.0762-0.3633,0.1079c-0.1621,0.0322-0.3291,0.0483-0.501,0.0483c-0.2686,0-0.501-0.041-0.6992-0.123s-0.3623-0.1958-0.4922-0.3423c-0.1299-0.146-0.2266-0.3198-0.291-0.522C34.5238,52.0832,34.4916,51.864,34.4916,51.6281z"  class="st17"/>
    <path d="M7.4604,61.7336v-2.772h1.752v0.4277h-1.248v0.708h1.1084v0.4282H7.9643v1.208H7.4604z"  class="st17"/>
    <path d="M10.6127,61.7937c-0.208,0-0.3955-0.0322-0.5605-0.0962s-0.3057-0.1577-0.4199-0.2817s-0.2031-0.2754-0.2637-0.4541c-0.0615-0.1787-0.0928-0.3838-0.0928-0.6162c0-0.2319,0.0361-0.437,0.1064-0.6157s0.167-0.3301,0.29-0.4541s0.2666-0.2178,0.4316-0.2822c0.166-0.064,0.3428-0.0957,0.5322-0.0957c0.1143,0,0.2188,0.0088,0.3125,0.0259c0.0928,0.0176,0.1738,0.0366,0.2432,0.0581s0.127,0.0439,0.1729,0.0679c0.0449,0.0239,0.0771,0.0415,0.0957,0.0522l-0.1484,0.4116c-0.0635-0.0396-0.1553-0.0776-0.2734-0.1138c-0.1191-0.0361-0.248-0.0542-0.3867-0.0542c-0.1191,0-0.2314,0.021-0.3359,0.062c-0.1035,0.0415-0.1934,0.1035-0.2695,0.186c-0.0762,0.083-0.1357,0.187-0.1777,0.312c-0.043,0.1255-0.0645,0.271-0.0645,0.436c0,0.147,0.0166,0.2813,0.0498,0.4043c0.0332,0.1226,0.085,0.2285,0.1543,0.3179s0.1572,0.1587,0.2637,0.208c0.1074,0.0493,0.2354,0.0737,0.3848,0.0737c0.1787,0,0.3232-0.0176,0.4355-0.0537s0.1982-0.0703,0.2598-0.1021l0.1367,0.4121c-0.0322,0.021-0.0762,0.0425-0.1309,0.064s-0.1191,0.042-0.1934,0.062c-0.0752,0.02-0.1592,0.0356-0.252,0.0479C10.8188,61.7878,10.7191,61.7937,10.6127,61.7937z"  class="st17"/>
    <path d="M12.893,61.7937c-0.208,0-0.3955-0.0322-0.5605-0.0962s-0.3057-0.1577-0.4199-0.2817s-0.2031-0.2754-0.2637-0.4541c-0.0615-0.1787-0.0928-0.3838-0.0928-0.6162c0-0.2319,0.0361-0.437,0.1064-0.6157s0.167-0.3301,0.29-0.4541s0.2666-0.2178,0.4316-0.2822c0.166-0.064,0.3428-0.0957,0.5322-0.0957c0.1143,0,0.2188,0.0088,0.3125,0.0259c0.0928,0.0176,0.1738,0.0366,0.2432,0.0581s0.127,0.0439,0.1729,0.0679c0.0449,0.0239,0.0771,0.0415,0.0957,0.0522l-0.1484,0.4116c-0.0635-0.0396-0.1553-0.0776-0.2734-0.1138c-0.1191-0.0361-0.248-0.0542-0.3867-0.0542c-0.1191,0-0.2314,0.021-0.3359,0.062c-0.1035,0.0415-0.1934,0.1035-0.2695,0.186c-0.0762,0.083-0.1357,0.187-0.1777,0.312c-0.043,0.1255-0.0645,0.271-0.0645,0.436c0,0.147,0.0166,0.2813,0.0498,0.4043c0.0332,0.1226,0.085,0.2285,0.1543,0.3179s0.1572,0.1587,0.2637,0.208c0.1074,0.0493,0.2354,0.0737,0.3848,0.0737c0.1787,0,0.3232-0.0176,0.4355-0.0537s0.1982-0.0703,0.2598-0.1021l0.1367,0.4121c-0.0322,0.021-0.0762,0.0425-0.1309,0.064s-0.1191,0.042-0.1934,0.062c-0.0752,0.02-0.1592,0.0356-0.252,0.0479C13.099,61.7878,12.9994,61.7937,12.893,61.7937z"  class="st17"/>
    <path d="M14.0121,58.9616h0.5039v2.772h-0.5039V58.9616z"  class="st17"/>
    <path d="M17.3314,60.3454c0,0.2402-0.0371,0.4487-0.1113,0.626c-0.0752,0.1777-0.1807,0.3257-0.3184,0.4443s-0.3027,0.2065-0.4961,0.2637c-0.1934,0.0576-0.4072,0.0864-0.6416,0.0864c-0.1123,0-0.2393-0.0049-0.3799-0.0142c-0.1416-0.0093-0.2764-0.0288-0.4043-0.0581v-2.6919c0.1279-0.0293,0.2637-0.0479,0.4082-0.0562c0.1436-0.0078,0.2715-0.0117,0.3838-0.0117c0.2324,0,0.4443,0.0273,0.6357,0.082c0.1924,0.0547,0.3564,0.1396,0.4941,0.2559c0.1377,0.1157,0.2432,0.2627,0.3184,0.4399C17.2943,59.8889,17.3314,60.1003,17.3314,60.3454z M15.4838,61.3176c0.0293,0.0029,0.0684,0.0049,0.1162,0.0059c0.0479,0.0015,0.1133,0.002,0.1963,0.002c0.3379,0,0.5908-0.0859,0.7578-0.2578c0.166-0.1719,0.25-0.4126,0.25-0.7222c0-0.3145-0.082-0.5557-0.2441-0.7236c-0.1631-0.168-0.415-0.252-0.7559-0.252c-0.1494,0-0.2559,0.0039-0.3203,0.0117V61.3176z"  class="st17"/>
    <path d="M18.2035,59.9738c0,0.0933-0.0313,0.1689-0.0938,0.2275c-0.0625,0.0591-0.1377,0.0884-0.2256,0.0884c-0.0908,0-0.167-0.0293-0.2285-0.0884c-0.0615-0.0586-0.0918-0.1343-0.0918-0.2275c0-0.0938,0.0303-0.1704,0.0918-0.2305c0.0615-0.0596,0.1377-0.0898,0.2285-0.0898c0.0879,0,0.1631,0.0303,0.2256,0.0898C18.1723,59.8034,18.2035,59.8801,18.2035,59.9738z M18.2035,61.4694c0,0.0938-0.0313,0.1694-0.0938,0.228s-0.1377,0.0879-0.2256,0.0879c-0.0908,0-0.167-0.0293-0.2285-0.0879s-0.0918-0.1343-0.0918-0.228c0-0.0933,0.0303-0.1699,0.0918-0.23s0.1377-0.0898,0.2285-0.0898c0.0879,0,0.1631,0.0298,0.2256,0.0898S18.2035,61.3762,18.2035,61.4694z"  class="st17"/>
    <path d="M20.14,59.6818c0,0.0957-0.0195,0.1899-0.0596,0.2817s-0.0918,0.1812-0.1543,0.2681c-0.0625,0.0864-0.1338,0.1704-0.2139,0.252s-0.1602,0.1606-0.2402,0.2378c-0.043,0.04-0.0908,0.0884-0.1436,0.144c-0.0537,0.0562-0.1045,0.1123-0.1523,0.168c-0.0479,0.0562-0.0889,0.1104-0.124,0.1621c-0.0342,0.0522-0.0537,0.0957-0.0557,0.1299h1.2314v0.4082h-1.7637c-0.0029-0.0215-0.0039-0.0474-0.0039-0.0781c0-0.0303,0-0.0537,0-0.0698c0-0.1279,0.0205-0.2461,0.0615-0.354c0.042-0.1079,0.0957-0.2085,0.1621-0.3022c0.0664-0.0933,0.1416-0.1812,0.2246-0.2637c0.082-0.0825,0.165-0.1641,0.248-0.2441c0.0635-0.0615,0.125-0.1211,0.1836-0.1802c0.0586-0.0586,0.1104-0.1162,0.1543-0.1738c0.0439-0.0571,0.0791-0.1162,0.1055-0.1758c0.0264-0.0601,0.04-0.1221,0.04-0.186c0-0.1387-0.04-0.2373-0.1201-0.2964c-0.0801-0.0586-0.1768-0.0879-0.292-0.0879c-0.0742,0-0.1436,0.0107-0.208,0.0322c-0.0635,0.0215-0.1201,0.0464-0.1699,0.0757c-0.0488,0.0298-0.0928,0.0596-0.1299,0.0903s-0.0654,0.0552-0.084,0.0737l-0.2402-0.3398c0.1123-0.1064,0.2432-0.1929,0.3945-0.2578c0.1504-0.0654,0.3125-0.0981,0.4854-0.0981c0.2969,0,0.5146,0.0698,0.6543,0.21S20.14,59.4392,20.14,59.6818z"  class="st17"/>
    <path d="M22.4643,61.7336c-0.0371-0.1094-0.0762-0.2173-0.1162-0.3242c-0.04-0.1064-0.0791-0.2158-0.1162-0.3276h-1.1709c-0.0371,0.1118-0.0752,0.2217-0.1143,0.3301c-0.0391,0.1079-0.0771,0.2153-0.1143,0.3218H20.308c0.1045-0.2959,0.2031-0.5693,0.2959-0.8198c0.0938-0.251,0.1846-0.4883,0.2744-0.7124c0.0889-0.2236,0.1777-0.437,0.2656-0.6396s0.1777-0.4028,0.2715-0.6001h0.4814c0.0928,0.1973,0.1836,0.3975,0.2715,0.6001s0.1768,0.416,0.2666,0.6396c0.0889,0.2241,0.1807,0.4614,0.2754,0.7124c0.0947,0.2505,0.1943,0.5239,0.2979,0.8198H22.4643z M21.6469,59.4978c-0.0615,0.1411-0.1318,0.313-0.21,0.5156c-0.0791,0.2031-0.1611,0.4229-0.2461,0.6602h0.9121c-0.0859-0.2373-0.168-0.4585-0.248-0.6641C21.7748,59.8044,21.7055,59.6335,21.6469,59.4978z"  class="st17"/>
    <path d="M24.8637,58.9616h0.5039v2.772h-0.5039v-1.228h-1.2041v1.228h-0.5039v-2.772h0.5039v1.1079h1.2041V58.9616z"  class="st17"/>
    <path d="M26.4389,58.9616c0.0586,0.1016,0.123,0.2256,0.1953,0.3721s0.1455,0.3008,0.2197,0.4619c0.0752,0.1611,0.1494,0.3252,0.2227,0.4922c0.0732,0.1665,0.1406,0.3203,0.2021,0.4619c0.0605-0.1416,0.1279-0.2954,0.1992-0.4619c0.0723-0.167,0.1455-0.3311,0.2207-0.4922c0.0742-0.1611,0.1475-0.3154,0.2197-0.4619s0.1377-0.2705,0.1963-0.3721h0.4541c0.0244,0.2026,0.0469,0.418,0.0693,0.646c0.0215,0.228,0.041,0.4614,0.0586,0.7002c0.0176,0.2383,0.0342,0.4785,0.0488,0.7197s0.0283,0.4766,0.0391,0.7061h-0.4961c-0.0107-0.3228-0.0234-0.6548-0.0391-0.9961c-0.0146-0.3413-0.0371-0.6719-0.0674-0.9917c-0.0293,0.061-0.0635,0.1343-0.1035,0.2197s-0.083,0.1782-0.1279,0.2778c-0.0459,0.1001-0.0918,0.2036-0.1387,0.3101c-0.0459,0.1069-0.0918,0.21-0.1357,0.3101s-0.084,0.1934-0.1221,0.2803c-0.0371,0.0864-0.0693,0.1606-0.0957,0.2217h-0.376c-0.0264-0.061-0.0586-0.1357-0.0957-0.2236c-0.0381-0.0884-0.0781-0.1821-0.1221-0.2822s-0.0898-0.2031-0.1367-0.3101c-0.0459-0.1064-0.0918-0.2095-0.1377-0.3081c-0.0449-0.0986-0.0879-0.1909-0.1279-0.2778c-0.04-0.0864-0.0742-0.1592-0.1035-0.2178c-0.0303,0.3198-0.0527,0.6504-0.0674,0.9917c-0.0156,0.3413-0.0283,0.6733-0.0391,0.9961h-0.4961c0.0107-0.2295,0.0234-0.4668,0.0391-0.7119c0.0146-0.2456,0.0313-0.4888,0.0488-0.73s0.0371-0.4756,0.0586-0.7021s0.0449-0.436,0.0693-0.6279H26.4389z"  class="st17"/>
    <path d="M29.932,58.9338c0.4004,0,0.7061,0.0732,0.918,0.2197c0.2119,0.147,0.3184,0.3706,0.3184,0.6719c0,0.376-0.1855,0.6309-0.5557,0.7642c0.0498,0.0615,0.1074,0.1362,0.1719,0.2241c0.0635,0.0879,0.1289,0.1831,0.1953,0.2861c0.0674,0.1025,0.1309,0.208,0.1924,0.3159s0.1162,0.2139,0.1641,0.3179h-0.5645c-0.0498-0.0962-0.1045-0.1924-0.1631-0.29c-0.0596-0.0972-0.1182-0.1919-0.1787-0.2842c-0.0596-0.0918-0.1191-0.1782-0.1777-0.2598s-0.1133-0.1538-0.1641-0.2178c-0.0371,0.0024-0.0693,0.0039-0.0957,0.0039c-0.0273,0-0.0527,0-0.0762,0h-0.2441v1.0479h-0.5039v-2.7319c0.123-0.0269,0.2529-0.0449,0.3916-0.0542S29.8227,58.9338,29.932,58.9338z M29.9682,59.3698c-0.1064,0-0.2051,0.0039-0.2959,0.0117v0.896h0.2197c0.123,0,0.2314-0.0063,0.3242-0.02c0.0938-0.0132,0.1719-0.0371,0.2344-0.0718s0.1094-0.0815,0.1416-0.1401s0.0479-0.1333,0.0479-0.2241c0-0.085-0.0156-0.1572-0.0479-0.2158s-0.0781-0.1055-0.1377-0.1401c-0.0605-0.0347-0.1318-0.0591-0.2139-0.0737C30.1576,59.3771,30.0668,59.3698,29.9682,59.3698z"  class="st17"/>
    <path d="M31.2875,60.3698h1.0762v0.4438h-1.0762V60.3698z"  class="st17"/>
    <path d="M32.5883,61.7336v-2.772h1.7803v0.4277h-1.2764v0.6841h1.1357v0.4199h-1.1357v0.812h1.3721v0.4282H32.5883z"  class="st17"/>
    <path d="M35.4037,61.3576c0.1816,0,0.3135-0.0308,0.3965-0.0918c0.082-0.0615,0.124-0.1484,0.124-0.2603c0-0.0664-0.0146-0.124-0.042-0.1719c-0.0283-0.0483-0.0684-0.0913-0.1201-0.1299c-0.0527-0.0391-0.1152-0.0747-0.1904-0.1084c-0.0742-0.0332-0.1602-0.0659-0.2559-0.0977c-0.0957-0.0347-0.1885-0.0728-0.2783-0.1143c-0.0889-0.041-0.168-0.0923-0.2354-0.1538c-0.0684-0.0615-0.123-0.1348-0.1641-0.2202c-0.042-0.085-0.0625-0.188-0.0625-0.3081c0-0.2505,0.0869-0.4473,0.2598-0.5898c0.1738-0.1426,0.4102-0.2139,0.708-0.2139c0.1738,0,0.3281,0.0195,0.4629,0.0581c0.1338,0.0386,0.2402,0.0806,0.3174,0.126l-0.1563,0.4077c-0.0898-0.0503-0.1895-0.0894-0.2979-0.1157c-0.1074-0.0269-0.2188-0.04-0.334-0.04c-0.1357,0-0.2422,0.0278-0.3174,0.084c-0.0762,0.0562-0.1143,0.1348-0.1143,0.2358c0,0.0615,0.0127,0.1143,0.0381,0.1582s0.0615,0.083,0.1074,0.1177c0.0469,0.0347,0.1016,0.0669,0.1641,0.0962s0.1318,0.0576,0.2061,0.084c0.1309,0.0479,0.248,0.0967,0.3506,0.146s0.1895,0.1079,0.2598,0.1763c0.0703,0.0679,0.125,0.1479,0.1621,0.2397s0.0557,0.2036,0.0557,0.334c0,0.2505-0.0889,0.4448-0.2656,0.582c-0.1777,0.1372-0.4365,0.2061-0.7783,0.2061c-0.1143,0-0.2197-0.0073-0.3135-0.022c-0.0947-0.0146-0.1787-0.0327-0.252-0.0542c-0.0742-0.021-0.1367-0.043-0.1904-0.0659c-0.0537-0.0225-0.0957-0.0435-0.1279-0.062l0.1475-0.4121c0.0723,0.04,0.1699,0.0801,0.292,0.1201C35.0824,61.3376,35.2309,61.3576,35.4037,61.3576z"  class="st17"/>
    <path d="M37.476,58.9338c0.4023,0,0.7109,0.0732,0.9258,0.2197c0.2148,0.147,0.3223,0.376,0.3223,0.688c0,0.1626-0.0293,0.3022-0.0859,0.418c-0.0576,0.1162-0.1406,0.2109-0.25,0.2842s-0.2432,0.1274-0.4004,0.1621s-0.3369,0.0518-0.54,0.0518h-0.252v0.9761h-0.5039v-2.7319c0.1172-0.0269,0.2471-0.0449,0.3896-0.0542S37.3559,58.9338,37.476,58.9338z M37.5121,59.3698c-0.1279,0-0.2334,0.0039-0.3164,0.0117v0.9438h0.2441c0.2422,0,0.4297-0.0337,0.5596-0.1016c0.1309-0.0684,0.1963-0.1968,0.1963-0.3862c0-0.0908-0.0176-0.1665-0.0518-0.228c-0.0352-0.0615-0.083-0.1094-0.1445-0.144c-0.0605-0.0347-0.1338-0.0591-0.2178-0.0737S37.6078,59.3698,37.5121,59.3698z"  class="st17"/>
    <path d="M39.5961,61.7937c-0.0723,0-0.1465-0.0049-0.2227-0.0142c-0.0752-0.0093-0.1475-0.0215-0.2158-0.0361c-0.0674-0.0142-0.1299-0.0303-0.1855-0.0479c-0.0566-0.0171-0.0986-0.0337-0.1279-0.0498l0.0957-0.4121c0.0557,0.0269,0.1377,0.0566,0.2441,0.0898c0.1064,0.0337,0.2383,0.0503,0.3955,0.0503c0.2109,0,0.3633-0.0405,0.4561-0.1221c0.0938-0.0815,0.1406-0.1899,0.1406-0.3262c0-0.0879-0.0186-0.1611-0.0547-0.2197s-0.085-0.106-0.1475-0.1421s-0.1348-0.0615-0.2158-0.0762c-0.082-0.0146-0.168-0.022-0.2588-0.022h-0.1641v-0.3921h0.2002c0.0615,0,0.123-0.0059,0.1865-0.0181c0.0625-0.0117,0.1191-0.0332,0.1699-0.064c0.0508-0.0303,0.0918-0.0713,0.124-0.1216c0.0322-0.0508,0.0479-0.1162,0.0479-0.1963c0-0.064-0.0117-0.1187-0.0361-0.1641s-0.0557-0.0825-0.0938-0.1118c-0.0391-0.0293-0.084-0.0508-0.1338-0.064c-0.0508-0.0132-0.1045-0.02-0.1602-0.02c-0.1201,0-0.2266,0.0181-0.3203,0.0537c-0.0938,0.0361-0.1758,0.0767-0.248,0.1221l-0.1758-0.3599c0.0371-0.0239,0.082-0.0493,0.1357-0.0762c0.0537-0.0264,0.1123-0.0518,0.1777-0.0757s0.1357-0.0435,0.21-0.0581c0.0752-0.0146,0.1533-0.022,0.2363-0.022c0.1543,0,0.2881,0.0186,0.4004,0.0562c0.1113,0.0371,0.2041,0.0898,0.2773,0.1577s0.1279,0.1479,0.1641,0.2402c0.0361,0.0918,0.0547,0.1924,0.0547,0.3018c0,0.1279-0.0361,0.2427-0.1064,0.3442c-0.0703,0.1011-0.1621,0.1787-0.2744,0.2319c0.1445,0.0508,0.2637,0.1348,0.3584,0.252s0.1416,0.2681,0.1416,0.4521c0,0.1226-0.0205,0.2363-0.0635,0.3418s-0.1084,0.1958-0.1963,0.272s-0.1992,0.1362-0.334,0.1802S39.7826,61.7937,39.5961,61.7937z"  class="st17"/>
    <path d="M42.6479,59.6818c0,0.0957-0.0195,0.1899-0.0596,0.2817s-0.0918,0.1812-0.1543,0.2681c-0.0625,0.0864-0.1338,0.1704-0.2139,0.252s-0.1602,0.1606-0.2402,0.2378c-0.043,0.04-0.0908,0.0884-0.1436,0.144c-0.0537,0.0562-0.1045,0.1123-0.1523,0.168c-0.0479,0.0562-0.0889,0.1104-0.124,0.1621c-0.0342,0.0522-0.0537,0.0957-0.0557,0.1299h1.2314v0.4082h-1.7637c-0.0029-0.0215-0.0039-0.0474-0.0039-0.0781c0-0.0303,0-0.0537,0-0.0698c0-0.1279,0.0205-0.2461,0.0615-0.354c0.042-0.1079,0.0957-0.2085,0.1621-0.3022c0.0664-0.0933,0.1416-0.1812,0.2246-0.2637c0.082-0.0825,0.165-0.1641,0.248-0.2441c0.0635-0.0615,0.125-0.1211,0.1836-0.1802c0.0586-0.0586,0.1104-0.1162,0.1543-0.1738c0.0439-0.0571,0.0791-0.1162,0.1055-0.1758c0.0264-0.0601,0.04-0.1221,0.04-0.186c0-0.1387-0.04-0.2373-0.1201-0.2964c-0.0801-0.0586-0.1768-0.0879-0.292-0.0879c-0.0742,0-0.1436,0.0107-0.208,0.0322c-0.0635,0.0215-0.1201,0.0464-0.1699,0.0757c-0.0488,0.0298-0.0928,0.0596-0.1299,0.0903s-0.0654,0.0552-0.084,0.0737l-0.2402-0.3398c0.1123-0.1064,0.2432-0.1929,0.3945-0.2578c0.1504-0.0654,0.3125-0.0981,0.4854-0.0981c0.2969,0,0.5146,0.0698,0.6543,0.21S42.6479,59.4392,42.6479,59.6818z"  class="st17"/>
    <path d="M43.8002,61.3576c0.1816,0,0.3135-0.0308,0.3965-0.0918c0.082-0.0615,0.124-0.1484,0.124-0.2603c0-0.0664-0.0146-0.124-0.042-0.1719c-0.0283-0.0483-0.0684-0.0913-0.1201-0.1299c-0.0527-0.0391-0.1152-0.0747-0.1904-0.1084c-0.0742-0.0332-0.1602-0.0659-0.2559-0.0977c-0.0957-0.0347-0.1885-0.0728-0.2783-0.1143c-0.0889-0.041-0.168-0.0923-0.2354-0.1538c-0.0684-0.0615-0.123-0.1348-0.1641-0.2202c-0.042-0.085-0.0625-0.188-0.0625-0.3081c0-0.2505,0.0869-0.4473,0.2598-0.5898c0.1738-0.1426,0.4102-0.2139,0.708-0.2139c0.1738,0,0.3281,0.0195,0.4629,0.0581c0.1338,0.0386,0.2402,0.0806,0.3174,0.126l-0.1563,0.4077c-0.0898-0.0503-0.1895-0.0894-0.2979-0.1157c-0.1074-0.0269-0.2188-0.04-0.334-0.04c-0.1357,0-0.2422,0.0278-0.3174,0.084c-0.0762,0.0562-0.1143,0.1348-0.1143,0.2358c0,0.0615,0.0127,0.1143,0.0381,0.1582s0.0615,0.083,0.1074,0.1177c0.0469,0.0347,0.1016,0.0669,0.1641,0.0962s0.1318,0.0576,0.2061,0.084c0.1309,0.0479,0.248,0.0967,0.3506,0.146s0.1895,0.1079,0.2598,0.1763c0.0703,0.0679,0.125,0.1479,0.1621,0.2397s0.0557,0.2036,0.0557,0.334c0,0.2505-0.0889,0.4448-0.2656,0.582c-0.1777,0.1372-0.4365,0.2061-0.7783,0.2061c-0.1143,0-0.2197-0.0073-0.3135-0.022c-0.0947-0.0146-0.1787-0.0327-0.252-0.0542c-0.0742-0.021-0.1367-0.043-0.1904-0.0659c-0.0537-0.0225-0.0957-0.0435-0.1279-0.062l0.1475-0.4121c0.0723,0.04,0.1699,0.0801,0.292,0.1201C43.4789,61.3376,43.6273,61.3576,43.8002,61.3576z"  class="st17"/>
    <path d="M12.1029,64.5402c0.042,0.144,0.0879,0.2939,0.1357,0.4502c0.0479,0.1558,0.0977,0.3115,0.1494,0.4678c0.0527,0.1558,0.1045,0.3096,0.1563,0.46c0.0518,0.1509,0.1025,0.2925,0.1504,0.4263c0.04-0.144,0.0781-0.3008,0.1162-0.4702c0.0371-0.1694,0.0742-0.3452,0.1113-0.5278s0.0742-0.3687,0.1104-0.5581s0.0703-0.376,0.1016-0.5601h0.5205c-0.0938,0.5015-0.1973,0.9834-0.3115,1.4458c-0.1143,0.4629-0.2422,0.9048-0.3838,1.3262H12.475c-0.207-0.5386-0.4072-1.1265-0.6006-1.7642c-0.0986,0.3228-0.1992,0.6294-0.2998,0.9199c-0.1016,0.291-0.2031,0.5723-0.3047,0.8442h-0.4814c-0.1436-0.4214-0.2715-0.8633-0.3848-1.3262c-0.1133-0.4624-0.2158-0.9443-0.3096-1.4458h0.54c0.0322,0.1812,0.0664,0.3667,0.1025,0.5562c0.0361,0.189,0.0732,0.375,0.1113,0.5576c0.0391,0.1831,0.0781,0.3594,0.1182,0.5303c0.04,0.1704,0.0801,0.3281,0.1201,0.4722c0.0508-0.1362,0.1025-0.2798,0.1543-0.4302c0.0518-0.1509,0.1035-0.3042,0.1543-0.46c0.0498-0.1563,0.0986-0.3115,0.1455-0.4663c0.0469-0.1543,0.0898-0.3037,0.1299-0.4478H12.1029z"  class="st17"/>
    <path d="M13.8783,64.2282h0.5039v2.772h-0.5039V64.2282z"  class="st17"/>
    <path d="M14.8461,67.0002v-2.772h1.752v0.4277H15.35v0.708h1.1084v0.4282H15.35v1.208H14.8461z"  class="st17"/>
    <path d="M16.85,64.2282h0.5039v2.772H16.85V64.2282z"  class="st17"/>
    <path d="M17.6947,65.6521h0.7119v-0.7837h0.4316v0.7837h0.7129v0.4082h-0.7129v0.7842h-0.4316v-0.7842h-0.7119V65.6521z"  class="st17"/>
    <path d="M20.726,67.0324c-0.1465,0-0.2949-0.0049-0.4443-0.0142s-0.2793-0.0288-0.3916-0.0581v-2.6919c0.0586-0.0107,0.1211-0.0205,0.1875-0.0303c0.0674-0.0093,0.1348-0.0166,0.2041-0.022s0.1387-0.0093,0.2061-0.0117c0.0684-0.0029,0.1328-0.0039,0.1943-0.0039c0.168,0,0.3242,0.0127,0.4678,0.0376c0.1445,0.0254,0.2686,0.0674,0.374,0.126c0.1055,0.0591,0.1875,0.1362,0.2461,0.2324c0.0586,0.0957,0.0879,0.2144,0.0879,0.356c0,0.1304-0.0313,0.2427-0.0938,0.3359s-0.1504,0.168-0.2617,0.2241c0.168,0.0557,0.292,0.1387,0.3721,0.2476c0.0801,0.1094,0.1191,0.248,0.1191,0.416c0,0.2856-0.1035,0.4995-0.3115,0.6421S21.1557,67.0324,20.726,67.0324z M20.3861,65.3562h0.3555c0.1924,0,0.3428-0.0273,0.4521-0.082s0.1641-0.1523,0.1641-0.2939c0-0.1333-0.0566-0.228-0.1699-0.2842c-0.1133-0.0557-0.2607-0.084-0.4414-0.084c-0.0781,0-0.1465,0.0015-0.2061,0.0044c-0.0605,0.0024-0.1113,0.0063-0.1543,0.0117V65.3562z M20.3861,65.7522v0.8442c0.0557,0.0054,0.1162,0.0093,0.1797,0.0117c0.0645,0.0029,0.123,0.0039,0.1758,0.0039c0.1045,0,0.2012-0.0063,0.29-0.02c0.0898-0.0132,0.167-0.0366,0.2324-0.0698s0.1172-0.0781,0.1563-0.1338c0.0381-0.0562,0.0576-0.1284,0.0576-0.2163c0-0.1572-0.0576-0.2666-0.1719-0.3276c-0.1143-0.0615-0.2734-0.0923-0.4756-0.0923H20.3861z"  class="st17"/>
    <path d="M24.2504,64.2282v0.436h-0.8516v2.3359H22.891v-2.3359h-0.8525v-0.436H24.2504z"  class="st17"/>
    <path d="M25.8383,66.6242c0.1816,0,0.3135-0.0308,0.3965-0.0918c0.082-0.0615,0.124-0.1484,0.124-0.2603c0-0.0664-0.0146-0.124-0.042-0.1719c-0.0283-0.0483-0.0684-0.0913-0.1201-0.1299c-0.0527-0.0391-0.1152-0.0747-0.1904-0.1084c-0.0742-0.0332-0.1602-0.0659-0.2559-0.0977c-0.0957-0.0347-0.1885-0.0728-0.2783-0.1143c-0.0889-0.041-0.168-0.0923-0.2354-0.1538c-0.0684-0.0615-0.123-0.1348-0.1641-0.2202c-0.042-0.085-0.0625-0.188-0.0625-0.3081c0-0.2505,0.0869-0.4473,0.2598-0.5898c0.1738-0.1426,0.4102-0.2139,0.708-0.2139c0.1738,0,0.3281,0.0195,0.4629,0.0581c0.1338,0.0386,0.2402,0.0806,0.3174,0.126l-0.1563,0.4077c-0.0898-0.0503-0.1895-0.0894-0.2979-0.1157c-0.1074-0.0269-0.2188-0.04-0.334-0.04c-0.1357,0-0.2422,0.0278-0.3174,0.084c-0.0762,0.0562-0.1143,0.1348-0.1143,0.2358c0,0.0615,0.0127,0.1143,0.0381,0.1582s0.0615,0.083,0.1074,0.1177c0.0469,0.0347,0.1016,0.0669,0.1641,0.0962s0.1318,0.0576,0.2061,0.084c0.1309,0.0479,0.248,0.0967,0.3506,0.146s0.1895,0.1079,0.2598,0.1763c0.0703,0.0679,0.125,0.1479,0.1621,0.2397s0.0557,0.2036,0.0557,0.334c0,0.2505-0.0889,0.4448-0.2656,0.582c-0.1777,0.1372-0.4365,0.2061-0.7783,0.2061c-0.1143,0-0.2197-0.0073-0.3135-0.022c-0.0947-0.0146-0.1787-0.0327-0.252-0.0542c-0.0742-0.021-0.1367-0.043-0.1904-0.0659c-0.0537-0.0225-0.0957-0.0435-0.1279-0.062l0.1475-0.4121c0.0723,0.04,0.1699,0.0801,0.292,0.1201C25.517,66.6042,25.6654,66.6242,25.8383,66.6242z"  class="st17"/>
    <path d="M28.9945,65.9523c0,0.165-0.0244,0.3159-0.0723,0.4517c-0.0479,0.1362-0.1162,0.252-0.2041,0.3481s-0.1934,0.1709-0.3174,0.2241s-0.2607,0.0801-0.4102,0.0801s-0.2861-0.0269-0.4082-0.0801c-0.123-0.0532-0.2285-0.1279-0.3164-0.2241s-0.1563-0.2119-0.2061-0.3481c-0.0488-0.1357-0.0732-0.2866-0.0732-0.4517c0-0.1655,0.0244-0.3154,0.0732-0.4502c0.0498-0.1348,0.1191-0.25,0.208-0.3462c0.0898-0.0957,0.1953-0.1699,0.3184-0.2217c0.123-0.0522,0.2568-0.0781,0.4043-0.0781c0.1465,0,0.2813,0.0259,0.4053,0.0781c0.124,0.0518,0.2305,0.126,0.3184,0.2217c0.0879,0.0962,0.1563,0.2114,0.2061,0.3462S28.9945,65.7868,28.9945,65.9523z M28.4984,65.9523c0-0.208-0.0449-0.3726-0.1338-0.4941c-0.0898-0.1211-0.2139-0.1821-0.374-0.1821s-0.2852,0.061-0.374,0.1821c-0.0898,0.1216-0.1338,0.2861-0.1338,0.4941c0,0.2104,0.0439,0.3774,0.1338,0.5c0.0889,0.1226,0.2139,0.1841,0.374,0.1841s0.2842-0.0615,0.374-0.1841C28.4535,66.3298,28.4984,66.1628,28.4984,65.9523z"  class="st17"/>
    <path d="M30.5502,67.0603c-0.208,0-0.3955-0.0322-0.5605-0.0962s-0.3057-0.1577-0.4199-0.2817s-0.2031-0.2754-0.2637-0.4541c-0.0615-0.1787-0.0928-0.3838-0.0928-0.6162c0-0.2319,0.0361-0.437,0.1064-0.6157s0.167-0.3301,0.29-0.4541s0.2666-0.2178,0.4316-0.2822c0.166-0.064,0.3428-0.0957,0.5322-0.0957c0.1143,0,0.2188,0.0088,0.3125,0.0259c0.0928,0.0176,0.1738,0.0366,0.2432,0.0581s0.127,0.0439,0.1729,0.0679c0.0449,0.0239,0.0771,0.0415,0.0957,0.0522L31.2494,64.78c-0.0635-0.0396-0.1553-0.0776-0.2734-0.1138c-0.1191-0.0361-0.248-0.0542-0.3867-0.0542c-0.1191,0-0.2314,0.021-0.3359,0.062c-0.1035,0.0415-0.1934,0.1035-0.2695,0.186c-0.0762,0.083-0.1357,0.187-0.1777,0.312c-0.043,0.1255-0.0645,0.271-0.0645,0.436c0,0.147,0.0166,0.2813,0.0498,0.4043c0.0332,0.1226,0.085,0.2285,0.1543,0.3179s0.1572,0.1587,0.2637,0.208c0.1074,0.0493,0.2354,0.0737,0.3848,0.0737c0.1787,0,0.3232-0.0176,0.4355-0.0537s0.1982-0.0703,0.2598-0.1021l0.1367,0.4121c-0.0322,0.021-0.0762,0.0425-0.1309,0.064s-0.1191,0.042-0.1934,0.062c-0.0752,0.02-0.1592,0.0356-0.252,0.0479C30.7563,67.0544,30.6566,67.0603,30.5502,67.0603z"  class="st17"/>
    <path d="M32.4018,64.2282h0.5039v2.772h-0.5039V64.2282z"  class="st17"/>
    <path d="M33.3461,64.9763c0.0938-0.0269,0.2148-0.0522,0.3643-0.0762s0.3145-0.0361,0.4961-0.0361c0.1709,0,0.3135,0.0234,0.4277,0.0703c0.1152,0.0464,0.2061,0.1118,0.2744,0.1958s0.1162,0.1855,0.1436,0.3042c0.0283,0.1187,0.042,0.2485,0.042,0.3901v1.1758h-0.4834v-1.1001c0-0.1118-0.0078-0.207-0.0225-0.2861c-0.0146-0.0786-0.0381-0.1426-0.0723-0.1919c-0.0332-0.0493-0.0781-0.085-0.1357-0.1079c-0.0576-0.0225-0.127-0.0342-0.21-0.0342c-0.0615,0-0.125,0.0044-0.1914,0.0122c-0.0674,0.0078-0.1162,0.0146-0.1484,0.02v1.688h-0.4844V64.9763z"  class="st17"/>
    <path d="M36.0102,66.6521c0.1279,0,0.2217-0.0151,0.2803-0.0459s0.0879-0.0835,0.0879-0.1577c0-0.0693-0.0313-0.127-0.0938-0.1724c-0.0635-0.0454-0.166-0.0947-0.3105-0.1479c-0.0879-0.0317-0.1689-0.0659-0.2422-0.1021c-0.0732-0.0356-0.1367-0.0776-0.1895-0.126c-0.0537-0.0479-0.0957-0.106-0.126-0.1738c-0.0313-0.0679-0.0459-0.1514-0.0459-0.25c0-0.1919,0.0703-0.3433,0.2119-0.4541c0.1406-0.1108,0.333-0.166,0.5762-0.166c0.1221,0,0.2393,0.0112,0.3516,0.0342c0.1123,0.0225,0.1963,0.0444,0.252,0.0659l-0.0879,0.3921c-0.0537-0.0239-0.1211-0.0464-0.2041-0.0659c-0.083-0.02-0.1787-0.0303-0.2881-0.0303c-0.0986,0-0.1787,0.0166-0.2402,0.0498c-0.0615,0.0337-0.0918,0.085-0.0918,0.1543c0,0.0347,0.0059,0.0654,0.0186,0.0918c0.0117,0.0269,0.0322,0.0518,0.0615,0.0742s0.0684,0.0454,0.1162,0.0679c0.0479,0.0229,0.1064,0.0459,0.1758,0.0698c0.1143,0.043,0.2119,0.085,0.292,0.1265c0.0801,0.041,0.1465,0.0879,0.1982,0.1396c0.0518,0.0522,0.0898,0.1113,0.1143,0.1782c0.0234,0.0664,0.0352,0.1465,0.0352,0.2397c0,0.2002-0.0732,0.3516-0.2217,0.4541c-0.1475,0.1025-0.3594,0.1538-0.6338,0.1538c-0.1846,0-0.332-0.0151-0.4443-0.0459c-0.1113-0.0303-0.1904-0.0552-0.2354-0.0737l0.084-0.4043c0.0713,0.0298,0.1572,0.0576,0.2578,0.084C35.768,66.6389,35.8822,66.6521,36.0102,66.6521z"  class="st17"/>
    <path d="M37.6537,64.2961c0,0.0908-0.0293,0.1626-0.0879,0.2163c-0.0586,0.0532-0.1279,0.0796-0.208,0.0796c-0.082,0-0.1533-0.0264-0.2119-0.0796c-0.0586-0.0537-0.0879-0.1255-0.0879-0.2163c0-0.0933,0.0293-0.1665,0.0879-0.2197c0.0586-0.0537,0.1299-0.0801,0.2119-0.0801c0.0801,0,0.1494,0.0264,0.208,0.0801C37.6244,64.1296,37.6537,64.2028,37.6537,64.2961z M37.602,67.0002h-0.4844v-2.0918h0.4844V67.0002z"  class="st17"/>
    <path d="M39.7865,66.9362c-0.0957,0.0293-0.2168,0.0562-0.3623,0.0801s-0.2979,0.0356-0.458,0.0356c-0.165,0-0.3135-0.0249-0.4443-0.0757c-0.1299-0.0508-0.2412-0.1235-0.334-0.2183c-0.0918-0.0942-0.1621-0.209-0.2119-0.3438c-0.0488-0.1348-0.0732-0.2861-0.0732-0.4541c0-0.165,0.0205-0.3154,0.0615-0.4502c0.041-0.1343,0.1025-0.25,0.1816-0.3457c0.0801-0.0962,0.1777-0.1699,0.292-0.2222c0.1152-0.0518,0.2471-0.0781,0.3965-0.0781c0.1016,0,0.1904,0.0122,0.2676,0.0361c0.0781,0.0239,0.1445,0.0508,0.2002,0.0801v-1.0039l0.4844-0.0801V66.9362z M38.3988,65.9484c0,0.2129,0.0498,0.3804,0.1514,0.502c0.1016,0.1211,0.2412,0.1816,0.4199,0.1816c0.0771,0,0.1436-0.0029,0.1982-0.0098s0.0996-0.0142,0.1338-0.022v-1.2002c-0.043-0.0293-0.0996-0.0566-0.1699-0.082S38.9867,65.28,38.9066,65.28c-0.1768,0-0.3047,0.0601-0.3867,0.1802C38.4389,65.5803,38.3988,65.7429,38.3988,65.9484z"  class="st17"/>
    <path d="M40.0863,65.9641c0-0.1841,0.0273-0.3452,0.082-0.4839s0.127-0.2539,0.2178-0.3462c0.0908-0.0918,0.1943-0.1611,0.3115-0.208c0.1172-0.0464,0.2373-0.0698,0.3604-0.0698c0.2881,0,0.5127,0.0894,0.6738,0.2681s0.2422,0.4453,0.2422,0.7998c0,0.0269-0.001,0.0566-0.002,0.0903c-0.002,0.0332-0.0039,0.063-0.0059,0.0898h-1.3799c0.0127,0.168,0.0723,0.2979,0.1777,0.3901c0.1055,0.0918,0.2578,0.1377,0.458,0.1377c0.1172,0,0.2246-0.0103,0.3223-0.0317c0.0967-0.0215,0.1738-0.0439,0.2295-0.0679l0.0645,0.396c-0.0273,0.0132-0.0635,0.0273-0.1104,0.042s-0.0996,0.0278-0.1602,0.0396c-0.0596,0.0122-0.125,0.0225-0.1934,0.0303c-0.0703,0.0078-0.1406,0.0117-0.2129,0.0117c-0.1836,0-0.3438-0.0273-0.4795-0.0815c-0.1357-0.0547-0.248-0.1309-0.3359-0.228c-0.0879-0.0977-0.1533-0.2124-0.1963-0.3442S40.0863,66.1218,40.0863,65.9641z M41.4896,65.7482c0-0.0669-0.0088-0.1299-0.0273-0.1899c-0.0195-0.0601-0.0459-0.1123-0.082-0.1563s-0.0801-0.0786-0.1328-0.104c-0.0518-0.0254-0.1133-0.0381-0.1855-0.0381c-0.0742,0-0.1396,0.0142-0.1963,0.042c-0.0557,0.0283-0.1035,0.0649-0.1416,0.1104c-0.0391,0.0454-0.0684,0.0972-0.0898,0.1558s-0.0361,0.1187-0.0439,0.1802H41.4896z"  class="st17"/>
    <g >
        <path d="M6.5542,68.1603h0.2923v1.0029h0.0066c0.0465-0.0831,0.1195-0.1562,0.2092-0.2059c0.0864-0.0499,0.1893-0.083,0.2989-0.083c0.2158,0,0.5612,0.1328,0.5612,0.6874v0.9564H7.6302v-0.9231c0-0.259-0.0963-0.4782-0.3719-0.4782c-0.1893,0-0.3387,0.1328-0.3918,0.2922c-0.0166,0.0399-0.0199,0.083-0.0199,0.1395v0.9697H6.5542V68.1603z" />
        <path d="M8.737,68.4493v0.4616h0.4184v0.2224H8.737V70c0,0.1993,0.0564,0.3122,0.2192,0.3122c0.0764,0,0.1328-0.01,0.1694-0.0199l0.0132,0.2192c-0.0565,0.0233-0.1462,0.0399-0.259,0.0399c-0.1361,0-0.2458-0.0433-0.3156-0.1229c-0.083-0.0864-0.1129-0.2292-0.1129-0.4184v-0.8768h-0.249v-0.2224h0.249v-0.3852L8.737,68.4493z" />
        <path d="M9.8369,68.4493v0.4616h0.4184v0.2224H9.8369V70c0,0.1993,0.0564,0.3122,0.2192,0.3122c0.0764,0,0.1328-0.01,0.1693-0.0199l0.0134,0.2192c-0.0565,0.0233-0.1462,0.0399-0.259,0.0399c-0.1361,0-0.2458-0.0433-0.3156-0.1229c-0.083-0.0864-0.1129-0.2292-0.1129-0.4184v-0.8768h-0.249v-0.2224h0.249v-0.3852L9.8369,68.4493z" />
        <path d="M10.5846,69.4355c0-0.2059-0.0066-0.3719-0.0132-0.5247h0.2623l0.0134,0.2755h0.0066c0.1195-0.1959,0.3088-0.312,0.5711-0.312c0.3886,0,0.6809,0.3287,0.6809,0.8169c0,0.5779-0.3521,0.8634-0.7306,0.8634c-0.2125,0-0.3986-0.093-0.4948-0.2524h-0.0066v0.8734h-0.2889V69.4355z M10.8735,69.8639c0,0.0433,0.0066,0.083,0.0133,0.1195c0.0531,0.2027,0.2292,0.3421,0.4383,0.3421c0.3089,0,0.4882-0.2523,0.4882-0.621c0-0.322-0.1694-0.5977-0.4782-0.5977c-0.1993,0-0.3852,0.1428-0.4417,0.3619c-0.0099,0.0365-0.0199,0.0798-0.0199,0.1197V69.8639z" />
        <path d="M12.4353,70.2192c0.0864,0.0565,0.2392,0.1163,0.3853,0.1163c0.2125,0,0.312-0.1063,0.312-0.239c0-0.1395-0.083-0.2159-0.2988-0.2955c-0.2889-0.103-0.4251-0.2624-0.4251-0.4551c0-0.2589,0.2092-0.4714,0.5546-0.4714c0.1626,0,0.3056,0.0464,0.3952,0.0995l-0.0731,0.2125c-0.063-0.0397-0.1793-0.0929-0.3287-0.0929c-0.1728,0-0.269,0.0996-0.269,0.2192c0,0.1328,0.0963,0.1925,0.3056,0.2723c0.2789,0.1063,0.4217,0.2458,0.4217,0.4848c0,0.2823-0.2192,0.4816-0.6011,0.4816c-0.1759,0-0.3387-0.0433-0.4516-0.1096L12.4353,70.2192z" />
        <path d="M13.7212,69.1765c0-0.1229,0.083-0.2093,0.1993-0.2093s0.1927,0.0864,0.1959,0.2093c0,0.1161-0.0764,0.2059-0.1993,0.2059C13.801,69.3824,13.7212,69.2926,13.7212,69.1765z M13.7212,70.3487c0-0.1228,0.083-0.2092,0.1993-0.2092s0.1927,0.0864,0.1959,0.2092c0,0.1163-0.0764,0.2059-0.1993,0.2059C13.801,70.5546,13.7212,70.465,13.7212,70.3487z" />
        <path d="M14.2328,70.651l0.9265-2.4076h0.2259l-0.9299,2.4076H14.2328z" />
        <path d="M15.3725,70.651l0.9265-2.4076h0.2259l-0.9299,2.4076H15.3725z" />
        <path d="M16.8742,68.9108l0.2125,0.8169c0.0465,0.1794,0.0896,0.3454,0.1195,0.5115h0.01c0.0365-0.1628,0.0896-0.3354,0.1428-0.5081l0.2623-0.8203h0.2458l0.249,0.8036c0.0598,0.1927,0.1063,0.3619,0.1428,0.5247h0.01c0.0265-0.1628,0.0698-0.332,0.1229-0.5215l0.2292-0.8069h0.2889l-0.5181,1.6073h-0.2657l-0.2458-0.7671c-0.0564-0.1793-0.1029-0.3387-0.1428-0.528H17.731c-0.0399,0.1925-0.0896,0.3586-0.1462,0.5313l-0.259,0.7637h-0.2657l-0.4848-1.6073H16.8742z" />
        <path d="M19.3596,68.9108l0.2125,0.8169c0.0465,0.1794,0.0896,0.3454,0.1195,0.5115h0.01c0.0365-0.1628,0.0896-0.3354,0.1428-0.5081l0.2623-0.8203h0.2458l0.249,0.8036c0.0598,0.1927,0.1063,0.3619,0.1428,0.5247h0.01c0.0266-0.1628,0.0698-0.332,0.1229-0.5215l0.2292-0.8069h0.2889l-0.5181,1.6073h-0.2657l-0.2458-0.7671c-0.0564-0.1793-0.1029-0.3387-0.1428-0.528h-0.0066c-0.0399,0.1925-0.0896,0.3586-0.1462,0.5313l-0.259,0.7637h-0.2657l-0.4848-1.6073H19.3596z" />
        <path d="M21.8448,68.9108l0.2125,0.8169c0.0465,0.1794,0.0896,0.3454,0.1195,0.5115h0.01c0.0365-0.1628,0.0896-0.3354,0.1428-0.5081l0.2623-0.8203h0.2458l0.249,0.8036c0.0598,0.1927,0.1063,0.3619,0.1428,0.5247h0.01c0.0266-0.1628,0.0698-0.332,0.1229-0.5215l0.2292-0.8069h0.2889l-0.5181,1.6073h-0.2657L22.851,69.751c-0.0564-0.1793-0.1029-0.3387-0.1428-0.528h-0.0066c-0.0399,0.1925-0.0896,0.3586-0.1462,0.5313l-0.259,0.7637h-0.2657l-0.4848-1.6073H21.8448z" />
        <path d="M23.9748,70.3454c0-0.1229,0.083-0.2093,0.1993-0.2093s0.1959,0.0864,0.1959,0.2093c0,0.1195-0.0764,0.2092-0.1993,0.2092C24.0545,70.5546,23.9748,70.465,23.9748,70.3454z" />
        <path d="M24.6923,70.2192c0.0864,0.0565,0.2392,0.1163,0.3853,0.1163c0.2125,0,0.312-0.1063,0.312-0.239c0-0.1395-0.083-0.2159-0.2988-0.2955c-0.2889-0.103-0.4251-0.2624-0.4251-0.4551c0-0.2589,0.2092-0.4714,0.5546-0.4714c0.1626,0,0.3056,0.0464,0.3952,0.0995l-0.0731,0.2125c-0.063-0.0397-0.1793-0.0929-0.3287-0.0929c-0.1728,0-0.269,0.0996-0.269,0.2192c0,0.1328,0.0963,0.1925,0.3056,0.2723c0.2789,0.1063,0.4217,0.2458,0.4217,0.4848c0,0.2823-0.2192,0.4816-0.6011,0.4816c-0.1759,0-0.3387-0.0433-0.4516-0.1096L24.6923,70.2192z" />
        <path d="M26.4,68.4493v0.4616h0.4184v0.2224H26.4V70c0,0.1993,0.0564,0.3122,0.2192,0.3122c0.0764,0,0.1328-0.01,0.1693-0.0199l0.0134,0.2192c-0.0565,0.0233-0.1462,0.0399-0.259,0.0399c-0.1361,0-0.2458-0.0433-0.3156-0.1229c-0.083-0.0864-0.1129-0.2292-0.1129-0.4184v-0.8768h-0.249v-0.2224h0.249v-0.3852L26.4,68.4493z" />
        <path d="M28.4928,70.0798c0,0.166,0.0032,0.3122,0.0133,0.4383h-0.259l-0.0166-0.2623h-0.0066c-0.0764,0.1294-0.2457,0.2988-0.5313,0.2988c-0.2523,0-0.5546-0.1394-0.5546-0.704v-0.9398h0.2923v0.89c0,0.3054,0.093,0.5113,0.3587,0.5113c0.1959,0,0.3321-0.1361,0.3852-0.2657c0.0166-0.0431,0.0265-0.0963,0.0265-0.1494v-0.9863h0.2923V70.0798z" />
        <path d="M30.3666,68.1603v1.9427c0,0.1428,0.0034,0.3054,0.0133,0.4151h-0.2623l-0.0133-0.2789h-0.0066c-0.0898,0.1793-0.2857,0.3154-0.548,0.3154c-0.3886,0-0.6875-0.3287-0.6875-0.8169c-0.0032-0.5347,0.3288-0.8634,0.7206-0.8634c0.2458,0,0.4118,0.1161,0.485,0.2457h0.0066v-0.9596H30.3666z M30.0745,69.5651c0-0.0366-0.0034-0.0864-0.0134-0.1229c-0.0431-0.186-0.2025-0.3388-0.4217-0.3388c-0.3022,0-0.4816,0.2657-0.4816,0.6211c0,0.3254,0.1594,0.5943,0.475,0.5943c0.1959,0,0.3752-0.1295,0.4283-0.3487c0.01-0.0399,0.0134-0.0796,0.0134-0.1261V69.5651z" />
        <path d="M31.178,68.4591c0.0034,0.0996-0.0698,0.1794-0.1859,0.1794c-0.103,0-0.176-0.0798-0.176-0.1794c0-0.1029,0.0764-0.1827,0.1827-0.1827C31.1082,68.2765,31.178,68.3562,31.178,68.4591z M30.8525,70.5181v-1.6073h0.2923v1.6073H30.8525z" />
        <path d="M33.0846,69.7012c0,0.5943-0.4117,0.8534-0.8003,0.8534c-0.4351,0-0.7705-0.3188-0.7705-0.8269c0-0.538,0.3521-0.8534,0.797-0.8534C32.7725,68.8743,33.0846,69.2096,33.0846,69.7012z M31.8094,69.7177c0,0.3521,0.2027,0.6177,0.4882,0.6177c0.2789,0,0.4882-0.2623,0.4882-0.6244c0-0.2723-0.1361-0.6176-0.4816-0.6176C31.9589,69.0935,31.8094,69.4123,31.8094,69.7177z" />
        <path d="M33.4542,69.4355c0-0.2059-0.0066-0.3719-0.0132-0.5247h0.2623l0.0134,0.2755h0.0066c0.1195-0.1959,0.3088-0.312,0.5711-0.312c0.3886,0,0.6809,0.3287,0.6809,0.8169c0,0.5779-0.3521,0.8634-0.7306,0.8634c-0.2125,0-0.3986-0.093-0.4948-0.2524h-0.0066v0.8734h-0.2889V69.4355z M33.7431,69.8639c0,0.0433,0.0066,0.083,0.0133,0.1195c0.0531,0.2027,0.2292,0.3421,0.4383,0.3421c0.3089,0,0.4882-0.2523,0.4882-0.621c0-0.322-0.1694-0.5977-0.4782-0.5977c-0.1993,0-0.3852,0.1428-0.4417,0.3619c-0.0099,0.0365-0.0199,0.0798-0.0199,0.1197V69.8639z" />
        <path d="M35.6701,68.4591c0.0034,0.0996-0.0698,0.1794-0.1859,0.1794c-0.103,0-0.176-0.0798-0.176-0.1794c0-0.1029,0.0764-0.1827,0.1827-0.1827C35.6004,68.2765,35.6701,68.3562,35.6701,68.4591z M35.3447,70.5181v-1.6073h0.2923v1.6073H35.3447z" />
        <path d="M36.285,69.7676c0.0066,0.3952,0.2589,0.5578,0.5512,0.5578c0.2092,0,0.3354-0.0365,0.4449-0.083l0.0499,0.2093c-0.103,0.0465-0.2789,0.0996-0.5347,0.0996c-0.4948,0-0.7904-0.3254-0.7904-0.8104c0-0.4848,0.2857-0.8666,0.7539-0.8666c0.5247,0,0.6642,0.4616,0.6642,0.7571c0,0.0598-0.0068,0.1063-0.01,0.1361H36.285z M37.1418,69.5583c0.0032-0.1859-0.0764-0.4748-0.4052-0.4748c-0.2955,0-0.4251,0.2723-0.4483,0.4748H37.1418z" />
        <path d="M38.1389,68.4493v0.4616h0.4184v0.2224h-0.4184V70c0,0.1993,0.0564,0.3122,0.2192,0.3122c0.0764,0,0.1328-0.01,0.1693-0.0199l0.0134,0.2192c-0.0565,0.0233-0.1462,0.0399-0.259,0.0399c-0.1361,0-0.2458-0.0433-0.3156-0.1229c-0.083-0.0864-0.1129-0.2292-0.1129-0.4184v-0.8768h-0.249v-0.2224h0.249v-0.3852L38.1389,68.4493z" />
        <path d="M39.0295,69.7676c0.0066,0.3952,0.259,0.5578,0.5512,0.5578c0.2092,0,0.3354-0.0365,0.4449-0.083l0.0499,0.2093c-0.103,0.0465-0.2789,0.0996-0.5347,0.0996c-0.4948,0-0.7904-0.3254-0.7904-0.8104c0-0.4848,0.2857-0.8666,0.7539-0.8666c0.5247,0,0.6642,0.4616,0.6642,0.7571c0,0.0598-0.0068,0.1063-0.01,0.1361H39.0295z M39.8862,69.5583c0.0032-0.1859-0.0764-0.4748-0.4052-0.4748c-0.2955,0-0.4251,0.2723-0.4483,0.4748H39.8862z" />
        <path d="M40.5314,69.4123c0-0.1893-0.0034-0.3521-0.0132-0.5015h0.2557l0.01,0.3154h0.0132c0.073-0.2158,0.249-0.3519,0.4449-0.3519c0.0333,0,0.0565,0.0033,0.0831,0.0099v0.2757c-0.03-0.0066-0.0599-0.01-0.0996-0.01c-0.2059,0-0.3521,0.1562-0.3919,0.3753c-0.0066,0.0399-0.0132,0.0863-0.0132,0.1361v0.8568h-0.2889V69.4123z" />
        <path d="M41.578,70.2192c0.0864,0.0565,0.2392,0.1163,0.3853,0.1163c0.2125,0,0.312-0.1063,0.312-0.239c0-0.1395-0.083-0.2159-0.2988-0.2955c-0.2889-0.103-0.4251-0.2624-0.4251-0.4551c0-0.2589,0.2092-0.4714,0.5546-0.4714c0.1626,0,0.3056,0.0464,0.3952,0.0995l-0.0731,0.2125c-0.063-0.0397-0.1793-0.0929-0.3287-0.0929c-0.1728,0-0.2691,0.0996-0.2691,0.2192c0,0.1328,0.0963,0.1925,0.3056,0.2723c0.2789,0.1063,0.4217,0.2458,0.4217,0.4848c0,0.2823-0.2192,0.4816-0.6011,0.4816c-0.1759,0-0.3387-0.0433-0.4516-0.1096L41.578,70.2192z" />
        <path d="M42.8274,70.3454c0-0.1229,0.083-0.2093,0.1993-0.2093c0.1163,0,0.1959,0.0864,0.1959,0.2093c0,0.1195-0.0764,0.2092-0.1993,0.2092C42.9071,70.5546,42.8274,70.465,42.8274,70.3454z" />
        <path d="M43.5849,69.3458c0-0.166-0.0032-0.3022-0.0132-0.4349h0.259l0.0165,0.2657h0.0068c0.0796-0.1528,0.2657-0.3022,0.5313-0.3022c0.2224,0,0.5678,0.1328,0.5678,0.684v0.9598h-0.2923v-0.9265c0-0.259-0.0963-0.4748-0.3719-0.4748c-0.1925,0-0.3421,0.1361-0.3918,0.2988c-0.0133,0.0365-0.0199,0.0864-0.0199,0.1361v0.9664h-0.2923V69.3458z" />
        <path d="M45.4289,68.1603h0.2923v2.3578h-0.2923V68.1603z" />
    </g>
    <g >
        <g >
            <path d="M13.7077,40.2262c-0.4799,0-0.9599,0-1.4599,0c0.0014-0.3114-0.2159-0.428-0.4578-0.506c-0.1446-0.0466-0.1587-0.1372-0.1397-0.2585c0.0795-0.5091,0.1542-1.019,0.2403-1.527c0.0605-0.3573,0.041-0.3887-0.3162-0.3891c-0.6236-0.0006-0.6207-0.0007-0.6058,0.6368c0.0138,0.5871,0.0158,1.1746,0.0328,1.7616c0.0064,0.2218-0.0712,0.3071-0.3017,0.2957c-0.4484-0.0221-0.8981-0.0175-1.3472-0.0274c-0.0998-0.0022-0.1992-0.0189-0.3224-0.0312c0.4283-0.4183,0.3408-0.9565,0.4373-1.436c0.1844-0.9166,0.3275-1.8416,0.5129-2.758c0.1989-0.9832,0.4243-1.961,0.6429-2.9401c0.0953-0.4269,0.1991-0.852,0.3083-1.2756c0.0126-0.0488,0.0821-0.0859,0.1305-0.121c0.0173-0.0126,0.0504-0.0042,0.0763-0.0039c0.233,0.0029,0.522-0.076,0.6825,0.0334c0.1467,0.1,0.1729,0.3999,0.2201,0.6187c0.2354,1.0909,0.464,2.1833,0.6873,3.2767c0.127,0.6218,0.2499,1.2448,0.3547,1.8707c0.0709,0.4233,0.0896,0.8554,0.163,1.2782c0.0881,0.5073-0.0072,1.0791,0.5013,1.4527C13.7341,40.1935,13.7209,40.2098,13.7077,40.2262z M11.5366,32.8208c-0.3753-0.0022-0.5963,0.1247-0.6536,0.3357c-0.0648,0.2384-0.0196,0.4444,0.2145,0.5771c0.1799,0.102,0.1484,0.2391,0.0725,0.3945c-0.0933,0.1908-0.2279,0.3834-0.2468,0.5843c-0.049,0.522-0.0425,1.0491-0.0627,1.574c-0.0051,0.1337,0.0457,0.1865,0.1803,0.1835c0.2676-0.006,0.5361,0.0081,0.8027-0.0097c0.0598-0.004,0.1597-0.1027,0.1624-0.1614c0.0319-0.6984,0.0399-1.3916-0.3181-2.0355c-0.1589-0.2858-0.1096-0.426,0.1564-0.618c0.197-0.1421,0.2138-0.2674,0.0286-0.4287c-0.0543-0.0473-0.0733-0.133-0.1229-0.1881C11.6678,32.9374,11.5741,32.8568,11.5366,32.8208z"  class="st17"/>
        </g>
        <g >
            <path d="M16.0733,39.5834c0.166,0.0993,0.336,0.1831,0.4825,0.2972c0.0604,0.0471,0.1103,0.1706,0.0909,0.2379c-0.0165,0.0569-0.1386,0.1139-0.2162,0.1171c-0.3105,0.0131-0.622-0.0016-0.9327,0.008c-0.1769,0.0055-0.2199-0.0747-0.2185-0.2339c0.005-0.5529,0.0189-1.1066-0.0044-1.6585c-0.0254-0.6002-0.0886-1.1988-0.1354-1.798c-0.0013-0.0172-0.0064-0.0344-0.0056-0.0514c0.0329-0.6359,0.0527-1.2729,0.1086-1.9068c0.0149-0.1693,0.1211-0.3419,0.221-0.4888c0.0879-0.1292,0.0891-0.1949-0.0357-0.2952c-0.2644-0.2124-0.3112-0.4128-0.2162-0.7028c0.0924-0.282,0.3298-0.3373,0.5704-0.3561c0.1041-0.0081,0.2447,0.0476,0.317,0.1236c0.1332,0.14,0.2485,0.3072,0.3288,0.4824c0.0307,0.0669-0.0261,0.2231-0.0928,0.2771c-0.3574,0.2892-0.3573,0.2947-0.1564,0.7351c0.3988,0.8741,0.3104,1.7831,0.2172,2.6933c-0.0578,0.5643-0.1254,1.1277-0.1954,1.6906C16.1655,39.0349,16.1152,39.3136,16.0733,39.5834z"  class="st17"/>
        </g>
        <g >
            <path d="M16.5724,30.5351c0.8089,0.1096,1.3399,0.491,1.6718,1.1377c0.1081,0.2106,0.17,0.4482,0.2284,0.6797c0.0326,0.1293,0.0473,0.2854-0.1714,0.2955c-0.1806,0.0083-0.2624-0.0546-0.2765-0.2475c-0.0614-0.8381-0.8001-1.3746-1.3933-1.4341c-0.174-0.0175-0.3076-0.05-0.2511-0.2463C16.4052,30.6342,16.527,30.5763,16.5724,30.5351z"  class="st17"/>
        </g>
        <g >
            <path d="M17.6014,32.6473c-0.0255-0.0277-0.1245-0.085-0.1366-0.1569c-0.0865-0.5152-0.3738-0.8485-0.8841-0.9391c-0.2562-0.0455-0.2334-0.1964-0.1986-0.3501c0.0427-0.1887,0.1869-0.0897,0.2948-0.0638c0.6795,0.1631,1.0826,0.5838,1.2043,1.2776C17.914,32.602,17.8299,32.6473,17.6014,32.6473z"  class="st17"/>
        </g>
        <g >
            <path d="M17.0306,32.6403c-0.0228-0.0235-0.086-0.089-0.1495-0.1542c-0.1227-0.1259-0.2244-0.3016-0.3737-0.3652c-0.2011-0.0856-0.1383-0.2207-0.1155-0.3363c0.0071-0.036,0.1728-0.0754,0.2524-0.0564c0.3527,0.0842,0.5458,0.3373,0.6441,0.6718C17.3341,32.5556,17.2956,32.658,17.0306,32.6403z"  class="st17"/>
        </g>
        <g >
            <path d="M14.4191,40.1378c-0.2015,0.0061-0.3152-0.0966-0.316-0.2741c-0.0008-0.1749,0.1087-0.2863,0.2976-0.2836c0.1889,0.0027,0.2937,0.115,0.2876,0.2919C14.6828,40.0304,14.5959,40.1494,14.4191,40.1378z"  class="st17"/>
        </g>
        <g >
            <path d="M13.7779,43.342c-4.1293,0-7.4888-3.3595-7.4888-7.4888c0-4.1293,3.3595-7.4888,7.4888-7.4888c4.1293,0,7.4887,3.3595,7.4887,7.4888C21.2667,39.9826,17.9072,43.342,13.7779,43.342z M13.7779,28.6756c-3.9578,0-7.1777,3.2199-7.1777,7.1777s3.2199,7.1777,7.1777,7.1777s7.1777-3.2199,7.1777-7.1777S17.7357,28.6756,13.7779,28.6756z"  class="st17"/>
        </g>
    </g>
</svg>
