<?xml version='1.0' encoding='utf-8'?>
<!DOCTYPE svg>
<!-- Generator: Adobe Illustrator 16.0.0, SVG Export Plug-In . SVG Version: 6.00 Build 0)  -->
<svg xmlns="http://www.w3.org/2000/svg" width="1.6811in" x="0px" version="1.1" y="0px" gorn="0"  height="1.66446in" viewBox="0 0 121.039 119.841" xmlns:xml="http://www.w3.org/XML/1998/namespace" id="Layer_1" enable-background="new 0 0 121.039 119.841" xml:space="preserve">
    <desc >
        <referenceFile >pn532_elechouse_breadboard.svg</referenceFile>
    </desc>
    <path fill="#E62C2E" gorn="0.1"  id="board" d="M114.598,0H5.979L0,5.979v108.319l5.543,5.543h109.954l5.542-5.543V6.441L114.598,0z M19.749,24.151c-2.585,0-4.681-2.096-4.681-4.681s2.096-4.681,4.681-4.681s4.681,2.096,4.681,4.681S22.334,24.151,19.749,24.151z M103.101,106.508c-2.585,0-4.681-2.096-4.681-4.681c0-2.586,2.096-4.682,4.681-4.682c2.586,0,4.682,2.096,4.682,4.682C107.782,104.413,105.687,106.508,103.101,106.508z"/>
    <path fill="#FFFFFF" gorn="0.2"  id="antenna" d="M112.456,2.373H8.139L2.396,8.116v104.029l5.323,5.323h105.6l5.323-5.323V8.56L112.456,2.373z M111.602,105.819l-4.678,4.678H12.917l-3.48-3.479V15.589l5.946-5.946h90.782l5.437,5.437V105.819z"/>
    <g gorn="0.3"  id="copper2">
        <path fill="#9A916C" gorn="0.3.0"  id="connector12pad" d="M89.97,21.905c-1.242,0-2.253-1.011-2.253-2.253c0-1.243,1.011-2.253,2.253-2.253c1.242,0,2.253,1.01,2.253,2.253C92.224,20.894,91.212,21.905,89.97,21.905z M89.97,18.493c-0.638,0-1.158,0.52-1.158,1.159s0.52,1.159,1.158,1.159c0.639,0,1.159-0.52,1.159-1.159S90.609,18.493,89.97,18.493z"/>
        <path fill="#9A916C" gorn="0.3.1"  id="connector11pad" d="M84.003,21.905c-1.241,0-2.252-1.011-2.252-2.253c0-1.243,1.011-2.253,2.252-2.253c1.242,0,2.253,1.01,2.253,2.253C86.256,20.894,85.245,21.905,84.003,21.905z M84.003,18.493c-0.638,0-1.158,0.52-1.158,1.159s0.52,1.159,1.158,1.159c0.639,0,1.159-0.52,1.159-1.159S84.642,18.493,84.003,18.493z"/>
        <path fill="#9A916C" gorn="0.3.2"  id="connector10pad" d="M78.036,21.905c-1.241,0-2.252-1.011-2.252-2.253c0-1.243,1.011-2.253,2.252-2.253c1.242,0,2.253,1.01,2.253,2.253C80.289,20.894,79.278,21.905,78.036,21.905z M78.036,18.493c-0.638,0-1.158,0.52-1.158,1.159s0.52,1.159,1.158,1.159c0.639,0,1.159-0.52,1.159-1.159S78.675,18.493,78.036,18.493z"/>
        <path fill="#9A916C" gorn="0.3.3"  id="connector9pad" d="M72.068,21.905c-1.241,0-2.252-1.011-2.252-2.253c0-1.243,1.011-2.253,2.252-2.253c1.243,0,2.253,1.01,2.253,2.253C74.322,20.894,73.311,21.905,72.068,21.905z M72.068,18.493c-0.638,0-1.158,0.52-1.158,1.159s0.52,1.159,1.158,1.159c0.639,0,1.159-0.52,1.159-1.159S72.708,18.493,72.068,18.493z"/>
        <path fill="#9A916C" gorn="0.3.4"  id="connector8pad" d="M66.102,21.905c-1.242,0-2.253-1.011-2.253-2.253c0-1.243,1.011-2.253,2.253-2.253c1.242,0,2.253,1.01,2.253,2.253C68.355,20.894,67.344,21.905,66.102,21.905z M66.102,18.493c-0.638,0-1.158,0.52-1.158,1.159s0.52,1.159,1.158,1.159c0.639,0,1.158-0.52,1.158-1.159S66.74,18.493,66.102,18.493z"/>
        <path fill="#9A916C" gorn="0.3.5"  id="connector7pad" d="M60.134,21.905c-1.242,0-2.252-1.011-2.252-2.253c0-1.243,1.011-2.253,2.252-2.253c1.242,0,2.253,1.01,2.253,2.253C62.388,20.894,61.376,21.905,60.134,21.905z M60.134,18.493c-0.638,0-1.158,0.52-1.158,1.159s0.52,1.159,1.158,1.159c0.639,0,1.159-0.52,1.159-1.159S60.773,18.493,60.134,18.493z"/>
        <path fill="#9A916C" gorn="0.3.6"  id="connector6pad" d="M54.167,21.905c-1.241,0-2.252-1.011-2.252-2.253c0-1.243,1.011-2.253,2.252-2.253c1.242,0,2.253,1.01,2.253,2.253C56.42,20.894,55.409,21.905,54.167,21.905z M54.167,18.493c-0.638,0-1.158,0.52-1.158,1.159s0.52,1.159,1.158,1.159c0.639,0,1.159-0.52,1.159-1.159S54.806,18.493,54.167,18.493z"/>
        <path fill="#9A916C" gorn="0.3.7"  id="connector5pad" d="M48.2,21.905c-1.241,0-2.252-1.011-2.252-2.253c0-1.243,1.011-2.253,2.252-2.253c1.243,0,2.253,1.01,2.253,2.253C50.453,20.894,49.442,21.905,48.2,21.905z M48.2,18.493c-0.638,0-1.158,0.52-1.158,1.159s0.52,1.159,1.158,1.159c0.639,0,1.159-0.52,1.159-1.159S48.839,18.493,48.2,18.493z"/>
    </g>
    <g gorn="0.4"  id="copper1">
        <path fill="#9A916C" gorn="0.4.0"  id="connector1pad" d="M24.255,52.981c0,1.242-1.01,2.253-2.253,2.253c-1.242,0-2.253-1.011-2.253-2.253c0-1.242,1.011-2.253,2.253-2.253C23.245,50.728,24.255,51.739,24.255,52.981z M20.843,52.981c0,0.638,0.52,1.158,1.159,1.158s1.159-0.52,1.159-1.158c0-0.639-0.52-1.159-1.159-1.159S20.843,52.343,20.843,52.981z"/>
        <path fill="#9A916C" gorn="0.4.1"  id="connector2pad" d="M24.255,58.949c0,1.241-1.01,2.252-2.253,2.252c-1.242,0-2.253-1.011-2.253-2.252c0-1.242,1.011-2.253,2.253-2.253C23.245,56.695,24.255,57.707,24.255,58.949z M20.843,58.949c0,0.638,0.52,1.158,1.159,1.158s1.159-0.52,1.159-1.158c0-0.639-0.52-1.159-1.159-1.159S20.843,58.31,20.843,58.949z"/>
        <path fill="#9A916C" gorn="0.4.2"  id="connector3pad_1_" d="M24.255,64.916c0,1.241-1.01,2.252-2.253,2.252c-1.242,0-2.253-1.011-2.253-2.252c0-1.242,1.011-2.253,2.253-2.253C23.245,62.663,24.255,63.674,24.255,64.916z M20.843,64.916c0,0.638,0.52,1.158,1.159,1.158s1.159-0.52,1.159-1.158c0-0.639-0.52-1.159-1.159-1.159S20.843,64.277,20.843,64.916z"/>
        <path fill="#9A916C" gorn="0.4.3"  id="connector4pad" d="M24.255,70.883c0,1.241-1.01,2.252-2.253,2.252c-1.242,0-2.253-1.011-2.253-2.252c0-1.243,1.011-2.253,2.253-2.253C23.245,68.63,24.255,69.641,24.255,70.883z M20.843,70.883c0,0.638,0.52,1.158,1.159,1.158s1.159-0.52,1.159-1.158c0-0.639-0.52-1.159-1.159-1.159S20.843,70.244,20.843,70.883z"/>
    </g>
    <polygon fill="none" points="20.216,55.939 18.82,57.256 18.82,60.674 20.241,62.095 18.82,63.333 18.82,66.75 20.241,68.172 18.741,69.488 18.741,72.906 20.162,74.327 23.547,74.327 24.943,72.931 24.943,69.488 23.626,68.172 25.023,66.775 25.023,63.333 23.706,62.016 25.023,60.699 25.023,57.256 23.706,55.939 25.103,54.623 25.103,51.205 23.681,49.784 20.296,49.784 18.9,51.18 18.9,54.623 " gorn="0.5"  stroke="#FFFFFF" id="copper1line" stroke-width="1" stroke-miterlimit="10"/>
    <polygon fill="none" points="74.739,18.009 76.056,16.508 79.474,16.508 80.895,17.929 82.132,16.508 85.549,16.508 86.971,17.929 88.288,16.428 91.706,16.428 93.126,17.85 93.126,21.234 91.73,22.631 88.288,22.631 86.971,21.314 85.574,22.71 82.132,22.71 80.815,21.394 79.499,22.71 76.056,22.71 74.739,21.394 73.468,22.79 70.335,22.79 69.136,21.473 67.938,22.79 64.804,22.79 63.754,21.394 62.438,22.71 58.995,22.71 57.678,21.394 56.361,22.71 52.918,22.71 51.522,21.314 50.206,22.631 46.763,22.631 45.367,21.234 45.367,17.85 46.788,16.428 50.206,16.428 51.522,17.929 52.943,16.508 56.361,16.508 57.599,17.929 59.02,16.508 62.438,16.508 63.754,17.904 64.804,16.587 67.915,16.587 69.208,18.009 70.335,16.587 73.445,16.587 " gorn="0.6"  stroke="#FFFFFF" id="copper2line" stroke-width="1" stroke-miterlimit="10"/>
    <rect width="11.085" x="73.203" y="42.644" fill="#7E8180"  height="5.342"/>
    <rect width="11.484" x="77.048" y="54.328" fill="#2C372D"  height="11.484"/>
    <rect width="8.339" x="38.749" y="59.122" fill="#2C372D"  height="4.943"/>
    <rect width="1.398" x="40.296" y="57.205" fill="#9A916C"  height="1.917"/>
    <rect width="1.399" x="42.519" y="57.205" fill="#9A916C"  height="1.917"/>
    <rect width="1.399" x="44.741" y="57.205" fill="#9A916C"  height="1.917"/>
    <rect width="1.398" x="40.296" y="64.065" fill="#9A916C"  height="1.918"/>
    <rect width="1.399" x="42.519" y="64.065" fill="#9A916C"  height="1.918"/>
    <rect width="1.399" x="44.741" y="64.065" fill="#9A916C"  height="1.918"/>
    <rect width="5.393" x="51.032" y="67.286" fill="#FFFFFF"  height="2.172"/>
    <rect width="2.197" x="85.786" y="70.556" fill="#2C372D"  height="3.046"/>
    <rect width="2.197" x="85.786" y="73.603" fill="#8C8C8C"  height="1.098"/>
    <rect width="2.197" x="85.786" y="69.458" fill="#8C8C8C"  height="1.098"/>
    <rect width="2.197" x="89.531" y="70.556" fill="#2C372D"  height="3.046"/>
    <rect width="2.197" x="89.531" y="73.603" fill="#8C8C8C"  height="1.098"/>
    <rect width="2.197" x="89.531" y="69.458" fill="#8C8C8C"  height="1.098"/>
    <rect width="2.197" x="74.152" y="70.556" fill="#2C372D"  height="3.046"/>
    <rect width="2.197" x="74.152" y="73.603" fill="#8C8C8C"  height="1.098"/>
    <rect width="2.197" x="74.152" y="69.458" fill="#8C8C8C"  height="1.098"/>
    <rect width="2.197" x="109.404" y="53.529" fill="#2C372D"  height="3.046"/>
    <rect width="2.197" x="109.404" y="56.575" fill="#8C8C8C"  height="1.099"/>
    <rect width="2.197" x="109.404" y="52.43" fill="#8C8C8C"  height="1.099"/>
    <rect width="2.197" x="109.404" y="62.966" fill="#2C372D"  height="3.046"/>
    <rect width="2.197" x="109.404" y="66.013" fill="#8C8C8C"  height="1.098"/>
    <rect width="2.197" x="109.404" y="61.868" fill="#8C8C8C"  height="1.099"/>
    <rect width="2.197" x="93.676" y="44.591" fill="#2C372D"  height="3.046"/>
    <rect width="2.197" x="93.676" y="47.637" fill="#8C8C8C"  height="1.098"/>
    <rect width="2.197" x="93.676" y="43.493" fill="#8C8C8C"  height="1.098"/>
    <rect width="2.197" x="96.522" y="44.591" fill="#2C372D"  height="3.046"/>
    <rect width="2.197" x="96.522" y="47.637" fill="#8C8C8C"  height="1.098"/>
    <rect width="2.197" x="96.522" y="43.493" fill="#8C8C8C"  height="1.098"/>
    <rect width="2.197" x="99.368" y="44.591" fill="#2C372D"  height="3.046"/>
    <rect width="2.197" x="99.368" y="47.637" fill="#8C8C8C"  height="1.098"/>
    <rect width="2.197" x="99.368" y="43.493" fill="#8C8C8C"  height="1.098"/>
    <rect width="2.197" x="102.214" y="44.591" fill="#2C372D"  height="3.046"/>
    <rect width="2.197" x="102.214" y="47.637" fill="#8C8C8C"  height="1.098"/>
    <rect width="2.197" x="102.214" y="43.493" fill="#8C8C8C"  height="1.098"/>
    <rect width="3.046" x="96.921" y="53.829" fill="#2C372D"  height="2.197"/>
    <rect width="1.098" x="95.823" y="53.829" fill="#8C8C8C"  height="2.197"/>
    <rect width="1.098" x="99.968" y="53.829" fill="#8C8C8C"  height="2.197"/>
    <rect width="3.046" x="96.921" y="64.065" fill="#2C372D"  height="2.197"/>
    <rect width="1.098" x="95.823" y="64.065" fill="#8C8C8C"  height="2.197"/>
    <rect width="1.098" x="99.968" y="64.065" fill="#8C8C8C"  height="2.197"/>
    <rect width="3.046" x="91.928" y="58.822" fill="#2C372D"  height="2.196"/>
    <rect width="1.098" x="90.83" y="58.822" fill="#8C8C8C"  height="2.196"/>
    <rect width="1.098" x="94.975" y="58.822" fill="#8C8C8C"  height="2.196"/>
    <rect width="3.046" x="52.281" y="63.058" fill="#2C372D"  height="2.197"/>
    <rect width="1.098" x="51.183" y="63.058" fill="#8C8C8C"  height="2.197"/>
    <rect width="1.099" x="55.327" y="63.058" fill="#8C8C8C"  height="2.197"/>
    <rect width="3.046" x="41.695" y="52.543" fill="#2C372D"  height="2.196"/>
    <rect width="1.098" x="40.597" y="52.543" fill="#8C8C8C"  height="2.196"/>
    <rect width="1.099" x="44.741" y="52.543" fill="#8C8C8C"  height="2.196"/>
    <rect width="3.046" x="41.695" y="68.623" fill="#2C372D"  height="2.197"/>
    <rect width="1.098" x="40.597" y="68.623" fill="#8C8C8C"  height="2.197"/>
    <rect width="1.099" x="44.741" y="68.623" fill="#8C8C8C"  height="2.197"/>
    <rect width="1.099" x="47.112" y="40.347" fill="#2C372D"  height="1.523"/>
    <rect width="1.099" x="47.112" y="41.87" fill="#8C8C8C"  height="0.549"/>
    <rect width="1.099" x="47.112" y="39.797" fill="#8C8C8C"  height="0.549"/>
    <rect width="1.099" x="49.135" y="40.347" fill="#2C372D"  height="1.523"/>
    <rect width="1.099" x="49.135" y="41.87" fill="#8C8C8C"  height="0.549"/>
    <rect width="1.099" x="49.135" y="39.797" fill="#8C8C8C"  height="0.549"/>
    <rect width="1.099" x="51.157" y="40.347" fill="#2C372D"  height="1.523"/>
    <rect width="1.099" x="51.157" y="41.87" fill="#8C8C8C"  height="0.549"/>
    <rect width="1.099" x="51.157" y="39.797" fill="#8C8C8C"  height="0.549"/>
    <rect width="1.099" x="53.179" y="40.347" fill="#2C372D"  height="1.523"/>
    <rect width="1.099" x="53.179" y="41.87" fill="#8C8C8C"  height="0.549"/>
    <rect width="1.099" x="53.179" y="39.797" fill="#8C8C8C"  height="0.549"/>
    <g gorn="0.74"  id="copper3">
        <path fill="#9A916C" gorn="0.74.0"  id="connector13pad" d="M56.417,90.144c-0.911,0-1.653-0.742-1.653-1.653c0-0.912,0.742-1.653,1.653-1.653c0.912,0,1.654,0.741,1.654,1.653C58.071,89.402,57.329,90.144,56.417,90.144z M56.417,87.64c-0.468,0-0.85,0.381-0.85,0.851c0,0.469,0.381,0.851,0.85,0.851c0.469,0,0.85-0.382,0.85-0.851C57.267,88.021,56.886,87.64,56.417,87.64z"/>
        <path fill="#9A916C" gorn="0.74.1"  id="connector14pad" d="M59.894,90.144c-0.911,0-1.653-0.742-1.653-1.653c0-0.912,0.742-1.653,1.653-1.653c0.912,0,1.654,0.741,1.654,1.653C61.548,89.402,60.806,90.144,59.894,90.144z M59.894,87.64c-0.468,0-0.85,0.381-0.85,0.851c0,0.469,0.381,0.851,0.85,0.851c0.469,0,0.85-0.382,0.85-0.851C60.744,88.021,60.363,87.64,59.894,87.64z"/>
        <path fill="#9A916C" gorn="0.74.2"  id="connector15pad" d="M63.371,90.144c-0.911,0-1.653-0.742-1.653-1.653c0-0.912,0.742-1.653,1.653-1.653c0.912,0,1.654,0.741,1.654,1.653C65.025,89.402,64.283,90.144,63.371,90.144z M63.371,87.64c-0.468,0-0.85,0.381-0.85,0.851c0,0.469,0.381,0.851,0.85,0.851c0.469,0,0.85-0.382,0.85-0.851C64.221,88.021,63.84,87.64,63.371,87.64z"/>
        <path fill="#9A916C" gorn="0.74.3"  id="connector16pad" d="M66.848,90.144c-0.911,0-1.653-0.742-1.653-1.653c0-0.912,0.742-1.653,1.653-1.653c0.912,0,1.654,0.741,1.654,1.653C68.502,89.402,67.76,90.144,66.848,90.144z M66.848,87.64c-0.468,0-0.85,0.381-0.85,0.851c0,0.469,0.381,0.851,0.85,0.851c0.469,0,0.85-0.382,0.85-0.851C67.698,88.021,67.317,87.64,66.848,87.64z"/>
        <path fill="#9A916C" gorn="0.74.4"  id="connector17pad" d="M70.325,90.144c-0.911,0-1.653-0.742-1.653-1.653c0-0.912,0.742-1.653,1.653-1.653c0.912,0,1.653,0.741,1.653,1.653C71.979,89.402,71.237,90.144,70.325,90.144z M70.325,87.64c-0.468,0-0.85,0.381-0.85,0.851c0,0.469,0.381,0.851,0.85,0.851c0.469,0,0.85-0.382,0.85-0.851C71.175,88.021,70.794,87.64,70.325,87.64z"/>
        <path fill="#9A916C" gorn="0.74.5"  id="connector18pad" d="M73.802,90.144c-0.911,0-1.653-0.742-1.653-1.653c0-0.912,0.742-1.653,1.653-1.653c0.912,0,1.653,0.741,1.653,1.653C75.456,89.402,74.714,90.144,73.802,90.144z M73.802,87.64c-0.468,0-0.85,0.381-0.85,0.851c0,0.469,0.381,0.851,0.85,0.851c0.469,0,0.85-0.382,0.85-0.851C74.652,88.021,74.271,87.64,73.802,87.64z"/>
        <path fill="#9A916C" gorn="0.74.6"  id="connector19pad" d="M77.279,90.144c-0.911,0-1.653-0.742-1.653-1.653c0-0.912,0.742-1.653,1.653-1.653c0.912,0,1.653,0.741,1.653,1.653C78.933,89.402,78.191,90.144,77.279,90.144z M77.279,87.64c-0.468,0-0.85,0.381-0.85,0.851c0,0.469,0.381,0.851,0.85,0.851c0.469,0,0.85-0.382,0.85-0.851C78.129,88.021,77.748,87.64,77.279,87.64z"/>
        <path fill="#9A916C" gorn="0.74.7"  id="connector20pad" d="M80.756,90.144c-0.911,0-1.653-0.742-1.653-1.653c0-0.912,0.742-1.653,1.653-1.653c0.912,0,1.653,0.741,1.653,1.653C82.41,89.402,81.668,90.144,80.756,90.144z M80.756,87.64c-0.468,0-0.85,0.381-0.85,0.851c0,0.469,0.382,0.851,0.85,0.851c0.469,0,0.85-0.382,0.85-0.851C81.606,88.021,81.225,87.64,80.756,87.64z"/>
        <path fill="#9A916C" gorn="0.74.8"  id="connector21pad" d="M84.233,90.144c-0.911,0-1.653-0.742-1.653-1.653c0-0.912,0.742-1.653,1.653-1.653c0.912,0,1.653,0.741,1.653,1.653C85.887,89.402,85.145,90.144,84.233,90.144z M84.233,87.64c-0.468,0-0.85,0.381-0.85,0.851c0,0.469,0.382,0.851,0.85,0.851s0.85-0.382,0.85-0.851C85.083,88.021,84.702,87.64,84.233,87.64z"/>
        <path fill="#9A916C" gorn="0.74.9"  id="connector22pad" d="M87.71,90.144c-0.911,0-1.653-0.742-1.653-1.653c0-0.912,0.742-1.653,1.653-1.653c0.912,0,1.654,0.741,1.654,1.653C89.364,89.402,88.622,90.144,87.71,90.144z M87.71,87.64c-0.468,0-0.85,0.381-0.85,0.851c0,0.469,0.382,0.851,0.85,0.851c0.469,0,0.851-0.382,0.851-0.851C88.561,88.021,88.179,87.64,87.71,87.64z"/>
    </g>
    <g >
        <g >
            <g >
                <g >
                    <g >
                        <circle fill="#E6E6E6" cx="90.019"  cy="19.638" r="1.692"/>
                    </g>
                </g>
                <g opacity="0.2"  enable-background="new    ">
                    <g >
                        <path fill="#FFFFFF"  d="M91.711,19.932c0-0.934-0.758-1.693-1.692-1.693s-1.692,0.759-1.692,1.693V19.64c0-0.934,0.758-1.694,1.692-1.694s1.692,0.76,1.692,1.694V19.932z"/>
                    </g>
                </g>
                <g opacity="0.1"  enable-background="new    ">
                    <g >
                        <path fill="#1A1A1A"  d="M88.329,19.333c0,0.935,0.758,1.692,1.692,1.692c0.935,0,1.694-0.758,1.694-1.692v0.307c0,0.935-0.759,1.691-1.694,1.691c-0.934,0-1.692-0.756-1.692-1.691V19.333z"/>
                    </g>
                </g>
                <g >
                    <g >
                        <g >
                            <rect width="1.419" x="89.31" y="18.929" fill="#CCCCCC" gorn="0.75.0.0.3.0.0.0"  height="1.42" id="connector12pin"/>
                        </g>
                    </g>
                    <g opacity="0.2"  enable-background="new    ">
                        <g >
                            <rect width="1.419" x="89.31" y="18.929" fill="#FFFFFF"  height="0.11"/>
                        </g>
                    </g>
                    <g opacity="0.1"  enable-background="new    ">
                        <g >
                            <rect width="1.419" x="89.31" y="20.239"  height="0.11"/>
                        </g>
                    </g>
                </g>
            </g>
            <g >
                <g >
                    <g >
                        <circle fill="#E6E6E6" cx="84.052"  cy="19.638" r="1.692"/>
                    </g>
                </g>
                <g opacity="0.2"  enable-background="new    ">
                    <g >
                        <path fill="#FFFFFF"  d="M85.744,19.932c0-0.934-0.758-1.693-1.692-1.693s-1.692,0.759-1.692,1.693V19.64c0-0.934,0.758-1.694,1.692-1.694s1.692,0.76,1.692,1.694V19.932z"/>
                    </g>
                </g>
                <g opacity="0.1"  enable-background="new    ">
                    <g >
                        <path fill="#1A1A1A"  d="M82.361,19.333c0,0.935,0.758,1.692,1.692,1.692c0.934,0,1.693-0.758,1.693-1.692v0.307c0,0.935-0.759,1.691-1.693,1.691c-0.935,0-1.692-0.756-1.692-1.691V19.333z"/>
                    </g>
                </g>
                <g >
                    <g >
                        <g >
                            <rect width="1.42" x="83.343" y="18.929" fill="#CCCCCC" gorn="0.75.0.1.3.0.0.0"  height="1.42" id="connector11pin"/>
                        </g>
                    </g>
                    <g opacity="0.2"  enable-background="new    ">
                        <g >
                            <rect width="1.42" x="83.343" y="18.929" fill="#FFFFFF"  height="0.11"/>
                        </g>
                    </g>
                    <g opacity="0.1"  enable-background="new    ">
                        <g >
                            <rect width="1.42" x="83.343" y="20.239"  height="0.11"/>
                        </g>
                    </g>
                </g>
            </g>
            <g >
                <g >
                    <g >
                        <circle fill="#E6E6E6" cx="78.084"  cy="19.638" r="1.692"/>
                    </g>
                </g>
                <g opacity="0.2"  enable-background="new    ">
                    <g >
                        <path fill="#FFFFFF"  d="M79.776,19.932c0-0.934-0.757-1.693-1.692-1.693c-0.934,0-1.692,0.759-1.692,1.693V19.64c0-0.934,0.758-1.694,1.692-1.694c0.935,0,1.692,0.76,1.692,1.694V19.932z"/>
                    </g>
                </g>
                <g opacity="0.1"  enable-background="new    ">
                    <g >
                        <path fill="#1A1A1A"  d="M76.395,19.333c0,0.935,0.758,1.692,1.692,1.692s1.694-0.758,1.694-1.692v0.307c0,0.935-0.76,1.691-1.694,1.691s-1.692-0.756-1.692-1.691V19.333z"/>
                    </g>
                </g>
                <g >
                    <g >
                        <g >
                            <rect width="1.42" x="77.375" y="18.929" fill="#CCCCCC" gorn="0.75.0.2.3.0.0.0"  height="1.42" id="connector10pin"/>
                        </g>
                    </g>
                    <g opacity="0.2"  enable-background="new    ">
                        <g >
                            <rect width="1.42" x="77.375" y="18.929" fill="#FFFFFF"  height="0.11"/>
                        </g>
                    </g>
                    <g opacity="0.1"  enable-background="new    ">
                        <g >
                            <rect width="1.42" x="77.375" y="20.239"  height="0.11"/>
                        </g>
                    </g>
                </g>
            </g>
            <g >
                <g >
                    <g >
                        <circle fill="#E6E6E6" cx="72.117"  cy="19.638" r="1.692"/>
                    </g>
                </g>
                <g opacity="0.2"  enable-background="new    ">
                    <g >
                        <path fill="#FFFFFF"  d="M73.81,19.932c0-0.934-0.758-1.693-1.692-1.693c-0.934,0-1.692,0.759-1.692,1.693V19.64c0-0.934,0.758-1.694,1.692-1.694c0.935,0,1.692,0.76,1.692,1.694V19.932z"/>
                    </g>
                </g>
                <g opacity="0.1"  enable-background="new    ">
                    <g >
                        <path fill="#1A1A1A"  d="M70.427,19.333c0,0.935,0.758,1.692,1.692,1.692s1.694-0.758,1.694-1.692v0.307c0,0.935-0.76,1.691-1.694,1.691s-1.692-0.756-1.692-1.691V19.333z"/>
                    </g>
                </g>
                <g >
                    <g >
                        <g >
                            <rect width="1.419" x="71.409" y="18.929" fill="#CCCCCC" gorn="0.75.0.3.3.0.0.0"  height="1.42" id="connector9pin"/>
                        </g>
                    </g>
                    <g opacity="0.2"  enable-background="new    ">
                        <g >
                            <rect width="1.419" x="71.409" y="18.929" fill="#FFFFFF"  height="0.11"/>
                        </g>
                    </g>
                    <g opacity="0.1"  enable-background="new    ">
                        <g >
                            <rect width="1.419" x="71.409" y="20.239"  height="0.11"/>
                        </g>
                    </g>
                </g>
            </g>
            <g >
                <g >
                    <g >
                        <circle fill="#E6E6E6" cx="66.15"  cy="19.638" r="1.692"/>
                    </g>
                </g>
                <g opacity="0.2"  enable-background="new    ">
                    <g >
                        <path fill="#FFFFFF"  d="M67.842,19.932c0-0.934-0.758-1.693-1.692-1.693c-0.935,0-1.692,0.759-1.692,1.693V19.64c0-0.934,0.758-1.694,1.692-1.694c0.934,0,1.692,0.76,1.692,1.694V19.932z"/>
                    </g>
                </g>
                <g opacity="0.1"  enable-background="new    ">
                    <g >
                        <path fill="#1A1A1A"  d="M64.46,19.333c0,0.935,0.758,1.692,1.692,1.692c0.935,0,1.694-0.758,1.694-1.692v0.307c0,0.935-0.759,1.691-1.694,1.691c-0.934,0-1.692-0.756-1.692-1.691V19.333z"/>
                    </g>
                </g>
                <g >
                    <g >
                        <g >
                            <rect width="1.419" x="65.441" y="18.929" fill="#CCCCCC" gorn="0.75.0.4.3.0.0.0"  height="1.42" id="connector8pin"/>
                        </g>
                    </g>
                    <g opacity="0.2"  enable-background="new    ">
                        <g >
                            <rect width="1.419" x="65.441" y="18.929" fill="#FFFFFF"  height="0.11"/>
                        </g>
                    </g>
                    <g opacity="0.1"  enable-background="new    ">
                        <g >
                            <rect width="1.419" x="65.441" y="20.239"  height="0.11"/>
                        </g>
                    </g>
                </g>
            </g>
            <g >
                <g >
                    <g >
                        <circle fill="#E6E6E6" cx="60.183"  cy="19.638" r="1.692"/>
                    </g>
                </g>
                <g opacity="0.2"  enable-background="new    ">
                    <g >
                        <path fill="#FFFFFF"  d="M61.875,19.932c0-0.934-0.758-1.693-1.692-1.693s-1.692,0.759-1.692,1.693V19.64c0-0.934,0.758-1.694,1.692-1.694s1.692,0.76,1.692,1.694V19.932z"/>
                    </g>
                </g>
                <g opacity="0.1"  enable-background="new    ">
                    <g >
                        <path fill="#1A1A1A"  d="M58.493,19.333c0,0.935,0.758,1.692,1.692,1.692c0.935,0,1.694-0.758,1.694-1.692v0.307c0,0.935-0.759,1.691-1.694,1.691c-0.934,0-1.692-0.756-1.692-1.691V19.333z"/>
                    </g>
                </g>
                <g >
                    <g >
                        <g >
                            <rect width="1.419" x="59.474" y="18.929" fill="#CCCCCC" gorn="0.75.0.5.3.0.0.0"  height="1.42" id="connector7pin"/>
                        </g>
                    </g>
                    <g opacity="0.2"  enable-background="new    ">
                        <g >
                            <rect width="1.419" x="59.474" y="18.929" fill="#FFFFFF"  height="0.11"/>
                        </g>
                    </g>
                    <g opacity="0.1"  enable-background="new    ">
                        <g >
                            <rect width="1.419" x="59.474" y="20.239"  height="0.11"/>
                        </g>
                    </g>
                </g>
            </g>
            <g >
                <g >
                    <g >
                        <circle fill="#E6E6E6" cx="54.216"  cy="19.638" r="1.692"/>
                    </g>
                </g>
                <g opacity="0.2"  enable-background="new    ">
                    <g >
                        <path fill="#FFFFFF"  d="M55.908,19.932c0-0.934-0.758-1.693-1.692-1.693s-1.692,0.759-1.692,1.693V19.64c0-0.934,0.758-1.694,1.692-1.694s1.692,0.76,1.692,1.694V19.932z"/>
                    </g>
                </g>
                <g opacity="0.1"  enable-background="new    ">
                    <g >
                        <path fill="#1A1A1A"  d="M52.526,19.333c0,0.935,0.757,1.692,1.692,1.692c0.934,0,1.694-0.758,1.694-1.692v0.307c0,0.935-0.76,1.691-1.694,1.691c-0.935,0-1.692-0.756-1.692-1.691V19.333z"/>
                    </g>
                </g>
                <g >
                    <g >
                        <g >
                            <rect width="1.42" x="53.507" y="18.929" fill="#CCCCCC" gorn="0.75.0.6.3.0.0.0"  height="1.42" id="connector6pin"/>
                        </g>
                    </g>
                    <g opacity="0.2"  enable-background="new    ">
                        <g >
                            <rect width="1.42" x="53.507" y="18.929" fill="#FFFFFF"  height="0.11"/>
                        </g>
                    </g>
                    <g opacity="0.1"  enable-background="new    ">
                        <g >
                            <rect width="1.42" x="53.507" y="20.239"  height="0.11"/>
                        </g>
                    </g>
                </g>
            </g>
            <g >
                <g >
                    <g >
                        <circle fill="#E6E6E6" cx="48.249"  cy="19.638" r="1.692"/>
                    </g>
                </g>
                <g opacity="0.2"  enable-background="new    ">
                    <g >
                        <path fill="#FFFFFF"  d="M49.941,19.932c0-0.934-0.758-1.693-1.692-1.693c-0.934,0-1.692,0.759-1.692,1.693V19.64c0-0.934,0.758-1.694,1.692-1.694c0.935,0,1.692,0.76,1.692,1.694V19.932z"/>
                    </g>
                </g>
                <g opacity="0.1"  enable-background="new    ">
                    <g >
                        <path fill="#1A1A1A"  d="M46.559,19.333c0,0.935,0.758,1.692,1.692,1.692s1.694-0.758,1.694-1.692v0.307c0,0.935-0.76,1.691-1.694,1.691s-1.692-0.756-1.692-1.691V19.333z"/>
                    </g>
                </g>
                <g >
                    <g >
                        <g >
                            <rect width="1.42" x="47.54" y="18.929" fill="#CCCCCC" gorn="0.75.0.7.3.0.0.0"  height="1.42" id="connector5pin"/>
                        </g>
                    </g>
                    <g opacity="0.2"  enable-background="new    ">
                        <g >
                            <rect width="1.42" x="47.54" y="18.929" fill="#FFFFFF"  height="0.11"/>
                        </g>
                    </g>
                    <g opacity="0.1"  enable-background="new    ">
                        <g >
                            <rect width="1.42" x="47.54" y="20.239"  height="0.11"/>
                        </g>
                    </g>
                </g>
            </g>
        </g>
        <g >
            <g >
                <g >
                    <circle fill="#E6E6E6" cx="21.989"  cy="52.933" r="1.693"/>
                </g>
            </g>
            <g opacity="0.2"  enable-background="new    ">
                <g >
                    <path fill="#FFFFFF" gorn="0.75.1.1.0.0"  d="M22.282,51.241c-0.934,0-1.692,0.758-1.692,1.692s0.758,1.692,1.692,1.692H21.99c-0.934,0-1.694-0.758-1.694-1.692s0.76-1.692,1.694-1.692H22.282z"/>
                </g>
            </g>
            <g opacity="0.1"  enable-background="new    ">
                <g >
                    <path fill="#1A1A1A"  d="M21.683,54.623c0.934,0,1.692-0.758,1.692-1.692c0-0.935-0.758-1.694-1.692-1.694h0.307c0.935,0,1.691,0.759,1.691,1.694c0,0.934-0.756,1.692-1.691,1.692H21.683z"/>
                </g>
            </g>
            <g >
                <g >
                    <g >
                        <rect width="1.42" x="21.279" y="52.222" fill="#CCCCCC" gorn="0.75.1.3.0.0.0"  height="1.419" id="connector1pin"/>
                    </g>
                </g>
                <g opacity="0.2"  enable-background="new    ">
                    <g >
                        <rect width="0.11" x="21.279" y="52.222" fill="#FFFFFF"  height="1.419"/>
                    </g>
                </g>
                <g opacity="0.1"  enable-background="new    ">
                    <g >
                        <rect width="0.11" x="22.59" y="52.222"  height="1.419"/>
                    </g>
                </g>
            </g>
        </g>
        <g >
            <g >
                <g >
                    <circle fill="#E6E6E6" cx="21.989"  cy="58.9" r="1.693"/>
                </g>
            </g>
            <g opacity="0.2"  enable-background="new    ">
                <g >
                    <path fill="#FFFFFF"  d="M22.282,57.208c-0.934,0-1.692,0.758-1.692,1.692s0.758,1.692,1.692,1.692H21.99c-0.934,0-1.694-0.758-1.694-1.692s0.76-1.692,1.694-1.692H22.282z"/>
                </g>
            </g>
            <g opacity="0.1"  enable-background="new    ">
                <g >
                    <path fill="#1A1A1A"  d="M21.683,60.59c0.934,0,1.692-0.758,1.692-1.692c0-0.934-0.758-1.693-1.692-1.693h0.307c0.935,0,1.691,0.759,1.691,1.693c0,0.935-0.756,1.692-1.691,1.692H21.683z"/>
                </g>
            </g>
            <g >
                <g >
                    <g >
                        <rect width="1.42" x="21.279" y="58.189" fill="#CCCCCC" gorn="0.75.2.3.0.0.0"  height="1.419" id="connector2pin"/>
                    </g>
                </g>
                <g opacity="0.2"  enable-background="new    ">
                    <g >
                        <rect width="0.11" x="21.279" y="58.189" fill="#FFFFFF"  height="1.419"/>
                    </g>
                </g>
                <g opacity="0.1"  enable-background="new    ">
                    <g >
                        <rect width="0.11" x="22.59" y="58.189"  height="1.419"/>
                    </g>
                </g>
            </g>
        </g>
        <g >
            <g >
                <g >
                    <circle fill="#E6E6E6" cx="21.989"  cy="64.867" r="1.693"/>
                </g>
            </g>
            <g opacity="0.2"  enable-background="new    ">
                <g >
                    <path fill="#FFFFFF"  d="M22.282,63.175c-0.934,0-1.692,0.758-1.692,1.692s0.758,1.692,1.692,1.692H21.99c-0.934,0-1.694-0.758-1.694-1.692s0.76-1.692,1.694-1.692H22.282z"/>
                </g>
            </g>
            <g opacity="0.1"  enable-background="new    ">
                <g >
                    <path fill="#1A1A1A"  d="M21.683,66.557c0.934,0,1.692-0.758,1.692-1.692s-0.758-1.694-1.692-1.694h0.307c0.935,0,1.691,0.76,1.691,1.694s-0.756,1.692-1.691,1.692H21.683z"/>
                </g>
            </g>
            <g >
                <g >
                    <g >
                        <rect width="1.42" x="21.279" y="64.156" fill="#CCCCCC" gorn="0.75.3.3.0.0.0"  height="1.42" id="connector3pin"/>
                    </g>
                </g>
                <g opacity="0.2"  enable-background="new    ">
                    <g >
                        <rect width="0.11" x="21.279" y="64.156" fill="#FFFFFF"  height="1.42"/>
                    </g>
                </g>
                <g opacity="0.1"  enable-background="new    ">
                    <g >
                        <rect width="0.11" x="22.59" y="64.156"  height="1.42"/>
                    </g>
                </g>
            </g>
        </g>
        <g >
            <g >
                <g >
                    <circle fill="#E6E6E6" cx="21.989"  cy="70.834" r="1.693"/>
                </g>
            </g>
            <g opacity="0.2"  enable-background="new    ">
                <g >
                    <path fill="#FFFFFF"  d="M22.282,69.142c-0.934,0-1.692,0.758-1.692,1.692c0,0.934,0.758,1.692,1.692,1.692H21.99c-0.934,0-1.694-0.758-1.694-1.692c0-0.935,0.76-1.692,1.694-1.692H22.282z"/>
                </g>
            </g>
            <g opacity="0.1"  enable-background="new    ">
                <g >
                    <path fill="#1A1A1A"  d="M21.683,72.524c0.934,0,1.692-0.758,1.692-1.692s-0.758-1.694-1.692-1.694h0.307c0.935,0,1.691,0.76,1.691,1.694s-0.756,1.692-1.691,1.692H21.683z"/>
                </g>
            </g>
            <g >
                <g >
                    <g >
                        <rect width="1.42" x="21.279" y="70.124" fill="#CCCCCC" gorn="0.75.4.3.0.0.0"  height="1.419" id="connector4pin"/>
                    </g>
                </g>
                <g opacity="0.2"  enable-background="new    ">
                    <g >
                        <rect width="0.11" x="21.279" y="70.124" fill="#FFFFFF"  height="1.419"/>
                    </g>
                </g>
                <g opacity="0.1"  enable-background="new    ">
                    <g >
                        <rect width="0.11" x="22.59" y="70.124"  height="1.419"/>
                    </g>
                </g>
            </g>
        </g>
        <g >
            <g >
                <g >
                    <circle fill="#E6E6E6" cx="56.453"  cy="88.48" r="1.242"/>
                </g>
            </g>
            <g opacity="0.2"  enable-background="new    ">
                <g >
                    <path fill="#FFFFFF"  d="M57.694,88.696c0-0.686-0.556-1.242-1.242-1.242c-0.685,0-1.242,0.557-1.242,1.242v-0.214c0-0.686,0.557-1.243,1.242-1.243c0.686,0,1.242,0.558,1.242,1.243V88.696z"/>
                </g>
            </g>
            <g opacity="0.1"  enable-background="new    ">
                <g >
                    <path fill="#1A1A1A"  d="M55.212,88.256c0,0.686,0.556,1.242,1.242,1.242s1.243-0.557,1.243-1.242v0.226c0,0.686-0.557,1.24-1.243,1.24s-1.242-0.555-1.242-1.24V88.256z"/>
                </g>
            </g>
            <g >
                <g >
                    <g >
                        <rect width="1.042" x="55.933" y="87.96" fill="#CCCCCC" gorn="0.75.5.3.0.0.0"  height="1.042" id="connector13pin"/>
                    </g>
                </g>
                <g opacity="0.2"  enable-background="new    ">
                    <g >
                        <rect width="1.042" x="55.933" y="87.96" fill="#FFFFFF"  height="0.081"/>
                    </g>
                </g>
                <g opacity="0.1"  enable-background="new    ">
                    <g >
                        <rect width="1.042" x="55.933" y="88.921"  height="0.081"/>
                    </g>
                </g>
            </g>
        </g>
        <g >
            <g >
                <g >
                    <circle fill="#E6E6E6" cx="59.93"  cy="88.48" r="1.242"/>
                </g>
            </g>
            <g opacity="0.2"  enable-background="new    ">
                <g >
                    <path fill="#FFFFFF"  d="M61.171,88.696c0-0.686-0.556-1.242-1.242-1.242c-0.685,0-1.242,0.557-1.242,1.242v-0.214c0-0.686,0.557-1.243,1.242-1.243c0.686,0,1.242,0.558,1.242,1.243V88.696z"/>
                </g>
            </g>
            <g opacity="0.1"  enable-background="new    ">
                <g >
                    <path fill="#1A1A1A"  d="M58.689,88.256c0,0.686,0.556,1.242,1.242,1.242s1.243-0.557,1.243-1.242v0.226c0,0.686-0.557,1.24-1.243,1.24s-1.242-0.555-1.242-1.24V88.256z"/>
                </g>
            </g>
            <g >
                <g >
                    <g >
                        <rect width="1.042" x="59.41" y="87.96" fill="#CCCCCC" gorn="0.75.6.3.0.0.0"  height="1.042" id="connector14pin"/>
                    </g>
                </g>
                <g opacity="0.2"  enable-background="new    ">
                    <g >
                        <rect width="1.042" x="59.41" y="87.96" fill="#FFFFFF"  height="0.081"/>
                    </g>
                </g>
                <g opacity="0.1"  enable-background="new    ">
                    <g >
                        <rect width="1.042" x="59.41" y="88.921"  height="0.081"/>
                    </g>
                </g>
            </g>
        </g>
        <g >
            <g >
                <g >
                    <circle fill="#E6E6E6" cx="63.407"  cy="88.48" r="1.242"/>
                </g>
            </g>
            <g opacity="0.2"  enable-background="new    ">
                <g >
                    <path fill="#FFFFFF"  d="M64.648,88.696c0-0.686-0.556-1.242-1.242-1.242c-0.685,0-1.242,0.557-1.242,1.242v-0.214c0-0.686,0.557-1.243,1.242-1.243c0.686,0,1.242,0.558,1.242,1.243V88.696z"/>
                </g>
            </g>
            <g opacity="0.1"  enable-background="new    ">
                <g >
                    <path fill="#1A1A1A"  d="M62.167,88.256c0,0.686,0.556,1.242,1.242,1.242s1.243-0.557,1.243-1.242v0.226c0,0.686-0.557,1.24-1.243,1.24s-1.242-0.555-1.242-1.24V88.256z"/>
                </g>
            </g>
            <g >
                <g >
                    <g >
                        <rect width="1.042" x="62.887" y="87.96" fill="#CCCCCC" gorn="0.75.7.3.0.0.0"  height="1.042" id="connector15pin"/>
                    </g>
                </g>
                <g opacity="0.2"  enable-background="new    ">
                    <g >
                        <rect width="1.042" x="62.887" y="87.96" fill="#FFFFFF"  height="0.081"/>
                    </g>
                </g>
                <g opacity="0.1"  enable-background="new    ">
                    <g >
                        <rect width="1.042" x="62.887" y="88.921"  height="0.081"/>
                    </g>
                </g>
            </g>
        </g>
        <g >
            <g >
                <g >
                    <circle fill="#E6E6E6" cx="66.884"  cy="88.48" r="1.242"/>
                </g>
            </g>
            <g opacity="0.2"  enable-background="new    ">
                <g >
                    <path fill="#FFFFFF"  d="M68.125,88.696c0-0.686-0.556-1.242-1.242-1.242c-0.685,0-1.242,0.557-1.242,1.242v-0.214c0-0.686,0.557-1.243,1.242-1.243c0.686,0,1.242,0.558,1.242,1.243V88.696z"/>
                </g>
            </g>
            <g opacity="0.1"  enable-background="new    ">
                <g >
                    <path fill="#1A1A1A"  d="M65.644,88.256c0,0.686,0.556,1.242,1.242,1.242s1.243-0.557,1.243-1.242v0.226c0,0.686-0.557,1.24-1.243,1.24s-1.242-0.555-1.242-1.24V88.256z"/>
                </g>
            </g>
            <g >
                <g >
                    <g >
                        <rect width="1.042" x="66.363" y="87.96" fill="#CCCCCC" gorn="0.75.8.3.0.0.0"  height="1.042" id="connector16pin"/>
                    </g>
                </g>
                <g opacity="0.2"  enable-background="new    ">
                    <g >
                        <rect width="1.042" x="66.363" y="87.96" fill="#FFFFFF"  height="0.081"/>
                    </g>
                </g>
                <g opacity="0.1"  enable-background="new    ">
                    <g >
                        <rect width="1.042" x="66.363" y="88.921"  height="0.081"/>
                    </g>
                </g>
            </g>
        </g>
        <g >
            <g >
                <g >
                    <circle fill="#E6E6E6" cx="70.361"  cy="88.48" r="1.242"/>
                </g>
            </g>
            <g opacity="0.2"  enable-background="new    ">
                <g >
                    <path fill="#FFFFFF"  d="M71.603,88.696c0-0.686-0.556-1.242-1.242-1.242c-0.685,0-1.242,0.557-1.242,1.242v-0.214c0-0.686,0.557-1.243,1.242-1.243c0.686,0,1.242,0.558,1.242,1.243V88.696z"/>
                </g>
            </g>
            <g opacity="0.1"  enable-background="new    ">
                <g >
                    <path fill="#1A1A1A"  d="M69.121,88.256c0,0.686,0.556,1.242,1.242,1.242s1.243-0.557,1.243-1.242v0.226c0,0.686-0.557,1.24-1.243,1.24s-1.242-0.555-1.242-1.24V88.256z"/>
                </g>
            </g>
            <g >
                <g >
                    <g >
                        <rect width="1.042" x="69.84" y="87.96" fill="#CCCCCC" gorn="0.75.9.3.0.0.0"  height="1.042" id="connector17pin"/>
                    </g>
                </g>
                <g opacity="0.2"  enable-background="new    ">
                    <g >
                        <rect width="1.042" x="69.84" y="87.96" fill="#FFFFFF"  height="0.081"/>
                    </g>
                </g>
                <g opacity="0.1"  enable-background="new    ">
                    <g >
                        <rect width="1.042" x="69.84" y="88.921"  height="0.081"/>
                    </g>
                </g>
            </g>
        </g>
        <g >
            <g >
                <g >
                    <circle fill="#E6E6E6" cx="73.838"  cy="88.48" r="1.242"/>
                </g>
            </g>
            <g opacity="0.2"  enable-background="new    ">
                <g >
                    <path fill="#FFFFFF"  d="M75.08,88.696c0-0.686-0.556-1.242-1.242-1.242s-1.242,0.557-1.242,1.242v-0.214c0-0.686,0.556-1.243,1.242-1.243s1.242,0.558,1.242,1.243V88.696z"/>
                </g>
            </g>
            <g opacity="0.1"  enable-background="new    ">
                <g >
                    <path fill="#1A1A1A"  d="M72.598,88.256c0,0.686,0.556,1.242,1.242,1.242s1.243-0.557,1.243-1.242v0.226c0,0.686-0.557,1.24-1.243,1.24s-1.242-0.555-1.242-1.24V88.256z"/>
                </g>
            </g>
            <g >
                <g >
                    <g >
                        <rect width="1.042" x="73.317" y="87.96" fill="#CCCCCC" gorn="0.75.10.3.0.0.0"  height="1.042" id="connector18pin"/>
                    </g>
                </g>
                <g opacity="0.2"  enable-background="new    ">
                    <g >
                        <rect width="1.042" x="73.317" y="87.96" fill="#FFFFFF"  height="0.081"/>
                    </g>
                </g>
                <g opacity="0.1"  enable-background="new    ">
                    <g >
                        <rect width="1.042" x="73.317" y="88.921"  height="0.081"/>
                    </g>
                </g>
            </g>
        </g>
        <g >
            <g >
                <g >
                    <circle fill="#E6E6E6" cx="77.315"  cy="88.48" r="1.242"/>
                </g>
            </g>
            <g opacity="0.2"  enable-background="new    ">
                <g >
                    <path fill="#FFFFFF"  d="M78.557,88.696c0-0.686-0.556-1.242-1.242-1.242s-1.242,0.557-1.242,1.242v-0.214c0-0.686,0.556-1.243,1.242-1.243s1.242,0.558,1.242,1.243V88.696z"/>
                </g>
            </g>
            <g opacity="0.1"  enable-background="new    ">
                <g >
                    <path fill="#1A1A1A"  d="M76.075,88.256c0,0.686,0.556,1.242,1.242,1.242s1.243-0.557,1.243-1.242v0.226c0,0.686-0.557,1.24-1.243,1.24s-1.242-0.555-1.242-1.24V88.256z"/>
                </g>
            </g>
            <g >
                <g >
                    <g >
                        <rect width="1.042" x="76.794" y="87.96" fill="#CCCCCC" gorn="0.75.11.3.0.0.0"  height="1.042" id="connector19pin"/>
                    </g>
                </g>
                <g opacity="0.2"  enable-background="new    ">
                    <g >
                        <rect width="1.042" x="76.794" y="87.96" fill="#FFFFFF"  height="0.081"/>
                    </g>
                </g>
                <g opacity="0.1"  enable-background="new    ">
                    <g >
                        <rect width="1.042" x="76.794" y="88.921"  height="0.081"/>
                    </g>
                </g>
            </g>
        </g>
        <g >
            <g >
                <g >
                    <circle fill="#E6E6E6" cx="80.792"  cy="88.48" r="1.242"/>
                </g>
            </g>
            <g opacity="0.2"  enable-background="new    ">
                <g >
                    <path fill="#FFFFFF"  d="M82.034,88.696c0-0.686-0.556-1.242-1.242-1.242s-1.242,0.557-1.242,1.242v-0.214c0-0.686,0.556-1.243,1.242-1.243s1.242,0.558,1.242,1.243V88.696z"/>
                </g>
            </g>
            <g opacity="0.1"  enable-background="new    ">
                <g >
                    <path fill="#1A1A1A"  d="M79.552,88.256c0,0.686,0.556,1.242,1.242,1.242s1.243-0.557,1.243-1.242v0.226c0,0.686-0.557,1.24-1.243,1.24s-1.242-0.555-1.242-1.24V88.256z"/>
                </g>
            </g>
            <g >
                <g >
                    <g >
                        <rect width="1.042" x="80.271" y="87.96" fill="#CCCCCC" gorn="0.75.12.3.0.0.0"  height="1.042" id="connector20pin"/>
                    </g>
                </g>
                <g opacity="0.2"  enable-background="new    ">
                    <g >
                        <rect width="1.042" x="80.271" y="87.96" fill="#FFFFFF"  height="0.081"/>
                    </g>
                </g>
                <g opacity="0.1"  enable-background="new    ">
                    <g >
                        <rect width="1.042" x="80.271" y="88.921"  height="0.081"/>
                    </g>
                </g>
            </g>
        </g>
        <g >
            <g >
                <g >
                    <circle fill="#E6E6E6" cx="84.269"  cy="88.48" r="1.242"/>
                </g>
            </g>
            <g opacity="0.2"  enable-background="new    ">
                <g >
                    <path fill="#FFFFFF"  d="M85.511,88.696c0-0.686-0.556-1.242-1.242-1.242s-1.242,0.557-1.242,1.242v-0.214c0-0.686,0.556-1.243,1.242-1.243s1.242,0.558,1.242,1.243V88.696z"/>
                </g>
            </g>
            <g opacity="0.1"  enable-background="new    ">
                <g >
                    <path fill="#1A1A1A"  d="M83.029,88.256c0,0.686,0.556,1.242,1.242,1.242s1.243-0.557,1.243-1.242v0.226c0,0.686-0.557,1.24-1.243,1.24s-1.242-0.555-1.242-1.24V88.256z"/>
                </g>
            </g>
            <g >
                <g >
                    <g >
                        <rect width="1.042" x="83.749" y="87.96" fill="#CCCCCC" gorn="0.75.13.3.0.0.0"  height="1.042" id="connector21pin"/>
                    </g>
                </g>
                <g opacity="0.2"  enable-background="new    ">
                    <g >
                        <rect width="1.042" x="83.749" y="87.96" fill="#FFFFFF"  height="0.081"/>
                    </g>
                </g>
                <g opacity="0.1"  enable-background="new    ">
                    <g >
                        <rect width="1.042" x="83.749" y="88.921"  height="0.081"/>
                    </g>
                </g>
            </g>
        </g>
        <g >
            <g >
                <g >
                    <circle fill="#E6E6E6" cx="87.746"  cy="88.48" r="1.242"/>
                </g>
            </g>
            <g opacity="0.2"  enable-background="new    ">
                <g >
                    <path fill="#FFFFFF"  d="M88.988,88.696c0-0.686-0.556-1.242-1.242-1.242s-1.242,0.557-1.242,1.242v-0.214c0-0.686,0.556-1.243,1.242-1.243s1.242,0.558,1.242,1.243V88.696z"/>
                </g>
            </g>
            <g opacity="0.1"  enable-background="new    ">
                <g >
                    <path fill="#1A1A1A"  d="M86.506,88.256c0,0.686,0.556,1.242,1.242,1.242s1.243-0.557,1.243-1.242v0.226c0,0.686-0.557,1.24-1.243,1.24s-1.242-0.555-1.242-1.24V88.256z"/>
                </g>
            </g>
            <g >
                <g >
                    <g >
                        <rect width="1.042" x="87.226" y="87.96" fill="#CCCCCC" gorn="0.75.14.3.0.0.0"  height="1.042" id="connector22pin"/>
                    </g>
                </g>
                <g opacity="0.2"  enable-background="new    ">
                    <g >
                        <rect width="1.042" x="87.226" y="87.96" fill="#FFFFFF"  height="0.081"/>
                    </g>
                </g>
                <g opacity="0.1"  enable-background="new    ">
                    <g >
                        <rect width="1.042" x="87.226" y="88.921"  height="0.081"/>
                    </g>
                </g>
            </g>
        </g>
    </g>
    <rect width="9.25" x="27.9" y="89.543" fill="#000307"  height="5.917"/>
    <rect width="2.678" x="29.848" y="90.705" fill="#FFEA7C"  height="1.647"/>
    <rect width="2.678" x="32.525" y="90.705" fill="#7D6A03"  height="1.647"/>
    <rect width="2.678" x="29.848" y="93.027" fill="#FFEA7C"  height="1.647"/>
    <rect width="2.678" x="32.525" y="93.027" fill="#7D6A03"  height="1.647"/>
    <g >
        <g >
            <path fill="#FFFFFF"  d="M43.143,107.295H26.927V96.397h16.216V107.295z M27.226,106.996h15.617V96.697H27.226V106.996z"/>
        </g>
        <g >
            <rect width="0.299" x="39.21" y="96.546" fill="#FFFFFF"  height="10.599"/>
        </g>
        <g >
            <rect width="0.3" x="35.278" y="96.546" fill="#FFFFFF"  height="10.599"/>
        </g>
        <g >
            <rect width="15.917" x="27.076" y="99.88" fill="#FFFFFF"  height="0.299"/>
        </g>
        <g >
            <rect width="15.917" x="27.076" y="103.438" fill="#FFFFFF"  height="0.299"/>
        </g>
    </g>
    <g >
        <g >
            <polygon fill="#8C8C8C" points="86.968,54.553 88.308,54.553 88.308,55.893 88.757,55.893 88.757,54.104 86.968,54.104 " />
        </g>
        <g >
            <polygon fill="#8C8C8C" points="77.272,55.893 77.272,54.553 78.612,54.553 78.612,54.104 76.823,54.104 76.823,55.893 " />
        </g>
        <g >
            <polygon fill="#8C8C8C" points="88.308,64.248 88.308,65.588 86.968,65.588 86.968,66.037 88.757,66.037 88.757,64.248 " />
        </g>
        <g >
            <polygon fill="#8C8C8C" points="78.612,65.588 77.272,65.588 77.272,64.248 76.823,64.248 76.823,66.037 78.612,66.037 " />
        </g>
    </g>
    <path fill="#2C372D"  d="M103.101,96.546c-2.912,0-5.281,2.369-5.281,5.281c0,2.911,2.369,5.28,5.281,5.28c2.912,0,5.28-2.369,5.28-5.28C108.381,98.916,106.013,96.546,103.101,96.546z M103.101,105.91c-2.251,0-4.082-1.832-4.082-4.082c0-2.251,1.831-4.082,4.082-4.082s4.082,1.831,4.082,4.082C107.183,104.078,105.352,105.91,103.101,105.91z"/>
    <path fill="#2C372D"  d="M19.749,14.19c-2.912,0-5.28,2.369-5.28,5.28s2.369,5.281,5.28,5.281s5.28-2.369,5.28-5.281S22.661,14.19,19.749,14.19z M19.749,23.552c-2.251,0-4.082-1.831-4.082-4.082s1.831-4.082,4.082-4.082s4.082,1.831,4.082,4.082S22,23.552,19.749,23.552z"/>
    <g >
        <path fill="#FFFFFF"  d="M27.202,52.995c-0.094,0-0.18-0.051-0.18-0.18c0-0.129,0.086-0.18,0.18-0.18h0.708v0.708c0,0.349-0.233,0.564-0.575,0.564h-0.618c-0.165,0-0.288-0.029-0.413-0.144c-0.144-0.13-0.169-0.263-0.169-0.442v-0.898c0-0.23,0.05-0.349,0.187-0.525l0.424-0.542c0.144-0.183,0.27-0.245,0.503-0.245h0.481c0.094,0,0.18,0.05,0.18,0.18s-0.086,0.18-0.18,0.18h-0.431c-0.197,0-0.183-0.003-0.302,0.147l-0.392,0.5c-0.111,0.14-0.111,0.291-0.111,0.467v0.704c0,0.198,0.043,0.259,0.248,0.259h0.571c0.129,0,0.237-0.029,0.237-0.187v-0.366H27.202z"/>
        <path fill="#FFFFFF"  d="M30.138,51.292c0-0.115,0.051-0.18,0.18-0.18c0.13,0,0.18,0.065,0.18,0.18v2.616h-0.474l-0.938-2.156h0.004h-0.007v1.977c0,0.115-0.05,0.18-0.18,0.18s-0.18-0.065-0.18-0.18v-2.616h0.475l0.938,2.181h-0.003h0.007V51.292z"/>
        <path fill="#FFFFFF"  d="M31.664,51.471H31.53c-0.118,0-0.219-0.043-0.219-0.18c0-0.129,0.097-0.18,0.208-0.18h0.6c0.28,0,0.42,0.115,0.542,0.359l0.316,0.633c0.072,0.147,0.108,0.251,0.108,0.417c0,0.144-0.04,0.266-0.104,0.396l-0.327,0.654c-0.126,0.255-0.288,0.338-0.568,0.338h-0.596c-0.094,0-0.18-0.05-0.18-0.18s0.086-0.18,0.18-0.18h0.172V51.471z M32.023,53.548h0.068c0.15,0,0.187-0.018,0.251-0.151l0.316-0.64c0.04-0.083,0.068-0.144,0.068-0.234c0-0.122-0.04-0.19-0.09-0.294l-0.298-0.607c-0.075-0.154-0.107-0.151-0.273-0.151h-0.043V53.548z"/>
    </g>
    <g >
        <path fill="#FFFFFF"  d="M27.55,57.971v-0.575c0-0.115,0.05-0.18,0.18-0.18s0.18,0.065,0.18,0.18v0.568c0,0.047-0.003,0.097-0.021,0.14l-0.686,1.75c-0.036,0.09-0.068,0.158-0.18,0.158c-0.111,0-0.144-0.068-0.179-0.158l-0.687-1.75c-0.018-0.043-0.021-0.093-0.021-0.14v-0.568c0-0.115,0.05-0.18,0.18-0.18s0.18,0.065,0.18,0.18v0.575l0.528,1.373L27.55,57.971z"/>
        <path fill="#FFFFFF"  d="M29.689,60.012c-0.27,0-0.424-0.108-0.539-0.341l-0.331-0.668c-0.061-0.122-0.097-0.237-0.097-0.377c0-0.158,0.029-0.255,0.101-0.399l0.331-0.665c0.122-0.248,0.277-0.345,0.554-0.345h0.61c0.079,0,0.18,0.043,0.18,0.18c0,0.129-0.097,0.18-0.18,0.18h-0.6c-0.154,0-0.18,0.015-0.248,0.151l-0.313,0.625c-0.047,0.097-0.076,0.162-0.076,0.273c0,0.101,0.032,0.162,0.076,0.248l0.305,0.622c0.072,0.147,0.108,0.158,0.27,0.158h0.585c0.079,0,0.18,0.043,0.18,0.18c0,0.129-0.097,0.18-0.18,0.18H29.689z"/>
        <path fill="#FFFFFF"  d="M32.278,60.012c-0.27,0-0.424-0.108-0.539-0.341l-0.331-0.668c-0.061-0.122-0.097-0.237-0.097-0.377c0-0.158,0.028-0.255,0.101-0.399l0.331-0.665c0.122-0.248,0.276-0.345,0.553-0.345h0.611c0.079,0,0.18,0.043,0.18,0.18c0,0.129-0.097,0.18-0.18,0.18h-0.6c-0.154,0-0.18,0.015-0.248,0.151l-0.313,0.625c-0.047,0.097-0.075,0.162-0.075,0.273c0,0.101,0.032,0.162,0.075,0.248l0.305,0.622c0.072,0.147,0.108,0.158,0.27,0.158h0.585c0.079,0,0.18,0.043,0.18,0.18c0,0.129-0.097,0.18-0.18,0.18H32.278z"/>
    </g>
    <g >
        <path fill="#FFFFFF"  d="M27.784,65.412c0.072,0.093,0.125,0.176,0.125,0.298c0,0.27-0.205,0.406-0.453,0.406h-0.791c-0.137,0-0.255-0.025-0.363-0.115c-0.097-0.079-0.169-0.208-0.169-0.334c0-0.115,0.064-0.216,0.19-0.216c0.104,0,0.169,0.086,0.169,0.183c0,0.108,0.058,0.123,0.158,0.123h0.78c0.028,0,0.118,0.01,0.118-0.043c0-0.029-0.05-0.083-0.064-0.104l-1.232-1.584c-0.076-0.097-0.119-0.169-0.119-0.295c0-0.144,0.068-0.266,0.19-0.345c0.101-0.064,0.183-0.064,0.298-0.064h0.762c0.137,0,0.251,0.029,0.355,0.119c0.094,0.083,0.169,0.216,0.169,0.341c0,0.115-0.058,0.208-0.187,0.208c-0.108,0-0.173-0.068-0.173-0.169c0-0.122-0.061-0.14-0.172-0.14h-0.762c-0.04,0-0.122-0.011-0.122,0.05c0,0.032,0.04,0.075,0.054,0.097L27.784,65.412z"/>
        <path fill="#FFFFFF"  d="M29.075,63.68h-0.133c-0.119,0-0.219-0.043-0.219-0.18c0-0.129,0.097-0.18,0.208-0.18h0.6c0.28,0,0.42,0.115,0.542,0.359l0.316,0.632c0.072,0.147,0.107,0.251,0.107,0.417c0,0.144-0.04,0.266-0.104,0.395l-0.327,0.654c-0.125,0.255-0.287,0.337-0.567,0.337h-0.597c-0.093,0-0.18-0.05-0.18-0.18c0-0.129,0.086-0.179,0.18-0.179h0.172V63.68z M29.434,65.757h0.068c0.151,0,0.187-0.019,0.251-0.151l0.316-0.64c0.04-0.083,0.068-0.144,0.068-0.233c0-0.122-0.039-0.19-0.089-0.294l-0.298-0.607c-0.076-0.154-0.108-0.151-0.273-0.151h-0.043V65.757z"/>
        <path fill="#FFFFFF"  d="M32.019,63.504c0.029-0.097,0.068-0.183,0.184-0.183c0.119,0,0.162,0.09,0.187,0.183l0.694,2.433c0.025,0.086-0.072,0.18-0.173,0.18c-0.111,0-0.169-0.093-0.194-0.18l-0.133-0.431h-0.766l-0.137,0.431c-0.025,0.086-0.083,0.18-0.194,0.18c-0.101,0-0.198-0.093-0.172-0.18L32.019,63.504z M32.206,64.172h-0.007l-0.28,0.974h0.564L32.206,64.172z"/>
    </g>
    <g >
        <path fill="#FFFFFF"  d="M27.784,71.517c0.072,0.093,0.125,0.176,0.125,0.298c0,0.27-0.205,0.406-0.453,0.406h-0.791c-0.137,0-0.255-0.025-0.363-0.115c-0.097-0.079-0.169-0.209-0.169-0.334c0-0.115,0.064-0.215,0.19-0.215c0.104,0,0.169,0.086,0.169,0.183c0,0.108,0.058,0.122,0.158,0.122h0.78c0.028,0,0.118,0.011,0.118-0.043c0-0.029-0.05-0.083-0.064-0.104l-1.232-1.584c-0.076-0.097-0.119-0.169-0.119-0.294c0-0.144,0.068-0.266,0.19-0.345c0.101-0.064,0.183-0.064,0.298-0.064h0.762c0.137,0,0.251,0.029,0.355,0.118c0.094,0.083,0.169,0.216,0.169,0.342c0,0.115-0.058,0.208-0.187,0.208c-0.108,0-0.173-0.068-0.173-0.169c0-0.123-0.061-0.14-0.172-0.14h-0.762c-0.04,0-0.122-0.011-0.122,0.05c0,0.032,0.04,0.075,0.054,0.097L27.784,71.517z"/>
        <path fill="#FFFFFF"  d="M29.689,72.221c-0.27,0-0.424-0.107-0.539-0.341l-0.331-0.668c-0.061-0.122-0.097-0.237-0.097-0.377c0-0.158,0.029-0.255,0.101-0.399l0.331-0.665c0.122-0.248,0.277-0.345,0.554-0.345h0.61c0.079,0,0.18,0.043,0.18,0.18c0,0.129-0.097,0.18-0.18,0.18h-0.6c-0.154,0-0.18,0.014-0.248,0.151l-0.313,0.625c-0.047,0.097-0.076,0.162-0.076,0.273c0,0.101,0.032,0.162,0.076,0.248l0.305,0.622c0.072,0.147,0.108,0.158,0.27,0.158h0.585c0.079,0,0.18,0.043,0.18,0.18c0,0.129-0.097,0.18-0.18,0.18H29.689z"/>
        <path fill="#FFFFFF"  d="M32.907,71.861c0.093,0,0.18,0.05,0.18,0.18s-0.086,0.18-0.18,0.18h-1.595v-2.616c0-0.115,0.05-0.18,0.18-0.18c0.129,0,0.18,0.064,0.18,0.18v2.256H32.907z"/>
    </g>
    <g >
        <path fill="#FFFFFF"  d="M51.248,72.753c0,0.115-0.05,0.179-0.18,0.179s-0.179-0.064-0.179-0.179v-2.616h1.193c0.165,0,0.284,0.025,0.413,0.147c0.154,0.144,0.169,0.277,0.169,0.471v0.489c0,0.183-0.015,0.313-0.147,0.46c-0.14,0.158-0.288,0.172-0.481,0.172h-0.787V72.753z M51.248,71.517h0.798c0.212,0,0.259-0.054,0.259-0.259v-0.503c0-0.205-0.047-0.259-0.259-0.259h-0.798V71.517z"/>
        <path fill="#FFFFFF"  d="M54.587,72.932c-0.122,0-0.194-0.025-0.219-0.154h-0.007c-0.025,0.129-0.097,0.154-0.219,0.154h-0.27c-0.125,0-0.158-0.021-0.219-0.129l-0.126-0.22c-0.046-0.079-0.05-0.086-0.05-0.183v-2.084c0-0.115,0.05-0.18,0.18-0.18c0.129,0,0.18,0.064,0.18,0.18V72.4l0.097,0.173h0.155l0.097-0.173v-1.132c0-0.111,0.05-0.212,0.18-0.212s0.18,0.101,0.18,0.212V72.4l0.097,0.173h0.154l0.097-0.173v-2.084c0-0.115,0.05-0.18,0.18-0.18s0.18,0.064,0.18,0.18V72.4c0,0.097-0.003,0.104-0.05,0.183l-0.126,0.22c-0.061,0.107-0.093,0.129-0.219,0.129H54.587z"/>
        <path fill="#FFFFFF"  d="M56.425,72.753c0,0.115-0.05,0.179-0.18,0.179s-0.18-0.064-0.18-0.179v-2.616h1.208c0.284,0,0.567,0.201,0.567,0.521v0.248c0,0.338-0.28,0.51-0.567,0.51h-0.331l0.808,1.157c0.04,0.054,0.09,0.122,0.09,0.19c0,0.1-0.083,0.168-0.183,0.168c-0.072,0-0.119-0.043-0.158-0.101l-0.992-1.416h-0.083V72.753z M56.425,71.057h0.798c0.101,0,0.258-0.007,0.258-0.151v-0.248c0-0.144-0.147-0.162-0.255-0.162h-0.801V71.057z"/>
    </g>
    <g >
        <path fill="#FFFFFF"  d="M49.549,29.563c0.093-0.072,0.176-0.125,0.298-0.125c0.27,0,0.406,0.205,0.406,0.453v0.791c0,0.137-0.025,0.255-0.115,0.363c-0.079,0.097-0.208,0.169-0.334,0.169c-0.115,0-0.215-0.064-0.215-0.19c0-0.104,0.086-0.169,0.183-0.169c0.108,0,0.122-0.058,0.122-0.158v-0.78c0-0.028,0.011-0.118-0.043-0.118c-0.029,0-0.083,0.05-0.104,0.064l-1.585,1.232c-0.097,0.076-0.169,0.119-0.294,0.119c-0.144,0-0.266-0.068-0.345-0.19c-0.064-0.101-0.064-0.183-0.064-0.298v-0.762c0-0.136,0.029-0.251,0.119-0.355c0.083-0.094,0.215-0.169,0.341-0.169c0.115,0,0.208,0.058,0.208,0.187c0,0.107-0.068,0.172-0.169,0.172c-0.123,0-0.14,0.061-0.14,0.172v0.762c0,0.04-0.011,0.122,0.05,0.122c0.032,0,0.075-0.04,0.097-0.054L49.549,29.563z"/>
        <path fill="#FFFFFF"  d="M50.253,27.657c0,0.27-0.108,0.424-0.341,0.539l-0.668,0.331c-0.122,0.061-0.237,0.097-0.377,0.097c-0.158,0-0.255-0.029-0.399-0.101l-0.665-0.331c-0.248-0.122-0.345-0.277-0.345-0.553v-0.611c0-0.079,0.043-0.18,0.18-0.18c0.129,0,0.18,0.097,0.18,0.18v0.6c0,0.154,0.014,0.18,0.151,0.248l0.625,0.313c0.097,0.047,0.162,0.076,0.273,0.076c0.101,0,0.162-0.032,0.248-0.076l0.622-0.305c0.147-0.072,0.158-0.108,0.158-0.27v-0.585c0-0.079,0.043-0.18,0.18-0.18c0.129,0,0.18,0.097,0.18,0.18V27.657z"/>
        <path fill="#FFFFFF"  d="M47.638,26.035c-0.115,0-0.18-0.05-0.18-0.179s0.064-0.18,0.18-0.18h0.826l-0.931-1.096c-0.036-0.043-0.072-0.09-0.072-0.147c0-0.104,0.086-0.173,0.187-0.173c0.061,0,0.111,0.04,0.151,0.083l1.056,1.239l1.057-1.232c0.04-0.047,0.09-0.09,0.154-0.09c0.101,0,0.187,0.068,0.187,0.173c0,0.075-0.064,0.136-0.108,0.194l-0.902,1.049h0.83c0.115,0,0.18,0.05,0.18,0.18s-0.064,0.179-0.18,0.179H47.638z"/>
    </g>
    <g >
        <path fill="#FFFFFF"  d="M53.188,32.475v-0.449h2.616c0.115,0,0.18,0.05,0.18,0.18s-0.064,0.18-0.18,0.18h-2.12v0.007l0.507,0.341h0.057c0.112,0,0.216,0.043,0.216,0.18c0,0.129-0.104,0.18-0.216,0.18H54.19l-0.507,0.341v0.007h2.12c0.115,0,0.18,0.05,0.18,0.18s-0.064,0.18-0.18,0.18h-2.616v-0.449l0.632-0.438L53.188,32.475z"/>
        <path fill="#FFFFFF"  d="M55.624,30.146v-0.528c0-0.093,0.05-0.18,0.18-0.18s0.18,0.086,0.18,0.18v1.416c0,0.094-0.05,0.18-0.18,0.18s-0.18-0.086-0.18-0.18v-0.528h-2.077v0.528c0,0.094-0.05,0.18-0.18,0.18c-0.129,0-0.179-0.086-0.179-0.18v-1.416c0-0.093,0.05-0.18,0.179-0.18c0.13,0,0.18,0.086,0.18,0.18v0.528H55.624z"/>
        <path fill="#FFFFFF"  d="M55.279,26.975c0.093-0.072,0.176-0.125,0.298-0.125c0.27,0,0.406,0.205,0.406,0.453v0.791c0,0.137-0.025,0.255-0.115,0.363c-0.079,0.097-0.208,0.169-0.334,0.169c-0.115,0-0.215-0.065-0.215-0.19c0-0.104,0.086-0.169,0.183-0.169c0.108,0,0.122-0.058,0.122-0.158v-0.78c0-0.028,0.011-0.118-0.043-0.118c-0.029,0-0.083,0.05-0.104,0.064l-1.584,1.232c-0.097,0.076-0.169,0.119-0.295,0.119c-0.144,0-0.266-0.068-0.345-0.19c-0.064-0.101-0.064-0.183-0.064-0.298v-0.762c0-0.137,0.029-0.251,0.119-0.355c0.083-0.094,0.215-0.169,0.341-0.169c0.115,0,0.208,0.058,0.208,0.187c0,0.108-0.068,0.173-0.168,0.173c-0.123,0-0.14,0.061-0.14,0.172v0.762c0,0.04-0.011,0.122,0.05,0.122c0.033,0,0.076-0.04,0.097-0.054L55.279,26.975z"/>
        <path fill="#FFFFFF"  d="M54.197,24.354c0.14-0.068,0.245-0.093,0.399-0.093c0.173,0,0.28,0.046,0.428,0.118l0.661,0.331c0.172,0.086,0.298,0.23,0.298,0.438s-0.126,0.352-0.298,0.438l-0.661,0.331c-0.147,0.072-0.255,0.119-0.428,0.119c-0.154,0-0.259-0.025-0.399-0.093l-0.715-0.359c-0.169-0.086-0.294-0.234-0.294-0.435s0.125-0.349,0.294-0.435L54.197,24.354z M53.655,25.026c-0.058,0.029-0.107,0.047-0.107,0.122c0,0.076,0.05,0.093,0.107,0.122l0.65,0.324c0.104,0.054,0.172,0.083,0.291,0.083c0.094,0,0.158-0.021,0.237-0.061l0.683-0.345c0.05-0.025,0.108-0.05,0.108-0.122s-0.058-0.097-0.108-0.122l-0.683-0.345c-0.079-0.04-0.144-0.061-0.237-0.061c-0.119,0-0.187,0.029-0.291,0.083L53.655,25.026z"/>
    </g>
    <g >
        <path fill="#FFFFFF"  d="M59.217,32.475v-0.449h2.616c0.115,0,0.18,0.05,0.18,0.18s-0.064,0.18-0.18,0.18h-2.12v0.007l0.506,0.341h0.058c0.111,0,0.215,0.043,0.215,0.18c0,0.129-0.104,0.18-0.215,0.18H60.22l-0.506,0.341v0.007h2.12c0.115,0,0.18,0.05,0.18,0.18s-0.064,0.18-0.18,0.18h-2.616v-0.449l0.632-0.438L59.217,32.475z"/>
        <path fill="#FFFFFF"  d="M60.227,29.531c0.14-0.068,0.244-0.093,0.399-0.093c0.172,0,0.28,0.047,0.428,0.119l0.661,0.331c0.173,0.086,0.298,0.23,0.298,0.438s-0.125,0.352-0.298,0.438l-0.661,0.331c-0.147,0.072-0.255,0.118-0.428,0.118c-0.155,0-0.259-0.025-0.399-0.093l-0.715-0.359c-0.168-0.086-0.294-0.233-0.294-0.435s0.126-0.349,0.294-0.435L60.227,29.531z M59.685,30.203c-0.058,0.029-0.108,0.047-0.108,0.123c0,0.075,0.05,0.093,0.108,0.122l0.65,0.323c0.104,0.054,0.172,0.083,0.291,0.083c0.093,0,0.158-0.022,0.237-0.061l0.683-0.345c0.05-0.025,0.107-0.05,0.107-0.122s-0.057-0.097-0.107-0.123l-0.683-0.345c-0.079-0.04-0.144-0.061-0.237-0.061c-0.119,0-0.187,0.029-0.291,0.083L59.685,30.203z"/>
        <path fill="#FFFFFF"  d="M61.309,26.975c0.093-0.072,0.176-0.125,0.298-0.125c0.27,0,0.406,0.205,0.406,0.453v0.791c0,0.137-0.025,0.255-0.115,0.363c-0.079,0.097-0.208,0.169-0.334,0.169c-0.115,0-0.216-0.065-0.216-0.19c0-0.104,0.086-0.169,0.183-0.169c0.108,0,0.122-0.058,0.122-0.158v-0.78c0-0.028,0.011-0.118-0.043-0.118c-0.029,0-0.083,0.05-0.104,0.064l-1.584,1.232c-0.097,0.076-0.169,0.119-0.295,0.119c-0.144,0-0.266-0.068-0.345-0.19c-0.064-0.101-0.064-0.183-0.064-0.298v-0.762c0-0.137,0.029-0.251,0.119-0.355c0.083-0.094,0.216-0.169,0.341-0.169c0.115,0,0.208,0.058,0.208,0.187c0,0.108-0.068,0.173-0.169,0.173c-0.122,0-0.14,0.061-0.14,0.172v0.762c0,0.04-0.011,0.122,0.05,0.122c0.032,0,0.075-0.04,0.097-0.054L61.309,26.975z"/>
        <path fill="#FFFFFF"  d="M61.653,24.968V24.44c0-0.094,0.051-0.18,0.18-0.18c0.129,0,0.18,0.086,0.18,0.18v1.416c0,0.093-0.05,0.18-0.18,0.18c-0.129,0-0.18-0.086-0.18-0.18v-0.528h-2.077v0.528c0,0.093-0.05,0.18-0.18,0.18s-0.18-0.086-0.18-0.18V24.44c0-0.094,0.05-0.18,0.18-0.18s0.18,0.086,0.18,0.18v0.528H61.653z"/>
    </g>
    <g >
        <path fill="#FFFFFF"  d="M66.739,26.975c0.093-0.072,0.176-0.125,0.298-0.125c0.27,0,0.406,0.205,0.406,0.453v0.791c0,0.137-0.025,0.255-0.115,0.363c-0.079,0.097-0.208,0.169-0.334,0.169c-0.115,0-0.216-0.065-0.216-0.19c0-0.104,0.086-0.169,0.184-0.169c0.107,0,0.122-0.058,0.122-0.158v-0.78c0-0.028,0.011-0.118-0.043-0.118c-0.029,0-0.083,0.05-0.104,0.064l-1.584,1.232c-0.097,0.076-0.169,0.119-0.295,0.119c-0.144,0-0.266-0.068-0.345-0.19c-0.065-0.101-0.065-0.183-0.065-0.298v-0.762c0-0.137,0.029-0.251,0.119-0.355c0.083-0.094,0.216-0.169,0.341-0.169c0.115,0,0.208,0.058,0.208,0.187c0,0.108-0.068,0.173-0.169,0.173c-0.122,0-0.14,0.061-0.14,0.172v0.762c0,0.04-0.011,0.122,0.05,0.122c0.033,0,0.076-0.04,0.097-0.054L66.739,26.975z"/>
        <path fill="#FFFFFF"  d="M66.739,24.386c0.093-0.072,0.176-0.125,0.298-0.125c0.27,0,0.406,0.205,0.406,0.453v0.791c0,0.136-0.025,0.255-0.115,0.363c-0.079,0.097-0.208,0.169-0.334,0.169c-0.115,0-0.216-0.065-0.216-0.19c0-0.104,0.086-0.169,0.184-0.169c0.107,0,0.122-0.058,0.122-0.158v-0.78c0-0.029,0.011-0.119-0.043-0.119c-0.029,0-0.083,0.051-0.104,0.065l-1.584,1.232c-0.097,0.076-0.169,0.119-0.295,0.119c-0.144,0-0.266-0.068-0.345-0.19c-0.065-0.101-0.065-0.183-0.065-0.298v-0.762c0-0.137,0.029-0.251,0.119-0.356c0.083-0.093,0.216-0.168,0.341-0.168c0.115,0,0.208,0.057,0.208,0.187c0,0.108-0.068,0.172-0.169,0.172c-0.122,0-0.14,0.061-0.14,0.173v0.762c0,0.04-0.011,0.122,0.05,0.122c0.033,0,0.076-0.04,0.097-0.054L66.739,24.386z"/>
    </g>
    <g >
        <path fill="#FFFFFF"  d="M71.132,29.797h-0.575c-0.115,0-0.18-0.05-0.18-0.18s0.064-0.18,0.18-0.18h0.568c0.047,0,0.097,0.003,0.14,0.021l1.75,0.686c0.089,0.036,0.158,0.068,0.158,0.18c0,0.112-0.068,0.144-0.158,0.18l-1.75,0.686c-0.043,0.018-0.093,0.021-0.14,0.021h-0.568c-0.115,0-0.18-0.05-0.18-0.18s0.064-0.18,0.18-0.18h0.575l1.373-0.528L71.132,29.797z"/>
        <path fill="#FFFFFF"  d="M73.173,27.657c0,0.27-0.107,0.424-0.341,0.539l-0.668,0.331c-0.123,0.061-0.237,0.097-0.377,0.097c-0.158,0-0.255-0.029-0.399-0.101l-0.665-0.331c-0.248-0.122-0.345-0.277-0.345-0.553v-0.611c0-0.079,0.043-0.18,0.18-0.18c0.129,0,0.18,0.097,0.18,0.18v0.6c0,0.154,0.014,0.18,0.151,0.248l0.625,0.313c0.097,0.047,0.162,0.076,0.273,0.076c0.101,0,0.162-0.032,0.248-0.076l0.622-0.305c0.147-0.072,0.158-0.108,0.158-0.27v-0.585c0-0.079,0.043-0.18,0.179-0.18c0.129,0,0.18,0.097,0.18,0.18V27.657z"/>
        <path fill="#FFFFFF"  d="M73.173,25.069c0,0.27-0.107,0.424-0.341,0.539l-0.668,0.331c-0.123,0.061-0.237,0.097-0.377,0.097c-0.158,0-0.255-0.028-0.399-0.1l-0.665-0.331c-0.248-0.122-0.345-0.276-0.345-0.553V24.44c0-0.079,0.043-0.18,0.18-0.18c0.129,0,0.18,0.097,0.18,0.18v0.6c0,0.155,0.014,0.18,0.151,0.248l0.625,0.313c0.097,0.047,0.162,0.076,0.273,0.076c0.101,0,0.162-0.033,0.248-0.076l0.622-0.305c0.147-0.072,0.158-0.108,0.158-0.27V24.44c0-0.079,0.043-0.18,0.179-0.18c0.129,0,0.18,0.097,0.18,0.18V25.069z"/>
    </g>
    <g >
        <path fill="#FFFFFF"  d="M78.29,30.145c0,0.094-0.05,0.18-0.18,0.18s-0.18-0.086-0.18-0.18v-0.708h0.708c0.348,0,0.564,0.233,0.564,0.575v0.618c0,0.165-0.029,0.288-0.144,0.413c-0.129,0.144-0.263,0.169-0.442,0.169h-0.898c-0.23,0-0.349-0.05-0.525-0.187l-0.542-0.424c-0.183-0.144-0.245-0.27-0.245-0.503v-0.481c0-0.094,0.05-0.18,0.18-0.18s0.18,0.086,0.18,0.18v0.431c0,0.198-0.003,0.183,0.147,0.302l0.5,0.392c0.14,0.111,0.291,0.111,0.467,0.111h0.704c0.198,0,0.259-0.043,0.259-0.248v-0.571c0-0.129-0.029-0.237-0.187-0.237H78.29V30.145z"/>
        <path fill="#FFFFFF"  d="M76.586,27.208c-0.115,0-0.18-0.05-0.18-0.18s0.065-0.18,0.18-0.18h2.616v0.474l-2.156,0.938v-0.004v0.007h1.977c0.115,0,0.18,0.05,0.18,0.18s-0.065,0.18-0.18,0.18h-2.616V28.15l2.181-0.938v0.003v-0.007H76.586z"/>
        <path fill="#FFFFFF"  d="M76.766,25.683v0.133c0,0.119-0.043,0.219-0.18,0.219c-0.129,0-0.18-0.097-0.18-0.208v-0.6c0-0.28,0.115-0.42,0.359-0.542l0.633-0.316c0.147-0.072,0.251-0.108,0.417-0.108c0.144,0,0.266,0.04,0.396,0.104l0.654,0.327c0.255,0.126,0.338,0.288,0.338,0.568v0.597c0,0.093-0.05,0.179-0.18,0.179s-0.18-0.086-0.18-0.179v-0.173H76.766z M78.843,25.324v-0.068c0-0.151-0.018-0.187-0.151-0.251l-0.64-0.316c-0.083-0.04-0.144-0.068-0.234-0.068c-0.122,0-0.19,0.04-0.294,0.09l-0.607,0.298c-0.154,0.075-0.151,0.108-0.151,0.273v0.043H78.843z"/>
    </g>
    <g >
        <path fill="#FFFFFF"  d="M84.873,30.145v-0.528c0-0.094,0.05-0.18,0.18-0.18s0.18,0.086,0.18,0.18v1.416c0,0.094-0.05,0.18-0.18,0.18s-0.18-0.086-0.18-0.18v-0.528h-2.077v0.528c0,0.094-0.05,0.18-0.18,0.18s-0.18-0.086-0.18-0.18v-1.416c0-0.094,0.05-0.18,0.18-0.18s0.18,0.086,0.18,0.18v0.528H84.873z"/>
        <path fill="#FFFFFF"  d="M85.052,28.265c0.115,0,0.18,0.05,0.18,0.18s-0.064,0.18-0.18,0.18h-2.616v-1.208c0-0.284,0.201-0.567,0.521-0.567h0.248c0.338,0,0.51,0.28,0.51,0.567v0.331l1.157-0.808c0.054-0.04,0.122-0.09,0.191-0.09c0.101,0,0.168,0.083,0.168,0.183c0,0.072-0.043,0.119-0.101,0.158l-1.416,0.992v0.083H85.052z M83.356,28.265v-0.798c0-0.1-0.007-0.258-0.151-0.258h-0.248c-0.144,0-0.162,0.147-0.162,0.255v0.801H83.356z"/>
        <path fill="#FFFFFF"  d="M84.905,25.04l0.201,0.237c0.086,0.101,0.125,0.183,0.125,0.323c0,0.122-0.046,0.233-0.137,0.316c-0.111,0.101-0.208,0.118-0.352,0.118h-0.942c-0.262,0-0.427-0.093-0.593-0.287l-0.625-0.733c-0.083-0.094-0.147-0.176-0.147-0.306c0-0.273,0.201-0.449,0.467-0.449h0.952c0.276,0,0.435,0.072,0.618,0.284l0.183,0.212l0.215-0.09v-0.212c0-0.108,0.065-0.194,0.18-0.194c0.151,0,0.18,0.111,0.18,0.237v0.413L84.905,25.04z M84.305,24.893l-0.068-0.083c-0.137-0.165-0.187-0.19-0.402-0.19h-0.895c-0.058,0-0.144-0.007-0.144,0.072c0,0.043,0.036,0.068,0.061,0.101l0.625,0.723c0.104,0.122,0.173,0.162,0.334,0.162h0.931c0.058,0,0.125,0.003,0.125-0.079c0-0.04-0.029-0.079-0.054-0.108l-0.27-0.309l-0.237,0.093c-0.05,0.022-0.115,0.05-0.168,0.05c-0.097,0-0.173-0.086-0.173-0.179c0-0.14,0.123-0.162,0.23-0.208L84.305,24.893z"/>
    </g>
    <g >
        <path fill="#FFFFFF"  d="M91.082,33.442c0.115,0,0.18,0.05,0.18,0.18s-0.065,0.18-0.18,0.18h-2.616v-1.208c0-0.284,0.201-0.568,0.521-0.568h0.248c0.338,0,0.51,0.28,0.51,0.568v0.331l1.157-0.809c0.054-0.04,0.122-0.09,0.19-0.09c0.101,0,0.169,0.083,0.169,0.184c0,0.072-0.043,0.118-0.101,0.158l-1.416,0.992v0.083H91.082z M89.386,33.442v-0.798c0-0.101-0.007-0.259-0.151-0.259h-0.248c-0.144,0-0.162,0.147-0.162,0.255v0.801H89.386z"/>
        <path fill="#FFFFFF"  d="M90.557,29.563c0.093-0.072,0.176-0.126,0.298-0.126c0.27,0,0.406,0.205,0.406,0.453v0.791c0,0.137-0.025,0.255-0.115,0.363c-0.079,0.097-0.208,0.168-0.334,0.168c-0.115,0-0.216-0.064-0.216-0.19c0-0.104,0.086-0.169,0.184-0.169c0.107,0,0.122-0.058,0.122-0.158v-0.78c0-0.029,0.011-0.119-0.043-0.119c-0.029,0-0.083,0.05-0.104,0.065l-1.584,1.232c-0.097,0.075-0.169,0.118-0.295,0.118c-0.144,0-0.266-0.068-0.345-0.19c-0.065-0.101-0.065-0.184-0.065-0.298v-0.762c0-0.137,0.029-0.252,0.119-0.356c0.082-0.093,0.215-0.169,0.341-0.169c0.115,0,0.208,0.058,0.208,0.187c0,0.108-0.068,0.172-0.168,0.172c-0.123,0-0.141,0.061-0.141,0.172v0.762c0,0.04-0.011,0.123,0.05,0.123c0.033,0,0.076-0.04,0.097-0.054L90.557,29.563z"/>
        <path fill="#FFFFFF"  d="M88.825,28.265h0.129c0.115,0,0.18,0.05,0.18,0.18s-0.064,0.18-0.18,0.18h-0.489v-1.775h0.489c0.115,0,0.18,0.05,0.18,0.18s-0.064,0.18-0.18,0.18h-0.129v0.348h2.257c0.115,0,0.18,0.05,0.18,0.18s-0.065,0.18-0.18,0.18h-2.257V28.265z"/>
        <path fill="#FFFFFF"  d="M89.476,24.354c0.14-0.068,0.244-0.093,0.399-0.093c0.172,0,0.28,0.046,0.428,0.118l0.661,0.331c0.172,0.086,0.298,0.23,0.298,0.438s-0.126,0.352-0.298,0.438l-0.661,0.331c-0.147,0.072-0.255,0.119-0.428,0.119c-0.155,0-0.259-0.025-0.399-0.093l-0.715-0.359c-0.169-0.086-0.295-0.234-0.295-0.435s0.126-0.349,0.295-0.435L89.476,24.354z M88.933,25.026c-0.058,0.029-0.108,0.047-0.108,0.122c0,0.076,0.05,0.093,0.108,0.122l0.65,0.324c0.104,0.054,0.172,0.083,0.291,0.083c0.094,0,0.158-0.021,0.237-0.061l0.683-0.345c0.05-0.025,0.108-0.05,0.108-0.122s-0.058-0.097-0.108-0.122l-0.683-0.345c-0.079-0.04-0.144-0.061-0.237-0.061c-0.119,0-0.187,0.029-0.291,0.083L88.933,25.026z"/>
    </g>
    <g >
        <path fill="#FFFFFF"  d="M28.291,98.308v0.817c0,0.091-0.04,0.142-0.142,0.142c-0.102,0-0.141-0.051-0.141-0.142v-1.918c0-0.091,0.04-0.142,0.141-0.142c0.102,0,0.142,0.051,0.142,0.142v0.817h0.832v-0.817c0-0.091,0.04-0.142,0.142-0.142s0.142,0.051,0.142,0.142v1.918c0,0.091-0.04,0.142-0.142,0.142s-0.142-0.051-0.142-0.142v-0.817H28.291z"/>
        <path fill="#FFFFFF"  d="M31.345,98.712c0.057,0.074,0.099,0.139,0.099,0.235c0,0.212-0.162,0.319-0.357,0.319h-0.623c-0.107,0-0.201-0.02-0.286-0.09c-0.076-0.063-0.133-0.164-0.133-0.264c0-0.09,0.051-0.17,0.15-0.17c0.082,0,0.133,0.068,0.133,0.145c0,0.085,0.045,0.097,0.125,0.097h0.614c0.022,0,0.093,0.008,0.093-0.034c0-0.022-0.04-0.065-0.051-0.082l-0.971-1.248c-0.06-0.076-0.093-0.133-0.093-0.232c0-0.113,0.054-0.209,0.15-0.271c0.079-0.051,0.145-0.051,0.235-0.051h0.6c0.108,0,0.198,0.022,0.28,0.094c0.074,0.064,0.133,0.17,0.133,0.269c0,0.091-0.045,0.164-0.147,0.164c-0.085,0-0.136-0.054-0.136-0.133c0-0.097-0.048-0.11-0.136-0.11h-0.6c-0.031,0-0.096-0.009-0.096,0.039c0,0.025,0.031,0.06,0.042,0.077L31.345,98.712z"/>
        <path fill="#FFFFFF"  d="M32.543,99.267c-0.142,0-0.252-0.033-0.351-0.144c-0.093-0.105-0.107-0.207-0.107-0.337v-1.579c0-0.091,0.04-0.142,0.141-0.142c0.102,0,0.142,0.051,0.142,0.142v1.579c0,0.158,0.048,0.198,0.176,0.198h0.481c0.127,0,0.175-0.04,0.175-0.198v-1.579c0-0.091,0.04-0.142,0.142-0.142s0.142,0.051,0.142,0.142v1.579c0,0.13-0.014,0.231-0.108,0.337c-0.099,0.11-0.209,0.144-0.351,0.144H32.543z"/>
    </g>
    <g >
        <path fill="#FFFFFF"  d="M28.848,102.405h0.416c0.073,0,0.142,0.04,0.142,0.142s-0.068,0.142-0.142,0.142h-1.115c-0.073,0-0.141-0.04-0.141-0.142s0.068-0.142,0.141-0.142h0.417v-1.636h-0.417c-0.073,0-0.141-0.039-0.141-0.142c0-0.102,0.068-0.142,0.141-0.142h1.115c0.073,0,0.142,0.04,0.142,0.142c0,0.103-0.068,0.142-0.142,0.142h-0.416V102.405z"/>
        <path fill="#FFFFFF"  d="M30.329,102.405h0.974c0.073,0,0.142,0.04,0.142,0.142s-0.068,0.142-0.142,0.142h-1.256v-0.923c0-0.212,0.107-0.319,0.32-0.319h0.795v-0.677h-0.974c-0.073,0-0.141-0.039-0.141-0.142c0-0.102,0.068-0.142,0.141-0.142h0.939c0.094,0,0.159,0.015,0.229,0.079c0.079,0.074,0.088,0.15,0.088,0.252v0.581c0,0.102-0.009,0.178-0.088,0.251c-0.071,0.065-0.136,0.079-0.229,0.079h-0.798V102.405z"/>
        <path fill="#FFFFFF"  d="M32.846,102.688c-0.212,0-0.333-0.085-0.424-0.27l-0.26-0.526c-0.048-0.096-0.076-0.187-0.076-0.297c0-0.124,0.022-0.2,0.079-0.313l0.26-0.523c0.096-0.196,0.218-0.272,0.436-0.272h0.481c0.062,0,0.142,0.034,0.142,0.142c0,0.103-0.077,0.142-0.142,0.142h-0.473c-0.122,0-0.142,0.012-0.195,0.119l-0.246,0.492c-0.037,0.076-0.06,0.127-0.06,0.215c0,0.079,0.025,0.128,0.06,0.195l0.241,0.489c0.057,0.116,0.084,0.125,0.212,0.125h0.461c0.062,0,0.142,0.034,0.142,0.142c0,0.102-0.077,0.142-0.142,0.142H32.846z"/>
    </g>
    <g >
        <path fill="#FFFFFF"  d="M29.307,105.553c0.057,0.074,0.099,0.139,0.099,0.235c0,0.212-0.162,0.319-0.357,0.319h-0.622c-0.108,0-0.201-0.02-0.286-0.09c-0.076-0.063-0.133-0.165-0.133-0.264c0-0.091,0.051-0.17,0.15-0.17c0.082,0,0.133,0.068,0.133,0.145c0,0.085,0.045,0.096,0.125,0.096h0.614c0.022,0,0.093,0.009,0.093-0.033c0-0.023-0.04-0.065-0.051-0.083l-0.971-1.247c-0.06-0.077-0.093-0.134-0.093-0.232c0-0.113,0.054-0.209,0.15-0.271c0.079-0.051,0.145-0.051,0.235-0.051h0.6c0.108,0,0.198,0.022,0.28,0.093c0.074,0.065,0.133,0.17,0.133,0.27c0,0.09-0.045,0.164-0.147,0.164c-0.085,0-0.136-0.055-0.136-0.133c0-0.097-0.048-0.111-0.136-0.111h-0.6c-0.031,0-0.096-0.008-0.096,0.04c0,0.025,0.031,0.06,0.042,0.076L29.307,105.553z"/>
        <path fill="#FFFFFF"  d="M30.329,105.966c0,0.091-0.04,0.142-0.142,0.142c-0.102,0-0.141-0.051-0.141-0.142v-2.06h0.939c0.13,0,0.224,0.02,0.325,0.116c0.122,0.113,0.133,0.218,0.133,0.37v0.385c0,0.145-0.012,0.246-0.116,0.362c-0.11,0.125-0.227,0.136-0.379,0.136h-0.62V105.966z M30.329,104.993h0.628c0.167,0,0.204-0.042,0.204-0.203v-0.396c0-0.161-0.037-0.204-0.204-0.204h-0.628V104.993z"/>
        <path fill="#FFFFFF"  d="M32.925,105.825h0.416c0.073,0,0.142,0.04,0.142,0.142c0,0.103-0.068,0.142-0.142,0.142h-1.115c-0.073,0-0.141-0.039-0.141-0.142c0-0.102,0.068-0.142,0.141-0.142h0.416v-1.636h-0.416c-0.073,0-0.141-0.039-0.141-0.141c0-0.103,0.068-0.142,0.141-0.142h1.115c0.073,0,0.142,0.039,0.142,0.142c0,0.102-0.068,0.141-0.142,0.141h-0.416V105.825z"/>
    </g>
    <g >
        <path fill="#FFFFFF"  d="M37.836,103.907c0.156,0,0.283,0.127,0.283,0.282v1.636c0,0.159-0.122,0.283-0.283,0.283h-0.832c-0.161,0-0.283-0.124-0.283-0.283v-1.636c0-0.155,0.127-0.282,0.283-0.282H37.836z M37.836,105.825v-1.636h-0.832v1.636H37.836z"/>
    </g>
    <g >
        <path fill="#FFFFFF"  d="M41.606,105.825v-0.571c0-0.082,0.037-0.142,0.142-0.142c0.104,0,0.142,0.06,0.142,0.142v0.713c0,0.103-0.068,0.142-0.142,0.142h-1.115c-0.073,0-0.141-0.039-0.141-0.142c0-0.102,0.068-0.142,0.141-0.142h0.417v-1.636h-0.417c-0.073,0-0.141-0.039-0.141-0.141c0-0.103,0.068-0.142,0.141-0.142h0.699v1.918H41.606z"/>
    </g>
    <g >
        <path fill="#FFFFFF"  d="M37.836,102.405v-0.571c0-0.082,0.037-0.142,0.142-0.142c0.104,0,0.142,0.06,0.142,0.142v0.713c0,0.102-0.068,0.142-0.142,0.142h-1.115c-0.073,0-0.141-0.04-0.141-0.142s0.068-0.142,0.141-0.142h0.416v-1.636h-0.416c-0.073,0-0.141-0.039-0.141-0.142c0-0.102,0.068-0.142,0.141-0.142h0.699v1.919H37.836z"/>
    </g>
    <g >
        <path fill="#FFFFFF"  d="M41.606,100.486c0.156,0,0.283,0.128,0.283,0.283v1.636c0,0.158-0.122,0.283-0.283,0.283h-0.832c-0.161,0-0.283-0.125-0.283-0.283v-1.636c0-0.155,0.127-0.283,0.283-0.283H41.606z M41.606,102.405v-1.636h-0.832v1.636H41.606z"/>
    </g>
    <g >
        <path fill="#FFFFFF"  d="M37.836,97.066c0.156,0,0.283,0.128,0.283,0.283v1.636c0,0.158-0.122,0.282-0.283,0.282h-0.832c-0.161,0-0.283-0.124-0.283-0.282v-1.636c0-0.155,0.127-0.283,0.283-0.283H37.836z M37.836,98.985v-1.636h-0.832v1.636H37.836z"/>
    </g>
    <g >
        <path fill="#FFFFFF"  d="M41.606,97.066c0.156,0,0.283,0.128,0.283,0.283v1.636c0,0.158-0.122,0.282-0.283,0.282h-0.832c-0.161,0-0.283-0.124-0.283-0.282v-1.636c0-0.155,0.127-0.283,0.283-0.283H41.606z M41.606,98.985v-1.636h-0.832v1.636H41.606z"/>
    </g>
    <g >
        <path fill="#E5E5E5"  d="M11.909,52.995c-0.094,0-0.18-0.051-0.18-0.18c0-0.129,0.086-0.18,0.18-0.18h0.708v0.708c0,0.349-0.233,0.564-0.575,0.564h-0.618c-0.166,0-0.288-0.029-0.413-0.144c-0.144-0.13-0.169-0.263-0.169-0.442v-0.898c0-0.23,0.05-0.349,0.187-0.525l0.424-0.542c0.144-0.183,0.27-0.245,0.503-0.245h0.481c0.094,0,0.18,0.05,0.18,0.18s-0.086,0.18-0.18,0.18h-0.431c-0.198,0-0.183-0.003-0.302,0.147l-0.392,0.5c-0.111,0.14-0.111,0.291-0.111,0.467v0.704c0,0.198,0.043,0.259,0.248,0.259h0.571c0.129,0,0.237-0.029,0.237-0.187v-0.366H11.909z"/>
        <path fill="#E5E5E5"  d="M14.845,51.292c0-0.115,0.05-0.18,0.18-0.18s0.18,0.065,0.18,0.18v2.616H14.73l-0.938-2.156h0.004h-0.007v1.977c0,0.115-0.05,0.18-0.18,0.18s-0.18-0.065-0.18-0.18v-2.616h0.474l0.938,2.181h-0.003h0.007V51.292z"/>
        <path fill="#E5E5E5"  d="M16.371,51.471h-0.133c-0.119,0-0.219-0.043-0.219-0.18c0-0.129,0.097-0.18,0.208-0.18h0.6c0.28,0,0.42,0.115,0.542,0.359l0.316,0.633c0.072,0.147,0.108,0.251,0.108,0.417c0,0.144-0.04,0.266-0.104,0.396l-0.327,0.654c-0.126,0.255-0.288,0.338-0.568,0.338h-0.597c-0.093,0-0.179-0.05-0.179-0.18s0.086-0.18,0.179-0.18h0.173V51.471z M16.73,53.548h0.068c0.151,0,0.187-0.018,0.251-0.151l0.316-0.64c0.04-0.083,0.068-0.144,0.068-0.234c0-0.122-0.04-0.19-0.09-0.294l-0.298-0.607c-0.075-0.154-0.108-0.151-0.273-0.151H16.73V53.548z"/>
    </g>
    <g >
        <path fill="#E5E5E5"  d="M12.257,57.971v-0.575c0-0.115,0.05-0.18,0.18-0.18s0.18,0.065,0.18,0.18v0.568c0,0.047-0.003,0.097-0.021,0.14l-0.686,1.75c-0.036,0.09-0.068,0.158-0.18,0.158c-0.112,0-0.144-0.068-0.18-0.158l-0.686-1.75c-0.018-0.043-0.021-0.093-0.021-0.14v-0.568c0-0.115,0.05-0.18,0.18-0.18s0.18,0.065,0.18,0.18v0.575l0.528,1.373L12.257,57.971z"/>
        <path fill="#E5E5E5"  d="M14.396,60.012c-0.27,0-0.424-0.108-0.539-0.341l-0.331-0.668c-0.061-0.122-0.097-0.237-0.097-0.377c0-0.158,0.029-0.255,0.101-0.399l0.331-0.665c0.122-0.248,0.277-0.345,0.553-0.345h0.611c0.079,0,0.18,0.043,0.18,0.18c0,0.129-0.097,0.18-0.18,0.18h-0.6c-0.154,0-0.18,0.015-0.248,0.151l-0.313,0.625c-0.046,0.097-0.075,0.162-0.075,0.273c0,0.101,0.032,0.162,0.075,0.248l0.306,0.622c0.072,0.147,0.108,0.158,0.27,0.158h0.585c0.079,0,0.18,0.043,0.18,0.18c0,0.129-0.097,0.18-0.18,0.18H14.396z"/>
        <path fill="#E5E5E5"  d="M16.985,60.012c-0.27,0-0.424-0.108-0.539-0.341l-0.331-0.668c-0.061-0.122-0.097-0.237-0.097-0.377c0-0.158,0.028-0.255,0.1-0.399l0.331-0.665c0.123-0.248,0.277-0.345,0.554-0.345h0.611c0.079,0,0.18,0.043,0.18,0.18c0,0.129-0.097,0.18-0.18,0.18h-0.6c-0.155,0-0.18,0.015-0.248,0.151l-0.313,0.625c-0.047,0.097-0.076,0.162-0.076,0.273c0,0.101,0.033,0.162,0.076,0.248l0.305,0.622c0.072,0.147,0.108,0.158,0.27,0.158h0.586c0.079,0,0.18,0.043,0.18,0.18c0,0.129-0.097,0.18-0.18,0.18H16.985z"/>
    </g>
    <g >
        <path fill="#E5E5E5"  d="M13.789,63.68v0.129c0,0.115-0.05,0.18-0.18,0.18s-0.18-0.065-0.18-0.18v-0.489h1.775v0.489c0,0.115-0.05,0.18-0.18,0.18s-0.18-0.065-0.18-0.18V63.68h-0.348v2.256c0,0.115-0.05,0.18-0.18,0.18s-0.18-0.064-0.18-0.18V63.68H13.789z"/>
        <path fill="#E5E5E5"  d="M16.701,64.719l-0.64-1.1c-0.025-0.04-0.043-0.079-0.043-0.129c0-0.093,0.086-0.169,0.176-0.169c0.119,0,0.158,0.09,0.208,0.176l0.503,0.858l0.503-0.858c0.05-0.086,0.09-0.176,0.208-0.176c0.09,0,0.176,0.076,0.176,0.169c0,0.05-0.018,0.09-0.043,0.129l-0.64,1.1l0.64,1.099c0.025,0.04,0.043,0.08,0.043,0.13c0,0.093-0.086,0.168-0.176,0.168c-0.119,0-0.158-0.09-0.208-0.176l-0.503-0.859l-0.503,0.859c-0.05,0.086-0.09,0.176-0.208,0.176c-0.09,0-0.176-0.075-0.176-0.168c0-0.05,0.018-0.09,0.043-0.13L16.701,64.719z"/>
    </g>
    <g >
        <path fill="#E5E5E5"  d="M13.789,72.041c0,0.115-0.05,0.18-0.18,0.18s-0.18-0.064-0.18-0.18v-2.616h1.208c0.284,0,0.567,0.201,0.567,0.521v0.248c0,0.338-0.28,0.51-0.567,0.51h-0.331l0.808,1.157c0.04,0.054,0.09,0.123,0.09,0.19c0,0.101-0.083,0.169-0.183,0.169c-0.072,0-0.119-0.043-0.158-0.101l-0.992-1.416h-0.083V72.041z M13.789,70.345h0.798c0.1,0,0.258-0.007,0.258-0.151v-0.248c0-0.144-0.147-0.162-0.255-0.162h-0.801V70.345z"/>
        <path fill="#E5E5E5"  d="M16.701,70.823l-0.64-1.1c-0.025-0.039-0.043-0.079-0.043-0.129c0-0.094,0.086-0.169,0.176-0.169c0.119,0,0.158,0.09,0.208,0.176l0.503,0.859l0.503-0.859c0.05-0.086,0.09-0.176,0.208-0.176c0.09,0,0.176,0.075,0.176,0.169c0,0.05-0.018,0.09-0.043,0.129l-0.64,1.1l0.64,1.1c0.025,0.04,0.043,0.079,0.043,0.129c0,0.094-0.086,0.169-0.176,0.169c-0.119,0-0.158-0.09-0.208-0.176l-0.503-0.858l-0.503,0.858c-0.05,0.086-0.09,0.176-0.208,0.176c-0.09,0-0.176-0.075-0.176-0.169c0-0.05,0.018-0.089,0.043-0.129L16.701,70.823z"/>
    </g>
</svg>
