<?xml version='1.0' encoding='utf-8'?>
<!DOCTYPE svg>
<!-- Generator: Adobe Illustrator 23.0.2, SVG Export Plug-In . SVG Version: 6.00 Build 0)  -->
<svg xmlns="http://www.w3.org/2000/svg" gorn="0" height="0.457731in" viewBox="0 0 107.5426636 32.956665" baseProfile="basic" id="Layer_1" version="1.1" y="0px"  width="1.49365in" x="0px" xmlns:xml="http://www.w3.org/XML/1998/namespace" xml:space="preserve">
    <desc >
        <referenceFile >SSD1306.svg</referenceFile>
    </desc>
    <metadata >
        <sfw >
            <slices />
            <sliceSourceBounds bottomLeftOrigin="true" height="32.6820259" y="-32.9778595"  width="107.3300171" x="0.1699951"/>
        </sfw>
    </metadata>
    <g >
        <g >
            <g gorn="0.2.0.0" id="breadboard_2_" >
                <polygon fill="#414141" points="7.3985276,3.7139909 5.8353176,2.1507809 1.7627476,2.1507809 0.1985277,3.7139909 0.1985277,7.7865605 1.7627476,9.3507805 5.8353176,9.3507805 7.3985276,7.7865605 " />
                <rect gorn="0.2.0.0.1" fill="none" height="2.7913799" id="connector0pin_2_" y="4.3550806"  width="2.7913799" x="2.4028478"/>
                <g gorn="0.2.0.0.2" id="connector0terminal_2_" />
                <rect fill="#8D8C8C" height="2.2983201" y="4.6021109"  width="2.2983201" x="2.6488776"/>
                <rect fill="#8D8664" height="1.1821599" y="5.1601906"  width="1.1821599" x="3.2069578"/>
                <polygon fill="#B8AF82" points="4.9471974,4.6021109 4.3891177,5.1601906 4.3891177,6.3413606 4.9471974,6.9004307 " />
                <polygon fill="#817A5C" points="3.2079477,6.3413606 4.3891177,6.3413606 4.9471974,6.9004307 2.6488776,6.9004307 " />
                <polygon fill="#5F5C44" points="3.2079477,5.1601906 3.2079477,6.3413606 2.6488776,6.9004307 2.6488776,4.6021109 " />
                <polygon fill="#9A916C" points="4.9471974,4.6021109 4.3891177,5.1601906 3.2079477,5.1601906 2.6488776,4.6021109 " />
                <polygon fill="#414141" points="7.3985276,10.9139709 5.8353176,9.3507805 1.7627476,9.3507805 0.1985277,10.9139709 0.1985277,14.9865808 1.7627476,16.5507813 5.8353176,16.5507813 7.3985276,14.9865808 " />
                <rect gorn="0.2.0.0.10" fill="none" height="2.7913799" id="connector1pin_2_" y="11.5550604"  width="2.7913799" x="2.4028478"/>
                <g gorn="0.2.0.0.11" id="connector1terminal_2_" />
                <rect fill="#8D8C8C" height="2.2983198" y="11.8020906"  width="2.2983201" x="2.6488776"/>
                <rect fill="#8D8664" height="1.1821604" y="12.3601809"  width="1.1821599" x="3.2069578"/>
                <polygon fill="#B8AF82" points="4.9471974,11.8020906 4.3891177,12.3601809 4.3891177,13.5413809 4.9471974,14.1003809 " />
                <polygon fill="#817A5C" points="3.2079477,13.5413809 4.3891177,13.5413809 4.9471974,14.1003809 2.6488776,14.1003809 " />
                <polygon fill="#5F5C44" points="3.2079477,12.3601809 3.2079477,13.5413809 2.6488776,14.1003809 2.6488776,11.8020906 " />
                <polygon fill="#9A916C" points="4.9471974,11.8020906 4.3891177,12.3601809 3.2079477,12.3601809 2.6488776,11.8020906 " />
                <polygon fill="#414141" points="7.3985276,18.1139812 5.8353176,16.5507813 1.7627476,16.5507813 0.1985277,18.1139812 0.1985277,22.1865826 1.7627476,23.750782 5.8353176,23.750782 7.3985276,22.1865826 " />
                <rect gorn="0.2.0.0.19" fill="none" height="2.7913799" id="connector2pin_2_" y="18.7550812"  width="2.7913799" x="2.4028478"/>
                <g gorn="0.2.0.0.20" id="connector2terminal_2_" />
                <rect fill="#8D8C8C" height="2.2983208" y="19.0020809"  width="2.2983201" x="2.6488776"/>
                <rect fill="#8D8664" height="1.1821594" y="19.5601826"  width="1.1821599" x="3.2069578"/>
                <polygon fill="#B8AF82" points="4.9471974,19.0020809 4.3891177,19.5601826 4.3891177,20.7413807 4.9471974,21.3003807 " />
                <polygon fill="#817A5C" points="3.2079477,20.7413807 4.3891177,20.7413807 4.9471974,21.3003807 2.6488776,21.3003807 " />
                <polygon fill="#5F5C44" points="3.2079477,19.5601826 3.2079477,20.7413807 2.6488776,21.3003807 2.6488776,19.0020809 " />
                <polygon fill="#9A916C" points="4.9471974,19.0020809 4.3891177,19.5601826 3.2079477,19.5601826 2.6488776,19.0020809 " />
                <polygon fill="#414141" points="7.3985276,25.313982 5.8353176,23.750782 1.7627476,23.750782 0.1985277,25.313982 0.1985277,29.3865814 1.7627476,30.9507809 5.8353176,30.9507809 7.3985276,29.3865814 " />
                <rect gorn="0.2.0.0.28" fill="none" height="2.7913799" id="connector3pin_2_" y="25.9550819"  width="2.7913799" x="2.4028478"/>
                <g gorn="0.2.0.0.29" id="connector3terminal_2_" />
                <rect fill="#8D8C8C" height="2.2983208" y="26.2020817"  width="2.2983201" x="2.6488776"/>
                <rect fill="#8D8664" height="1.1821594" y="26.7601814"  width="1.1821599" x="3.2069578"/>
                <polygon fill="#B8AF82" points="4.9471974,26.2020817 4.3891177,26.7601814 4.3891177,27.9413815 4.9471974,28.5003815 " />
                <polygon fill="#817A5C" points="3.2079477,27.9413815 4.3891177,27.9413815 4.9471974,28.5003815 2.6488776,28.5003815 " />
                <polygon fill="#5F5C44" points="3.2079477,26.7601814 3.2079477,27.9413815 2.6488776,28.5003815 2.6488776,26.2020817 " />
                <polygon fill="#9A916C" points="4.9471974,26.2020817 4.3891177,26.7601814 3.2079477,26.7601814 2.6488776,26.2020817 " />
            </g>
        </g>
        <path fill="#2656A6" d="M0.1699951,0.2958333v32.539978h107.3300171V0.2958333H0.1699951z M4.9500246,28.5058556H2.6499755v-2.3000488h2.3000491V28.5058556z M2.6499755,4.6058307h2.3000491v2.2999878H2.6499755V4.6058307z M4.9500246,21.3058434H2.6499755v-2.2999878h2.3000491V21.3058434z M4.9500246,14.1058311H2.6499755v-2.2999878h2.3000491V14.1058311z" />
        <path gorn="0.2.2" fill="#AFB0C5" d="M3.8200195,3.2958333c-1.3699951,0-2.4700317,1.0999753-2.4700317,2.4600217c0,1.3699951,1.1000366,2.4699712,2.4700317,2.4699712c1.3599856,0,2.4599612-1.0999761,2.4599612-2.4699712C6.2799807,4.3958087,5.1800051,3.2958333,3.8200195,3.2958333z M4.9500246,6.9058185H2.6499755V4.6058307h2.3000491V6.9058185z" id="connector3pin" />
        <path gorn="0.2.3" fill="#AFB0C5" d="M3.8300292,10.485836c-1.3600464,0-2.460022,1.0999756-2.460022,2.4599609c0,1.3700562,1.0999756,2.4700317,2.460022,2.4700317c1.3599856,0,2.4699709-1.0999756,2.4699709-2.4700317C6.3000002,11.5858116,5.1900148,10.485836,3.8300292,10.485836z M4.9500246,14.1058311H2.6499755v-2.2999878h2.3000491V14.1058311z" id="connector2pin" />
        <path gorn="0.2.4" fill="#AFB0C5" d="M3.8,17.7058067c-1.3599854,0-2.4699707,1.1100464-2.4699707,2.4700317S2.4400146,22.6458092,3.8,22.6458092s2.4699709-1.1099854,2.4699709-2.4699707S5.1599855,17.7058067,3.8,17.7058067z M4.9500246,21.3058434H2.6499755v-2.2999878h2.3000491V21.3058434z" id="connector1pin" />
        <path gorn="0.2.5" fill="#AFB0C5" d="M1.3200195,24.9058189v4.9299927h4.9299927v-4.9299927H1.3200195z M4.9500246,28.5058556H2.6499755v-2.3000488h2.3000491V28.5058556z" id="connector0pin" />
    </g>
    <line y2="32.977478" fill="none" stroke-miterlimit="10" stroke="#FFFFFF" x2="14.265728" x1="14.2407284" y1="0.3"  stroke-width="1"/>
    <line y2="32.7999992" fill="none" stroke-miterlimit="10" stroke="#FFFFFF" x2="16.9666672" x1="16.9666672" y1="0.8441447"  stroke-width="1"/>
    <line y2="6.8024778" fill="none" stroke-miterlimit="10" stroke="#FFFFFF" x2="77.6750031" x1="107.4749985" y1="6.8024778"  stroke-width="1"/>
    <path fill="#9B844E" d="M93.6653519,1.0774781H16.5v27.6653538c0,1.5655327,1.2691135,2.8346462,2.8346462,2.8346462H96.5V3.9121237C95.3930054,2.8051257,94.7723541,2.1844761,93.6653519,1.0774781z" />
    <path fill="#C76B28" d="M100.9562607,7.3774657h-3.6562576v24.0500126h7.8000183V11.4659681C103.4814835,9.8690729,102.5747375,8.9743605,100.9562607,7.3774657z M101.6387177,12.5241451c-0.6434784,0-1.16996-0.5194597-1.16996-1.1543541c0-0.6349525,0.5264816-1.1544123,1.16996-1.1544123c0.6435318,0,1.1700134,0.5194597,1.1700134,1.1544123C102.8087311,12.0046854,102.2822495,12.5241451,101.6387177,12.5241451z" />
    <path fill="#F0C33F" d="M106.3999786,11.7299805v4.0999756h-6.7199707c-0.4899902,0-0.8800049-0.3899536-0.8800049-0.8799438v-3.2200317H106.3999786z" />
    <path fill="#2E363C" d="M106.3999786,15.8299561v16.25H90.5500031V7.2799683h8.25v7.6700439c0,0.4899902,0.3900146,0.8799438,0.8800049,0.8799438H106.3999786z" />
    <rect fill="#0B0C15" height="28.3999996" y="0.6582677"  width="73.8666687" x="14.3666668"/>
    <g >
        <path fill="#1F2528" d="M94.9386597,15.8837233h-0.2293701l-2.3405838-1.1190224v-0.3599157l2.2733002,1.115159h0.0080414v-1.2574511h0.2886124V15.8837233z" />
        <path fill="#1F2528" d="M94.9386597,17.9128361h-0.2293701l-2.3405838-1.1187v-0.3599167l2.2733002,1.1148376h0.0080414v-1.2571297h0.2886124V17.9128361z" />
        <path fill="#1F2528" d="M94.6144791,19.0289612v-0.008049l-0.2412872-0.4468365l0.264946-0.0669613l0.3005219,0.561121v0.2968178h-2.5699539v-0.336092H94.6144791z" />
        <path fill="#1F2528" d="M94.6460266,21.8371391v-0.9805927l-0.6602707-0.0988312c0.0078812,0.0592346,0.01577,0.1146049,0.01577,0.2095737c0,0.1976643-0.043457,0.3953285-0.1382675,0.5533943c-0.114769,0.2015266-0.3360901,0.3676434-0.6604385,0.3676434c-0.5018845,0-0.8775711-0.3991909-0.8775711-0.9567719c0-0.2807198,0.0791931-0.5179825,0.1580658-0.6403141l0.264946,0.0869198c-0.0630951,0.1065598-0.1422882,0.3161335-0.1422882,0.5495319c0,0.3280449,0.2134323,0.6087666,0.557579,0.6087666c0.3319016-0.0038643,0.5691681-0.2253494,0.5691681-0.7391472c0-0.1464767-0.0157776-0.2610836-0.0276871-0.3560524l1.2336273,0.1661148v1.2297649H94.6460266z" />
        <path fill="#1F2528" d="M94.6144791,23.0875072v-0.0077248l-0.2412872-0.4468365l0.264946-0.0672836l0.3005219,0.5614433v0.2964954h-2.5699539v-0.3360939H94.6144791z" />
        <path fill="#1F2528" d="M94.693512,25.8284035c0.0038605-0.071146,0-0.1619301-0.0159378-0.2607613c-0.0907822-0.5456676-0.4901352-0.8344383-0.913147-0.8936729v0.0119114c0.1620941,0.122654,0.2964935,0.3360939,0.2964935,0.6206779c0,0.4545612-0.3282013,0.7748814-0.8304138,0.7748814c-0.4703369,0-0.9052582-0.3203201-0.9052582-0.853754c0-0.5498524,0.4268723-0.9094467,1.0951996-0.9094467c0.506073,0,0.9052582,0.1818886,1.1582947,0.4349251c0.2095795,0.213438,0.3401184,0.4980221,0.3795547,0.8222046c0.0159378,0.1030159,0.0197983,0.1899376,0.0197983,0.2530346H94.693512z M93.2108688,25.7295723c0.3676453,0,0.5891342-0.2095757,0.5891342-0.5295715c0-0.2095757-0.1305466-0.4033775-0.3162994-0.4983463c-0.0395966-0.0238209-0.0909424-0.0395966-0.1542053-0.0395966c-0.423172,0.008049-0.7354431,0.201849-0.7354431,0.5656281C92.5940552,25.5280457,92.8432312,25.7295723,93.2108688,25.7295723z" />
        <path fill="#1F2528" d="M92.3687057,26.3908119h0.2134399l0.264946,0.272995c0.6247025,0.6564121,0.9567719,0.9529076,1.3442154,0.9567699c0.2609177,0,0.5022049-0.1265182,0.5022049-0.5099335c0-0.2333984-0.1186295-0.4271984-0.2174606-0.5456676l0.2451477-0.1107445c0.150177,0.1780262,0.2609177,0.4310627,0.2609177,0.7275581c0,0.5533943-0.3795471,0.7867928-0.7471924,0.7867928c-0.4745178,0-0.8581009-0.344141-1.3797836-0.8856239l-0.1899338-0.2057133h-0.0077286v1.1544342h-0.2887726V26.3908119z" />
        <path fill="#1F2528" d="M93.0209351,28.3886986c0.3243408,0,0.5537186,0.1934776,0.688118,0.5099335l0.0117493-0.0038643c0.1345673-0.2849064,0.355896-0.407238,0.5772171-0.407238c0.4072418,0,0.6840973,0.3438187,0.6840973,0.7945175c0,0.4983463-0.3124313,0.7471962-0.6325836,0.7471962c-0.2174606,0-0.4506989-0.1065578-0.6010437-0.4230137h-0.0117493c-0.1265182,0.3203182-0.3518677,0.5179825-0.664299,0.5179825c-0.4468384,0-0.7471924-0.3834171-0.7471924-0.8737125C92.3252487,28.7128792,92.6455688,28.3886986,93.0209351,28.3886986z M93.0370331,29.7723446c0.3122711,0,0.4624481-0.2173023,0.5612793-0.5653057c-0.0869217-0.3003597-0.2847443-0.4626102-0.5297318-0.4626102c-0.2610855-0.0119114-0.4902954,0.1857529-0.4902954,0.5141182C92.5782852,29.5708179,92.7720871,29.7723446,93.0370331,29.7723446z M94.321846,28.8155746c-0.2570572,0-0.3953247,0.1938-0.4745255,0.4902954c0.0751724,0.221487,0.2333984,0.3914661,0.4666367,0.3914661c0.2055511,0,0.4189911-0.1226559,0.4189911-0.4349251C94.7329483,28.9736404,94.5431747,28.8155746,94.321846,28.8155746z" />
    </g>
    <g >
        <path fill="#7BCDCB" d="M16.3999023,6.3051758h0.3007813V6.605957h-0.3007813V6.3051758z M16.3999023,6.9067383h0.3007813v0.3007813h-0.3007813V6.9067383z M16.3999023,7.5083008h0.3007813V7.809082h-0.3007813V7.5083008z M16.3999023,8.1098633h0.3007813v0.3007813h-0.3007813V8.1098633z M16.3999023,8.7114258h0.3007813V9.012207h-0.3007813V8.7114258z M16.3999023,11.1186523h0.3007813v0.3007813h-0.3007813V11.1186523z M16.3999023,11.7202148h0.3007813v0.3007813h-0.3007813V11.7202148z M17.0014648,5.7036133h0.3007813v0.3007813h-0.3007813V5.7036133z M17.0014648,6.3051758h0.3007813V6.605957h-0.3007813V6.3051758z M17.0014648,6.9067383h0.3007813v0.3007813h-0.3007813V6.9067383z M17.0014648,7.5083008h0.3007813V7.809082h-0.3007813V7.5083008z M17.0014648,8.1098633h0.3007813v0.3007813h-0.3007813V8.1098633z M17.0014648,8.7114258h0.3007813V9.012207h-0.3007813V8.7114258z M17.0014648,9.3129883h0.3007813v0.3007813h-0.3007813V9.3129883z M17.0014648,11.1186523h0.3007813v0.3007813h-0.3007813V11.1186523z M17.0014648,11.7202148h0.3007813v0.3007813h-0.3007813V11.7202148z M17.0014648,12.3217773h0.3007813v0.3007813h-0.3007813V12.3217773z M17.6035156,5.7036133h0.3007813v0.3007813h-0.3007813V5.7036133z M17.6035156,6.3051758h0.3007813V6.605957h-0.3007813V6.3051758z M17.6035156,8.7114258h0.3007813V9.012207h-0.3007813V8.7114258z M17.6035156,9.3129883h0.3007813v0.3007813h-0.3007813V9.3129883z M17.6035156,11.7202148h0.3007813v0.3007813h-0.3007813V11.7202148z M17.6035156,12.3217773h0.3007813v0.3007813h-0.3007813V12.3217773z M18.2050781,5.7036133h0.3007813v0.3007813h-0.3007813V5.7036133z M18.2050781,6.3051758h0.3007813V6.605957h-0.3007813V6.3051758z M18.2050781,8.7114258h0.3007813V9.012207h-0.3007813V8.7114258z M18.2050781,9.3129883h0.3007813v0.3007813h-0.3007813V9.3129883z M18.2050781,11.7202148h0.3007813v0.3007813h-0.3007813V11.7202148z M18.2050781,12.3217773h0.3007813v0.3007813h-0.3007813V12.3217773z M18.8066406,5.7036133h0.3007813v0.3007813h-0.3007813V5.7036133z M18.8066406,6.3051758h0.3007813V6.605957h-0.3007813V6.3051758z M18.8066406,8.7114258h0.3007813V9.012207h-0.3007813V8.7114258z M18.8066406,9.3129883h0.3007813v0.3007813h-0.3007813V9.3129883z M18.8066406,11.7202148h0.3007813v0.3007813h-0.3007813V11.7202148z M18.8066406,12.3217773h0.3007813v0.3007813h-0.3007813V12.3217773z M19.4082031,5.7036133h0.3007813v0.3007813h-0.3007813V5.7036133z M19.4082031,6.3051758h0.3007813V6.605957h-0.3007813V6.3051758z M19.4082031,8.7114258h0.3007813V9.012207h-0.3007813V8.7114258z M19.4082031,9.3129883h0.3007813v0.3007813h-0.3007813V9.3129883z M19.4082031,11.7202148h0.3007813v0.3007813h-0.3007813V11.7202148z M19.4082031,12.3217773h0.3007813v0.3007813h-0.3007813V12.3217773z M20.0102539,5.7036133h0.3007813v0.3007813h-0.3007813V5.7036133z M20.0102539,6.3051758h0.3007813V6.605957h-0.3007813V6.3051758z M20.0102539,6.9067383h0.3007813v0.3007813h-0.3007813V6.9067383z M20.0102539,8.7114258h0.3007813V9.012207h-0.3007813V8.7114258z M20.0102539,9.3129883h0.3007813v0.3007813h-0.3007813V9.3129883z M20.0102539,9.9145508h0.3007813v0.3007813h-0.3007813V9.9145508z M20.0102539,10.5170898h0.3007813v0.3007813h-0.3007813V10.5170898z M20.0102539,11.1186523h0.3007813v0.3007813h-0.3007813V11.1186523z M20.0102539,11.7202148h0.3007813v0.3007813h-0.3007813V11.7202148z M20.0102539,12.3217773h0.3007813v0.3007813h-0.3007813V12.3217773z M20.6118164,6.3051758h0.3007813V6.605957h-0.3007813V6.3051758z M20.6118164,6.9067383h0.3007813v0.3007813h-0.3007813V6.9067383z M20.6118164,9.3129883h0.3007813v0.3007813h-0.3007813V9.3129883z M20.6118164,9.9145508h0.3007813v0.3007813h-0.3007813V9.9145508z M20.6118164,10.5170898h0.3007813v0.3007813h-0.3007813V10.5170898z M20.6118164,11.1186523h0.3007813v0.3007813h-0.3007813V11.1186523z M20.6118164,11.7202148h0.3007813v0.3007813h-0.3007813V11.7202148z" />
        <path fill="#7BCDCB" d="M21.8149414,8.1098633h0.3007813v0.3007813h-0.3007813V8.1098633z M21.8149414,8.7114258h0.3007813V9.012207h-0.3007813V8.7114258z M22.4165039,5.7036133h0.3007813v0.3007813h-0.3007813V5.7036133z M22.4165039,6.3051758h0.3007813V6.605957h-0.3007813V6.3051758z M22.4165039,6.9067383h0.3007813v0.3007813h-0.3007813V6.9067383z M22.4165039,7.5083008h0.3007813V7.809082h-0.3007813V7.5083008z M22.4165039,8.1098633h0.3007813v0.3007813h-0.3007813V8.1098633z M22.4165039,8.7114258h0.3007813V9.012207h-0.3007813V8.7114258z M22.4165039,9.3129883h0.3007813v0.3007813h-0.3007813V9.3129883z M22.4165039,9.9145508h0.3007813v0.3007813h-0.3007813V9.9145508z M22.4165039,10.5170898h0.3007813v0.3007813h-0.3007813V10.5170898z M22.4165039,11.1186523h0.3007813v0.3007813h-0.3007813V11.1186523z M22.4165039,11.7202148h0.3007813v0.3007813h-0.3007813V11.7202148z M23.0185547,5.7036133h0.3007813v0.3007813h-0.3007813V5.7036133z M23.0185547,6.3051758h0.3007813V6.605957h-0.3007813V6.3051758z M23.0185547,6.9067383h0.3007813v0.3007813h-0.3007813V6.9067383z M23.0185547,7.5083008h0.3007813V7.809082h-0.3007813V7.5083008z M23.0185547,8.1098633h0.3007813v0.3007813h-0.3007813V8.1098633z M23.0185547,8.7114258h0.3007813V9.012207h-0.3007813V8.7114258z M23.0185547,9.3129883h0.3007813v0.3007813h-0.3007813V9.3129883z M23.0185547,9.9145508h0.3007813v0.3007813h-0.3007813V9.9145508z M23.0185547,10.5170898h0.3007813v0.3007813h-0.3007813V10.5170898z M23.0185547,11.1186523h0.3007813v0.3007813h-0.3007813V11.1186523z M23.0185547,11.7202148h0.3007813v0.3007813h-0.3007813V11.7202148z M23.0185547,12.3217773h0.3007813v0.3007813h-0.3007813V12.3217773z M23.6201172,8.1098633h0.3007813v0.3007813h-0.3007813V8.1098633z M23.6201172,8.7114258h0.3007813V9.012207h-0.3007813V8.7114258z M23.6201172,11.7202148h0.3007813v0.3007813h-0.3007813V11.7202148z M23.6201172,12.3217773h0.3007813v0.3007813h-0.3007813V12.3217773z M24.2216797,8.1098633h0.3007813v0.3007813h-0.3007813V8.1098633z M24.2216797,8.7114258h0.3007813V9.012207h-0.3007813V8.7114258z M24.2216797,11.7202148h0.3007813v0.3007813h-0.3007813V11.7202148z M24.2216797,12.3217773h0.3007813v0.3007813h-0.3007813V12.3217773z M24.8232422,11.1186523h0.3007813v0.3007813h-0.3007813V11.1186523z M24.8232422,11.7202148h0.3007813v0.3007813h-0.3007813V11.7202148z M24.8232422,12.3217773h0.3007813v0.3007813h-0.3007813V12.3217773z M25.425293,11.1186523h0.3007813v0.3007813H25.425293V11.1186523z M25.425293,11.7202148h0.3007813v0.3007813H25.425293V11.7202148z" />
        <path fill="#7BCDCB" d="M26.628418,8.1098633h0.3007813v0.3007813H26.628418V8.1098633z M26.628418,8.7114258h0.3007813V9.012207H26.628418V8.7114258z M26.628418,9.3129883h0.3007813v0.3007813H26.628418V9.3129883z M26.628418,9.9145508h0.3007813v0.3007813H26.628418V9.9145508z M26.628418,10.5170898h0.3007813v0.3007813H26.628418V10.5170898z M26.628418,11.1186523h0.3007813v0.3007813H26.628418V11.1186523z M26.628418,11.7202148h0.3007813v0.3007813H26.628418V11.7202148z M27.2299805,8.1098633h0.3007813v0.3007813h-0.3007813V8.1098633z M27.2299805,8.7114258h0.3007813V9.012207h-0.3007813V8.7114258z M27.2299805,9.3129883h0.3007813v0.3007813h-0.3007813V9.3129883z M27.2299805,9.9145508h0.3007813v0.3007813h-0.3007813V9.9145508z M27.2299805,10.5170898h0.3007813v0.3007813h-0.3007813V10.5170898z M27.2299805,11.1186523h0.3007813v0.3007813h-0.3007813V11.1186523z M27.2299805,11.7202148h0.3007813v0.3007813h-0.3007813V11.7202148z M27.2299805,12.3217773h0.3007813v0.3007813h-0.3007813V12.3217773z M27.8320313,11.7202148h0.3007813v0.3007813h-0.3007813V11.7202148z M27.8320313,12.3217773h0.3007813v0.3007813h-0.3007813V12.3217773z M28.4335938,11.7202148h0.3007813v0.3007813h-0.3007813V11.7202148z M28.4335938,12.3217773h0.3007813v0.3007813h-0.3007813V12.3217773z M29.0351563,11.7202148h0.3007813v0.3007813h-0.3007813V11.7202148z M29.0351563,12.3217773h0.3007813v0.3007813h-0.3007813V12.3217773z M29.6367188,8.1098633H29.9375v0.3007813h-0.3007813V8.1098633z M29.6367188,8.7114258H29.9375V9.012207h-0.3007813V8.7114258z M29.6367188,9.3129883H29.9375v0.3007813h-0.3007813V9.3129883z M29.6367188,9.9145508H29.9375v0.3007813h-0.3007813V9.9145508z M29.6367188,10.5170898H29.9375v0.3007813h-0.3007813V10.5170898z M29.6367188,11.1186523H29.9375v0.3007813h-0.3007813V11.1186523z M29.6367188,11.7202148H29.9375v0.3007813h-0.3007813V11.7202148z M29.6367188,12.3217773H29.9375v0.3007813h-0.3007813V12.3217773z M30.2387695,8.1098633h0.3007813v0.3007813h-0.3007813V8.1098633z M30.2387695,8.7114258h0.3007813V9.012207h-0.3007813V8.7114258z M30.2387695,9.3129883h0.3007813v0.3007813h-0.3007813V9.3129883z M30.2387695,9.9145508h0.3007813v0.3007813h-0.3007813V9.9145508z M30.2387695,10.5170898h0.3007813v0.3007813h-0.3007813V10.5170898z M30.2387695,11.1186523h0.3007813v0.3007813h-0.3007813V11.1186523z M30.2387695,11.7202148h0.3007813v0.3007813h-0.3007813V11.7202148z" />
        <path fill="#7BCDCB" d="M31.4418945,8.7114258h0.3007813V9.012207h-0.3007813V8.7114258z M31.4418945,9.3129883h0.3007813v0.3007813h-0.3007813V9.3129883z M31.4418945,9.9145508h0.3007813v0.3007813h-0.3007813V9.9145508z M31.4418945,10.5170898h0.3007813v0.3007813h-0.3007813V10.5170898z M31.4418945,11.1186523h0.3007813v0.3007813h-0.3007813V11.1186523z M31.4418945,11.7202148h0.3007813v0.3007813h-0.3007813V11.7202148z M32.043457,8.1098633h0.3007813v0.3007813H32.043457V8.1098633z M32.043457,8.7114258h0.3007813V9.012207H32.043457V8.7114258z M32.043457,9.3129883h0.3007813v0.3007813H32.043457V9.3129883z M32.043457,9.9145508h0.3007813v0.3007813H32.043457V9.9145508z M32.043457,10.5170898h0.3007813v0.3007813H32.043457V10.5170898z M32.043457,11.1186523h0.3007813v0.3007813H32.043457V11.1186523z M32.043457,11.7202148h0.3007813v0.3007813H32.043457V11.7202148z M32.043457,12.3217773h0.3007813v0.3007813H32.043457V12.3217773z M32.6455078,8.1098633h0.3007813v0.3007813h-0.3007813V8.1098633z M32.6455078,8.7114258h0.3007813V9.012207h-0.3007813V8.7114258z M32.6455078,11.7202148h0.3007813v0.3007813h-0.3007813V11.7202148z M32.6455078,12.3217773h0.3007813v0.3007813h-0.3007813V12.3217773z M33.2470703,8.1098633h0.3007813v0.3007813h-0.3007813V8.1098633z M33.2470703,8.7114258h0.3007813V9.012207h-0.3007813V8.7114258z M33.2470703,11.7202148h0.3007813v0.3007813h-0.3007813V11.7202148z M33.2470703,12.3217773h0.3007813v0.3007813h-0.3007813V12.3217773z M33.8486328,8.1098633h0.3007813v0.3007813h-0.3007813V8.1098633z M33.8486328,8.7114258h0.3007813V9.012207h-0.3007813V8.7114258z M33.8486328,11.7202148h0.3007813v0.3007813h-0.3007813V11.7202148z M33.8486328,12.3217773h0.3007813v0.3007813h-0.3007813V12.3217773z M34.4501953,5.7036133h0.3007813v0.3007813h-0.3007813V5.7036133z M34.4501953,6.3051758h0.3007813V6.605957h-0.3007813V6.3051758z M34.4501953,6.9067383h0.3007813v0.3007813h-0.3007813V6.9067383z M34.4501953,7.5083008h0.3007813V7.809082h-0.3007813V7.5083008z M34.4501953,8.1098633h0.3007813v0.3007813h-0.3007813V8.1098633z M34.4501953,8.7114258h0.3007813V9.012207h-0.3007813V8.7114258z M34.4501953,9.3129883h0.3007813v0.3007813h-0.3007813V9.3129883z M34.4501953,9.9145508h0.3007813v0.3007813h-0.3007813V9.9145508z M34.4501953,10.5170898h0.3007813v0.3007813h-0.3007813V10.5170898z M34.4501953,11.1186523h0.3007813v0.3007813h-0.3007813V11.1186523z M34.4501953,11.7202148h0.3007813v0.3007813h-0.3007813V11.7202148z M34.4501953,12.3217773h0.3007813v0.3007813h-0.3007813V12.3217773z M35.0522461,5.7036133h0.3007813v0.3007813h-0.3007813V5.7036133z M35.0522461,6.3051758h0.3007813V6.605957h-0.3007813V6.3051758z M35.0522461,6.9067383h0.3007813v0.3007813h-0.3007813V6.9067383z M35.0522461,7.5083008h0.3007813V7.809082h-0.3007813V7.5083008z M35.0522461,8.1098633h0.3007813v0.3007813h-0.3007813V8.1098633z M35.0522461,8.7114258h0.3007813V9.012207h-0.3007813V8.7114258z M35.0522461,9.3129883h0.3007813v0.3007813h-0.3007813V9.3129883z M35.0522461,9.9145508h0.3007813v0.3007813h-0.3007813V9.9145508z M35.0522461,10.5170898h0.3007813v0.3007813h-0.3007813V10.5170898z M35.0522461,11.1186523h0.3007813v0.3007813h-0.3007813V11.1186523z M35.0522461,11.7202148h0.3007813v0.3007813h-0.3007813V11.7202148z M35.0522461,12.3217773h0.3007813v0.3007813h-0.3007813V12.3217773z" />
        <path fill="#7BCDCB" d="M36.2553711,8.1098633h0.3007813v0.3007813h-0.3007813V8.1098633z M36.2553711,8.7114258h0.3007813V9.012207h-0.3007813V8.7114258z M36.2553711,11.7202148h0.3007813v0.3007813h-0.3007813V11.7202148z M36.2553711,12.3217773h0.3007813v0.3007813h-0.3007813V12.3217773z M36.8569336,8.1098633h0.3007813v0.3007813h-0.3007813V8.1098633z M36.8569336,8.7114258h0.3007813V9.012207h-0.3007813V8.7114258z M36.8569336,11.7202148h0.3007813v0.3007813h-0.3007813V11.7202148z M36.8569336,12.3217773h0.3007813v0.3007813h-0.3007813V12.3217773z M37.4589844,6.3051758h0.3007813V6.605957h-0.3007813V6.3051758z M37.4589844,6.9067383h0.3007813v0.3007813h-0.3007813V6.9067383z M37.4589844,8.1098633h0.3007813v0.3007813h-0.3007813V8.1098633z M37.4589844,8.7114258h0.3007813V9.012207h-0.3007813V8.7114258z M37.4589844,9.3129883h0.3007813v0.3007813h-0.3007813V9.3129883z M37.4589844,9.9145508h0.3007813v0.3007813h-0.3007813V9.9145508z M37.4589844,10.5170898h0.3007813v0.3007813h-0.3007813V10.5170898z M37.4589844,11.1186523h0.3007813v0.3007813h-0.3007813V11.1186523z M37.4589844,11.7202148h0.3007813v0.3007813h-0.3007813V11.7202148z M37.4589844,12.3217773h0.3007813v0.3007813h-0.3007813V12.3217773z M38.0605469,6.3051758h0.3007813V6.605957h-0.3007813V6.3051758z M38.0605469,6.9067383h0.3007813v0.3007813h-0.3007813V6.9067383z M38.0605469,8.1098633h0.3007813v0.3007813h-0.3007813V8.1098633z M38.0605469,8.7114258h0.3007813V9.012207h-0.3007813V8.7114258z M38.0605469,9.3129883h0.3007813v0.3007813h-0.3007813V9.3129883z M38.0605469,9.9145508h0.3007813v0.3007813h-0.3007813V9.9145508z M38.0605469,10.5170898h0.3007813v0.3007813h-0.3007813V10.5170898z M38.0605469,11.1186523h0.3007813v0.3007813h-0.3007813V11.1186523z M38.0605469,11.7202148h0.3007813v0.3007813h-0.3007813V11.7202148z M38.0605469,12.3217773h0.3007813v0.3007813h-0.3007813V12.3217773z M38.6621094,11.7202148h0.3007813v0.3007813h-0.3007813V11.7202148z M38.6621094,12.3217773h0.3007813v0.3007813h-0.3007813V12.3217773z M39.2636719,11.7202148h0.3007813v0.3007813h-0.3007813V11.7202148z M39.2636719,12.3217773h0.3007813v0.3007813h-0.3007813V12.3217773z" />
        <path fill="#7BCDCB" d="M40.4672852,8.7114258h0.3007813V9.012207h-0.3007813V8.7114258z M40.4672852,9.3129883h0.3007813v0.3007813h-0.3007813V9.3129883z M40.4672852,9.9145508h0.3007813v0.3007813h-0.3007813V9.9145508z M40.4672852,10.5170898h0.3007813v0.3007813h-0.3007813V10.5170898z M40.4672852,11.1186523h0.3007813v0.3007813h-0.3007813V11.1186523z M40.4672852,11.7202148h0.3007813v0.3007813h-0.3007813V11.7202148z M41.0688477,8.1098633h0.3007813v0.3007813h-0.3007813V8.1098633z M41.0688477,8.7114258h0.3007813V9.012207h-0.3007813V8.7114258z M41.0688477,9.3129883h0.3007813v0.3007813h-0.3007813V9.3129883z M41.0688477,9.9145508h0.3007813v0.3007813h-0.3007813V9.9145508z M41.0688477,10.5170898h0.3007813v0.3007813h-0.3007813V10.5170898z M41.0688477,11.1186523h0.3007813v0.3007813h-0.3007813V11.1186523z M41.0688477,11.7202148h0.3007813v0.3007813h-0.3007813V11.7202148z M41.0688477,12.3217773h0.3007813v0.3007813h-0.3007813V12.3217773z M41.6708984,8.1098633h0.3007813v0.3007813h-0.3007813V8.1098633z M41.6708984,8.7114258h0.3007813V9.012207h-0.3007813V8.7114258z M41.6708984,11.7202148h0.3007813v0.3007813h-0.3007813V11.7202148z M41.6708984,12.3217773h0.3007813v0.3007813h-0.3007813V12.3217773z M42.2724609,8.1098633h0.3007813v0.3007813h-0.3007813V8.1098633z M42.2724609,8.7114258h0.3007813V9.012207h-0.3007813V8.7114258z M42.2724609,11.7202148h0.3007813v0.3007813h-0.3007813V11.7202148z M42.2724609,12.3217773h0.3007813v0.3007813h-0.3007813V12.3217773z M42.8740234,8.1098633h0.3007813v0.3007813h-0.3007813V8.1098633z M42.8740234,8.7114258h0.3007813V9.012207h-0.3007813V8.7114258z M42.8740234,11.7202148h0.3007813v0.3007813h-0.3007813V11.7202148z M42.8740234,12.3217773h0.3007813v0.3007813h-0.3007813V12.3217773z M43.4755859,8.1098633h0.3007813v0.3007813h-0.3007813V8.1098633z M43.4755859,8.7114258h0.3007813V9.012207h-0.3007813V8.7114258z M43.4755859,9.3129883h0.3007813v0.3007813h-0.3007813V9.3129883z M43.4755859,9.9145508h0.3007813v0.3007813h-0.3007813V9.9145508z M43.4755859,10.5170898h0.3007813v0.3007813h-0.3007813V10.5170898z M43.4755859,11.1186523h0.3007813v0.3007813h-0.3007813V11.1186523z M43.4755859,11.7202148h0.3007813v0.3007813h-0.3007813V11.7202148z M43.4755859,12.3217773h0.3007813v0.3007813h-0.3007813V12.3217773z M44.0776367,8.7114258h0.3007813V9.012207h-0.3007813V8.7114258z M44.0776367,9.3129883h0.3007813v0.3007813h-0.3007813V9.3129883z M44.0776367,9.9145508h0.3007813v0.3007813h-0.3007813V9.9145508z M44.0776367,10.5170898h0.3007813v0.3007813h-0.3007813V10.5170898z M44.0776367,11.1186523h0.3007813v0.3007813h-0.3007813V11.1186523z M44.0776367,11.7202148h0.3007813v0.3007813h-0.3007813V11.7202148z" />
        <path fill="#7BCDCB" d="M45.2802734,5.7036133h0.3007813v0.3007813h-0.3007813V5.7036133z M45.2802734,6.3051758h0.3007813V6.605957h-0.3007813V6.3051758z M45.2802734,6.9067383h0.3007813v0.3007813h-0.3007813V6.9067383z M45.2802734,7.5083008h0.3007813V7.809082h-0.3007813V7.5083008z M45.2802734,8.1098633h0.3007813v0.3007813h-0.3007813V8.1098633z M45.2802734,8.7114258h0.3007813V9.012207h-0.3007813V8.7114258z M45.2802734,9.3129883h0.3007813v0.3007813h-0.3007813V9.3129883z M45.2802734,9.9145508h0.3007813v0.3007813h-0.3007813V9.9145508z M45.2802734,10.5170898h0.3007813v0.3007813h-0.3007813V10.5170898z M45.2802734,11.1186523h0.3007813v0.3007813h-0.3007813V11.1186523z M45.2802734,11.7202148h0.3007813v0.3007813h-0.3007813V11.7202148z M45.2802734,12.3217773h0.3007813v0.3007813h-0.3007813V12.3217773z M45.8818359,5.7036133h0.3007813v0.3007813h-0.3007813V5.7036133z M45.8818359,6.3051758h0.3007813V6.605957h-0.3007813V6.3051758z M45.8818359,6.9067383h0.3007813v0.3007813h-0.3007813V6.9067383z M45.8818359,7.5083008h0.3007813V7.809082h-0.3007813V7.5083008z M45.8818359,8.1098633h0.3007813v0.3007813h-0.3007813V8.1098633z M45.8818359,8.7114258h0.3007813V9.012207h-0.3007813V8.7114258z M45.8818359,9.3129883h0.3007813v0.3007813h-0.3007813V9.3129883z M45.8818359,9.9145508h0.3007813v0.3007813h-0.3007813V9.9145508z M45.8818359,10.5170898h0.3007813v0.3007813h-0.3007813V10.5170898z M45.8818359,11.1186523h0.3007813v0.3007813h-0.3007813V11.1186523z M45.8818359,11.7202148h0.3007813v0.3007813h-0.3007813V11.7202148z M45.8818359,12.3217773h0.3007813v0.3007813h-0.3007813V12.3217773z M46.4838867,5.7036133h0.3007813v0.3007813h-0.3007813V5.7036133z M46.4838867,6.3051758h0.3007813V6.605957h-0.3007813V6.3051758z M46.4838867,9.3129883h0.3007813v0.3007813h-0.3007813V9.3129883z M46.4838867,9.9145508h0.3007813v0.3007813h-0.3007813V9.9145508z M47.0854492,5.7036133h0.3007813v0.3007813h-0.3007813V5.7036133z M47.0854492,6.3051758h0.3007813V6.605957h-0.3007813V6.3051758z M47.0854492,9.3129883h0.3007813v0.3007813h-0.3007813V9.3129883z M47.0854492,9.9145508h0.3007813v0.3007813h-0.3007813V9.9145508z M47.6870117,5.7036133h0.3007813v0.3007813h-0.3007813V5.7036133z M47.6870117,6.3051758h0.3007813V6.605957h-0.3007813V6.3051758z M47.6870117,9.3129883h0.3007813v0.3007813h-0.3007813V9.3129883z M47.6870117,9.9145508h0.3007813v0.3007813h-0.3007813V9.9145508z M48.2885742,5.7036133h0.3007813v0.3007813h-0.3007813V5.7036133z M48.2885742,6.3051758h0.3007813V6.605957h-0.3007813V6.3051758z M48.2885742,9.3129883h0.3007813v0.3007813h-0.3007813V9.3129883z M48.2885742,9.9145508h0.3007813v0.3007813h-0.3007813V9.9145508z M48.890625,5.7036133h0.3007813v0.3007813H48.890625V5.7036133z M48.890625,6.3051758h0.3007813V6.605957H48.890625V6.3051758z M48.890625,6.9067383h0.3007813v0.3007813H48.890625V6.9067383z M48.890625,7.5083008h0.3007813V7.809082H48.890625V7.5083008z M48.890625,8.1098633h0.3007813v0.3007813H48.890625V8.1098633z M48.890625,8.7114258h0.3007813V9.012207H48.890625V8.7114258z M48.890625,9.3129883h0.3007813v0.3007813H48.890625V9.3129883z M48.890625,9.9145508h0.3007813v0.3007813H48.890625V9.9145508z M49.4921875,6.3051758h0.3007813V6.605957h-0.3007813V6.3051758z M49.4921875,6.9067383h0.3007813v0.3007813h-0.3007813V6.9067383z M49.4921875,7.5083008h0.3007813V7.809082h-0.3007813V7.5083008z M49.4921875,8.1098633h0.3007813v0.3007813h-0.3007813V8.1098633z M49.4921875,8.7114258h0.3007813V9.012207h-0.3007813V8.7114258z M49.4921875,9.3129883h0.3007813v0.3007813h-0.3007813V9.3129883z" />
        <path fill="#7BCDCB" d="M50.6958008,8.1098633h0.3007813v0.3007813h-0.3007813V8.1098633z M50.6958008,8.7114258h0.3007813V9.012207h-0.3007813V8.7114258z M50.6958008,11.7202148h0.3007813v0.3007813h-0.3007813V11.7202148z M50.6958008,12.3217773h0.3007813v0.3007813h-0.3007813V12.3217773z M51.2973633,8.1098633h0.3007813v0.3007813h-0.3007813V8.1098633z M51.2973633,8.7114258h0.3007813V9.012207h-0.3007813V8.7114258z M51.2973633,11.7202148h0.3007813v0.3007813h-0.3007813V11.7202148z M51.2973633,12.3217773h0.3007813v0.3007813h-0.3007813V12.3217773z M51.8994141,6.3051758h0.3007813V6.605957h-0.3007813V6.3051758z M51.8994141,6.9067383h0.3007813v0.3007813h-0.3007813V6.9067383z M51.8994141,8.1098633h0.3007813v0.3007813h-0.3007813V8.1098633z M51.8994141,8.7114258h0.3007813V9.012207h-0.3007813V8.7114258z M51.8994141,9.3129883h0.3007813v0.3007813h-0.3007813V9.3129883z M51.8994141,9.9145508h0.3007813v0.3007813h-0.3007813V9.9145508z M51.8994141,10.5170898h0.3007813v0.3007813h-0.3007813V10.5170898z M51.8994141,11.1186523h0.3007813v0.3007813h-0.3007813V11.1186523z M51.8994141,11.7202148h0.3007813v0.3007813h-0.3007813V11.7202148z M51.8994141,12.3217773h0.3007813v0.3007813h-0.3007813V12.3217773z M52.5009766,6.3051758h0.3007813V6.605957h-0.3007813V6.3051758z M52.5009766,6.9067383h0.3007813v0.3007813h-0.3007813V6.9067383z M52.5009766,8.1098633h0.3007813v0.3007813h-0.3007813V8.1098633z M52.5009766,8.7114258h0.3007813V9.012207h-0.3007813V8.7114258z M52.5009766,9.3129883h0.3007813v0.3007813h-0.3007813V9.3129883z M52.5009766,9.9145508h0.3007813v0.3007813h-0.3007813V9.9145508z M52.5009766,10.5170898h0.3007813v0.3007813h-0.3007813V10.5170898z M52.5009766,11.1186523h0.3007813v0.3007813h-0.3007813V11.1186523z M52.5009766,11.7202148h0.3007813v0.3007813h-0.3007813V11.7202148z M52.5009766,12.3217773h0.3007813v0.3007813h-0.3007813V12.3217773z M53.1025391,11.7202148h0.3007813v0.3007813h-0.3007813V11.7202148z M53.1025391,12.3217773h0.3007813v0.3007813h-0.3007813V12.3217773z M53.7041016,11.7202148h0.3007813v0.3007813h-0.3007813V11.7202148z M53.7041016,12.3217773h0.3007813v0.3007813h-0.3007813V12.3217773z" />
        <path fill="#7BCDCB" d="M54.9072266,8.7114258h0.3007813V9.012207h-0.3007813V8.7114258z M54.9072266,9.3129883h0.3007813v0.3007813h-0.3007813V9.3129883z M54.9072266,9.9145508h0.3007813v0.3007813h-0.3007813V9.9145508z M54.9072266,10.5170898h0.3007813v0.3007813h-0.3007813V10.5170898z M54.9072266,11.1186523h0.3007813v0.3007813h-0.3007813V11.1186523z M54.9072266,11.7202148h0.3007813v0.3007813h-0.3007813V11.7202148z M55.5087891,8.1098633h0.3007813v0.3007813h-0.3007813V8.1098633z M55.5087891,8.7114258h0.3007813V9.012207h-0.3007813V8.7114258z M55.5087891,9.3129883h0.3007813v0.3007813h-0.3007813V9.3129883z M55.5087891,9.9145508h0.3007813v0.3007813h-0.3007813V9.9145508z M55.5087891,10.5170898h0.3007813v0.3007813h-0.3007813V10.5170898z M55.5087891,11.1186523h0.3007813v0.3007813h-0.3007813V11.1186523z M55.5087891,11.7202148h0.3007813v0.3007813h-0.3007813V11.7202148z M55.5087891,12.3217773h0.3007813v0.3007813h-0.3007813V12.3217773z M56.1108398,8.1098633h0.3007813v0.3007813h-0.3007813V8.1098633z M56.1108398,8.7114258h0.3007813V9.012207h-0.3007813V8.7114258z M56.1108398,9.9145508h0.3007813v0.3007813h-0.3007813V9.9145508z M56.1108398,10.5170898h0.3007813v0.3007813h-0.3007813V10.5170898z M56.1108398,11.7202148h0.3007813v0.3007813h-0.3007813V11.7202148z M56.1108398,12.3217773h0.3007813v0.3007813h-0.3007813V12.3217773z M56.7124023,8.1098633h0.3007813v0.3007813h-0.3007813V8.1098633z M56.7124023,8.7114258h0.3007813V9.012207h-0.3007813V8.7114258z M56.7124023,9.9145508h0.3007813v0.3007813h-0.3007813V9.9145508z M56.7124023,10.5170898h0.3007813v0.3007813h-0.3007813V10.5170898z M56.7124023,11.7202148h0.3007813v0.3007813h-0.3007813V11.7202148z M56.7124023,12.3217773h0.3007813v0.3007813h-0.3007813V12.3217773z M57.3139648,8.1098633h0.3007813v0.3007813h-0.3007813V8.1098633z M57.3139648,8.7114258h0.3007813V9.012207h-0.3007813V8.7114258z M57.3139648,9.9145508h0.3007813v0.3007813h-0.3007813V9.9145508z M57.3139648,10.5170898h0.3007813v0.3007813h-0.3007813V10.5170898z M57.3139648,11.7202148h0.3007813v0.3007813h-0.3007813V11.7202148z M57.3139648,12.3217773h0.3007813v0.3007813h-0.3007813V12.3217773z M57.9155273,8.1098633h0.3007813v0.3007813h-0.3007813V8.1098633z M57.9155273,8.7114258h0.3007813V9.012207h-0.3007813V8.7114258z M57.9155273,9.3129883h0.3007813v0.3007813h-0.3007813V9.3129883z M57.9155273,9.9145508h0.3007813v0.3007813h-0.3007813V9.9145508z M57.9155273,10.5170898h0.3007813v0.3007813h-0.3007813V10.5170898z M57.9155273,11.7202148h0.3007813v0.3007813h-0.3007813V11.7202148z M57.9155273,12.3217773h0.3007813v0.3007813h-0.3007813V12.3217773z M58.5175781,8.7114258h0.3007813V9.012207h-0.3007813V8.7114258z M58.5175781,9.3129883h0.3007813v0.3007813h-0.3007813V9.3129883z M58.5175781,9.9145508h0.3007813v0.3007813h-0.3007813V9.9145508z M58.5175781,10.5170898h0.3007813v0.3007813h-0.3007813V10.5170898z M58.5175781,11.7202148h0.3007813v0.3007813h-0.3007813V11.7202148z M58.5175781,12.3217773h0.3007813v0.3007813h-0.3007813V12.3217773z" />
        <path fill="#7BCDCB" d="M59.7207031,8.1098633h0.3007813v0.3007813h-0.3007813V8.1098633z M59.7207031,8.7114258h0.3007813V9.012207h-0.3007813V8.7114258z M60.3222656,5.7036133h0.3007813v0.3007813h-0.3007813V5.7036133z M60.3222656,6.3051758h0.3007813V6.605957h-0.3007813V6.3051758z M60.3222656,6.9067383h0.3007813v0.3007813h-0.3007813V6.9067383z M60.3222656,7.5083008h0.3007813V7.809082h-0.3007813V7.5083008z M60.3222656,8.1098633h0.3007813v0.3007813h-0.3007813V8.1098633z M60.3222656,8.7114258h0.3007813V9.012207h-0.3007813V8.7114258z M60.3222656,9.3129883h0.3007813v0.3007813h-0.3007813V9.3129883z M60.3222656,9.9145508h0.3007813v0.3007813h-0.3007813V9.9145508z M60.3222656,10.5170898h0.3007813v0.3007813h-0.3007813V10.5170898z M60.3222656,11.1186523h0.3007813v0.3007813h-0.3007813V11.1186523z M60.3222656,11.7202148h0.3007813v0.3007813h-0.3007813V11.7202148z M60.9243164,5.7036133h0.3007813v0.3007813h-0.3007813V5.7036133z M60.9243164,6.3051758h0.3007813V6.605957h-0.3007813V6.3051758z M60.9243164,6.9067383h0.3007813v0.3007813h-0.3007813V6.9067383z M60.9243164,7.5083008h0.3007813V7.809082h-0.3007813V7.5083008z M60.9243164,8.1098633h0.3007813v0.3007813h-0.3007813V8.1098633z M60.9243164,8.7114258h0.3007813V9.012207h-0.3007813V8.7114258z M60.9243164,9.3129883h0.3007813v0.3007813h-0.3007813V9.3129883z M60.9243164,9.9145508h0.3007813v0.3007813h-0.3007813V9.9145508z M60.9243164,10.5170898h0.3007813v0.3007813h-0.3007813V10.5170898z M60.9243164,11.1186523h0.3007813v0.3007813h-0.3007813V11.1186523z M60.9243164,11.7202148h0.3007813v0.3007813h-0.3007813V11.7202148z M60.9243164,12.3217773h0.3007813v0.3007813h-0.3007813V12.3217773z M61.5258789,8.1098633h0.3007813v0.3007813h-0.3007813V8.1098633z M61.5258789,8.7114258h0.3007813V9.012207h-0.3007813V8.7114258z M61.5258789,11.7202148h0.3007813v0.3007813h-0.3007813V11.7202148z M61.5258789,12.3217773h0.3007813v0.3007813h-0.3007813V12.3217773z M62.1274414,8.1098633h0.3007813v0.3007813h-0.3007813V8.1098633z M62.1274414,8.7114258h0.3007813V9.012207h-0.3007813V8.7114258z M62.1274414,11.7202148h0.3007813v0.3007813h-0.3007813V11.7202148z M62.1274414,12.3217773h0.3007813v0.3007813h-0.3007813V12.3217773z M62.7290039,11.1186523h0.3007813v0.3007813h-0.3007813V11.1186523z M62.7290039,11.7202148h0.3007813v0.3007813h-0.3007813V11.7202148z M62.7290039,12.3217773h0.3007813v0.3007813h-0.3007813V12.3217773z M63.3310547,11.1186523h0.3007813v0.3007813h-0.3007813V11.1186523z M63.3310547,11.7202148h0.3007813v0.3007813h-0.3007813V11.7202148z" />
        <path fill="#7BCDCB" d="M64.5341797,8.7114258h0.3007813V9.012207h-0.3007813V8.7114258z M64.5341797,9.3129883h0.3007813v0.3007813h-0.3007813V9.3129883z M64.5341797,9.9145508h0.3007813v0.3007813h-0.3007813V9.9145508z M64.5341797,10.5170898h0.3007813v0.3007813h-0.3007813V10.5170898z M64.5341797,11.1186523h0.3007813v0.3007813h-0.3007813V11.1186523z M64.5341797,11.7202148h0.3007813v0.3007813h-0.3007813V11.7202148z M65.1357422,8.1098633h0.3007813v0.3007813h-0.3007813V8.1098633z M65.1357422,8.7114258h0.3007813V9.012207h-0.3007813V8.7114258z M65.1357422,9.3129883h0.3007813v0.3007813h-0.3007813V9.3129883z M65.1357422,9.9145508h0.3007813v0.3007813h-0.3007813V9.9145508z M65.1357422,10.5170898h0.3007813v0.3007813h-0.3007813V10.5170898z M65.1357422,11.1186523h0.3007813v0.3007813h-0.3007813V11.1186523z M65.1357422,11.7202148h0.3007813v0.3007813h-0.3007813V11.7202148z M65.1357422,12.3217773h0.3007813v0.3007813h-0.3007813V12.3217773z M65.737793,8.1098633h0.3007813v0.3007813H65.737793V8.1098633z M65.737793,8.7114258h0.3007813V9.012207H65.737793V8.7114258z M65.737793,9.9145508h0.3007813v0.3007813H65.737793V9.9145508z M65.737793,10.5170898h0.3007813v0.3007813H65.737793V10.5170898z M65.737793,11.7202148h0.3007813v0.3007813H65.737793V11.7202148z M65.737793,12.3217773h0.3007813v0.3007813H65.737793V12.3217773z M66.3393555,8.1098633h0.3007813v0.3007813h-0.3007813V8.1098633z M66.3393555,8.7114258h0.3007813V9.012207h-0.3007813V8.7114258z M66.3393555,9.9145508h0.3007813v0.3007813h-0.3007813V9.9145508z M66.3393555,10.5170898h0.3007813v0.3007813h-0.3007813V10.5170898z M66.3393555,11.7202148h0.3007813v0.3007813h-0.3007813V11.7202148z M66.3393555,12.3217773h0.3007813v0.3007813h-0.3007813V12.3217773z M66.940918,8.1098633h0.3007813v0.3007813H66.940918V8.1098633z M66.940918,8.7114258h0.3007813V9.012207H66.940918V8.7114258z M66.940918,9.9145508h0.3007813v0.3007813H66.940918V9.9145508z M66.940918,10.5170898h0.3007813v0.3007813H66.940918V10.5170898z M66.940918,11.7202148h0.3007813v0.3007813H66.940918V11.7202148z M66.940918,12.3217773h0.3007813v0.3007813H66.940918V12.3217773z M67.5424805,8.1098633h0.3007813v0.3007813h-0.3007813V8.1098633z M67.5424805,8.7114258h0.3007813V9.012207h-0.3007813V8.7114258z M67.5424805,9.3129883h0.3007813v0.3007813h-0.3007813V9.3129883z M67.5424805,9.9145508h0.3007813v0.3007813h-0.3007813V9.9145508z M67.5424805,10.5170898h0.3007813v0.3007813h-0.3007813V10.5170898z M67.5424805,11.7202148h0.3007813v0.3007813h-0.3007813V11.7202148z M67.5424805,12.3217773h0.3007813v0.3007813h-0.3007813V12.3217773z M68.1445313,8.7114258h0.3007813V9.012207h-0.3007813V8.7114258z M68.1445313,9.3129883h0.3007813v0.3007813h-0.3007813V9.3129883z M68.1445313,9.9145508h0.3007813v0.3007813h-0.3007813V9.9145508z M68.1445313,10.5170898h0.3007813v0.3007813h-0.3007813V10.5170898z M68.1445313,11.7202148h0.3007813v0.3007813h-0.3007813V11.7202148z M68.1445313,12.3217773h0.3007813v0.3007813h-0.3007813V12.3217773z" />
        <path fill="#7BCDCB" d="M69.3476563,8.1098633h0.3007813v0.3007813h-0.3007813V8.1098633z M69.3476563,8.7114258h0.3007813V9.012207h-0.3007813V8.7114258z M69.3476563,9.3129883h0.3007813v0.3007813h-0.3007813V9.3129883z M69.3476563,9.9145508h0.3007813v0.3007813h-0.3007813V9.9145508z M69.3476563,10.5170898h0.3007813v0.3007813h-0.3007813V10.5170898z M69.3476563,11.1186523h0.3007813v0.3007813h-0.3007813V11.1186523z M69.3476563,11.7202148h0.3007813v0.3007813h-0.3007813V11.7202148z M69.3476563,12.3217773h0.3007813v0.3007813h-0.3007813V12.3217773z M69.9492188,8.1098633H70.25v0.3007813h-0.3007813V8.1098633z M69.9492188,8.7114258H70.25V9.012207h-0.3007813V8.7114258z M69.9492188,9.3129883H70.25v0.3007813h-0.3007813V9.3129883z M69.9492188,9.9145508H70.25v0.3007813h-0.3007813V9.9145508z M69.9492188,10.5170898H70.25v0.3007813h-0.3007813V10.5170898z M69.9492188,11.1186523H70.25v0.3007813h-0.3007813V11.1186523z M69.9492188,11.7202148H70.25v0.3007813h-0.3007813V11.7202148z M69.9492188,12.3217773H70.25v0.3007813h-0.3007813V12.3217773z M70.5512695,8.7114258h0.3007813V9.012207h-0.3007813V8.7114258z M70.5512695,9.3129883h0.3007813v0.3007813h-0.3007813V9.3129883z M71.152832,8.1098633h0.3007813v0.3007813H71.152832V8.1098633z M71.152832,8.7114258h0.3007813V9.012207H71.152832V8.7114258z M71.7543945,8.1098633h0.3007813v0.3007813h-0.3007813V8.1098633z M71.7543945,8.7114258h0.3007813V9.012207h-0.3007813V8.7114258z M72.355957,8.1098633h0.3007813v0.3007813H72.355957V8.1098633z M72.355957,8.7114258h0.3007813V9.012207H72.355957V8.7114258z M72.355957,9.3129883h0.3007813v0.3007813H72.355957V9.3129883z M72.9580078,8.7114258h0.3007813V9.012207h-0.3007813V8.7114258z M72.9580078,9.3129883h0.3007813v0.3007813h-0.3007813V9.3129883z" />
        <path fill="#7BCDCB" d="M74.1611328,8.7114258h0.3007813V9.012207h-0.3007813V8.7114258z M74.1611328,9.3129883h0.3007813v0.3007813h-0.3007813V9.3129883z M74.1611328,9.9145508h0.3007813v0.3007813h-0.3007813V9.9145508z M74.1611328,11.7202148h0.3007813v0.3007813h-0.3007813V11.7202148z M74.1611328,12.3217773h0.3007813v0.3007813h-0.3007813V12.3217773z M74.7626953,8.1098633h0.3007813v0.3007813h-0.3007813V8.1098633z M74.7626953,8.7114258h0.3007813V9.012207h-0.3007813V8.7114258z M74.7626953,9.3129883h0.3007813v0.3007813h-0.3007813V9.3129883z M74.7626953,9.9145508h0.3007813v0.3007813h-0.3007813V9.9145508z M74.7626953,10.5170898h0.3007813v0.3007813h-0.3007813V10.5170898z M74.7626953,11.7202148h0.3007813v0.3007813h-0.3007813V11.7202148z M74.7626953,12.3217773h0.3007813v0.3007813h-0.3007813V12.3217773z M75.3647461,8.1098633h0.3007813v0.3007813h-0.3007813V8.1098633z M75.3647461,8.7114258h0.3007813V9.012207h-0.3007813V8.7114258z M75.3647461,9.9145508h0.3007813v0.3007813h-0.3007813V9.9145508z M75.3647461,10.5170898h0.3007813v0.3007813h-0.3007813V10.5170898z M75.3647461,11.7202148h0.3007813v0.3007813h-0.3007813V11.7202148z M75.3647461,12.3217773h0.3007813v0.3007813h-0.3007813V12.3217773z M75.9663086,8.1098633h0.3007813v0.3007813h-0.3007813V8.1098633z M75.9663086,8.7114258h0.3007813V9.012207h-0.3007813V8.7114258z M75.9663086,9.9145508h0.3007813v0.3007813h-0.3007813V9.9145508z M75.9663086,10.5170898h0.3007813v0.3007813h-0.3007813V10.5170898z M75.9663086,11.7202148h0.3007813v0.3007813h-0.3007813V11.7202148z M75.9663086,12.3217773h0.3007813v0.3007813h-0.3007813V12.3217773z M76.5678711,8.1098633h0.3007813v0.3007813h-0.3007813V8.1098633z M76.5678711,8.7114258h0.3007813V9.012207h-0.3007813V8.7114258z M76.5678711,9.9145508h0.3007813v0.3007813h-0.3007813V9.9145508z M76.5678711,10.5170898h0.3007813v0.3007813h-0.3007813V10.5170898z M76.5678711,11.7202148h0.3007813v0.3007813h-0.3007813V11.7202148z M76.5678711,12.3217773h0.3007813v0.3007813h-0.3007813V12.3217773z M77.1694336,8.1098633h0.3007813v0.3007813h-0.3007813V8.1098633z M77.1694336,8.7114258h0.3007813V9.012207h-0.3007813V8.7114258z M77.1694336,9.9145508h0.3007813v0.3007813h-0.3007813V9.9145508z M77.1694336,10.5170898h0.3007813v0.3007813h-0.3007813V10.5170898z M77.1694336,11.1186523h0.3007813v0.3007813h-0.3007813V11.1186523z M77.1694336,11.7202148h0.3007813v0.3007813h-0.3007813V11.7202148z M77.1694336,12.3217773h0.3007813v0.3007813h-0.3007813V12.3217773z M77.7714844,8.1098633h0.3007813v0.3007813h-0.3007813V8.1098633z M77.7714844,8.7114258h0.3007813V9.012207h-0.3007813V8.7114258z M77.7714844,10.5170898h0.3007813v0.3007813h-0.3007813V10.5170898z M77.7714844,11.1186523h0.3007813v0.3007813h-0.3007813V11.1186523z M77.7714844,11.7202148h0.3007813v0.3007813h-0.3007813V11.7202148z" />
        <path fill="#7BCDCB" d="M78.9746094,6.3051758h0.3007813V6.605957h-0.3007813V6.3051758z M78.9746094,6.9067383h0.3007813v0.3007813h-0.3007813V6.9067383z M78.9746094,7.5083008h0.3007813V7.809082h-0.3007813V7.5083008z M78.9746094,8.1098633h0.3007813v0.3007813h-0.3007813V8.1098633z M78.9746094,8.7114258h0.3007813V9.012207h-0.3007813V8.7114258z M78.9746094,9.3129883h0.3007813v0.3007813h-0.3007813V9.3129883z M78.9746094,9.9145508h0.3007813v0.3007813h-0.3007813V9.9145508z M78.9746094,10.5170898h0.3007813v0.3007813h-0.3007813V10.5170898z M78.9746094,11.1186523h0.3007813v0.3007813h-0.3007813V11.1186523z M78.9746094,11.7202148h0.3007813v0.3007813h-0.3007813V11.7202148z M79.5761719,5.7036133h0.3007813v0.3007813h-0.3007813V5.7036133z M79.5761719,6.3051758h0.3007813V6.605957h-0.3007813V6.3051758z M79.5761719,6.9067383h0.3007813v0.3007813h-0.3007813V6.9067383z M79.5761719,7.5083008h0.3007813V7.809082h-0.3007813V7.5083008z M79.5761719,8.1098633h0.3007813v0.3007813h-0.3007813V8.1098633z M79.5761719,8.7114258h0.3007813V9.012207h-0.3007813V8.7114258z M79.5761719,9.3129883h0.3007813v0.3007813h-0.3007813V9.3129883z M79.5761719,9.9145508h0.3007813v0.3007813h-0.3007813V9.9145508z M79.5761719,10.5170898h0.3007813v0.3007813h-0.3007813V10.5170898z M79.5761719,11.1186523h0.3007813v0.3007813h-0.3007813V11.1186523z M79.5761719,11.7202148h0.3007813v0.3007813h-0.3007813V11.7202148z M79.5761719,12.3217773h0.3007813v0.3007813h-0.3007813V12.3217773z M80.1782227,5.7036133h0.3007813v0.3007813h-0.3007813V5.7036133z M80.1782227,6.3051758h0.3007813V6.605957h-0.3007813V6.3051758z M80.1782227,11.7202148h0.3007813v0.3007813h-0.3007813V11.7202148z M80.1782227,12.3217773h0.3007813v0.3007813h-0.3007813V12.3217773z M80.7797852,5.7036133h0.3007813v0.3007813h-0.3007813V5.7036133z M80.7797852,6.3051758h0.3007813V6.605957h-0.3007813V6.3051758z M80.7797852,7.5083008h0.3007813V7.809082h-0.3007813V7.5083008z M80.7797852,8.1098633h0.3007813v0.3007813h-0.3007813V8.1098633z M80.7797852,8.7114258h0.3007813V9.012207h-0.3007813V8.7114258z M80.7797852,9.3129883h0.3007813v0.3007813h-0.3007813V9.3129883z M80.7797852,9.9145508h0.3007813v0.3007813h-0.3007813V9.9145508z M80.7797852,10.5170898h0.3007813v0.3007813h-0.3007813V10.5170898z M80.7797852,11.7202148h0.3007813v0.3007813h-0.3007813V11.7202148z M80.7797852,12.3217773h0.3007813v0.3007813h-0.3007813V12.3217773z M81.3813477,5.7036133h0.3007813v0.3007813h-0.3007813V5.7036133z M81.3813477,6.3051758h0.3007813V6.605957h-0.3007813V6.3051758z M81.3813477,7.5083008h0.3007813V7.809082h-0.3007813V7.5083008z M81.3813477,8.7114258h0.3007813V9.012207h-0.3007813V8.7114258z M81.3813477,9.3129883h0.3007813v0.3007813h-0.3007813V9.3129883z M81.3813477,11.7202148h0.3007813v0.3007813h-0.3007813V11.7202148z M81.3813477,12.3217773h0.3007813v0.3007813h-0.3007813V12.3217773z M81.9829102,5.7036133h0.3007813v0.3007813h-0.3007813V5.7036133z M81.9829102,6.3051758h0.3007813V6.605957h-0.3007813V6.3051758z M81.9829102,7.5083008h0.3007813V7.809082h-0.3007813V7.5083008z M81.9829102,8.1098633h0.3007813v0.3007813h-0.3007813V8.1098633z M81.9829102,8.7114258h0.3007813V9.012207h-0.3007813V8.7114258z M81.9829102,9.9145508h0.3007813v0.3007813h-0.3007813V9.9145508z M81.9829102,10.5170898h0.3007813v0.3007813h-0.3007813V10.5170898z M81.9829102,11.7202148h0.3007813v0.3007813h-0.3007813V11.7202148z M81.9829102,12.3217773h0.3007813v0.3007813h-0.3007813V12.3217773z M82.5849609,5.7036133h0.3007813v0.3007813h-0.3007813V5.7036133z M82.5849609,6.3051758h0.3007813V6.605957h-0.3007813V6.3051758z M82.5849609,11.7202148h0.3007813v0.3007813h-0.3007813V11.7202148z M82.5849609,12.3217773h0.3007813v0.3007813h-0.3007813V12.3217773z M83.1865234,5.7036133h0.3007813v0.3007813h-0.3007813V5.7036133z M83.1865234,6.3051758h0.3007813V6.605957h-0.3007813V6.3051758z M83.1865234,6.9067383h0.3007813v0.3007813h-0.3007813V6.9067383z M83.1865234,7.5083008h0.3007813V7.809082h-0.3007813V7.5083008z M83.1865234,8.1098633h0.3007813v0.3007813h-0.3007813V8.1098633z M83.1865234,8.7114258h0.3007813V9.012207h-0.3007813V8.7114258z M83.1865234,9.3129883h0.3007813v0.3007813h-0.3007813V9.3129883z M83.1865234,9.9145508h0.3007813v0.3007813h-0.3007813V9.9145508z M83.1865234,10.5170898h0.3007813v0.3007813h-0.3007813V10.5170898z M83.1865234,11.1186523h0.3007813v0.3007813h-0.3007813V11.1186523z M83.1865234,11.7202148h0.3007813v0.3007813h-0.3007813V11.7202148z M83.1865234,12.3217773h0.3007813v0.3007813h-0.3007813V12.3217773z M83.7880859,6.3051758h0.3007813V6.605957h-0.3007813V6.3051758z M83.7880859,6.9067383h0.3007813v0.3007813h-0.3007813V6.9067383z M83.7880859,7.5083008h0.3007813V7.809082h-0.3007813V7.5083008z M83.7880859,8.1098633h0.3007813v0.3007813h-0.3007813V8.1098633z M83.7880859,8.7114258h0.3007813V9.012207h-0.3007813V8.7114258z M83.7880859,9.3129883h0.3007813v0.3007813h-0.3007813V9.3129883z M83.7880859,9.9145508h0.3007813v0.3007813h-0.3007813V9.9145508z M83.7880859,10.5170898h0.3007813v0.3007813h-0.3007813V10.5170898z M83.7880859,11.1186523h0.3007813v0.3007813h-0.3007813V11.1186523z M83.7880859,11.7202148h0.3007813v0.3007813h-0.3007813V11.7202148z" />
    </g>
    <g >
        <path fill="#F8F7F8" stroke-miterlimit="10" stroke="#FFFFFF" d="M12.1861105,26.9489651c0.0434341,0.1212101,0.114646,0.3598461,0.114646,0.6419163c0,0.316412-0.080555,0.5770168-0.2760086,0.7818146c-0.1737375,0.1797962-0.452776,0.2914124-0.778533,0.2914124c-0.623229-0.0030308-1.0792885-0.4310589-1.0792885-1.1320648c0-0.2416668,0.0527782-0.4310589,0.0962124-0.5209579l0.2202005,0.0651512c-0.0494947,0.1116161-0.0898981,0.251009-0.0898981,0.4621181c0,0.508585,0.3164129,0.8404007,0.8404007,0.8404007c0.5303001,0,0.8436832-0.3194427,0.8436832-0.8063087c0-0.1767673-0.0250006-0.2977257-0.0558081-0.359848h-0.6234827v0.4249992h-0.2171707v-0.688633H12.1861105z"  stroke-width="0.25"/>
        <path fill="#F8F7F8" stroke-miterlimit="10" stroke="#FFFFFF" d="M12.2790394,26.5353298h-2.0903959v-0.2944431l1.0575714-0.6699467c0.2452011-0.1550503,0.4654026-0.2760105,0.6792908-0.3752518l-0.0030308-0.0063133c-0.2792912,0.0249996-0.5335836,0.0313129-0.859087,0.0313129h-0.8747444v-0.2545433h2.0903959v0.2729778l-1.0606022,0.6636333c-0.2325745,0.1457062-0.4714622,0.2853527-0.6977243,0.3906555l0.0030308,0.0095959c0.2636347-0.0156574,0.5148964-0.0217171,0.8621178-0.0217171h0.893178V26.5353298z"  stroke-width="0.25"/>
        <path fill="#F8F7F8" stroke-miterlimit="10" stroke="#FFFFFF" d="M10.2166739,24.4936714c-0.0247469-0.1643944-0.0434341-0.359848-0.0434341-0.5737362c0-0.3876247,0.0898991-0.6636333,0.2606049-0.8467121c0.170454-0.1858578,0.4123726-0.2944431,0.7505026-0.2944431c0.3411598,0,0.6201992,0.1053009,0.8123703,0.3007545c0.1954536,0.1952019,0.3010082,0.5179272,0.3010082,0.9239864c0,0.1924248-0.0093431,0.3537865-0.0249996,0.4901505H10.2166739z M12.0651512,24.2237225c0.0123739-0.068182,0.0154037-0.1671715,0.0154037-0.2727261c0-0.5767651-0.3224735-0.8901482-0.8868647-0.8901482c-0.4931803-0.0030308-0.8065624,0.2760086-0.8065624,0.846714c0,0.1393929,0.0126257,0.2449493,0.0280304,0.3161602H12.0651512z"  stroke-width="0.25"/>
        <path fill="#F8F7F8" stroke-miterlimit="10" stroke="#FFFFFF" d="M12.2790394,20.7641411l-2.0903959,0.6823196v-0.2914124l1.0297937-0.3257561C11.5005074,20.7393932,11.7547989,20.661869,12,20.60606v-0.0060596c-0.2419186-0.0590916-0.5055532-0.1459599-0.778532-0.2388878l-1.0328245-0.3535347v-0.2883816l2.0903959,0.7474709V20.7641411z"  stroke-width="0.25"/>
        <path fill="#F8F7F8" stroke-miterlimit="10" stroke="#FFFFFF" d="M12.2108574,18.0310707c0.0494947,0.0992432,0.0992422,0.2977257,0.0992422,0.5520191c0,0.589138-0.372221,1.0328236-1.0575714,1.0328236c-0.6542902,0-1.0979748-0.4436855-1.0979748-1.0916634c0-0.2606049,0.0558071-0.4247456,0.0931807-0.4962101l0.2202015,0.0651512c-0.0497475,0.1022739-0.0868683,0.2482319-0.0868683,0.4217167c0,0.4901485,0.3131304,0.8156528,0.8621178,0.8156528c0.5116138,0,0.8404007-0.2946949,0.8404007-0.8032799c0-0.1643925-0.034091-0.3318157-0.0868683-0.4404011L12.2108574,18.0310707z"  stroke-width="0.25"/>
        <path fill="#F8F7F8" stroke-miterlimit="10" stroke="#FFFFFF" d="M12.2108574,16.2964821c0.0494947,0.0992413,0.0992422,0.2977257,0.0992422,0.5520172c0,0.5893917-0.372221,1.0328255-1.0575714,1.0328255c-0.6542902,0-1.0979748-0.4434338-1.0979748-1.0916634c0-0.2606049,0.0558071-0.4249973,0.0931807-0.4962101l0.2202015,0.0651512c-0.0497475,0.102272-0.0868683,0.2479801-0.0868683,0.4217167c0,0.4898968,0.3131304,0.8156528,0.8621178,0.8156528c0.5116138,0,0.8404007-0.2944431,0.8404007-0.8032799c0-0.1643925-0.034091-0.3318176-0.0868683-0.440403L12.2108574,16.2964821z"  stroke-width="0.25"/>
        <path fill="#F8F7F8" stroke-miterlimit="10" stroke="#FFFFFF" d="M11.9502525,14.6790648c0.0744953-0.1209593,0.1366158-0.2977266,0.1366158-0.4838371c0-0.2760086-0.1459589-0.4371195-0.3568163-0.4371195c-0.1954546,0-0.3070698,0.1116161-0.4154024,0.3936853c-0.1209593,0.3411608-0.2977266,0.5520182-0.5924225,0.5520182c-0.3257561,0-0.5676737-0.2696953-0.5676737-0.6760073c0-0.2141409,0.0497465-0.3691902,0.1025248-0.4621191l0.2202005,0.0744944c-0.0373735,0.068182-0.0992422,0.2078276-0.0992422,0.3969679c0,0.2851,0.170454,0.3936853,0.3131304,0.3936853c0.1954536,0,0.2914133-0.1270199,0.4032812-0.4154024c0.136363-0.3535337,0.3068171-0.5335836,0.6138868-0.5335836c0.3227253,0,0.6017647,0.2388878,0.6017647,0.7320681c0,0.2015142-0.0590906,0.4217157-0.1333323,0.5333309L11.9502525,14.6790648z"  stroke-width="0.25"/>
        <path fill="#F8F7F8" stroke-miterlimit="10" stroke="#FFFFFF" d="M12.2108574,11.6512985c0.0494947,0.0992422,0.0992422,0.2977266,0.0992422,0.5520182c0,0.589139-0.372221,1.0328245-1.0575714,1.0328245c-0.6542902,0-1.0979748-0.4436855-1.0979748-1.0916624c0-0.2606049,0.0558071-0.4247456,0.0931807-0.4962101l0.2202015,0.0651512c-0.0497475,0.102272-0.0868683,0.2482309-0.0868683,0.4217157c0,0.4901495,0.3131304,0.8156528,0.8621178,0.8156528c0.5116138,0,0.8404007-0.2946959,0.8404007-0.8032799c0-0.1643925-0.034091-0.3318167-0.0868683-0.440402L12.2108574,11.6512985z"  stroke-width="0.25"/>
        <path fill="#F8F7F8" stroke-miterlimit="10" stroke="#FFFFFF" d="M10.1886435,11.3124113v-0.269948h1.8638811v-0.8929262h0.2265148v1.1628742H10.1886435z"  stroke-width="0.25"/>
        <path fill="#F8F7F8" stroke-miterlimit="10" stroke="#FFFFFF" d="M11.9502525,8.5692406c0.0744953-0.1207066,0.1366158-0.297473,0.1366158-0.4838362c0-0.2757564-0.1459589-0.4371195-0.3568163-0.4371195c-0.1954546,0-0.3070698,0.1116157-0.4154024,0.3936853c-0.1209593,0.3414125-0.2977266,0.5522699-0.5924225,0.5522699c-0.3257561,0-0.5676737-0.269948-0.5676737-0.6760068c0-0.2141404,0.0497465-0.3691907,0.1025248-0.4621196l0.2202005,0.0742421c-0.0373735,0.0681815-0.0992422,0.2078276-0.0992422,0.3969684c0,0.2853527,0.170454,0.3939381,0.3131304,0.3939381c0.1954536,0,0.2914133-0.1272726,0.4032812-0.4156551c0.136363-0.3535342,0.3068171-0.5333314,0.6138868-0.5333314c0.3227253,0,0.6017647,0.2388878,0.6017647,0.7318149c0,0.2015152-0.0590906,0.4217157-0.1333323,0.5333319L11.9502525,8.5692406z"  stroke-width="0.25"/>
        <path fill="#F8F7F8" stroke-miterlimit="10" stroke="#FFFFFF" d="M10.2166739,7.0025806c-0.0247469-0.1646461-0.0434341-0.3598471-0.0434341-0.5737352c0-0.387877,0.0898991-0.6637597,0.2606049-0.8467135c0.170454-0.1861105,0.4123726-0.2946959,0.7505026-0.2946959c0.3411598,0,0.6201992,0.1054287,0.8123703,0.3008823c0.1954536,0.1953278,0.3010082,0.5178013,0.3010082,0.9241128c0,0.1921706-0.0093431,0.3535337-0.0249996,0.4901495H10.2166739z M12.0651512,6.7326322c0.0123739-0.0681815,0.0154037-0.1674237,0.0154037-0.2729788c0-0.5767655-0.3224735-0.8900218-0.8868647-0.8900218c-0.4931803-0.0030303-0.8065624,0.2760091-0.8065624,0.8465877c0,0.1396461,0.0126257,0.2449484,0.0280304,0.3164129H12.0651512z"  stroke-width="0.25"/>
        <path fill="#F8F7F8" stroke-miterlimit="10" stroke="#FFFFFF" d="M11.6214666,4.6412263l0.6575727,0.2170448v0.2791653l-2.0903959-0.7102242V4.1015821l2.0903959-0.7132547v0.2883828l-0.6575727,0.2233577V4.6412263z M11.4106083,3.9558756l-0.6015129,0.2046707c-0.1366148,0.0464644-0.2606049,0.0775251-0.3815641,0.1084595v0.0063128c0.1239901,0.0309343,0.2512617,0.0650253,0.3782816,0.1054292l0.6047955,0.2046709V3.9558756z"  stroke-width="0.25"/>
    </g>
</svg>
