<?xml version='1.0' encoding='utf-8'?>
<!-- Generator: Adobe Illustrator 20.0.0, SVG Export Plug-In . SVG Version: 6.00 Build 0)  -->
<svg xmlns="http://www.w3.org/2000/svg" x="0px" y="0px" viewBox="0 0 141.84 75.6" xml:space="preserve" baseProfile="tiny" id="Layer_1" xmlns:xml="http://www.w3.org/XML/1998/namespace" width="1.97in" version="1.2" gorn="0"  height="1.05in">
    <desc >
        <referenceFile >Adafruit 7-segment LED Backpack_breadboard-blue.svg</referenceFile>
    </desc>
    <desc >Fritzing breadboard generated by brd2svg</desc>
    <g id="breadboard" gorn="0.2" >
        <g id="icon" gorn="0.2.0" >
            <path fill="#014CB1"  d="M7.2,75.6c-3.976,0-7.2-3.224-7.2-7.2V7.2C0,3.224,3.224,0,7.2,0l0,0h127.44c3.976,0,7.2,3.224,7.2,7.2v61.2c0,3.976-3.224,7.2-7.2,7.2H7.2 M130.005,70.2c-0.002,1.566,1.266,2.836,2.831,2.838c1.566,0.002,2.836-1.266,2.838-2.831c0-0.002,0-0.004,0-0.007c0.002-1.566-1.266-2.836-2.831-2.838c-1.566-0.002-2.836,1.266-2.838,2.831C130.005,70.196,130.005,70.198,130.005,70.2z M6.165,70.2c-0.003,1.566,1.264,2.837,2.829,2.84c1.566,0.003,2.837-1.264,2.84-2.829c0-0.003,0-0.007,0-0.01c0.003-1.566-1.264-2.837-2.829-2.84c-1.566-0.003-2.837,1.264-2.84,2.829C6.165,70.193,6.165,70.196,6.165,70.2z M130.005,5.4c-0.002,1.566,1.266,2.836,2.831,2.838s2.836-1.266,2.838-2.831c0-0.002,0-0.004,0-0.007c0.002-1.566-1.266-2.836-2.831-2.838c-1.566-0.002-2.836,1.266-2.838,2.831C130.005,5.396,130.005,5.398,130.005,5.4z M6.165,5.4c-0.003,1.566,1.264,2.837,2.83,2.84s2.837-1.264,2.84-2.829c0-0.003,0-0.007,0-0.01c0.003-1.566-1.264-2.837-2.829-2.84S6.169,3.825,6.166,5.39C6.165,5.393,6.165,5.396,6.165,5.4z M79.56,5.4c-0.001,0.795,0.643,1.441,1.438,1.442s1.441-0.643,1.442-1.438c0-0.001,0-0.003,0-0.004c0.001-0.795-0.643-1.441-1.438-1.442s-1.441,0.643-1.442,1.438C79.56,5.397,79.56,5.399,79.56,5.4z M72.36,5.4c-0.001,0.795,0.643,1.441,1.438,1.442s1.441-0.643,1.442-1.438c0-0.001,0-0.003,0-0.004c0.001-0.795-0.643-1.441-1.438-1.442s-1.441,0.643-1.442,1.438C72.36,5.397,72.36,5.399,72.36,5.4z M65.16,5.4c-0.001,0.795,0.643,1.441,1.438,1.442s1.441-0.643,1.442-1.438c0-0.001,0-0.003,0-0.004c0.001-0.795-0.643-1.441-1.438-1.442s-1.441,0.643-1.442,1.438C65.16,5.397,65.16,5.399,65.16,5.4z M57.96,5.4c0,0.795,0.645,1.44,1.44,1.44s1.44-0.645,1.44-1.44s-0.645-1.44-1.44-1.44S57.96,4.605,57.96,5.4z"/>
            <g >
                <title >layer 21</title>
                <g >
                    <title >text:C</title>
                    <g transform="matrix(1 0 0 1 83.2913 4.0874)" >
                        <g >
                            <g >
                                <text fill="#FFFFFF" font-family="OCRA"  font-size="2.67264">C</text>
                            </g>
                        </g>
                    </g>
                </g>
                <g >
                    <title >text:D</title>
                    <g transform="matrix(1 0 0 1 76.4513 4.0874)" >
                        <g >
                            <g >
                                <text fill="#FFFFFF" font-family="OCRA"  font-size="2.67264">D</text>
                            </g>
                        </g>
                    </g>
                </g>
                <g >
                    <title >text:-</title>
                    <g transform="matrix(1 0 0 1 62.0513 4.0874)" >
                        <g >
                            <g >
                                <text fill="#FFFFFF" font-family="OCRA"  font-size="2.67264">-</text>
                            </g>
                        </g>
                    </g>
                </g>
                <g >
                    <title >text:+</title>
                    <g transform="matrix(1 0 0 1 54.8513 4.0874)" >
                        <g >
                            <g >
                                <text fill="#FFFFFF" font-family="OCRA"  font-size="2.67264">+</text>
                            </g>
                        </g>
                    </g>
                </g>
                <g >
                    <title >text:0.56" 7-segment LED HT16K33 Backpack</title>
                    <g transform="matrix(1 0 0 1 14.04 71.64)" >
                        <g >
                            <g >
                                <text fill="#FFFFFF" font-family="OCRA"  font-size="3.3408">0.56" 7-segment LED HT16K33 Backpack</text>
                            </g>
                        </g>
                    </g>
                </g>
                <g >
                    <title >element:A0</title>
                    <g >
                        <title >package:SOLDERJUMPER_REFLOW_NOPASTE</title>
                    </g>
                </g>
                <g >
                    <title >element:A1</title>
                    <g >
                        <title >package:SOLDERJUMPER_REFLOW_NOPASTE</title>
                    </g>
                </g>
                <g >
                    <title >element:A2</title>
                    <g >
                        <title >package:SOLDERJUMPER_REFLOW_NOPASTE</title>
                    </g>
                </g>
                <g >
                    <title >element:C1</title>
                    <g >
                        <title >package:C0805K</title>
                    </g>
                </g>
                <g >
                    <title >element:CN1</title>
                    <g >
                        <title >package:1X04-CLEANBIG</title>
                    </g>
                </g>
                <g >
                    <title >element:D1</title>
                    <g >
                        <title >package:SOD-323F</title>
                    </g>
                </g>
                <g >
                    <title >element:LED2</title>
                    <g >
                        <title >package:SEGMENT-BL-Q56C43</title>
                        <line fill="none" y1="10.871" stroke-linecap="round" y2="10.871" x1="0.054" stroke="#FFFFFF" x2="141.786"  stroke-width="0.36"/>
                        <line fill="none" y1="64.729" stroke-linecap="round" y2="10.871" x1="0.054" stroke="#FFFFFF" x2="0.054"  stroke-width="0.36"/>
                        <line fill="none" y1="10.871" stroke-linecap="round" y2="64.729" x1="141.786" stroke="#FFFFFF" x2="141.786"  stroke-width="0.36"/>
                        <line fill="none" y1="64.729" stroke-linecap="round" y2="64.729" x1="141.786" stroke="#FFFFFF" x2="0.054"  stroke-width="0.36"/>
                    </g>
                </g>
                <g >
                    <title >element:R1</title>
                    <g >
                        <title >package:R0805</title>
                    </g>
                </g>
                <g >
                    <title >element:R2</title>
                    <g >
                        <title >package:R0805</title>
                    </g>
                </g>
                <g >
                    <title >element:R3</title>
                    <g >
                        <title >package:R0805</title>
                    </g>
                </g>
                <g >
                    <title >element:R4</title>
                    <g >
                        <title >package:R0805</title>
                    </g>
                </g>
                <g >
                    <title >element:R5</title>
                    <g >
                        <title >package:R0805</title>
                    </g>
                </g>
                <g >
                    <title >element:U$1</title>
                    <g >
                        <title >package:FIDUCIAL_1MM</title>
                    </g>
                </g>
                <g >
                    <title >element:U$2</title>
                    <g >
                        <title >package:FIDUCIAL_1MM</title>
                    </g>
                </g>
                <g >
                    <title >element:U$3</title>
                    <g >
                        <title >package:ADAFRUIT_TEXT_20MM</title>
                    </g>
                </g>
                <g >
                    <title >element:U2</title>
                    <g >
                        <title >package:SOP28_300MIL</title>
                    </g>
                </g>
            </g>
            <circle fill="none" id="connector5pin" cx="81" cy="5.4" r="1.98" gorn="0.2.0.2" stroke="#9A916C"  stroke-width="1.08"/>
            <circle fill="none" id="connector6pin" cx="73.8" cy="5.4" r="1.98" gorn="0.2.0.3" stroke="#9A916C"  stroke-width="1.08"/>
            <circle fill="none" id="connector7pin" cx="66.6" cy="5.4" r="1.98" gorn="0.2.0.4" stroke="#9A916C"  stroke-width="1.08"/>
            <circle fill="none" id="connector8pin" cx="59.4" cy="5.4" r="1.98" gorn="0.2.0.5" stroke="#9A916C"  stroke-width="1.08"/>
        </g>
    </g>
    <rect x="0.054" fill="#8C8C8C" y="10.871" width="141.732"  height="53.858"/>
    <g >
        <path fill="#50A0FF"  d="M9.893,35.898l-2.241,1.92l1.633,1.884h14.663l2.241-1.956l-1.671-1.848C24.518,35.898,9.893,35.898,9.893,35.898z M9.551,35.427L7.272,37.42l-1.633-1.884l2.013-14.42l1.785-1.522l2.013,2.283L9.551,35.427z M26.493,21.515H11.868l-2.051-2.319l1.785-1.522h16.259l1.292,1.522L26.493,21.515z M26.911,21.949l-1.937,13.587l1.633,1.884l2.241-1.993l2.013-14.275l-1.291-1.521L26.911,21.949z M7.31,54.122h14.701l1.937,2.283l-1.709,1.522H6.018l-1.33-1.522L7.31,54.122z M6.968,53.651L4.271,55.97l-1.292-1.522l2.013-14.311l2.203-1.92l1.671,1.848L6.968,53.651z M22.391,53.687l2.013,2.319l1.747-1.485l2.051-14.456l-1.671-1.848l-2.203,1.92L22.391,53.687z M31.427,56.024c0,1.057-0.857,1.913-1.913,1.913s-1.913-0.857-1.913-1.913c0-1.057,0.857-1.913,1.913-1.913S31.427,54.967,31.427,56.024z"/>
        <path fill="#50A0FF"  d="M45.893,35.898l-2.241,1.92l1.633,1.884h14.663l2.241-1.956l-1.671-1.848C60.518,35.898,45.893,35.898,45.893,35.898z M45.551,35.427l-2.279,1.993l-1.633-1.884l2.013-14.42l1.785-1.522l2.013,2.283L45.551,35.427z M62.493,21.515H47.868l-2.051-2.319l1.785-1.522h16.259l1.292,1.522L62.493,21.515z M62.911,21.949l-1.937,13.587l1.633,1.884l2.241-1.993l2.013-14.275l-1.291-1.521L62.911,21.949z M43.31,54.122h14.701l1.937,2.283l-1.709,1.522H42.018l-1.33-1.522L43.31,54.122z M42.968,53.651l-2.697,2.319l-1.292-1.522l2.013-14.311l2.203-1.92l1.671,1.848L42.968,53.651z M58.391,53.687l2.013,2.319l1.747-1.485l2.051-14.456l-1.671-1.848l-2.203,1.92L58.391,53.687z M67.427,56.024c0,1.057-0.857,1.913-1.913,1.913s-1.913-0.857-1.913-1.913c0-1.057,0.857-1.913,1.913-1.913S67.427,54.967,67.427,56.024z"/>
        <path fill="#50A0FF"  d="M81.893,35.898l-2.241,1.92l1.633,1.884h14.663l2.241-1.956l-1.671-1.848C96.518,35.898,81.893,35.898,81.893,35.898z M81.551,35.427l-2.279,1.993l-1.633-1.884l2.013-14.42l1.785-1.522l2.013,2.283L81.551,35.427z M98.493,21.515H83.868l-2.051-2.319l1.785-1.522h16.259l1.292,1.522L98.493,21.515z M98.911,21.949l-1.937,13.587l1.633,1.884l2.241-1.993l2.013-14.275l-1.292-1.522L98.911,21.949z M79.31,54.122h14.701l1.937,2.283l-1.709,1.522H78.018l-1.33-1.522L79.31,54.122z M78.968,53.651l-2.697,2.319l-1.292-1.522l2.013-14.311l2.203-1.92l1.671,1.848L78.968,53.651z M94.391,53.687l2.013,2.319l1.747-1.485l2.051-14.456l-1.671-1.848l-2.203,1.92L94.391,53.687z M103.427,56.024c0,1.057-0.857,1.913-1.913,1.913s-1.913-0.857-1.913-1.913c0-1.057,0.857-1.913,1.913-1.913S103.427,54.967,103.427,56.024z"/>
        <path fill="#50A0FF"  d="M117.893,35.898l-2.241,1.92l1.633,1.884h14.663l2.241-1.956l-1.671-1.848C132.518,35.898,117.893,35.898,117.893,35.898z M117.551,35.427l-2.279,1.993l-1.633-1.884l2.013-14.42l1.785-1.522l2.013,2.283L117.551,35.427z M134.493,21.515h-14.625l-2.051-2.319l1.785-1.522h16.259l1.292,1.522L134.493,21.515z M134.911,21.949l-1.937,13.586l1.633,1.884l2.241-1.993l2.013-14.275l-1.292-1.522L134.911,21.949z M115.31,54.122h14.701l1.937,2.283l-1.709,1.522h-16.221l-1.33-1.522L115.31,54.122z M114.968,53.651l-2.697,2.319l-1.292-1.522l2.013-14.311l2.203-1.92l1.671,1.848L114.968,53.651z M130.391,53.687l2.013,2.319l1.747-1.485l2.051-14.456l-1.671-1.848l-2.203,1.92L130.391,53.687z M139.427,56.024c0,1.057-0.857,1.913-1.913,1.913c-1.057,0-1.913-0.857-1.913-1.913c0-1.057,0.857-1.913,1.913-1.913S139.427,54.967,139.427,56.024z"/>
        <path fill="#50A0FF"  d="M74.429,26.609c0,1.057-0.857,1.913-1.913,1.913s-1.913-0.857-1.913-1.913s0.857-1.913,1.913-1.913S74.429,25.552,74.429,26.609z M69.328,47.095c-1.057,0-1.913,0.857-1.913,1.913c0,1.057,0.857,1.913,1.913,1.913s1.913-0.857,1.913-1.913C71.242,47.952,70.385,47.095,69.328,47.095z"/>
    </g>
</svg>
