<?xml version='1.0' encoding='utf-8'?>
<!-- Generator: Adobe Illustrator 20.0.0, SVG Export Plug-In . SVG Version: 6.00 Build 0)  -->
<svg xmlns="http://www.w3.org/2000/svg" width="2in" version="1.2"  baseProfile="tiny" gorn="0" xml:space="preserve" id="svg2" viewBox="0 0 144 64.8" xmlns:xml="http://www.w3.org/XML/1998/namespace" x="0px" height="0.9in" y="0px">
    <desc >
        <referenceFile >Adafruit 8x16 LED Matrix FeatherWing_breadboard.svg</referenceFile>
    </desc>
    <desc  id="desc4">Fritzing breadboard generated by brd2svg</desc>
    <path  gorn="0.2" id="path8" d="M7.2,64.8c-3.976,0-7.2-3.224-7.2-7.2c0,0,0,0,0,0V7.2C0,3.224,3.224,0,7.2,0c0,0,0,0,0,0h129.6c3.976,0,7.2,3.224,7.2,7.2v50.4c0,3.976-3.224,7.2-7.2,7.2H7.2 M133.2,7.2c-0.002,1.988,1.609,3.601,3.597,3.603c1.988,0.002,3.601-1.609,3.603-3.597c0-0.002,0-0.004,0-0.006c0.002-1.988-1.609-3.601-3.597-3.603c-1.988-0.002-3.601,1.609-3.603,3.597C133.2,7.196,133.2,7.198,133.2,7.2z M133.2,57.6c-0.002,1.988,1.609,3.601,3.597,3.603c1.988,0.002,3.601-1.609,3.603-3.597c0-0.002,0-0.004,0-0.006c0.002-1.988-1.609-3.601-3.597-3.603c-1.988-0.002-3.601,1.609-3.603,3.597C133.2,57.596,133.2,57.598,133.2,57.6z M17.263,53.66c0,0.626,0.509,1.133,1.135,1.133c0.626,0,1.132-0.507,1.133-1.133c0-0.626-0.507-1.134-1.133-1.135c-0.626,0-1.134,0.507-1.135,1.133C17.263,53.659,17.263,53.659,17.263,53.66z M24.35,53.66c0,0.626,0.509,1.133,1.135,1.133c0.626,0,1.132-0.507,1.133-1.133c0-0.626-0.507-1.134-1.133-1.135c-0.626,0-1.134,0.507-1.135,1.133C24.35,53.659,24.35,53.659,24.35,53.66z M31.436,53.66c0,0.626,0.509,1.133,1.135,1.133c0.626,0,1.132-0.507,1.133-1.133c0-0.626-0.507-1.134-1.133-1.135s-1.134,0.507-1.135,1.133C31.436,53.659,31.436,53.659,31.436,53.66z M38.523,53.66c0,0.626,0.507,1.134,1.133,1.135s1.134-0.507,1.135-1.133c0-0.001,0-0.001,0-0.002c0-0.626-0.507-1.134-1.133-1.135s-1.134,0.507-1.135,1.133C38.523,53.659,38.523,53.659,38.523,53.66z M45.61,53.66c0,0.626,0.507,1.134,1.133,1.135s1.134-0.507,1.135-1.133c0-0.001,0-0.001,0-0.002c0-0.626-0.507-1.134-1.133-1.135s-1.134,0.507-1.135,1.133C45.61,53.659,45.61,53.659,45.61,53.66z M52.696,53.66c0,0.626,0.507,1.134,1.133,1.135s1.134-0.507,1.135-1.133c0-0.001,0-0.001,0-0.002c0-0.626-0.507-1.134-1.133-1.135s-1.134,0.507-1.135,1.133C52.696,53.659,52.696,53.659,52.696,53.66z M59.783,53.66c0,0.626,0.507,1.134,1.133,1.135s1.134-0.507,1.135-1.133c0-0.001,0-0.001,0-0.002c0-0.626-0.507-1.134-1.133-1.135s-1.134,0.507-1.135,1.133C59.783,53.659,59.783,53.659,59.783,53.66z M66.869,53.66c0,0.626,0.508,1.134,1.134,1.134c0.626,0,1.134-0.508,1.134-1.134s-0.508-1.134-1.134-1.134C67.377,52.526,66.869,53.034,66.869,53.66L66.869,53.66z M66.869,11.14c0,0.626,0.508,1.134,1.134,1.134c0.626,0,1.134-0.508,1.134-1.134s-0.508-1.134-1.134-1.134C67.377,10.006,66.869,10.514,66.869,11.14L66.869,11.14z M59.783,11.14c0,0.626,0.507,1.134,1.133,1.135s1.134-0.507,1.135-1.133c0-0.001,0-0.001,0-0.002c0-0.626-0.507-1.134-1.133-1.135s-1.134,0.507-1.135,1.133C59.783,11.139,59.783,11.14,59.783,11.14z M52.696,11.14c0,0.626,0.507,1.134,1.133,1.135s1.134-0.507,1.135-1.133c0-0.001,0-0.001,0-0.002c0-0.626-0.507-1.134-1.133-1.135s-1.134,0.507-1.135,1.133C52.696,11.139,52.696,11.14,52.696,11.14z M45.61,11.14c0,0.626,0.507,1.134,1.133,1.135s1.134-0.507,1.135-1.133c0-0.001,0-0.001,0-0.002c0-0.626-0.507-1.134-1.133-1.135s-1.134,0.507-1.135,1.133C45.61,11.139,45.61,11.14,45.61,11.14z M38.523,11.14c0,0.626,0.507,1.134,1.133,1.135s1.134-0.507,1.135-1.133c0-0.001,0-0.001,0-0.002c0-0.626-0.507-1.134-1.133-1.135s-1.134,0.507-1.135,1.133C38.523,11.139,38.523,11.14,38.523,11.14z M31.436,11.14c0,0.626,0.508,1.134,1.134,1.134s1.134-0.508,1.134-1.134c0-0.626-0.507-1.134-1.133-1.135s-1.134,0.507-1.135,1.133C31.436,11.139,31.436,11.14,31.436,11.14z M24.35,11.14c0,0.626,0.509,1.133,1.135,1.133c0.626,0,1.132-0.507,1.133-1.133c0-0.626-0.507-1.134-1.133-1.135c-0.626,0-1.134,0.507-1.135,1.133C24.35,11.139,24.35,11.14,24.35,11.14z M17.263,11.14c0,0.626,0.509,1.133,1.135,1.133c0.626,0,1.132-0.507,1.133-1.133c0-0.626-0.507-1.134-1.133-1.135c-0.626,0-1.134,0.507-1.135,1.133C17.263,11.139,17.263,11.14,17.263,11.14z M74.863,53.66c0,0.626,0.508,1.134,1.134,1.134c0.626,0,1.134-0.508,1.134-1.134s-0.508-1.134-1.134-1.134C75.37,52.526,74.863,53.034,74.863,53.66L74.863,53.66z M81.95,53.66c0,0.626,0.508,1.134,1.134,1.134c0.626,0,1.134-0.508,1.134-1.134s-0.508-1.134-1.134-1.134C82.457,52.526,81.95,53.034,81.95,53.66L81.95,53.66z M89.036,53.66c0,0.626,0.508,1.134,1.134,1.134c0.626,0,1.134-0.508,1.134-1.134s-0.508-1.134-1.134-1.134C89.544,52.526,89.036,53.034,89.036,53.66L89.036,53.66z M96.123,53.66c0,0.626,0.508,1.134,1.134,1.134c0.626,0,1.134-0.508,1.134-1.134s-0.508-1.134-1.134-1.134C96.631,52.526,96.123,53.034,96.123,53.66L96.123,53.66z M103.209,53.66c0,0.626,0.508,1.134,1.134,1.134c0.626,0,1.134-0.508,1.134-1.134s-0.508-1.134-1.134-1.134C103.717,52.526,103.209,53.034,103.209,53.66L103.209,53.66z M110.296,53.66c0,0.626,0.508,1.134,1.134,1.134c0.626,0,1.134-0.508,1.134-1.134s-0.508-1.134-1.134-1.134C110.804,52.526,110.296,53.034,110.296,53.66L110.296,53.66z M117.382,53.66c0,0.626,0.508,1.134,1.134,1.134c0.626,0,1.134-0.508,1.134-1.134s-0.508-1.134-1.134-1.134C117.89,52.526,117.382,53.034,117.382,53.66L117.382,53.66z M124.469,53.66c0,0.626,0.508,1.134,1.134,1.134c0.626,0,1.134-0.508,1.134-1.134s-0.508-1.134-1.134-1.134C124.977,52.526,124.469,53.034,124.469,53.66L124.469,53.66z M124.469,11.14c0,0.626,0.508,1.134,1.134,1.134c0.626,0,1.134-0.508,1.134-1.134s-0.508-1.134-1.134-1.134C124.977,10.006,124.469,10.514,124.469,11.14L124.469,11.14z M117.382,11.14c0,0.626,0.508,1.134,1.134,1.134c0.626,0,1.134-0.508,1.134-1.134s-0.508-1.134-1.134-1.134C117.89,10.006,117.382,10.514,117.382,11.14L117.382,11.14z M110.296,11.14c0,0.626,0.508,1.134,1.134,1.134c0.626,0,1.134-0.508,1.134-1.134s-0.508-1.134-1.134-1.134C110.804,10.006,110.296,10.514,110.296,11.14L110.296,11.14z M103.209,11.14c0,0.626,0.508,1.134,1.134,1.134c0.626,0,1.134-0.508,1.134-1.134s-0.508-1.134-1.134-1.134C103.717,10.006,103.209,10.514,103.209,11.14L103.209,11.14z M96.123,11.14c0,0.626,0.508,1.134,1.134,1.134c0.626,0,1.134-0.508,1.134-1.134s-0.508-1.134-1.134-1.134C96.631,10.006,96.123,10.514,96.123,11.14L96.123,11.14z M89.036,11.14c0,0.626,0.508,1.134,1.134,1.134c0.626,0,1.134-0.508,1.134-1.134s-0.508-1.134-1.134-1.134C89.544,10.006,89.036,10.514,89.036,11.14L89.036,11.14z M81.95,11.14c0,0.626,0.508,1.134,1.134,1.134c0.626,0,1.134-0.508,1.134-1.134s-0.508-1.134-1.134-1.134C82.457,10.006,81.95,10.514,81.95,11.14L81.95,11.14z M74.863,11.14c0,0.626,0.508,1.134,1.134,1.134c0.626,0,1.134-0.508,1.134-1.134s-0.508-1.134-1.134-1.134C75.37,10.006,74.863,10.514,74.863,11.14L74.863,11.14z M16.583,61.2c0,0.783,0.635,1.417,1.418,1.417c0.783,0,1.417-0.634,1.417-1.417c0-0.783-0.634-1.417-1.417-1.418C17.218,59.782,16.583,60.417,16.583,61.2C16.583,61.2,16.583,61.2,16.583,61.2z M23.783,61.2c0,0.783,0.635,1.417,1.418,1.417c0.783,0,1.417-0.634,1.417-1.417c0-0.783-0.634-1.417-1.417-1.418C24.418,59.782,23.783,60.417,23.783,61.2C23.783,61.2,23.783,61.2,23.783,61.2z M30.983,61.2c0,0.783,0.635,1.417,1.417,1.417c0.783,0,1.417-0.635,1.417-1.417c0-0.783-0.634-1.417-1.417-1.418C31.618,59.782,30.983,60.417,30.983,61.2C30.983,61.2,30.983,61.2,30.983,61.2z M38.183,61.2c-0.001,0.783,0.633,1.418,1.416,1.419c0.783,0.001,1.418-0.633,1.419-1.416c0-0.001,0-0.002,0-0.003c0.001-0.783-0.633-1.418-1.416-1.419c-0.783-0.001-1.418,0.633-1.419,1.416C38.183,61.198,38.183,61.199,38.183,61.2z M45.383,61.2c0,0.783,0.635,1.417,1.417,1.417c0.783,0,1.417-0.635,1.417-1.417c0.001-0.783-0.633-1.418-1.416-1.419c-0.783-0.001-1.418,0.633-1.419,1.416C45.383,61.198,45.383,61.199,45.383,61.2z M52.583,61.2c-0.001,0.783,0.633,1.418,1.416,1.419c0.783,0.001,1.418-0.633,1.419-1.416c0-0.001,0-0.002,0-0.003c0.001-0.783-0.633-1.418-1.416-1.419c-0.783-0.001-1.418,0.633-1.419,1.416C52.583,61.198,52.583,61.199,52.583,61.2z M59.783,61.2c0,0.783,0.635,1.417,1.417,1.417c0.783,0,1.417-0.635,1.417-1.417c0.001-0.783-0.633-1.418-1.416-1.419c-0.783-0.001-1.418,0.633-1.419,1.416C59.783,61.198,59.783,61.199,59.783,61.2z M66.983,61.2c-0.001,0.783,0.633,1.418,1.416,1.419c0.783,0.001,1.418-0.633,1.419-1.416c0-0.001,0-0.002,0-0.003c0.001-0.783-0.633-1.418-1.416-1.419c-0.783-0.001-1.418,0.633-1.419,1.416C66.983,61.198,66.983,61.199,66.983,61.2z M74.182,61.2c-0.001,0.783,0.633,1.418,1.416,1.419c0.783,0.001,1.418-0.633,1.419-1.416c0-0.001,0-0.002,0-0.003c0.001-0.783-0.633-1.418-1.416-1.419c-0.783-0.001-1.418,0.633-1.419,1.416C74.182,61.198,74.182,61.199,74.182,61.2z M81.382,61.2c-0.001,0.783,0.633,1.418,1.416,1.419c0.783,0.001,1.418-0.633,1.419-1.416c0-0.001,0-0.002,0-0.003c0.001-0.783-0.633-1.418-1.416-1.419c-0.783-0.001-1.418,0.633-1.419,1.416C81.382,61.198,81.382,61.199,81.382,61.2z M88.582,61.2c-0.001,0.783,0.633,1.418,1.416,1.419c0.783,0.001,1.418-0.633,1.419-1.416c0-0.001,0-0.002,0-0.003c0.001-0.783-0.633-1.418-1.416-1.419c-0.783-0.001-1.418,0.633-1.419,1.416C88.582,61.198,88.582,61.199,88.582,61.2z M95.782,61.2c-0.001,0.783,0.633,1.418,1.416,1.419c0.783,0.001,1.418-0.633,1.419-1.416c0-0.001,0-0.002,0-0.003c0.001-0.783-0.633-1.418-1.416-1.419c-0.783-0.001-1.418,0.633-1.419,1.416C95.782,61.198,95.782,61.199,95.782,61.2z M102.982,61.2c-0.001,0.783,0.633,1.418,1.416,1.419c0.783,0.001,1.418-0.633,1.419-1.416c0-0.001,0-0.002,0-0.003c0.001-0.783-0.633-1.418-1.416-1.419c-0.783-0.001-1.418,0.633-1.419,1.416C102.982,61.198,102.982,61.199,102.982,61.2z M110.182,61.2c-0.001,0.783,0.633,1.418,1.416,1.419c0.783,0.001,1.418-0.633,1.419-1.416c0-0.001,0-0.002,0-0.003c0.001-0.783-0.633-1.418-1.416-1.419c-0.783-0.001-1.418,0.633-1.419,1.416C110.182,61.198,110.182,61.199,110.182,61.2z M117.382,61.2c-0.001,0.783,0.633,1.418,1.416,1.419c0.783,0.001,1.418-0.633,1.419-1.416c0-0.001,0-0.002,0-0.003c0.001-0.783-0.633-1.418-1.416-1.419c-0.783-0.001-1.418,0.633-1.419,1.416C117.382,61.198,117.382,61.199,117.382,61.2z M124.582,61.2c-0.001,0.783,0.633,1.418,1.416,1.419c0.783,0.001,1.418-0.633,1.419-1.416c0-0.001,0-0.002,0-0.003c0.001-0.783-0.633-1.418-1.416-1.419c-0.783-0.001-1.418,0.633-1.419,1.416C124.582,61.198,124.582,61.199,124.582,61.2z M124.582,3.6c-0.001,0.783,0.633,1.418,1.416,1.419c0.783,0.001,1.418-0.633,1.419-1.416c0-0.001,0-0.002,0-0.003c0.001-0.783-0.633-1.418-1.416-1.419c-0.783-0.001-1.418,0.633-1.419,1.416C124.582,3.598,124.582,3.599,124.582,3.6z M117.382,3.6c-0.001,0.783,0.633,1.418,1.416,1.419c0.783,0.001,1.418-0.633,1.419-1.416c0-0.001,0-0.002,0-0.003c0.001-0.783-0.633-1.418-1.416-1.419c-0.783-0.001-1.418,0.633-1.419,1.416C117.382,3.598,117.382,3.599,117.382,3.6z M110.182,3.6c-0.001,0.783,0.633,1.418,1.416,1.419c0.783,0.001,1.418-0.633,1.419-1.416c0-0.001,0-0.002,0-0.003c0.001-0.783-0.633-1.418-1.416-1.419c-0.783-0.001-1.418,0.633-1.419,1.416C110.182,3.598,110.182,3.599,110.182,3.6z M102.982,3.6c-0.001,0.783,0.633,1.418,1.416,1.419c0.783,0.001,1.418-0.633,1.419-1.416c0-0.001,0-0.002,0-0.003c0.001-0.783-0.633-1.418-1.416-1.419c-0.783-0.001-1.418,0.633-1.419,1.416C102.982,3.598,102.982,3.599,102.982,3.6z M95.782,3.6c-0.001,0.783,0.633,1.418,1.416,1.419c0.783,0.001,1.418-0.633,1.419-1.416c0-0.001,0-0.002,0-0.003c0.001-0.783-0.633-1.418-1.416-1.419c-0.783-0.001-1.418,0.633-1.419,1.416C95.782,3.598,95.782,3.599,95.782,3.6z M88.582,3.6c-0.001,0.783,0.633,1.418,1.416,1.419c0.783,0.001,1.418-0.633,1.419-1.416c0-0.001,0-0.002,0-0.003c0.001-0.783-0.633-1.418-1.416-1.419c-0.783-0.001-1.418,0.633-1.419,1.416C88.582,3.598,88.582,3.599,88.582,3.6z M81.382,3.6c-0.001,0.783,0.633,1.418,1.416,1.419c0.783,0.001,1.418-0.633,1.419-1.416c0-0.001,0-0.002,0-0.003c0.001-0.783-0.633-1.418-1.416-1.419c-0.783-0.001-1.418,0.633-1.419,1.416C81.382,3.598,81.382,3.599,81.382,3.6z M74.182,3.6c-0.001,0.783,0.633,1.418,1.416,1.419c0.783,0.001,1.418-0.633,1.419-1.416c0-0.001,0-0.002,0-0.003c0.001-0.783-0.633-1.418-1.416-1.419c-0.783-0.001-1.418,0.633-1.419,1.416C74.182,3.598,74.182,3.599,74.182,3.6z M66.983,3.6c-0.001,0.783,0.633,1.418,1.416,1.419c0.783,0.001,1.418-0.633,1.419-1.416c0-0.001,0-0.002,0-0.003c0.001-0.783-0.633-1.418-1.416-1.419c-0.783-0.001-1.418,0.633-1.419,1.416C66.983,3.598,66.983,3.599,66.983,3.6z M59.783,3.6c0,0.783,0.635,1.417,1.417,1.417c0.783,0,1.417-0.635,1.417-1.417c0.001-0.783-0.633-1.418-1.416-1.419c-0.783-0.001-1.418,0.633-1.419,1.416C59.783,3.598,59.783,3.599,59.783,3.6z M52.583,3.6c-0.001,0.783,0.633,1.418,1.416,1.419c0.783,0.001,1.418-0.633,1.419-1.416c0-0.001,0-0.002,0-0.003c0.001-0.783-0.633-1.418-1.416-1.419c-0.783-0.001-1.418,0.633-1.419,1.416C52.583,3.598,52.583,3.599,52.583,3.6z M45.383,3.6c0,0.783,0.635,1.417,1.417,1.417c0.783,0,1.417-0.635,1.417-1.417c0.001-0.783-0.633-1.418-1.416-1.419c-0.783-0.001-1.418,0.633-1.419,1.416C45.383,3.598,45.383,3.599,45.383,3.6z M3.657,7.2c-0.003,1.957,1.58,3.546,3.537,3.549s3.546-1.58,3.549-3.537c0-0.004,0-0.008,0-0.012c0.003-1.957-1.58-3.546-3.537-3.549C5.249,3.647,3.66,5.231,3.657,7.188C3.657,7.192,3.657,7.196,3.657,7.2z M3.657,57.6c-0.003,1.957,1.58,3.546,3.537,3.549c1.957,0.003,3.546-1.58,3.549-3.537c0-0.004,0-0.008,0-0.012c0.003-1.957-1.58-3.546-3.537-3.549s-3.546,1.58-3.549,3.537C3.657,57.592,3.657,57.596,3.657,57.6z"/>
    <g  gorn="0.3" id="g10">
        <title  id="title12">layer 21</title>
        <g  gorn="0.3.1" id="g14">
            <title  id="title16">element:A0</title>
            <g  gorn="0.3.1.1" id="g18">
                <title  id="title20">package:SOLDERJUMPER_REFLOW_NOPASTE</title>
            </g>
        </g>
        <g  gorn="0.3.2" id="g22">
            <title  id="title24">element:A1</title>
            <g  gorn="0.3.2.1" id="g26">
                <title  id="title28">package:SOLDERJUMPER_REFLOW_NOPASTE</title>
            </g>
        </g>
        <g  gorn="0.3.3" id="g30">
            <title  id="title32">element:A2</title>
            <g  gorn="0.3.3.1" id="g34">
                <title  id="title36">package:SOLDERJUMPER_REFLOW_NOPASTE</title>
            </g>
        </g>
        <g  gorn="0.3.4" id="g38">
            <title  id="title40">element:C1</title>
            <g  gorn="0.3.4.1" id="g42">
                <title  id="title44">package:0805-NO</title>
            </g>
        </g>
        <g  gorn="0.3.5" id="g46">
            <title  id="title48">element:C2</title>
            <g  gorn="0.3.5.1" id="g50">
                <title  id="title52">package:0805-NO</title>
            </g>
        </g>
        <g  gorn="0.3.6" id="g54">
            <title  id="title56">element:C3</title>
            <g  gorn="0.3.6.1" id="g58">
                <title  id="title60">package:0805-NO</title>
            </g>
        </g>
        <g  gorn="0.3.7" id="g62">
            <title  id="title64">element:D1</title>
            <g  gorn="0.3.7.1" id="g66">
                <title  id="title68">package:SOD-323F</title>
            </g>
        </g>
        <g  gorn="0.3.8" id="g70">
            <title  id="title72">element:FID1</title>
            <g  gorn="0.3.8.1" id="g74">
                <title  id="title76">package:FIDUCIAL_1MM</title>
            </g>
        </g>
        <g  gorn="0.3.9" id="g78">
            <title  id="title80">element:FID2</title>
            <g  gorn="0.3.9.1" id="g82">
                <title  id="title84">package:FIDUCIAL_1MM</title>
            </g>
        </g>
        <g  gorn="0.3.10" id="g86">
            <title  id="title88">element:LED1</title>
            <g  gorn="0.3.10.1" id="g90">
                <title  id="title92">package:SEGMENT_BL-M07C881UR</title>
                <line stroke-width="0.576"  gorn="0.3.10.1.1" id="line94" stroke-linecap="round" stroke="#FFFFFF" y1="3.77" fill="none" y2="3.77" x1="14.57" x2="71.83"/>
                <line stroke-width="0.576"  gorn="0.3.10.1.2" id="line96" stroke-linecap="round" stroke="#FFFFFF" y1="3.77" fill="none" y2="61.03" x1="71.83" x2="71.83"/>
                <line stroke-width="0.576"  gorn="0.3.10.1.3" id="line98" stroke-linecap="round" stroke="#FFFFFF" y1="61.03" fill="none" y2="61.03" x1="71.83" x2="14.57"/>
                <line stroke-width="0.576"  gorn="0.3.10.1.4" id="line100" stroke-linecap="round" stroke="#FFFFFF" y1="61.03" fill="none" y2="3.77" x1="14.57" x2="14.57"/>
                <circle  gorn="0.3.10.1.5" r="2.88" id="circle102" fill="none" cx="18.36" cy="57.24"/>
            </g>
        </g>
        <g  gorn="0.3.11" id="g104">
            <title  id="title106">element:LED2</title>
            <g  gorn="0.3.11.1" id="g108">
                <title  id="title110">package:SEGMENT_BL-M07C881UR</title>
                <line stroke-width="0.576"  gorn="0.3.11.1.1" id="line112" stroke-linecap="round" stroke="#FFFFFF" y1="3.77" fill="none" y2="3.77" x1="72.17" x2="129.43"/>
                <line stroke-width="0.576"  gorn="0.3.11.1.2" id="line114" stroke-linecap="round" stroke="#FFFFFF" y1="3.77" fill="none" y2="61.03" x1="129.43" x2="129.43"/>
                <line stroke-width="0.576"  gorn="0.3.11.1.3" id="line116" stroke-linecap="round" stroke="#FFFFFF" y1="61.03" fill="none" y2="61.03" x1="129.43" x2="72.17"/>
                <line stroke-width="0.576"  gorn="0.3.11.1.4" id="line118" stroke-linecap="round" stroke="#FFFFFF" y1="61.03" fill="none" y2="3.77" x1="72.17" x2="72.17"/>
                <circle  gorn="0.3.11.1.5" r="2.88" id="circle120" fill="none" cx="75.96" cy="57.24"/>
            </g>
        </g>
        <g  gorn="0.3.12" id="g122">
            <title  id="title124">element:MS1</title>
            <g  gorn="0.3.12.1" id="g126">
                <title  id="title128">package:FEATHERWING</title>
            </g>
        </g>
        <g  gorn="0.3.13" id="g130">
            <title  id="title132">element:R1</title>
            <g  gorn="0.3.13.1" id="g134">
                <title  id="title136">package:0805-NO</title>
            </g>
        </g>
        <g  gorn="0.3.14" id="g138">
            <title  id="title140">element:R2</title>
            <g  gorn="0.3.14.1" id="g142">
                <title  id="title144">package:0805-NO</title>
            </g>
        </g>
        <g  gorn="0.3.15" id="g146">
            <title  id="title148">element:R3</title>
            <g  gorn="0.3.15.1" id="g150">
                <title  id="title152">package:0805-NO</title>
            </g>
        </g>
        <g  gorn="0.3.16" id="g154">
            <title  id="title156">element:R4</title>
            <g  gorn="0.3.16.1" id="g158">
                <title  id="title160">package:0805-NO</title>
            </g>
        </g>
        <g  gorn="0.3.17" id="g162">
            <title  id="title164">element:R5</title>
            <g  gorn="0.3.17.1" id="g166">
                <title  id="title168">package:0805-NO</title>
            </g>
        </g>
        <g  gorn="0.3.18" id="g170">
            <title  id="title172">element:U$1</title>
            <g  gorn="0.3.18.1" id="g174">
                <title  id="title176">package:FEATHERLOGO_SMALL</title>
            </g>
        </g>
        <g  gorn="0.3.19" id="g178">
            <title  id="title180">element:U$2</title>
            <g  gorn="0.3.19.1" id="g182">
                <title  id="title184">package:ADAFRUIT_5MM</title>
            </g>
        </g>
        <g  gorn="0.3.20" id="g186">
            <title  id="title188">element:U2</title>
            <g  gorn="0.3.20.1" id="g190">
                <title  id="title192">package:SOP28_300MIL_SKINNY</title>
            </g>
        </g>
    </g>
    <circle stroke-width="1.2421"  gorn="0.4" r="1.755" id="connector0pin" stroke="#9A916C" fill="none" cx="18.397" cy="53.66"/>
    <circle stroke-width="1.2421"  gorn="0.5" r="1.755" id="connector1pin" stroke="#9A916C" fill="none" cx="25.484" cy="53.66"/>
    <circle stroke-width="1.2421"  gorn="0.6" r="1.755" id="connector2pin" stroke="#9A916C" fill="none" cx="32.57" cy="53.66"/>
    <circle stroke-width="1.2421"  gorn="0.7" r="1.755" id="connector3pin" stroke="#9A916C" fill="none" cx="39.657" cy="53.66"/>
    <circle stroke-width="1.2421"  gorn="0.8" r="1.755" id="connector4pin" stroke="#9A916C" fill="none" cx="46.743" cy="53.66"/>
    <circle stroke-width="1.2421"  gorn="0.9" r="1.755" id="connector5pin" stroke="#9A916C" fill="none" cx="53.83" cy="53.66"/>
    <circle stroke-width="1.2421"  gorn="0.10" r="1.755" id="connector6pin" stroke="#9A916C" fill="none" cx="60.917" cy="53.66"/>
    <circle stroke-width="1.2421"  gorn="0.11" r="1.755" id="connector7pin" stroke="#9A916C" fill="none" cx="68.003" cy="53.66"/>
    <circle stroke-width="1.2421"  gorn="0.12" r="1.755" id="connector8pin" stroke="#9A916C" fill="none" cx="68.003" cy="11.14"/>
    <circle stroke-width="1.2421"  gorn="0.13" r="1.755" id="connector9pin" stroke="#9A916C" fill="none" cx="60.917" cy="11.14"/>
    <circle stroke-width="1.2421"  gorn="0.14" r="1.755" id="connector10pin" stroke="#9A916C" fill="none" cx="53.83" cy="11.14"/>
    <circle stroke-width="1.2421"  gorn="0.15" r="1.755" id="connector11pin" stroke="#9A916C" fill="none" cx="46.743" cy="11.14"/>
    <circle stroke-width="1.2421"  gorn="0.16" r="1.755" id="connector12pin" stroke="#9A916C" fill="none" cx="39.657" cy="11.14"/>
    <circle stroke-width="1.2421"  gorn="0.17" r="1.755" id="connector13pin" stroke="#9A916C" fill="none" cx="32.57" cy="11.14"/>
    <circle stroke-width="1.2421"  gorn="0.18" r="1.755" id="connector14pin" stroke="#9A916C" fill="none" cx="25.484" cy="11.14"/>
    <circle stroke-width="1.2421"  gorn="0.19" r="1.755" id="connector15pin" stroke="#9A916C" fill="none" cx="18.397" cy="11.14"/>
    <circle stroke-width="1.2421"  gorn="0.20" r="1.755" id="connector16pin" stroke="#9A916C" fill="none" cx="75.997" cy="53.66"/>
    <circle stroke-width="1.2421"  gorn="0.21" r="1.755" id="connector17pin" stroke="#9A916C" fill="none" cx="83.084" cy="53.66"/>
    <circle stroke-width="1.2421"  gorn="0.22" r="1.755" id="connector18pin" stroke="#9A916C" fill="none" cx="90.17" cy="53.66"/>
    <circle stroke-width="1.2421"  gorn="0.23" r="1.755" id="connector19pin" stroke="#9A916C" fill="none" cx="97.257" cy="53.66"/>
    <circle stroke-width="1.2421"  gorn="0.24" r="1.755" id="connector20pin" stroke="#9A916C" fill="none" cx="104.343" cy="53.66"/>
    <circle stroke-width="1.2421"  gorn="0.25" r="1.755" id="connector21pin" stroke="#9A916C" fill="none" cx="111.43" cy="53.66"/>
    <circle stroke-width="1.2421"  gorn="0.26" r="1.755" id="connector22pin" stroke="#9A916C" fill="none" cx="118.516" cy="53.66"/>
    <circle stroke-width="1.2421"  gorn="0.27" r="1.755" id="connector23pin" stroke="#9A916C" fill="none" cx="125.603" cy="53.66"/>
    <circle stroke-width="1.2421"  gorn="0.28" r="1.755" id="connector24pin" stroke="#9A916C" fill="none" cx="125.603" cy="11.14"/>
    <circle stroke-width="1.2421"  gorn="0.29" r="1.755" id="connector25pin" stroke="#9A916C" fill="none" cx="118.516" cy="11.14"/>
    <circle stroke-width="1.2421"  gorn="0.30" r="1.755" id="connector26pin" stroke="#9A916C" fill="none" cx="111.43" cy="11.14"/>
    <circle stroke-width="1.2421"  gorn="0.31" r="1.755" id="connector27pin" stroke="#9A916C" fill="none" cx="104.343" cy="11.14"/>
    <circle stroke-width="1.2421"  gorn="0.32" r="1.755" id="connector28pin" stroke="#9A916C" fill="none" cx="97.257" cy="11.14"/>
    <circle stroke-width="1.2421"  gorn="0.33" r="1.755" id="connector29pin" stroke="#9A916C" fill="none" cx="90.17" cy="11.14"/>
    <circle stroke-width="1.2421"  gorn="0.34" r="1.755" id="connector30pin" stroke="#9A916C" fill="none" cx="83.084" cy="11.14"/>
    <circle stroke-width="1.2421"  gorn="0.35" r="1.755" id="connector31pin" stroke="#9A916C" fill="none" cx="75.997" cy="11.14"/>
    <circle stroke-width="1.1027"  gorn="0.36" r="1.969" id="connector32pin" stroke="#9A916C" fill="none" cx="18" cy="61.2"/>
    <circle stroke-width="1.1027"  gorn="0.37" r="1.969" id="connector33pin" stroke="#9A916C" fill="none" cx="25.2" cy="61.2"/>
    <circle stroke-width="1.1027"  gorn="0.38" r="1.969" id="connector34pin" stroke="#9A916C" fill="none" cx="32.4" cy="61.2"/>
    <circle stroke-width="1.1027"  gorn="0.39" r="1.969" id="connector35pin" stroke="#9A916C" fill="none" cx="39.6" cy="61.2"/>
    <circle stroke-width="1.1027"  gorn="0.40" r="1.969" id="connector36pin" stroke="#9A916C" fill="none" cx="46.8" cy="61.2"/>
    <circle stroke-width="1.1027"  gorn="0.41" r="1.969" id="connector37pin" stroke="#9A916C" fill="none" cx="54" cy="61.2"/>
    <circle stroke-width="1.1027"  gorn="0.42" r="1.969" id="connector38pin" stroke="#9A916C" fill="none" cx="61.2" cy="61.2"/>
    <circle stroke-width="1.1027"  gorn="0.43" r="1.969" id="connector39pin" stroke="#9A916C" fill="none" cx="68.4" cy="61.2"/>
    <circle stroke-width="1.1027"  gorn="0.44" r="1.969" id="connector40pin" stroke="#9A916C" fill="none" cx="75.6" cy="61.2"/>
    <circle stroke-width="1.1027"  gorn="0.45" r="1.969" id="connector41pin" stroke="#9A916C" fill="none" cx="82.8" cy="61.2"/>
    <circle stroke-width="1.1027"  gorn="0.46" r="1.969" id="connector42pin" stroke="#9A916C" fill="none" cx="90" cy="61.2"/>
    <circle stroke-width="1.1027"  gorn="0.47" r="1.969" id="connector43pin" stroke="#9A916C" fill="none" cx="97.2" cy="61.2"/>
    <circle stroke-width="1.1027"  gorn="0.48" r="1.969" id="connector44pin" stroke="#9A916C" fill="none" cx="104.4" cy="61.2"/>
    <circle stroke-width="1.1027"  gorn="0.49" r="1.969" id="connector45pin" stroke="#9A916C" fill="none" cx="111.6" cy="61.2"/>
    <circle stroke-width="1.1027"  gorn="0.50" r="1.969" id="connector46pin" stroke="#9A916C" fill="none" cx="118.8" cy="61.2"/>
    <circle stroke-width="1.1027"  gorn="0.51" r="1.969" id="connector47pin" stroke="#9A916C" fill="none" cx="126" cy="61.2"/>
    <circle stroke-width="1.1027"  gorn="0.52" r="1.969" id="connector48pin" stroke="#9A916C" fill="none" cx="126" cy="3.6"/>
    <circle stroke-width="1.1027"  gorn="0.53" r="1.969" id="connector49pin" stroke="#9A916C" fill="none" cx="118.8" cy="3.6"/>
    <circle stroke-width="1.1027"  gorn="0.54" r="1.969" id="connector50pin" stroke="#9A916C" fill="none" cx="111.6" cy="3.6"/>
    <circle stroke-width="1.1027"  gorn="0.55" r="1.969" id="connector51pin" stroke="#9A916C" fill="none" cx="104.4" cy="3.6"/>
    <circle stroke-width="1.1027"  gorn="0.56" r="1.969" id="connector52pin" stroke="#9A916C" fill="none" cx="97.2" cy="3.6"/>
    <circle stroke-width="1.1027"  gorn="0.57" r="1.969" id="connector53pin" stroke="#9A916C" fill="none" cx="90" cy="3.6"/>
    <circle stroke-width="1.1027"  gorn="0.58" r="1.969" id="connector54pin" stroke="#9A916C" fill="none" cx="82.8" cy="3.6"/>
    <circle stroke-width="1.1027"  gorn="0.59" r="1.969" id="connector55pin" stroke="#9A916C" fill="none" cx="75.6" cy="3.6"/>
    <circle stroke-width="1.1027"  gorn="0.60" r="1.969" id="connector56pin" stroke="#9A916C" fill="none" cx="68.4" cy="3.6"/>
    <circle stroke-width="1.1027"  gorn="0.61" r="1.969" id="connector57pin" stroke="#9A916C" fill="none" cx="61.2" cy="3.6"/>
    <circle stroke-width="1.1027"  gorn="0.62" r="1.969" id="connector58pin" stroke="#9A916C" fill="none" cx="54" cy="3.6"/>
    <circle stroke-width="1.1027"  gorn="0.63" r="1.969" id="connector59pin" stroke="#9A916C" fill="none" cx="46.8" cy="3.6"/>
    <circle stroke-width="1.8567"  gorn="0.64" r="4.472" id="connector60pin" stroke="#9A916C" fill="none" cx="7.2" cy="7.2"/>
    <circle stroke-width="1.8567"  gorn="0.65" r="4.472" id="connector61pin" stroke="#9A916C" fill="none" cx="7.2" cy="57.6"/>
    <g  transform="matrix(0.99999855,0,0,0.99999845,15.124454,4.1349345)">
        <g >
            <g >
                <g >
                    <g >
                        <g >
                            <g  gorn="0.66.0.0.0.0.0.0" id="g3">
                                <rect width="56.693"  gorn="0.66.0.0.0.0.0.0.0" id="rect5" fill="#141414" x="0" height="56.693" y="0"/>
                                <path  gorn="0.66.0.0.0.0.0.0.1" id="path7" d="M6.236,3.543c0,1.487-1.206,2.693-2.693,2.693S0.85,5.031,0.85,3.543S2.056,0.85,3.543,0.85S6.236,2.056,6.236,3.543z M10.63,0.85c-1.487,0-2.693,1.206-2.693,2.693s1.206,2.693,2.693,2.693s2.693-1.206,2.693-2.693S12.117,0.85,10.63,0.85z M17.717,0.85c-1.487,0-2.693,1.206-2.693,2.693s1.206,2.693,2.693,2.693S20.41,5.03,20.41,3.543S19.204,0.85,17.717,0.85z M24.803,0.85c-1.487,0-2.693,1.206-2.693,2.693s1.206,2.693,2.693,2.693c1.487,0,2.693-1.206,2.693-2.693S26.29,0.85,24.803,0.85z M31.89,0.85c-1.487,0-2.693,1.206-2.693,2.693s1.206,2.693,2.693,2.693c1.487,0,2.693-1.206,2.693-2.693S33.377,0.85,31.89,0.85z M38.976,0.85c-1.487,0-2.693,1.206-2.693,2.693s1.206,2.693,2.693,2.693s2.693-1.206,2.693-2.693S40.464,0.85,38.976,0.85z M46.063,0.85c-1.487,0-2.693,1.206-2.693,2.693s1.206,2.693,2.693,2.693s2.693-1.206,2.693-2.693S47.55,0.85,46.063,0.85z M53.15,0.85c-1.487,0-2.693,1.206-2.693,2.693s1.206,2.693,2.693,2.693s2.693-1.206,2.693-2.693S54.637,0.85,53.15,0.85z M3.543,7.937c-1.487,0-2.693,1.206-2.693,2.693s1.206,2.693,2.693,2.693s2.693-1.206,2.693-2.693S5.031,7.937,3.543,7.937z M10.63,7.937c-1.487,0-2.693,1.206-2.693,2.693s1.206,2.693,2.693,2.693s2.693-1.206,2.693-2.693S12.117,7.937,10.63,7.937z M17.717,7.937c-1.487,0-2.693,1.206-2.693,2.693s1.206,2.693,2.693,2.693s2.693-1.206,2.693-2.693S19.204,7.937,17.717,7.937z M24.803,7.937c-1.487,0-2.693,1.206-2.693,2.693s1.206,2.693,2.693,2.693c1.487,0,2.693-1.206,2.693-2.693S26.29,7.937,24.803,7.937z M31.89,7.937c-1.487,0-2.693,1.206-2.693,2.693s1.206,2.693,2.693,2.693c1.487,0,2.693-1.206,2.693-2.693S33.377,7.937,31.89,7.937z M38.976,7.937c-1.487,0-2.693,1.206-2.693,2.693s1.206,2.693,2.693,2.693s2.693-1.206,2.693-2.693S40.464,7.937,38.976,7.937z M46.063,7.937c-1.487,0-2.693,1.206-2.693,2.693s1.206,2.693,2.693,2.693s2.693-1.206,2.693-2.693S47.55,7.937,46.063,7.937z M53.15,7.937c-1.487,0-2.693,1.206-2.693,2.693s1.206,2.693,2.693,2.693s2.693-1.206,2.693-2.693S54.637,7.937,53.15,7.937z M3.543,15.024c-1.487,0-2.693,1.206-2.693,2.693c0,1.487,1.206,2.693,2.693,2.693s2.693-1.206,2.693-2.693C6.236,16.23,5.031,15.024,3.543,15.024z M10.63,15.024c-1.487,0-2.693,1.206-2.693,2.693c0,1.487,1.206,2.693,2.693,2.693s2.693-1.206,2.693-2.693C13.323,16.23,12.117,15.024,10.63,15.024z M17.717,15.024c-1.487,0-2.693,1.206-2.693,2.693c0,1.487,1.206,2.693,2.693,2.693s2.693-1.206,2.693-2.693C20.41,16.23,19.204,15.024,17.717,15.024z M24.803,15.024c-1.487,0-2.693,1.206-2.693,2.693c0,1.487,1.206,2.693,2.693,2.693c1.487,0,2.693-1.206,2.693-2.693C27.496,16.23,26.29,15.024,24.803,15.024z M31.89,15.024c-1.487,0-2.693,1.206-2.693,2.693c0,1.487,1.206,2.693,2.693,2.693c1.487,0,2.693-1.206,2.693-2.693C34.583,16.23,33.377,15.024,31.89,15.024z M38.976,15.024c-1.487,0-2.693,1.206-2.693,2.693c0,1.487,1.206,2.693,2.693,2.693s2.693-1.206,2.693-2.693C41.669,16.23,40.464,15.024,38.976,15.024z M46.063,15.024c-1.487,0-2.693,1.206-2.693,2.693c0,1.487,1.206,2.693,2.693,2.693s2.693-1.206,2.693-2.693C48.756,16.23,47.55,15.024,46.063,15.024z M53.15,15.024c-1.487,0-2.693,1.206-2.693,2.693c0,1.487,1.206,2.693,2.693,2.693s2.693-1.206,2.693-2.693C55.843,16.23,54.637,15.024,53.15,15.024z M3.543,22.11c-1.487,0-2.693,1.206-2.693,2.693c0,1.487,1.206,2.693,2.693,2.693s2.693-1.206,2.693-2.693C6.236,23.316,5.031,22.11,3.543,22.11z M10.63,22.11c-1.487,0-2.693,1.206-2.693,2.693c0,1.487,1.206,2.693,2.693,2.693s2.693-1.206,2.693-2.693C13.323,23.316,12.117,22.11,10.63,22.11z M17.717,22.11c-1.487,0-2.693,1.206-2.693,2.693c0,1.487,1.206,2.693,2.693,2.693s2.693-1.206,2.693-2.693C20.41,23.316,19.204,22.11,17.717,22.11z M24.803,22.11c-1.487,0-2.693,1.206-2.693,2.693c0,1.487,1.206,2.693,2.693,2.693c1.487,0,2.693-1.206,2.693-2.693C27.496,23.316,26.29,22.11,24.803,22.11z M31.89,22.11c-1.487,0-2.693,1.206-2.693,2.693c0,1.487,1.206,2.693,2.693,2.693c1.487,0,2.693-1.206,2.693-2.693C34.583,23.316,33.377,22.11,31.89,22.11z M38.976,22.11c-1.487,0-2.693,1.206-2.693,2.693c0,1.487,1.206,2.693,2.693,2.693s2.693-1.206,2.693-2.693C41.669,23.316,40.464,22.11,38.976,22.11z M46.063,22.11c-1.487,0-2.693,1.206-2.693,2.693c0,1.487,1.206,2.693,2.693,2.693s2.693-1.206,2.693-2.693C48.756,23.316,47.55,22.11,46.063,22.11z M53.15,22.11c-1.487,0-2.693,1.206-2.693,2.693c0,1.487,1.206,2.693,2.693,2.693s2.693-1.206,2.693-2.693C55.843,23.316,54.637,22.11,53.15,22.11z M3.543,29.197c-1.487,0-2.693,1.206-2.693,2.693s1.206,2.693,2.693,2.693s2.693-1.206,2.693-2.693S5.031,29.197,3.543,29.197z M10.63,29.197c-1.487,0-2.693,1.206-2.693,2.693s1.206,2.693,2.693,2.693s2.693-1.206,2.693-2.693S12.117,29.197,10.63,29.197z M17.717,29.197c-1.487,0-2.693,1.206-2.693,2.693s1.206,2.693,2.693,2.693s2.693-1.206,2.693-2.693C20.409,30.403,19.204,29.197,17.717,29.197z M24.803,29.197c-1.487,0-2.693,1.206-2.693,2.693s1.206,2.693,2.693,2.693c1.487,0,2.693-1.206,2.693-2.693S26.29,29.197,24.803,29.197z M31.89,29.197c-1.487,0-2.693,1.206-2.693,2.693s1.206,2.693,2.693,2.693c1.487,0,2.693-1.206,2.693-2.693S33.377,29.197,31.89,29.197z M38.976,29.197c-1.487,0-2.693,1.206-2.693,2.693s1.206,2.693,2.693,2.693s2.693-1.206,2.693-2.693S40.464,29.197,38.976,29.197z M46.063,29.197c-1.487,0-2.693,1.206-2.693,2.693s1.206,2.693,2.693,2.693s2.693-1.206,2.693-2.693S47.55,29.197,46.063,29.197z M53.15,29.197c-1.487,0-2.693,1.206-2.693,2.693s1.206,2.693,2.693,2.693s2.693-1.206,2.693-2.693S54.637,29.197,53.15,29.197z M3.543,36.283c-1.487,0-2.693,1.206-2.693,2.693s1.206,2.693,2.693,2.693s2.693-1.206,2.693-2.693S5.031,36.283,3.543,36.283z M10.63,36.283c-1.487,0-2.693,1.206-2.693,2.693s1.206,2.693,2.693,2.693s2.693-1.206,2.693-2.693S12.117,36.283,10.63,36.283z M17.717,36.283c-1.487,0-2.693,1.206-2.693,2.693s1.206,2.693,2.693,2.693s2.693-1.206,2.693-2.693S19.204,36.283,17.717,36.283z M24.803,36.283c-1.487,0-2.693,1.206-2.693,2.693s1.206,2.693,2.693,2.693c1.487,0,2.693-1.206,2.693-2.693S26.29,36.283,24.803,36.283z M31.89,36.283c-1.487,0-2.693,1.206-2.693,2.693s1.206,2.693,2.693,2.693c1.487,0,2.693-1.206,2.693-2.693S33.377,36.283,31.89,36.283z M38.976,36.283c-1.487,0-2.693,1.206-2.693,2.693s1.206,2.693,2.693,2.693s2.693-1.206,2.693-2.693S40.464,36.283,38.976,36.283z M46.063,36.283c-1.487,0-2.693,1.206-2.693,2.693s1.206,2.693,2.693,2.693s2.693-1.206,2.693-2.693S47.55,36.283,46.063,36.283z M53.15,36.283c-1.487,0-2.693,1.206-2.693,2.693s1.206,2.693,2.693,2.693s2.693-1.206,2.693-2.693S54.637,36.283,53.15,36.283z M3.543,43.37c-1.487,0-2.693,1.206-2.693,2.693s1.206,2.693,2.693,2.693s2.693-1.206,2.693-2.693S5.031,43.37,3.543,43.37z M10.63,43.37c-1.487,0-2.693,1.206-2.693,2.693s1.206,2.693,2.693,2.693s2.693-1.206,2.693-2.693S12.117,43.37,10.63,43.37z M17.717,43.37c-1.487,0-2.693,1.206-2.693,2.693s1.206,2.693,2.693,2.693s2.693-1.206,2.693-2.693S19.204,43.37,17.717,43.37z M24.803,43.37c-1.487,0-2.693,1.206-2.693,2.693s1.206,2.693,2.693,2.693c1.487,0,2.693-1.206,2.693-2.693S26.29,43.37,24.803,43.37z M31.89,43.37c-1.487,0-2.693,1.206-2.693,2.693s1.206,2.693,2.693,2.693c1.487,0,2.693-1.206,2.693-2.693S33.377,43.37,31.89,43.37z M38.976,43.37c-1.487,0-2.693,1.206-2.693,2.693s1.206,2.693,2.693,2.693s2.693-1.206,2.693-2.693S40.464,43.37,38.976,43.37z M46.063,43.37c-1.487,0-2.693,1.206-2.693,2.693s1.206,2.693,2.693,2.693s2.693-1.206,2.693-2.693S47.55,43.37,46.063,43.37z M53.15,43.37c-1.487,0-2.693,1.206-2.693,2.693s1.206,2.693,2.693,2.693s2.693-1.206,2.693-2.693S54.637,43.37,53.15,43.37z M3.543,50.457c-1.487,0-2.693,1.206-2.693,2.693s1.206,2.693,2.693,2.693s2.693-1.206,2.693-2.693S5.031,50.457,3.543,50.457z M10.63,50.457c-1.487,0-2.693,1.206-2.693,2.693s1.206,2.693,2.693,2.693s2.693-1.206,2.693-2.693S12.117,50.457,10.63,50.457z M17.717,50.457c-1.487,0-2.693,1.206-2.693,2.693s1.206,2.693,2.693,2.693s2.693-1.206,2.693-2.693S19.204,50.457,17.717,50.457z M24.803,50.457c-1.487,0-2.693,1.206-2.693,2.693s1.206,2.693,2.693,2.693c1.487,0,2.693-1.206,2.693-2.693S26.29,50.457,24.803,50.457z M31.89,50.457c-1.487,0-2.693,1.206-2.693,2.693s1.206,2.693,2.693,2.693c1.487,0,2.693-1.206,2.693-2.693S33.377,50.457,31.89,50.457z M38.976,50.457c-1.487,0-2.693,1.206-2.693,2.693s1.206,2.693,2.693,2.693s2.693-1.206,2.693-2.693S40.464,50.457,38.976,50.457z M46.063,50.457c-1.487,0-2.693,1.206-2.693,2.693s1.206,2.693,2.693,2.693s2.693-1.206,2.693-2.693S47.55,50.457,46.063,50.457z M53.15,50.457c-1.487,0-2.693,1.206-2.693,2.693s1.206,2.693,2.693,2.693s2.693-1.206,2.693-2.693S54.637,50.457,53.15,50.457z" fill="#00E664"/>
                            </g>
                        </g>
                    </g>
                </g>
            </g>
        </g>
    </g>
    <g  transform="matrix(0.99999855,0,0,0.99999845,71.818515,4.1349345)">
        <g >
            <g >
                <g >
                    <g >
                        <g >
                            <g  gorn="0.67.0.0.0.0.0.0" id="g4709">
                                <rect width="56.693"  gorn="0.67.0.0.0.0.0.0.0" id="rect4711" fill="#141414" x="0" height="56.693" y="0"/>
                                <path  gorn="0.67.0.0.0.0.0.0.1" id="path4713" d="M6.236,3.543c0,1.487-1.206,2.693-2.693,2.693S0.85,5.031,0.85,3.543S2.056,0.85,3.543,0.85S6.236,2.056,6.236,3.543z M10.63,0.85c-1.487,0-2.693,1.206-2.693,2.693s1.206,2.693,2.693,2.693s2.693-1.206,2.693-2.693S12.117,0.85,10.63,0.85z M17.717,0.85c-1.487,0-2.693,1.206-2.693,2.693s1.206,2.693,2.693,2.693S20.41,5.03,20.41,3.543S19.204,0.85,17.717,0.85z M24.803,0.85c-1.487,0-2.693,1.206-2.693,2.693s1.206,2.693,2.693,2.693c1.487,0,2.693-1.206,2.693-2.693S26.29,0.85,24.803,0.85z M31.89,0.85c-1.487,0-2.693,1.206-2.693,2.693s1.206,2.693,2.693,2.693c1.487,0,2.693-1.206,2.693-2.693S33.377,0.85,31.89,0.85z M38.976,0.85c-1.487,0-2.693,1.206-2.693,2.693s1.206,2.693,2.693,2.693s2.693-1.206,2.693-2.693S40.464,0.85,38.976,0.85z M46.063,0.85c-1.487,0-2.693,1.206-2.693,2.693s1.206,2.693,2.693,2.693s2.693-1.206,2.693-2.693S47.55,0.85,46.063,0.85z M53.15,0.85c-1.487,0-2.693,1.206-2.693,2.693s1.206,2.693,2.693,2.693s2.693-1.206,2.693-2.693S54.637,0.85,53.15,0.85z M3.543,7.937c-1.487,0-2.693,1.206-2.693,2.693s1.206,2.693,2.693,2.693s2.693-1.206,2.693-2.693S5.031,7.937,3.543,7.937z M10.63,7.937c-1.487,0-2.693,1.206-2.693,2.693s1.206,2.693,2.693,2.693s2.693-1.206,2.693-2.693S12.117,7.937,10.63,7.937z M17.717,7.937c-1.487,0-2.693,1.206-2.693,2.693s1.206,2.693,2.693,2.693s2.693-1.206,2.693-2.693S19.204,7.937,17.717,7.937z M24.803,7.937c-1.487,0-2.693,1.206-2.693,2.693s1.206,2.693,2.693,2.693c1.487,0,2.693-1.206,2.693-2.693S26.29,7.937,24.803,7.937z M31.89,7.937c-1.487,0-2.693,1.206-2.693,2.693s1.206,2.693,2.693,2.693c1.487,0,2.693-1.206,2.693-2.693S33.377,7.937,31.89,7.937z M38.976,7.937c-1.487,0-2.693,1.206-2.693,2.693s1.206,2.693,2.693,2.693s2.693-1.206,2.693-2.693S40.464,7.937,38.976,7.937z M46.063,7.937c-1.487,0-2.693,1.206-2.693,2.693s1.206,2.693,2.693,2.693s2.693-1.206,2.693-2.693S47.55,7.937,46.063,7.937z M53.15,7.937c-1.487,0-2.693,1.206-2.693,2.693s1.206,2.693,2.693,2.693s2.693-1.206,2.693-2.693S54.637,7.937,53.15,7.937z M3.543,15.024c-1.487,0-2.693,1.206-2.693,2.693c0,1.487,1.206,2.693,2.693,2.693s2.693-1.206,2.693-2.693C6.236,16.23,5.031,15.024,3.543,15.024z M10.63,15.024c-1.487,0-2.693,1.206-2.693,2.693c0,1.487,1.206,2.693,2.693,2.693s2.693-1.206,2.693-2.693C13.323,16.23,12.117,15.024,10.63,15.024z M17.717,15.024c-1.487,0-2.693,1.206-2.693,2.693c0,1.487,1.206,2.693,2.693,2.693s2.693-1.206,2.693-2.693C20.41,16.23,19.204,15.024,17.717,15.024z M24.803,15.024c-1.487,0-2.693,1.206-2.693,2.693c0,1.487,1.206,2.693,2.693,2.693c1.487,0,2.693-1.206,2.693-2.693C27.496,16.23,26.29,15.024,24.803,15.024z M31.89,15.024c-1.487,0-2.693,1.206-2.693,2.693c0,1.487,1.206,2.693,2.693,2.693c1.487,0,2.693-1.206,2.693-2.693C34.583,16.23,33.377,15.024,31.89,15.024z M38.976,15.024c-1.487,0-2.693,1.206-2.693,2.693c0,1.487,1.206,2.693,2.693,2.693s2.693-1.206,2.693-2.693C41.669,16.23,40.464,15.024,38.976,15.024z M46.063,15.024c-1.487,0-2.693,1.206-2.693,2.693c0,1.487,1.206,2.693,2.693,2.693s2.693-1.206,2.693-2.693C48.756,16.23,47.55,15.024,46.063,15.024z M53.15,15.024c-1.487,0-2.693,1.206-2.693,2.693c0,1.487,1.206,2.693,2.693,2.693s2.693-1.206,2.693-2.693C55.843,16.23,54.637,15.024,53.15,15.024z M3.543,22.11c-1.487,0-2.693,1.206-2.693,2.693c0,1.487,1.206,2.693,2.693,2.693s2.693-1.206,2.693-2.693C6.236,23.316,5.031,22.11,3.543,22.11z M10.63,22.11c-1.487,0-2.693,1.206-2.693,2.693c0,1.487,1.206,2.693,2.693,2.693s2.693-1.206,2.693-2.693C13.323,23.316,12.117,22.11,10.63,22.11z M17.717,22.11c-1.487,0-2.693,1.206-2.693,2.693c0,1.487,1.206,2.693,2.693,2.693s2.693-1.206,2.693-2.693C20.41,23.316,19.204,22.11,17.717,22.11z M24.803,22.11c-1.487,0-2.693,1.206-2.693,2.693c0,1.487,1.206,2.693,2.693,2.693c1.487,0,2.693-1.206,2.693-2.693C27.496,23.316,26.29,22.11,24.803,22.11z M31.89,22.11c-1.487,0-2.693,1.206-2.693,2.693c0,1.487,1.206,2.693,2.693,2.693c1.487,0,2.693-1.206,2.693-2.693C34.583,23.316,33.377,22.11,31.89,22.11z M38.976,22.11c-1.487,0-2.693,1.206-2.693,2.693c0,1.487,1.206,2.693,2.693,2.693s2.693-1.206,2.693-2.693C41.669,23.316,40.464,22.11,38.976,22.11z M46.063,22.11c-1.487,0-2.693,1.206-2.693,2.693c0,1.487,1.206,2.693,2.693,2.693s2.693-1.206,2.693-2.693C48.756,23.316,47.55,22.11,46.063,22.11z M53.15,22.11c-1.487,0-2.693,1.206-2.693,2.693c0,1.487,1.206,2.693,2.693,2.693s2.693-1.206,2.693-2.693C55.843,23.316,54.637,22.11,53.15,22.11z M3.543,29.197c-1.487,0-2.693,1.206-2.693,2.693s1.206,2.693,2.693,2.693s2.693-1.206,2.693-2.693S5.031,29.197,3.543,29.197z M10.63,29.197c-1.487,0-2.693,1.206-2.693,2.693s1.206,2.693,2.693,2.693s2.693-1.206,2.693-2.693S12.117,29.197,10.63,29.197z M17.717,29.197c-1.487,0-2.693,1.206-2.693,2.693s1.206,2.693,2.693,2.693s2.693-1.206,2.693-2.693C20.409,30.403,19.204,29.197,17.717,29.197z M24.803,29.197c-1.487,0-2.693,1.206-2.693,2.693s1.206,2.693,2.693,2.693c1.487,0,2.693-1.206,2.693-2.693S26.29,29.197,24.803,29.197z M31.89,29.197c-1.487,0-2.693,1.206-2.693,2.693s1.206,2.693,2.693,2.693c1.487,0,2.693-1.206,2.693-2.693S33.377,29.197,31.89,29.197z M38.976,29.197c-1.487,0-2.693,1.206-2.693,2.693s1.206,2.693,2.693,2.693s2.693-1.206,2.693-2.693S40.464,29.197,38.976,29.197z M46.063,29.197c-1.487,0-2.693,1.206-2.693,2.693s1.206,2.693,2.693,2.693s2.693-1.206,2.693-2.693S47.55,29.197,46.063,29.197z M53.15,29.197c-1.487,0-2.693,1.206-2.693,2.693s1.206,2.693,2.693,2.693s2.693-1.206,2.693-2.693S54.637,29.197,53.15,29.197z M3.543,36.283c-1.487,0-2.693,1.206-2.693,2.693s1.206,2.693,2.693,2.693s2.693-1.206,2.693-2.693S5.031,36.283,3.543,36.283z M10.63,36.283c-1.487,0-2.693,1.206-2.693,2.693s1.206,2.693,2.693,2.693s2.693-1.206,2.693-2.693S12.117,36.283,10.63,36.283z M17.717,36.283c-1.487,0-2.693,1.206-2.693,2.693s1.206,2.693,2.693,2.693s2.693-1.206,2.693-2.693S19.204,36.283,17.717,36.283z M24.803,36.283c-1.487,0-2.693,1.206-2.693,2.693s1.206,2.693,2.693,2.693c1.487,0,2.693-1.206,2.693-2.693S26.29,36.283,24.803,36.283z M31.89,36.283c-1.487,0-2.693,1.206-2.693,2.693s1.206,2.693,2.693,2.693c1.487,0,2.693-1.206,2.693-2.693S33.377,36.283,31.89,36.283z M38.976,36.283c-1.487,0-2.693,1.206-2.693,2.693s1.206,2.693,2.693,2.693s2.693-1.206,2.693-2.693S40.464,36.283,38.976,36.283z M46.063,36.283c-1.487,0-2.693,1.206-2.693,2.693s1.206,2.693,2.693,2.693s2.693-1.206,2.693-2.693S47.55,36.283,46.063,36.283z M53.15,36.283c-1.487,0-2.693,1.206-2.693,2.693s1.206,2.693,2.693,2.693s2.693-1.206,2.693-2.693S54.637,36.283,53.15,36.283z M3.543,43.37c-1.487,0-2.693,1.206-2.693,2.693s1.206,2.693,2.693,2.693s2.693-1.206,2.693-2.693S5.031,43.37,3.543,43.37z M10.63,43.37c-1.487,0-2.693,1.206-2.693,2.693s1.206,2.693,2.693,2.693s2.693-1.206,2.693-2.693S12.117,43.37,10.63,43.37z M17.717,43.37c-1.487,0-2.693,1.206-2.693,2.693s1.206,2.693,2.693,2.693s2.693-1.206,2.693-2.693S19.204,43.37,17.717,43.37z M24.803,43.37c-1.487,0-2.693,1.206-2.693,2.693s1.206,2.693,2.693,2.693c1.487,0,2.693-1.206,2.693-2.693S26.29,43.37,24.803,43.37z M31.89,43.37c-1.487,0-2.693,1.206-2.693,2.693s1.206,2.693,2.693,2.693c1.487,0,2.693-1.206,2.693-2.693S33.377,43.37,31.89,43.37z M38.976,43.37c-1.487,0-2.693,1.206-2.693,2.693s1.206,2.693,2.693,2.693s2.693-1.206,2.693-2.693S40.464,43.37,38.976,43.37z M46.063,43.37c-1.487,0-2.693,1.206-2.693,2.693s1.206,2.693,2.693,2.693s2.693-1.206,2.693-2.693S47.55,43.37,46.063,43.37z M53.15,43.37c-1.487,0-2.693,1.206-2.693,2.693s1.206,2.693,2.693,2.693s2.693-1.206,2.693-2.693S54.637,43.37,53.15,43.37z M3.543,50.457c-1.487,0-2.693,1.206-2.693,2.693s1.206,2.693,2.693,2.693s2.693-1.206,2.693-2.693S5.031,50.457,3.543,50.457z M10.63,50.457c-1.487,0-2.693,1.206-2.693,2.693s1.206,2.693,2.693,2.693s2.693-1.206,2.693-2.693S12.117,50.457,10.63,50.457z M17.717,50.457c-1.487,0-2.693,1.206-2.693,2.693s1.206,2.693,2.693,2.693s2.693-1.206,2.693-2.693S19.204,50.457,17.717,50.457z M24.803,50.457c-1.487,0-2.693,1.206-2.693,2.693s1.206,2.693,2.693,2.693c1.487,0,2.693-1.206,2.693-2.693S26.29,50.457,24.803,50.457z M31.89,50.457c-1.487,0-2.693,1.206-2.693,2.693s1.206,2.693,2.693,2.693c1.487,0,2.693-1.206,2.693-2.693S33.377,50.457,31.89,50.457z M38.976,50.457c-1.487,0-2.693,1.206-2.693,2.693s1.206,2.693,2.693,2.693s2.693-1.206,2.693-2.693S40.464,50.457,38.976,50.457z M46.063,50.457c-1.487,0-2.693,1.206-2.693,2.693s1.206,2.693,2.693,2.693s2.693-1.206,2.693-2.693S47.55,50.457,46.063,50.457z M53.15,50.457c-1.487,0-2.693,1.206-2.693,2.693s1.206,2.693,2.693,2.693s2.693-1.206,2.693-2.693S54.637,50.457,53.15,50.457z" fill="#00E664"/>
                            </g>
                        </g>
                    </g>
                </g>
            </g>
        </g>
    </g>
</svg>
