<?xml version='1.0' encoding='utf-8'?>
<!DOCTYPE svg>
<!-- Generator: Adobe Illustrator 23.0.2, SVG Export Plug-In . SVG Version: 6.00 Build 0)  -->
<svg xmlns="http://www.w3.org/2000/svg" version="1.1" x="0px" gorn="0" y="0px" id="Layer_1" viewBox="0 0 34.6089249 93.6835403"  xmlns:xml="http://www.w3.org/XML/1998/namespace" baseProfile="basic" height="1.30116in" width="0.48068in" xml:space="preserve">
    <desc >
        <referenceFile >DHT11.svg</referenceFile>
    </desc>
    <metadata >
        <sfw >
            <slices />
            <sliceSourceBounds x="-0.0614637" y="-93.8563614"  bottomLeftOrigin="true" height="93.7597351" width="34.6699829"/>
        </sfw>
    </metadata>
    <g >
        <g >
            <g >
                <path  fill="#0C0D0D" d="M-0.0614637,0.0966227V76.356575h34.6699829V0.0966227H-0.0614637z M12.298522,57.8266029c0.3200073,0,0.5900269,0.2700195,0.5900269,0.5999756c0,0.3200073-0.2700195,0.5900269-0.5900269,0.5900269c-0.3299561,0-0.5999756-0.2700195-0.5999756-0.5900269C11.6985464,58.0966225,11.9685659,57.8266029,12.298522,57.8266029z M22.2485332,57.8266029c0.3300171,0,0.5900269,0.2700195,0.5900269,0.5999756c0,0.3200073-0.2600098,0.5900269-0.5900269,0.5900269s-0.5900269-0.2700195-0.5900269-0.5900269C21.6585064,58.0966225,21.9185162,57.8266029,22.2485332,57.8266029z M21.2085552,55.3165932c-0.2300415,0.2399902-0.6100464,0.2399902-0.8400269,0c-0.2299805-0.2299805-0.2299805-0.5999756,0-0.8300171c0.2299805-0.2299805,0.6099854-0.2299805,0.8400269,0C21.4385357,54.7166176,21.4385357,55.0866127,21.2085552,55.3165932z M21.2085552,62.3565712c-0.2300415,0.2300415-0.6100464,0.2300415-0.8400269,0c-0.2299805-0.2299805-0.2299805-0.5999756,0-0.8299561c0.2299805-0.2300415,0.6099854-0.2300415,0.8400269,0C21.4385357,61.7565956,21.4385357,62.1265907,21.2085552,62.3565712z M21.0185528,58.4265785c0,2.0700073-1.6799927,3.75-3.75,3.75s-3.749999-1.6799927-3.749999-3.75c0-2.0799561,1.6799927-3.75,3.749999-3.75S21.0185528,56.3466225,21.0185528,58.4265785z M17.8585186,63.3966103c0,0.3299561-0.2600098,0.5899658-0.5899658,0.5899658c-0.3200073,0-0.5900269-0.2600098-0.5900269-0.5899658c0-0.3200073,0.2700195-0.5900269,0.5900269-0.5900269C17.5985088,62.8065834,17.8585186,63.0766029,17.8585186,63.3966103z M14.1685171,55.3165932c-0.2299805,0.2399902-0.5999756,0.2399902-0.8399658,0c-0.2300415-0.2299805-0.2300415-0.5999756,0-0.8300171c0.2399902-0.2299805,0.6099854-0.2299805,0.8399658,0C14.3985586,54.7166176,14.3985586,55.0866127,14.1685171,55.3165932z M13.3285513,61.5266151c0.2399902-0.2300415,0.6099854-0.2300415,0.8399658,0c0.2300415,0.2299805,0.2300415,0.5999756,0,0.8299561c-0.2299805,0.2300415-0.5999756,0.2300415-0.8399658,0C13.0985098,62.1265907,13.0985098,61.7565956,13.3285513,61.5266151z M17.8585186,53.4465981c0,0.3300171-0.2600098,0.5899658-0.5899658,0.5899658c-0.3200073,0-0.5900269-0.2599487-0.5900269-0.5899658s0.2700195-0.5900269,0.5900269-0.5900269C17.5985088,52.8565712,17.8585186,53.116581,17.8585186,53.4465981z M4.8385606,68.2865677c-0.6300049,0-1.1300046-0.5-1.1300046-1.1299438c0-0.6300049,0.4999998-1.1300049,1.1300046-1.1300049s1.1300049,0.5,1.1300049,1.1300049C5.9685655,67.7865677,5.4685655,68.2865677,4.8385606,68.2865677z"/>
                <g >
                    <polygon  fill="#414141" points="8.0288105,69.1483765 6.4656005,70.711586 6.4656005,74.7841568 8.0288105,76.3483734 12.1013803,76.3483734 13.6655998,74.7841568 13.6655998,70.711586 12.1013803,69.1483765 "/>
                    <rect x="8.6698999" gorn="0.2.0.0.1.1" y="71.3526764" id="connector0pin_1_"  height="2.7913799" fill="none" width="2.7913799"/>
                    <rect x="8.9169302" y="71.5997009"  height="22.2566528" fill="#8D8C8C" width="2.2983201"/>
                    <polygon  fill="#414141" points="15.2287903,69.1483765 13.6655998,70.711586 13.6655998,74.7841568 15.2287903,76.3483734 19.3014011,76.3483734 20.8656006,74.7841568 20.8656006,70.711586 19.3014011,69.1483765 "/>
                    <rect x="15.8698797" gorn="0.2.0.0.1.4" y="71.3526764" id="connector1pin_1_"  height="2.7913799" fill="none" width="2.7913799"/>
                    <rect x="16.1169109" y="71.5997009"  height="22.2566528" fill="#8D8C8C" width="2.2983198"/>
                    <polygon  fill="#817A5C" points="17.8562012,73.3389511 17.8562012,72.1577835 18.4152012,71.5997009 18.4152012,73.8980255 "/>
                    <polygon  fill="#9A916C" points="16.1169109,71.5997009 16.6750011,72.1577835 16.6750011,73.3389511 16.1169109,73.8980255 "/>
                    <polygon  fill="#414141" points="22.4288006,69.1483765 20.8656006,70.711586 20.8656006,74.7841568 22.4288006,76.3483734 26.5014019,76.3483734 28.0656013,74.7841568 28.0656013,70.711586 26.5014019,69.1483765 "/>
                    <rect x="23.0699005" gorn="0.2.0.0.1.9" y="71.3526764" id="connector2pin_1_"  height="2.7913799" fill="none" width="2.7913799"/>
                    <rect x="23.3169003" y="71.5997009"  height="22.2566528" fill="#8D8C8C" width="2.2983208"/>
                    <polygon  fill="#817A5C" points="25.0562,73.3389511 25.0562,72.1577835 25.6152,71.5997009 25.6152,73.8980255 "/>
                    <polygon  fill="#9A916C" points="23.3169003,71.5997009 23.8750019,72.1577835 23.8750019,73.3389511 23.3169003,73.8980255 "/>
                    <rect x="8.9104023" y="71.6190033"  height="22.2250004" fill="#9A916C" width="0.8771835"/>
                    <rect x="16.1194229" y="71.5990067"  height="22.2250004" fill="#9A916C" width="0.8771835"/>
                    <rect x="23.3060894" y="71.595871"  height="22.2250004" fill="#9A916C" width="0.8771835"/>
                    <rect x="10.3256969" y="71.605278"  height="22.2250004" fill="#817A5C" width="0.8771835"/>
                    <polygon  fill="#B8AF82" points="8.9169302,71.5997009 9.4750099,72.1577835 10.6561804,72.1577835 11.21525,71.5997009 "/>
                    <polygon  fill="#5F5C44" points="9.4750099,93.2942505 10.6561804,93.2942505 11.21525,93.8533173 8.9169302,93.8533173 "/>
                    <rect x="9.4730492" y="72.1566086"  height="21.1367111" fill="#8D8664" width="1.1821599"/>
                    <rect x="17.5235405" y="71.5980225"  height="22.2250004" fill="#817A5C" width="0.8771835"/>
                    <rect x="24.7205982" y="71.588028"  height="22.2250004" fill="#817A5C" width="0.8771835"/>
                    <polygon  fill="#B8AF82" points="16.1169109,71.5997009 16.6750011,72.1577835 17.8562012,72.1577835 18.4152012,71.5997009 "/>
                    <polygon  fill="#5F5C44" points="16.6750011,93.2942505 17.8562012,93.2942505 18.4152012,93.8533173 16.1169109,93.8533173 "/>
                    <rect x="16.6730404" y="72.1566086"  height="21.1367111" fill="#8D8664" width="1.1821604"/>
                    <polygon  fill="#B8AF82" points="23.3169003,71.5997009 23.8750019,72.1577835 25.0562,72.1577835 25.6152,71.5997009 "/>
                    <polygon  fill="#5F5C44" points="23.8750019,93.2942505 25.0562,93.2942505 25.6152,93.8533173 23.3169003,93.8533173 "/>
                    <rect x="23.8730412" y="72.1566086"  height="21.1367111" fill="#8D8664" width="1.1821594"/>
                    <rect x="9.4687357" y="92.1138611"  height="1.1821599" fill="#8D8664" width="1.1821599"/>
                    <rect x="16.668726" y="92.1138611"  height="1.1821599" fill="#8D8664" width="1.1821604"/>
                    <rect x="23.8687267" y="92.1138611"  height="1.1821599" fill="#8D8664" width="1.1821594"/>
                </g>
                <path  fill="#AFAEAF" d="M17.2651978,52.0765648c-3.5,0-6.3499756,2.8400269-6.3499756,6.3500366c0,3.5,2.8499756,6.3499794,6.3499756,6.3499794c3.5100098,0,6.3499756-2.8499794,6.3499756-6.3499794C23.6151733,54.9165916,20.7752075,52.0765648,17.2651978,52.0765648z M17.2651978,52.8565941c0.3300171,0,0.5900269,0.2600098,0.5900269,0.5900269c0,0.3299561-0.2600098,0.5899658-0.5900269,0.5899658c-0.3200073,0-0.5900269-0.2600098-0.5900269-0.5899658C16.6751709,53.1166039,16.9451904,52.8565941,17.2651978,52.8565941z M13.3251953,54.486599c0.2399902-0.2299805,0.6099854-0.2299805,0.8400269,0c0.2299805,0.2299805,0.2299805,0.5999756,0,0.8300171c-0.2300415,0.2399902-0.6000366,0.2399902-0.8400269,0C13.0952148,55.0865746,13.0952148,54.7165794,13.3251953,54.486599z M12.2952271,59.0165672c-0.3300171,0-0.6000366-0.2699585-0.6000366-0.5899658c0-0.3300171,0.2700195-0.6000366,0.6000366-0.6000366c0.3199463,0,0.5899658,0.2700195,0.5899658,0.6000366C12.8851929,58.7466087,12.6151733,59.0165672,12.2952271,59.0165672z M14.1652222,62.3565941c-0.2300415,0.2299805-0.6000366,0.2299805-0.8400269,0c-0.2299805-0.2299805-0.2299805-0.5999756,0-0.8300171c0.2399902-0.2299805,0.6099854-0.2299805,0.8400269,0C14.3952026,61.7566185,14.3952026,62.1266136,14.1652222,62.3565941z M17.2651978,63.986599c-0.3200073,0-0.5900269-0.2600098-0.5900269-0.5900269c0-0.3200073,0.2700195-0.5899658,0.5900269-0.5899658c0.3300171,0,0.5900269,0.2699585,0.5900269,0.5899658C17.8552246,63.7265892,17.5952148,63.986599,17.2651978,63.986599z M17.2651978,62.1766014c-2.0700073,0-3.75-1.6799927-3.75-3.75c0-2.0800171,1.6799927-3.75,3.75-3.75s3.75,1.6699829,3.75,3.75C21.0151978,60.4966087,19.3352051,62.1766014,17.2651978,62.1766014z M21.2052002,62.3565941c-0.2299805,0.2299805-0.6099854,0.2299805-0.8400269,0c-0.2299805-0.2299805-0.2299805-0.5999756,0-0.8300171c0.2300415-0.2299805,0.6100464-0.2299805,0.8400269,0C21.4351807,61.7566185,21.4351807,62.1266136,21.2052002,62.3565941z M21.2052002,55.3166161c-0.2299805,0.2399902-0.6099854,0.2399902-0.8400269,0c-0.2299805-0.2300415-0.2299805-0.6000366,0-0.8300171c0.2300415-0.2299805,0.6100464-0.2299805,0.8400269,0S21.4351807,55.0865746,21.2052002,55.3166161z M22.2451782,59.0165672c-0.3299561,0-0.5899658-0.2699585-0.5899658-0.5899658c0-0.3300171,0.2600098-0.6000366,0.5899658-0.6000366c0.3300171,0,0.5900269,0.2700195,0.5900269,0.6000366C22.8352051,58.7466087,22.5751953,59.0165672,22.2451782,59.0165672z"/>
            </g>
            <g >
                <circle  cx="6.9735279" cy="45.6899414" r="1.6333333" fill="#AFAEAF"/>
                <circle  cx="13.8401947" cy="45.6899414" r="1.6333333" fill="#AFAEAF"/>
                <circle  cx="20.7068615" cy="45.6899414" r="1.6333333" fill="#AFAEAF"/>
                <circle  cx="27.5735283" cy="45.6899414" r="1.6333333" fill="#AFAEAF"/>
            </g>
            <g >
                <path  fill="#F2F0EF" d="M10.4991875,67.4003296v1.2935944h-0.4081612v-1.2935944H9.0151949v-0.4575577h1.0758314v-1.2625275h0.4081612v1.2625275h1.0758324v0.4575577H10.4991875z"/>
                <path  fill="#F2F0EF" d="M14.4705696,66.0968552c0.2254963-0.2838593,0.5316172-0.4260254,0.9183626-0.4260254s0.6928663,0.1421661,0.9183626,0.4260254c0.2254963,0.2838516,0.3382435,0.6689224,0.3382435,1.1547241s-0.1127472,0.8699265-0.3382435,1.1533127c-0.2254963,0.2829132-0.5316172,0.4246063-0.9183626,0.4246063s-0.6928663-0.1416931-0.9183626-0.4246063c-0.2254963-0.2833862-0.3382444-0.667511-0.3382444-1.1533127S14.2450733,66.3807068,14.4705696,66.0968552z M16.0513535,66.3543472c-0.1633482-0.2212448-0.3840151-0.331398-0.6624212-0.331398s-0.4992838,0.1101532-0.6624222,0.331398c-0.1631384,0.2207794-0.2446022,0.5196991-0.2446022,0.8972321c0,0.3756485,0.0814638,0.6736298,0.2446022,0.8948746c0.1631384,0.2207794,0.384016,0.3314056,0.6624222,0.3314056s0.499073-0.1106262,0.6624212-0.3314056c0.1629295-0.2212448,0.2446041-0.5192261,0.2446041-0.8948746C16.2959576,66.8740463,16.214283,66.5751266,16.0513535,66.3543472z"/>
                <path  fill="#F2F0EF" d="M17.4089508,65.7216721v1.9596939c0,0.2358398,0.0657177,0.4274292,0.1973629,0.5752411c0.1316452,0.1473465,0.3134689,0.2212524,0.5452652,0.2212524c0.2317944,0,0.4134083-0.0739059,0.5452633-0.2212524c0.1314354-0.1478119,0.1973629-0.3394012,0.1973629-0.5752411v-1.9596939h0.3401337v1.9851151c0,0.331871-0.0974216,0.6020737-0.2918434,0.8101425c-0.1948433,0.2085342-0.4583416,0.3125687-0.7909164,0.3125687c-0.3325768,0-0.5960751-0.1040344-0.7909184-0.3125687c-0.1944218-0.2080688-0.2918434-0.4782715-0.2918434-0.8101425v-1.9851151H17.4089508z"/>
                <path  fill="#F2F0EF" d="M20.7932873,68.778656h-0.3401337v-2.7133408h-0.8597851v-0.3436432h2.0597019v0.3436432h-0.8597832V68.778656z"/>
                <path  fill="#F2F0EF" d="M25.5318604,67.3551407h-1.6527996V66.897583h1.6527996V67.3551407z"/>
            </g>
            <g >
                <path  fill="#F2F0EF" d="M32.8474998,74.0562973H31.188797v-0.1999969h0.6541328v-0.0045929c-0.0674324-0.0337219-0.1195374-0.0828857-0.1563187-0.1476364c-0.0367794-0.0647507-0.0551701-0.1420135-0.0551701-0.2316666c0-0.1302643,0.0401001-0.2329407,0.1208134-0.3080368c0.0802021-0.0750961,0.1879902-0.1126404,0.3228531-0.1126404h0.7723923v0.1999969h-0.735611c-0.09655,0-0.171133,0.0240021-0.2242622,0.0717697c-0.0526161,0.0480194-0.0791798,0.1182632-0.0791798,0.2109756c0,0.0988464,0.0311623,0.1772614,0.0929737,0.2349854c0.0623226,0.0579834,0.1453323,0.0868454,0.2495461,0.0868454h0.6965332V74.0562973z"/>
                <path  fill="#F2F0EF" d="M31.3635044,72.733345v-0.1999969h0.2886257v-0.2321777h0.1644897v0.2321777h0.7100716c0.054657,0,0.0945053-0.011879,0.1203003-0.0356293c0.0255432-0.0237579,0.0385704-0.0613022,0.0385704-0.1126404c0-0.0321808-0.0020447-0.0597687-0.0058746-0.082756h0.1678123c0.0061302,0.0260544,0.0091934,0.0681992,0.0091934,0.1264343c0,0.1095734-0.0245209,0.1877289-0.0735588,0.2344742c-0.0490417,0.0467453-0.131031,0.0701141-0.2459717,0.0701141h-0.7205429v0.178154h-0.1644897v-0.178154H31.3635044z"/>
                <path  fill="#F2F0EF" d="M31.3635044,72.0241699V71.824173h0.2886257v-0.2321777h0.1644897v0.2321777h0.7100716c0.054657,0,0.0945053-0.011879,0.1203003-0.0356293c0.0255432-0.0237579,0.0385704-0.0613022,0.0385704-0.1126404c0-0.0321808-0.0020447-0.0597687-0.0058746-0.082756h0.1678123c0.0061302,0.0260544,0.0091934,0.0681992,0.0091934,0.1264343c0,0.1095734-0.0245209,0.1877289-0.0735588,0.2344742c-0.0490417,0.0467453-0.131031,0.0701141-0.2459717,0.0701141h-0.7205429v0.178154h-0.1644897v-0.178154H31.3635044z"/>
                <path  fill="#F2F0EF" d="M31.6314411,70.798912c0-0.1532516,0.056448-0.2767487,0.1688328-0.3706131c0.112896-0.0938644,0.2625732-0.1408615,0.4495392-0.1408615c0.186203,0,0.3358803,0.0467377,0.4487762,0.1402206c0.1131516,0.0934906,0.1695976,0.2157059,0.1695976,0.3666611c0,0.0842896-0.0191574,0.1597672-0.0574684,0.2264328c-0.0383148,0.066658-0.0909309,0.1180038-0.157341,0.1540146v0.0046005h0.5930901v0.1999893h-1.5943375v-0.1896439h0.2022934V71.185112c-0.068964-0.0375443-0.1233692-0.0900345-0.1632137-0.1574707C31.6513634,70.9602127,31.6314411,70.8839722,31.6314411,70.798912z M32.6922035,70.8379974c0-0.106514-0.0395927-0.1908035-0.1195374-0.2528687c-0.0794373-0.0620651-0.1872253-0.0931015-0.3228531-0.0931015s-0.2431602,0.0310364-0.3228512,0.0931015s-0.1195374,0.1463547-0.1195374,0.2528687c0,0.1026764,0.0406132,0.1854324,0.121582,0.2482681c0.08148,0.0628281,0.1882458,0.0942459,0.3208065,0.0942459c0.1333313,0,0.2403526-0.0314178,0.3213196-0.0942459C32.6518478,71.0234299,32.6922035,70.9406738,32.6922035,70.8379974z"/>
                <path  fill="#F2F0EF" d="M31.9821339,70.1069794c-0.1026802,0-0.1869678-0.0415039-0.2523556-0.1247711c-0.0656433-0.0830154-0.0983372-0.1901627-0.0983372-0.3211899c0-0.1233673,0.0329494-0.2260513,0.0988464-0.3080368c0.0658989-0.0819931,0.1494217-0.1252899,0.2505684-0.1298828v0.1907959c-0.0582352,0.006897-0.1037006,0.032692-0.1366501,0.077652c-0.0329494,0.044693-0.049551,0.103569-0.049551,0.1763687c0,0.0727921,0.016346,0.1314087,0.0487843,0.1758575c0.0326939,0.0444412,0.0753498,0.066658,0.1282215,0.066658c0.0812225,0,0.1386948-0.0662766,0.1724091-0.1988449l0.0449562-0.185051c0.0306473-0.1203003,0.07024-0.205101,0.1187706-0.2546539c0.0487823-0.0492935,0.1172371-0.0740738,0.205101-0.0740738c0.1044655,0,0.1895218,0.0444489,0.2559319,0.1333313c0.0661545,0.0888901,0.0993576,0.203064,0.0993576,0.3425217c0,0.1302643-0.0324364,0.237793-0.0970573,0.3223419c-0.0648804,0.0848007-0.150444,0.132431-0.2569542,0.143158v-0.1999893c0.1271973-0.0222244,0.1907997-0.1149445,0.1907997-0.2781525c0-0.0804596-0.0158386-0.1441879-0.0477638-0.1914368c-0.0316734-0.0470047-0.0748405-0.0706253-0.1292458-0.0706253c-0.0429077,0-0.0768814,0.0140457-0.1024208,0.0420151c-0.025032,0.0279694-0.0464859,0.0752182-0.0643654,0.1418839l-0.053894,0.2103424C32.2536469,70.002388,32.145092,70.1069794,31.9821339,70.1069794z"/>
                <path  fill="#F2F0EF" d="M31.9749813,68.7288589c0.0255413,0.0252838,0.0380573,0.0563202,0.0380573,0.0931015s-0.012516,0.0678101-0.0380573,0.0931015c-0.0250301,0.0252838-0.0561924,0.0379257-0.0929737,0.0379257c-0.0367794,0-0.0679417-0.0126419-0.0929718-0.0379257c-0.0255432-0.0252914-0.0380592-0.0563202-0.0380592-0.0931015s0.012516-0.0678177,0.0380592-0.0931015c0.0250301-0.0252914,0.0561924-0.0379333,0.0929718-0.0379333C31.9187889,68.6909256,31.9499512,68.7035675,31.9749813,68.7288589z M32.8209343,68.7288589c0.0255432,0.0252838,0.0380592,0.0563202,0.0380592,0.0931015s-0.012516,0.0678101-0.0380592,0.0931015c-0.025032,0.0252838-0.0561905,0.0379257-0.0929718,0.0379257s-0.0679436-0.0126419-0.0929756-0.0379257c-0.0255394-0.0252914-0.0380554-0.0563202-0.0380554-0.0931015s0.012516-0.0678177,0.0380554-0.0931015c0.025032-0.0252914,0.0561943-0.0379333,0.0929756-0.0379333S32.7959023,68.7035675,32.8209343,68.7288589z"/>
                <path  fill="#F2F0EF" d="M33.200489,68.35186v0.171257l-2.011692-0.5873413v-0.171257L33.200489,68.35186z"/>
                <path  fill="#F2F0EF" d="M33.200489,67.5932541v0.1712646l-2.011692-0.5873413v-0.171257L33.200489,67.5932541z"/>
                <path  fill="#F2F0EF" d="M31.6521301,65.3553848l1.1953697,0.3333282v0.2034454l-0.9251347,0.2701035v0.0046005l0.9251347,0.268959v0.2034378l-1.1953697,0.3344727v-0.1988449l0.9723854-0.2390747v-0.0045929l-0.9723854-0.2701111v-0.1930923l0.9723854-0.2712631V65.79216l-0.9723854-0.2390747V65.3553848z"/>
                <path  fill="#F2F0EF" d="M31.6521301,63.6715279l1.1953697,0.3333244v0.2034454l-0.9251347,0.2701035v0.0046005l0.9251347,0.268959v0.2034378l-1.1953697,0.3344727v-0.1988449l0.9723854-0.2390747v-0.0045929l-0.9723854-0.2701111v-0.1931l0.9723854-0.2712555v-0.0045929l-0.9723854-0.2390747V63.6715279z"/>
                <path  fill="#F2F0EF" d="M31.6521301,61.9876671l1.1953697,0.3333244v0.2034416l-0.9251347,0.2701073v0.0045967l0.9251347,0.268959v0.2034416l-1.1953697,0.3344727v-0.1988449l0.9723854-0.2390709v-0.0046005l-0.9723854-0.2701073v-0.1930962l0.9723854-0.2712593v-0.0045967l-0.9723854-0.2390709V61.9876671z"/>
                <path  fill="#F2F0EF" d="M32.8209343,61.7003174c0.0255432,0.0252876,0.0380592,0.0563202,0.0380592,0.0931015s-0.012516,0.0678139-0.0380592,0.0931015c-0.025032,0.0252876-0.0561905,0.0379295-0.0929718,0.0379295s-0.0679436-0.0126419-0.0929756-0.0379295c-0.0255394-0.0252876-0.0380554-0.0563202-0.0380554-0.0931015s0.012516-0.0678139,0.0380554-0.0931015c0.025032-0.0252876,0.0561943-0.0379295,0.0929756-0.0379295S32.7959023,61.6750298,32.8209343,61.7003174z"/>
                <path  fill="#F2F0EF" d="M31.9821339,61.3853836c-0.1026802,0-0.1869678-0.0415039-0.2523556-0.1247711c-0.0656433-0.0830116-0.0983372-0.1901627-0.0983372-0.3211937c0-0.1233673,0.0329494-0.2260475,0.0988464-0.3080368c0.0658989-0.0819893,0.1494217-0.1252823,0.2505684-0.1298828v0.1907997c-0.0582352,0.006897-0.1037006,0.0326958-0.1366501,0.0776482c-0.0329494,0.0447006-0.049551,0.1035728-0.049551,0.1763687s0.016346,0.1314125,0.0487843,0.1758575c0.0326939,0.0444412,0.0753498,0.0666656,0.1282215,0.0666656c0.0812225,0,0.1386948-0.0662842,0.1724091-0.1988449l0.0449562-0.1850548c0.0306473-0.1203003,0.07024-0.205101,0.1187706-0.2546539c0.0487823-0.0492973,0.1172371-0.07407,0.205101-0.07407c0.1044655,0,0.1895218,0.0444412,0.2559319,0.1333275c0.0661545,0.0888863,0.0993576,0.2030602,0.0993576,0.3425217c0,0.1302643-0.0324364,0.2377968-0.0970573,0.3223381c-0.0648804,0.0848007-0.150444,0.1324387-0.2569542,0.1431656v-0.1999969c0.1271973-0.0222206,0.1907997-0.1149368,0.1907997-0.2781525c0-0.0804558-0.0158386-0.1441841-0.0477638-0.1914368c-0.0316734-0.0469971-0.0748405-0.0706253-0.1292458-0.0706253c-0.0429077,0-0.0768814,0.0140495-0.1024208,0.0420189c-0.025032,0.0279694-0.0464859,0.075222-0.0643654,0.1418839l-0.053894,0.2103386C32.2536469,61.2807884,32.145092,61.3853836,31.9821339,61.3853836z"/>
                <path  fill="#F2F0EF" d="M31.3635044,60.2049561v-0.1999931h0.2886257v-0.2321777h0.1644897v0.2321777h0.7100716c0.054657,0,0.0945053-0.011879,0.1203003-0.0356331c0.0255432-0.0237541,0.0385704-0.0612984,0.0385704-0.1126404c0-0.0321808-0.0020447-0.0597687-0.0058746-0.082756h0.1678123c0.0061302,0.0260544,0.0091934,0.0681992,0.0091934,0.1264343c0,0.1095772-0.0245209,0.1877327-0.0735588,0.234478c-0.0490417,0.0467415-0.131031,0.0701103-0.2459717,0.0701103h-0.7205429v0.1781578h-0.1644897v-0.1781578H31.3635044z"/>
                <path  fill="#F2F0EF" d="M31.6521301,58.5785675h1.1953697v0.1896477h-0.1941223v0.0045967c0.1432915,0.0743294,0.2148094,0.2007637,0.2148094,0.379303c0,0.1294975-0.0393333,0.2308998-0.1177483,0.3039474c-0.0786705,0.073307-0.1859474,0.1098328-0.3223419,0.1098328h-0.7759666v-0.1999931h0.7402077c0.1992302,0,0.2988434-0.0919533,0.2988434-0.275856c0-0.09655-0.0303955-0.1725388-0.0914421-0.2280922c-0.0607872-0.0555534-0.1425247-0.0833931-0.2452011-0.0833931h-0.7024078V58.5785675z"/>
                <path  fill="#F2F0EF" d="M32.868187,57.8670921c0,0.1532516-0.0564461,0.2768745-0.1688309,0.3707428c-0.112896,0.0938683-0.2625732,0.1407356-0.449543,0.1407356c-0.1861992,0-0.3358765-0.0467415-0.4487724-0.1402245c-0.1131516-0.093483-0.1695995-0.2157021-0.1695995-0.3666573c0-0.0842896,0.0191555-0.1597672,0.0574684-0.226429c0.0383129-0.0666656,0.0909309-0.1180077,0.1573391-0.1540184v-0.0046005H31.188797v-0.1999931h1.6587029v0.1907997h-0.2022934v0.0034485c0.0697289,0.0390778,0.1243896,0.0919495,0.163723,0.1586151C32.8485222,57.7061768,32.868187,57.7820358,32.868187,57.8670921z M31.8074245,57.8291626c0,0.1057434,0.0398464,0.1896477,0.1200485,0.2517166c0.0799465,0.0620651,0.187479,0.0931015,0.32234,0.0931015c0.1356277,0,0.2434158-0.0310364,0.3228531-0.0931015c0.0799446-0.0620689,0.1195374-0.1459732,0.1195374-0.2517166c0-0.103447-0.0403557-0.1865845-0.1210709-0.2494202c-0.0809669-0.0628319-0.1879883-0.0942497-0.3213196-0.0942497c-0.1333275,0-0.2403488,0.0315437-0.3213177,0.0948906C31.8477821,57.6434708,31.8074245,57.7264824,31.8074245,57.8291626z"/>
                <path  fill="#F2F0EF" d="M31.4508591,56.9061966c0,0.0337181-0.0120049,0.0628357-0.0367813,0.0873566c-0.0242653,0.0245209-0.0533829,0.0367813-0.0873547,0.0367813c-0.0342255,0-0.0635986-0.0122604-0.0878639-0.0367813c-0.0240097-0.0245209-0.0362701-0.0536385-0.0362701-0.0873566c0-0.034481,0.0122604-0.0639801,0.0362701-0.088501c0.0242653-0.0245209,0.0536385-0.0367813,0.0878639-0.0367813c0.0339718,0,0.0630894,0.0122604,0.0873547,0.0367813C31.4388542,56.8422165,31.4508591,56.8717155,31.4508591,56.9061966z M32.8474998,57.0061951h-1.1953697v-0.1999931h1.1953697V57.0061951z"/>
                <path  fill="#F2F0EF" d="M32.868187,56.0407066c0,0.1670456-0.0556793,0.3011398-0.1673012,0.4022865c-0.1113625,0.1011467-0.2618065,0.1517181-0.4510727,0.1517181s-0.3397083-0.0505714-0.4510727-0.1517181c-0.111618-0.1011467-0.1672993-0.2352409-0.1672993-0.4022865c0-0.1662788,0.0556812-0.2999916,0.1672993-0.4011383c0.1113644-0.1011467,0.2618065-0.151722,0.4510727-0.151722c0.1885033,0,0.3386879,0.0505753,0.4505615,0.151722C32.812252,55.740715,32.868187,55.8744278,32.868187,56.0407066z M32.575222,56.2963829c0.0781555-0.0630913,0.1169815-0.1483994,0.1169815-0.2556763s-0.038826-0.1923332-0.1164742-0.2551651c-0.0778999-0.0628357-0.1864548-0.0942535-0.3259163-0.0942535c-0.1394577,0-0.2480125,0.0314178-0.3259163,0.0942535c-0.0776482,0.0628319-0.1164722,0.1478882-0.1164722,0.2551651s0.0388241,0.192585,0.1169834,0.2556763c0.0781593,0.063343,0.1867142,0.0948868,0.3254051,0.0948868C32.3885078,56.3912697,32.4970627,56.359726,32.575222,56.2963829z"/>
                <path  fill="#F2F0EF" d="M31.6314411,54.7062607c0-0.1532516,0.056448-0.2767487,0.1688328-0.3706169c0.112896-0.0938683,0.2625732-0.1408653,0.4495392-0.1408653c0.186203,0,0.3358803,0.0467415,0.4487762,0.1402283c0.1131516,0.093483,0.1695976,0.2157021,0.1695976,0.3666573c0,0.0842857-0.0191574,0.1597633-0.0574684,0.226429c-0.0383148,0.0666656-0.0909309,0.1180038-0.157341,0.1540184v0.0045967h0.5930901v0.1999969h-1.5943375v-0.1896515h0.2022934v-0.0045967c-0.068964-0.0375481-0.1233692-0.0900383-0.1632137-0.1574669C31.6513634,54.8675575,31.6314411,54.7913132,31.6314411,54.7062607z M32.6922035,54.7453384c0-0.1065102-0.0395927-0.1907997-0.1195374-0.2528648c-0.0794373-0.0620689-0.1872253-0.0931015-0.3228531-0.0931015s-0.2431602,0.0310326-0.3228512,0.0931015c-0.0796909,0.0620651-0.1195374,0.1463547-0.1195374,0.2528648c0,0.1026802,0.0406132,0.1854362,0.121582,0.2482681c0.08148,0.0628357,0.1882458,0.0942535,0.3208065,0.0942535c0.1333313,0,0.2403526-0.0314178,0.3213196-0.0942535C32.6518478,54.9307747,32.6922035,54.8480186,32.6922035,54.7453384z"/>
                <path  fill="#F2F0EF" d="M31.4508591,53.8832932c0,0.0337181-0.0120049,0.0628357-0.0367813,0.0873566c-0.0242653,0.0245171-0.0533829,0.0367775-0.0873547,0.0367775c-0.0342255,0-0.0635986-0.0122604-0.0878639-0.0367775c-0.0240097-0.0245209-0.0362701-0.0536385-0.0362701-0.0873566c0-0.034481,0.0122604-0.0639801,0.0362701-0.088501c0.0242653-0.0245209,0.0536385-0.0367813,0.0878639-0.0367813c0.0339718,0,0.0630894,0.0122604,0.0873547,0.0367813C31.4388542,53.819313,31.4508591,53.8488121,31.4508591,53.8832932z M32.8474998,53.9832916h-1.1953697v-0.1999931h1.1953697V53.9832916z"/>
                <path  fill="#F2F0EF" d="M32.5049782,52.720108v-0.1965446c0.1057472,0.0176239,0.1928444,0.0726662,0.2607841,0.1650009c0.0684547,0.0923347,0.1024246,0.203186,0.1024246,0.3326836c0,0.1708794-0.0551682,0.3053551-0.1655121,0.4034386c-0.1103401,0.0980797-0.2597618,0.1471214-0.4482613,0.1471214c-0.1869698,0-0.3374119-0.0491676-0.4515858-0.1476326s-0.1713867-0.2297516-0.1713867-0.3937302c0-0.1609154,0.053894-0.2881165,0.1621914-0.3815994c0.1077881-0.093483,0.2528687-0.1402245,0.4342155-0.1402245h0.0761147v0.8574448h0.0112381c0.1149406,0,0.2068901-0.031414,0.275856-0.0942497c0.0689621-0.0628319,0.1036987-0.1478882,0.1036987-0.2551651c0-0.0750923-0.0173683-0.1390762-0.0518494-0.1919479S32.5624504,52.7369652,32.5049782,52.720108z M31.8048706,53.0338936c0,0.0927162,0.0321846,0.1695976,0.0960388,0.2303886c0.0641098,0.0610466,0.1463547,0.0945053,0.2467346,0.1006355v-0.6494064c-0.1011429,0.0022964-0.1836452,0.0325661-0.2472458,0.0908012C31.8367996,52.8645477,31.8048706,52.9404068,31.8048706,53.0338936z"/>
                <path  fill="#F2F0EF" d="M31.3635044,52.2431107v-0.1999969h0.2886257v-0.2321739h0.1644897v0.2321739h0.7100716c0.054657,0,0.0945053-0.0118752,0.1203003-0.0356293c0.0255432-0.0237541,0.0385704-0.0613022,0.0385704-0.1126404c0-0.0321846-0.0020447-0.0597687-0.0058746-0.082756h0.1678123c0.0061302,0.0260506,0.0091934,0.0681953,0.0091934,0.1264343c0,0.1095734-0.0245209,0.1877327-0.0735588,0.2344742c-0.0490417,0.0467415-0.131031,0.0701141-0.2459717,0.0701141h-0.7205429v0.178154h-0.1644897v-0.178154H31.3635044z"/>
                <path  fill="#F2F0EF" d="M32.5049782,50.8396988v-0.1965446c0.1057472,0.0176239,0.1928444,0.0726662,0.2607841,0.1650009c0.0684547,0.0923347,0.1024246,0.2031898,0.1024246,0.3326874c0,0.1708755-0.0551682,0.3053551-0.1655121,0.4034348c-0.1103401,0.0980835-0.2597618,0.1471252-0.4482613,0.1471252c-0.1869698,0-0.3374119-0.0491714-0.4515858-0.1476364c-0.1141739-0.0984612-0.1713867-0.2297478-0.1713867-0.3937302c0-0.1609154,0.053894-0.2881126,0.1621914-0.3815994c0.1077881-0.093483,0.2528687-0.1402245,0.4342155-0.1402245h0.0761147v0.8574486h0.0112381c0.1149406,0,0.2068901-0.0314178,0.275856-0.0942497c0.0689621-0.0628357,0.1036987-0.1478882,0.1036987-0.2551651c0-0.0750961-0.0173683-0.13908-0.0518494-0.1919518S32.5624504,50.8565598,32.5049782,50.8396988z M31.8048706,51.1534843c0,0.09272,0.0321846,0.1696014,0.0960388,0.2303886c0.0641098,0.0610466,0.1463547,0.0945091,0.2467346,0.1006355v-0.6494064c-0.1011429,0.0023003-0.1836452,0.0325661-0.2472458,0.0908012C31.8367996,50.9841423,31.8048706,51.0600014,31.8048706,51.1534843z"/>
                <path  fill="#F2F0EF" d="M32.8474998,50.4270668h-1.1953697v-0.1884995h0.1953964v-0.0045967c-0.0666656-0.0199242-0.1192818-0.055809-0.1581059-0.1074028c-0.0385685-0.0518532-0.0579796-0.1125145-0.0579796-0.1822433c0-0.0160942,0.0028095-0.0429115,0.0079174-0.0804596h0.194376c-0.0076637,0.0214577-0.0114937,0.0570869-0.0114937,0.1068954c0,0.0773926,0.0257969,0.1394577,0.077137,0.1861992c0.0513382,0.0467453,0.1190243,0.0701141,0.2033138,0.0701141h0.7448082V50.4270668z"/>
                <path  fill="#F2F0EF" d="M31.9821339,49.7224922c-0.1026802,0-0.1869678-0.0415077-0.2523556-0.1247749c-0.0656433-0.0830116-0.0983372-0.1901588-0.0983372-0.3211899c0-0.1233711,0.0329494-0.2260475,0.0988464-0.3080406c0.0658989-0.0819893,0.1494217-0.1252823,0.2505684-0.129879v0.1907997c-0.0582352,0.006897-0.1037006,0.032692-0.1366501,0.0776482c-0.0329494,0.0446968-0.049551,0.1035728-0.049551,0.1763649c0,0.0727959,0.016346,0.1314163,0.0487843,0.1758575c0.0326939,0.044445,0.0753498,0.0666656,0.1282215,0.0666656c0.0812225,0,0.1386948-0.0662804,0.1724091-0.1988449l0.0449562-0.185051c0.0306473-0.1203041,0.07024-0.2051048,0.1187706-0.2546539c0.0487823-0.0492973,0.1172371-0.0740738,0.205101-0.0740738c0.1044655,0,0.1895218,0.044445,0.2559319,0.1333313c0.0661545,0.0888863,0.0993576,0.2030563,0.0993576,0.3425179c0,0.1302643-0.0324364,0.2377968-0.0970573,0.3223419c-0.0648804,0.0847969-0.150444,0.1324348-0.2569542,0.1431618v-0.1999931c0.1271973-0.0222206,0.1907997-0.1149406,0.1907997-0.2781525c0-0.0804596-0.0158386-0.1441879-0.0477638-0.1914406c-0.0316734-0.0469971-0.0748405-0.0706215-0.1292458-0.0706215c-0.0429077,0-0.0768814,0.0140457-0.1024208,0.0420151c-0.025032,0.0279694-0.0464859,0.075222-0.0643654,0.1418877l-0.053894,0.2103386C32.2536469,49.617897,32.145092,49.7224922,31.9821339,49.7224922z"/>
                <path  fill="#F2F0EF" d="M32.8209343,48.344368c0.0255432,0.0252876,0.0380592,0.0563202,0.0380592,0.0931015s-0.012516,0.0678139-0.0380592,0.0931015c-0.025032,0.0252838-0.0561905,0.0379295-0.0929718,0.0379295s-0.0679436-0.0126457-0.0929756-0.0379295c-0.0255394-0.0252876-0.0380554-0.0563202-0.0380554-0.0931015s0.012516-0.0678139,0.0380554-0.0931015c0.025032-0.0252876,0.0561943-0.0379295,0.0929756-0.0379295S32.7959023,48.3190804,32.8209343,48.344368z"/>
                <path  fill="#F2F0EF" d="M32.8474998,48.0087433h-1.1953697v-0.1884995h0.1907997v-0.0045967c-0.0666656-0.034481-0.1185169-0.0839043-0.1558075-0.1482735c-0.0370369-0.0643654-0.0556812-0.1413727-0.0556812-0.2310257c0-0.1302643,0.0393333-0.2317963,0.1177483-0.3045883c0.0786705-0.0727959,0.1862011-0.1091957,0.32234-0.1091957h0.7759705v0.1999969h-0.7402115c-0.0973129,0-0.1713867,0.0229874-0.2224712,0.0689621c-0.050827,0.0459747-0.0763702,0.1145554-0.0763702,0.2057419c0,0.0942497,0.0306511,0.1697273,0.0919514,0.226429c0.0613022,0.0567055,0.1425247,0.0850563,0.2436714,0.0850563h0.7034302V48.0087433z"/>
                <path  fill="#F2F0EF" d="M32.8474998,46.7582054H31.188797v-0.1999931h1.6587029V46.7582054z"/>
            </g>
        </g>
        <g >
            <path  fill="#379BD6" d="M34.5885315,5.2966714V2.9266765c0-1.5599977-1.2600098-2.8300171-2.830019-2.8300171h-5.8800049v3.1699829h-3.4000244V0.0966593h-3.5799561v3.1699829h-3.4000235V0.0966593h-3.5700073v3.1699829H8.528533V0.0966593H2.7884815c-1.5599977,0-2.8299561,1.2700195-2.8299561,2.8300171v2.3699949h3.0700073v3.3999639h-3.0700073v3.5800171h3.0700073v3.4000244h-3.0700073v3.5699453h3.0499878v3.4000244h-3.0499878v10.5499897h3.0499878v3.4000244h-3.0499878v5.6400146c0,1.5599976,1.2699585,2.8299561,2.8299561,2.8299561h28.9700317c1.5700092,0,2.830019-1.2699585,2.830019-2.8299561v-5.6400146h-3.2100239v-3.4000244h3.2100239V22.6466465h-3.2000141v-3.4000244h3.2000141v-3.5699453h-3.2000141v-3.4000244h3.2000141V8.6966352h-3.2000141V5.2966714H34.5885315z M11.9284964,36.5966606H8.528533v-3.4100342h3.3999634V36.5966606z M11.9284964,29.666666H8.528533v-3.4000244h3.3999634V29.666666z M11.9284964,22.7366734H8.528533v-3.4000244h3.3999634V22.7366734z M11.9284964,15.8066816H8.528533v-3.4000244h3.3999634V15.8066816z M11.9284964,8.8866377H8.528533V5.4866738h3.3999634V8.8866377z M18.8985271,36.5966606h-3.4000235v-3.4100342h3.4000235V36.5966606z M18.8985271,29.666666h-3.4000235v-3.4000244h3.4000235V29.666666z M18.8985271,22.7366734h-3.4000235v-3.4000244h3.4000235V22.7366734z M18.8985271,15.8066816h-3.4000235v-3.4000244h3.4000235V15.8066816z M18.8985271,8.8866377h-3.4000235V5.4866738h3.4000235V8.8866377z M25.8785076,36.5966606h-3.4000244v-3.4100342h3.4000244V36.5966606z M25.8785076,29.666666h-3.4000244v-3.4000244h3.4000244V29.666666z M25.8785076,22.7366734h-3.4000244v-3.4000244h3.4000244V22.7366734z M25.8785076,15.8066816h-3.4000244v-3.4000244h3.4000244V15.8066816z M25.8785076,8.8866377h-3.4000244V5.4866738h3.4000244V8.8866377z"/>
            <path  fill="#379BD6" d="M31.7563953,45.0666656H2.7906594c-1.5655316,0-2.8346457-1.2691116-2.8346457-2.8346443V2.9312685c0-1.5655316,1.269114-2.8346457,2.8346457-2.8346457h28.9657364c1.5655308,0,2.8346462,1.2691141,2.8346462,2.8346457v39.3007545C34.5910416,43.797554,33.3219261,45.0666656,31.7563953,45.0666656z" opacity="0.72"/>
        </g>
    </g>
</svg>
