<?xml version='1.0' encoding='utf-8'?>
<!DOCTYPE svg>
<!-- Generator: Adobe Illustrator 23.0.2, SVG Export Plug-In . SVG Version: 6.00 Build 0)  -->
<svg xmlns="http://www.w3.org/2000/svg" viewBox="0 0 90.6089249 98.0230942" xmlns:xml="http://www.w3.org/XML/1998/namespace"  y="0px" height="1.36143in" gorn="0" id="Layer_1" baseProfile="tiny" xml:space="preserve" version="1.2" x="0px" width="1.25846in">
    <desc >
        <referenceFile >Untitled-1.svg</referenceFile>
    </desc>
    <metadata >
        <sfw >
            <slices />
            <sliceSourceBounds  y="-97.9833984" height="97.7070313" bottomLeftOrigin="true" x="0.3994077" width="90.0000153"/>
        </sfw>
    </metadata>
    <g >
        <line y1="97.4833984"  x2="52.6035156" y2="96.0498047" x1="52.6035156" fill="#009444"/>
        <path  d="M52.6035156,97.9833984c-0.2763672,0-0.5-0.2236328-0.5-0.5v-1.4335938c0-0.2763672,0.2236328-0.5,0.5-0.5s0.5,0.2236328,0.5,0.5v1.4335938C53.1035156,97.7597656,52.8798828,97.9833984,52.6035156,97.9833984z" fill="#E6E6E5"/>
        <polyline  points="53.6035118,96.5835114 51.6035042,96.5835114 51.6035042,58.7168007 53.6035118,58.7168007 53.6035118,96.5835114 "/>
        <line y1="97.4833984"  x2="38.1953125" y2="96.0498047" x1="38.1953125" fill="#009444"/>
        <path  d="M38.1953125,97.9833984c-0.2763672,0-0.5-0.2236328-0.5-0.5v-1.4335938c0-0.2763672,0.2236328-0.5,0.5-0.5s0.5,0.2236328,0.5,0.5v1.4335938C38.6953125,97.7597656,38.4716797,97.9833984,38.1953125,97.9833984z" fill="#E6E6E5"/>
        <polyline  points="39.1953011,96.5835114 37.1953201,96.5835114 37.1953201,58.7168007 39.1953011,58.7168007 39.1953011,96.5835114 " fill="#ED1C24"/>
        <line y1="97.4833984"  x2="45.3994141" y2="96.0498047" x1="45.3994141" fill="#009444"/>
        <path  d="M45.3994141,97.9833984c-0.2763672,0-0.5-0.2236328-0.5-0.5v-1.4335938c0-0.2763672,0.2236328-0.5,0.5-0.5s0.5,0.2236328,0.5,0.5v1.4335938C45.8994141,97.7597656,45.6757813,97.9833984,45.3994141,97.9833984z" fill="#E6E6E5"/>
        <polyline  points="46.3994064,96.5835114 44.3994255,96.5835114 44.3994255,58.7168007 46.3994064,58.7168007 46.3994064,96.5835114 " fill="#009444"/>
        <path  d="M48.6293983,0.4345824h-0.0097618h-6.4199333h-0.0200157h-0.0200157H0.3994077v65.1899338h90.0000153V0.4345824H48.6293983 M86.5092773,35.6748085c-0.2895432,0.1001053-0.6098709,0.1596603-0.9399338,0.1596603c-1.5698395,0-2.8296051-1.2700195-2.8296051-2.8295822c0-1.5703049,1.2597656-2.8403244,2.8296051-2.8403244c0.3300629,0,0.6503906,0.0600471,0.9399338,0.1601505c1.1103592,0.3901367,1.8901367,1.4399338,1.8901367,2.6801739C88.3994141,34.2348518,87.6196365,35.2846718,86.5092773,35.6748085 M4.2793012,30.3447285c0.3002853-0.1098652,0.6201205-0.1699123,0.9501843-0.1699123c1.5698395,0,2.8300962,1.2700195,2.8300962,2.8398323c0,1.5600548-1.2602568,2.8300743-2.8300962,2.8300743c-0.3300638,0-0.649899-0.0600471-0.9501843-0.1699142c-1.0996158-0.3901367-1.8798871-1.430172-1.8798871-2.6601601C2.3994141,31.7846622,3.1796854,30.7348652,4.2793012,30.3447285" fill="#2F79AD"/>
        <path  d="M88.2792969,2.1845634l-0.0395432-0.0497942h-0.0102539c-0.7798004-0.7802712-1.8598709-1.2700195-3.0497971-1.2700195H51.6093674h-0.0200157h-0.6699142h-0.0200157h-0.7797813h-0.0200424H39.9394417h-0.0097618h-0.7099457h-0.0102539H5.6093683c-0.5600491,0-1.089829,0.1098659-1.5698147,0.2997949L3.9897349,1.1747977C2.8393438,1.6445303,1.9296813,2.5947149,1.5292925,3.774909v0.0195251L1.5195299,3.8144498C1.3696325,4.2548947,1.2792917,4.7148404,1.2792917,5.2045889v55.6601524c0,2.3901443,1.940425,4.3300743,4.3300767,4.3300743h33.9101601h0.0097618h1.6303787h0.0400314h8.4799843h0.0200157h0.7797813h0.0200424h0.7597656h0.0200157h33.9003983c1.1899261,0,2.2699966-0.4799805,3.0497971-1.2700157h0.0102539l0.0395432-0.0502853l0.0302658-0.0400314c0.7597656-0.7700424,1.1997223-1.8198395,1.1997223-2.9697418V5.2045889C89.509285,4.0346723,89.0493164,2.9745972,88.2792969,2.1845634 M31.1997166,62.1948357h-0.0102539h-0.5498199h-0.0102539H30.619627H5.6093683c-0.7299623,0-1.3300672-0.5903435-1.3300672-1.3300934V35.6748085c-1.0996158-0.3901367-1.8798871-1.430172-1.8798871-2.6601601c0-1.2299862,0.7802713-2.2797832,1.8798871-2.66992V5.2045889c0-0.1298819,0.0200157-0.239748,0.0600471-0.3598671v-0.010253l0.0302691-0.0898504c0.0898499-0.2700162,0.270041-0.5000014,0.5000014-0.649899C4.979485,4.0249095,5.0893507,3.9648378,5.2197232,3.9345689c0.1196284-0.049794,0.2500005-0.0698342,0.3896451-0.0698342h54.3998985h0.0102768h0.0097618h0.0102539h25.1401443l0.1596603,0.0200403c0.1801605,0.0097625,0.3500977,0.0698097,0.5,0.1596601c0.1401291,0.0703001,0.2602539,0.1801662,0.3501053,0.3002853l0.1000748,0.1298819c0.0800858,0.1201191,0.1401367,0.2500005,0.1699371,0.3998981l0.0200195,0.1001034l0.0297775,0.2002068v25.1499023c1.1103592,0.3901367,1.8901367,1.4399338,1.8901367,2.6801739c0,1.2299652-0.7797775,2.2797852-1.8901367,2.6699219v25.2197113c0,0.1001053-0.0195236,0.2099724-0.0497971,0.300312c-0.0298004,0.1396446-0.0898514,0.2797775-0.1699371,0.3998985l-0.0102539,0.0200157l-0.0898209,0.1098671c-0.0898514,0.1201172-0.2099762,0.2202225-0.3501053,0.2900314c-0.1499023,0.0898476-0.3198395,0.1498947-0.5,0.1601486l-0.1596603,0.0200424H31.1997166" fill="#FFFFFF"/>
        <circle r="2.6259766"  cx="4.6201172" cy="4.2402344" fill="#E0E1E2"/>
        <path  d="M4.6201172,2.1142578c1.1743164,0,2.1259766,0.9516602,2.1259766,2.1259766c0,1.1738281-0.9516602,2.1259766-2.1259766,2.1259766S2.4941406,5.4140625,2.4941406,4.2402344C2.4941406,3.065918,3.4458008,2.1142578,4.6201172,2.1142578z M4.6201172,1.1142578c-1.7236328,0-3.1259766,1.4023438-3.1259766,3.1259766s1.4023438,3.1259766,3.1259766,3.1259766s3.1259766-1.4023438,3.1259766-3.1259766S6.34375,1.1142578,4.6201172,1.1142578z" fill="#2F79AD"/>
        <rect  y="3.1401367" height="2.2998047" x="3.4702148" width="2.2998047" fill="#B1B3B5"/>
        <rect  y="3.6401367" height="1.2001953" x="4.0200195" width="1.2001953" fill="#B1B3B5"/>
        <polygon  points="4.3701172,5.340332 4.8701172,4.840332 4.8701172,3.6401367 4.3701172,3.1401367 " fill="#D6D6D6"/>
        <polygon  points="5.2202148,3.6401367 4.0200195,3.6401367 3.5200195,3.1401367 5.7202148,3.1401367 " fill="#BCBCBC"/>
        <polygon  points="4.3701172,4.840332 4.3701172,3.6401367 4.8701172,3.1401367 4.8701172,5.340332 " fill="#B3B3B3"/>
        <polygon  points="3.5200195,5.340332 4.0200195,4.840332 5.2202148,4.840332 5.7202148,5.340332 " fill="#C9C9C9"/>
        <circle r="2.6259766"  cx="4.6201172" cy="11.2900391" fill="#E0E1E2"/>
        <path  d="M4.6201172,9.1640625c1.1743164,0,2.1259766,0.9521484,2.1259766,2.1259766c0,1.1743164-0.9516602,2.1259766-2.1259766,2.1259766s-2.1259766-0.9516602-2.1259766-2.1259766C2.4941406,10.1162109,3.4458008,9.1640625,4.6201172,9.1640625z M4.6201172,8.1640625c-1.7236328,0-3.1259766,1.4023438-3.1259766,3.1259766s1.4023438,3.1259766,3.1259766,3.1259766s3.1259766-1.4023438,3.1259766-3.1259766S6.34375,8.1640625,4.6201172,8.1640625z" fill="#2F79AD"/>
        <rect  y="10.1899414" height="2.300293" x="3.4702148" width="2.2998047" fill="#B1B3B5"/>
        <rect  y="10.6899414" height="1.2001953" x="4.0200195" width="1.2001953" fill="#B1B3B5"/>
        <polygon  points="4.3701172,12.3901367 4.8701172,11.8901367 4.8701172,10.6899414 4.3701172,10.1899414 " fill="#D6D6D6"/>
        <polygon  points="5.2202148,10.6899414 4.0200195,10.6899414 3.5200195,10.1899414 5.7202148,10.1899414 " fill="#BCBCBC"/>
        <polygon  points="4.3701172,11.8901367 4.3701172,10.6899414 4.8701172,10.1899414 4.8701172,12.3901367 " fill="#B3B3B3"/>
        <polygon  points="3.5200195,12.3901367 4.0200195,11.8901367 5.2202148,11.8901367 5.7202148,12.3901367 " fill="#C9C9C9"/>
        <circle r="2.6259766"  cx="4.6201172" cy="18.4902344" fill="#E0E1E2"/>
        <path  d="M4.6201172,16.3642578c1.1743164,0,2.1259766,0.9516602,2.1259766,2.1259766c0,1.1738281-0.9516602,2.1259766-2.1259766,2.1259766s-2.1259766-0.9521484-2.1259766-2.1259766C2.4941406,17.315918,3.4458008,16.3642578,4.6201172,16.3642578z M4.6201172,15.3642578c-1.7236328,0-3.1259766,1.4023438-3.1259766,3.1259766s1.4023438,3.1259766,3.1259766,3.1259766s3.1259766-1.4023438,3.1259766-3.1259766S6.34375,15.3642578,4.6201172,15.3642578z" fill="#2F79AD"/>
        <rect  y="17.3901367" height="2.2998047" x="3.4702148" width="2.2998047" fill="#B1B3B5"/>
        <rect  y="17.8901367" height="1.2001953" x="4.0200195" width="1.2001953" fill="#B1B3B5"/>
        <polygon  points="4.3701172,19.590332 4.8701172,19.090332 4.8701172,17.8901367 4.3701172,17.3901367 " fill="#D6D6D6"/>
        <polygon  points="5.2202148,17.8901367 4.0200195,17.8901367 3.5200195,17.3901367 5.7202148,17.3901367 " fill="#BCBCBC"/>
        <polygon  points="4.3701172,19.090332 4.3701172,17.8901367 4.8701172,17.3901367 4.8701172,19.590332 " fill="#B3B3B3"/>
        <polygon  points="3.5200195,19.590332 4.0200195,19.090332 5.2202148,19.090332 5.7202148,19.590332 " fill="#C9C9C9"/>
        <circle r="2.6259766"  cx="3.0366211" cy="57.9570313" fill="#E0E1E2"/>
        <path  d="M3.0395508,54.8320313l-0.2602539,0.0200195c-1.0097656,0.0698242-1.8798828,0.6298828-2.3798828,1.4296875v3.340332c0.5102539,0.8100586,1.3798828,1.3701172,2.3901367,1.4399414l0.25,0.0200195c1.7197266,0,3.1201172-1.3999023,3.1201172-3.1298828C6.159668,56.2319336,4.7592773,54.8320313,3.0395508,54.8320313z M3.0395508,60.0820313c-0.0898438,0-0.1699219-0.0102539-0.2602539-0.0200195c-1.0595703-0.1201172-1.8696289-1.0200195-1.8696289-2.1098633c0-1.0800781,0.8100586-1.9799805,1.8696289-2.1000977c0.090332-0.0102539,0.1704102-0.0200195,0.2602539-0.0200195c1.1699219,0,2.1201172,0.949707,2.1201172,2.1201172C5.159668,59.1318359,4.2094727,60.0820313,3.0395508,60.0820313z" fill="#2F79AD"/>
        <rect  y="56.8066406" height="2.300293" x="1.9370117" width="2.2998047" fill="#B1B3B5"/>
        <rect  y="57.3569336" height="1.199707" x="2.4370117" width="1.199707" fill="#B1B3B5"/>
        <polygon  points="4.1367188,58.2070313 3.6367188,57.7070313 2.4370117,57.7070313 1.9370117,58.2070313 " fill="#D6D6D6"/>
        <polygon  points="2.4370117,57.3569336 2.4370117,58.5566406 1.9370117,59.0566406 1.9370117,56.8569336 " fill="#BCBCBC"/>
        <polygon  points="3.6367188,58.2070313 2.4370117,58.2070313 1.9370117,57.7070313 4.1367188,57.7070313 " fill="#B3B3B3"/>
        <polygon  points="4.1367188,59.0566406 3.6367188,58.5566406 3.6367188,57.3569336 4.1367188,56.8569336 " fill="#C9C9C9"/>
        <circle r="2.6259766"  cx="10.0869141" cy="57.9570313" fill="#E0E1E2"/>
        <path  d="M10.0869141,55.8310547c1.1738281,0,2.1259766,0.9516602,2.1259766,2.1259766c0,1.1738281-0.9521484,2.1259766-2.1259766,2.1259766c-1.1743164,0-2.1259766-0.9521484-2.1259766-2.1259766C7.9609375,56.7827148,8.9125977,55.8310547,10.0869141,55.8310547z M10.0869141,54.8310547c-1.7236328,0-3.1259766,1.4018555-3.1259766,3.1259766c0,1.7236328,1.4023438,3.1259766,3.1259766,3.1259766s3.1259766-1.4023438,3.1259766-3.1259766C13.2128906,56.2329102,11.8105469,54.8310547,10.0869141,54.8310547z" fill="#2F79AD"/>
        <rect  y="56.8066406" height="2.300293" x="8.9868164" width="2.2998047" fill="#B1B3B5"/>
        <rect  y="57.3569336" height="1.199707" x="9.4868164" width="1.2001953" fill="#B1B3B5"/>
        <polygon  points="11.1870117,58.2070313 10.6870117,57.7070313 9.4868164,57.7070313 8.9868164,58.2070313 " fill="#D6D6D6"/>
        <polygon  points="9.4868164,57.3569336 9.4868164,58.5566406 8.9868164,59.0566406 8.9868164,56.8569336 " fill="#BCBCBC"/>
        <polygon  points="10.6870117,58.2070313 9.4868164,58.2070313 8.9868164,57.7070313 11.1870117,57.7070313 " fill="#B3B3B3"/>
        <polygon  points="11.1870117,59.0566406 10.6870117,58.5566406 10.6870117,57.3569336 11.1870117,56.8569336 " fill="#C9C9C9"/>
        <circle r="2.6259766"  cx="85.5898438" cy="55.2451172" fill="#E0E1E2"/>
        <path  d="M85.5893555,53.1191406c1.1743164,0,2.1259766,0.9516602,2.1259766,2.1259766s-0.9516602,2.1259766-2.1259766,2.1259766c-1.1738281,0-2.1259766-0.9516602-2.1259766-2.1259766S84.4155273,53.1191406,85.5893555,53.1191406z M85.5893555,52.1191406c-1.7236328,0-3.1259766,1.4023438-3.1259766,3.1259766s1.4023438,3.1259766,3.1259766,3.1259766s3.1259766-1.4023438,3.1259766-3.1259766S87.3129883,52.1191406,85.5893555,52.1191406z" fill="#2F79AD"/>
        <rect  y="54.1450195" height="2.300293" x="84.4394531" width="2.300293" fill="#B1B3B5"/>
        <rect  y="54.6450195" height="1.2001953" x="84.9897461" width="1.199707" fill="#B1B3B5"/>
        <polygon  points="85.3393555,56.3452148 85.8393555,55.8452148 85.8393555,54.6450195 85.3393555,54.1450195 " fill="#D6D6D6"/>
        <polygon  points="86.1894531,54.6450195 84.9897461,54.6450195 84.4897461,54.1450195 86.6894531,54.1450195 " fill="#BCBCBC"/>
        <polygon  points="85.3393555,55.8452148 85.3393555,54.6450195 85.8393555,54.1450195 85.8393555,56.3452148 " fill="#B3B3B3"/>
        <polygon  points="84.4897461,56.3452148 84.9897461,55.8452148 86.1894531,55.8452148 86.6894531,56.3452148 " fill="#C9C9C9"/>
        <circle r="2.6259766"  cx="85.5898438" cy="62.2949219" fill="#E0E1E2"/>
        <path  d="M85.5893555,60.1689453c1.1743164,0,2.1259766,0.9521484,2.1259766,2.1259766c0,1.1743164-0.9516602,2.1259766-2.1259766,2.1259766c-1.1738281,0-2.1259766-0.9516602-2.1259766-2.1259766C83.4633789,61.1210938,84.4155273,60.1689453,85.5893555,60.1689453z M85.5893555,59.1689453c-1.7236328,0-3.1259766,1.4023438-3.1259766,3.1259766c0,1.7241211,1.4023438,3.1259766,3.1259766,3.1259766s3.1259766-1.4018555,3.1259766-3.1259766C88.715332,60.5712891,87.3129883,59.1689453,85.5893555,59.1689453z" fill="#2F79AD"/>
        <rect  y="61.1953125" height="2.2998047" x="84.4394531" width="2.300293" fill="#B1B3B5"/>
        <rect  y="61.6953125" height="1.199707" x="84.9897461" width="1.199707" fill="#B1B3B5"/>
        <polygon  points="85.3393555,63.3950195 85.8393555,62.8950195 85.8393555,61.6953125 85.3393555,61.1953125 " fill="#D6D6D6"/>
        <polygon  points="86.1894531,61.6953125 84.9897461,61.6953125 84.4897461,61.1953125 86.6894531,61.1953125 " fill="#BCBCBC"/>
        <polygon  points="85.3393555,62.8950195 85.3393555,61.6953125 85.8393555,61.1953125 85.8393555,63.3950195 " fill="#B3B3B3"/>
        <polygon  points="84.4897461,63.3950195 84.9897461,62.8950195 86.1894531,62.8950195 86.6894531,63.3950195 " fill="#C9C9C9"/>
        <circle r="2.6259766"  cx="85.5898438" cy="3.7783203" fill="#E0E1E2"/>
        <path  d="M85.5893555,1.6523438c1.1743164,0,2.1259766,0.9521484,2.1259766,2.1259766c0,1.1743164-0.9516602,2.1259766-2.1259766,2.1259766c-1.1738281,0-2.1259766-0.9516602-2.1259766-2.1259766C83.4633789,2.6044922,84.4155273,1.6523438,85.5893555,1.6523438z M85.5893555,0.6523438c-1.7236328,0-3.1259766,1.4023438-3.1259766,3.1259766s1.4023438,3.1259766,3.1259766,3.1259766s3.1259766-1.4023438,3.1259766-3.1259766S87.3129883,0.6523438,85.5893555,0.6523438z" fill="#2F79AD"/>
        <rect  y="2.6782227" height="2.300293" x="84.4394531" width="2.300293" fill="#B1B3B5"/>
        <rect  y="3.1782227" height="1.2001953" x="84.9897461" width="1.199707" fill="#B1B3B5"/>
        <polygon  points="85.3393555,4.878418 85.8393555,4.378418 85.8393555,3.1782227 85.3393555,2.6782227 " fill="#D6D6D6"/>
        <polygon  points="86.1894531,3.1782227 84.9897461,3.1782227 84.4897461,2.6782227 86.6894531,2.6782227 " fill="#BCBCBC"/>
        <polygon  points="85.3393555,4.378418 85.3393555,3.1782227 85.8393555,2.6782227 85.8393555,4.878418 " fill="#B3B3B3"/>
        <polygon  points="84.4897461,4.878418 84.9897461,4.378418 86.1894531,4.378418 86.6894531,4.878418 " fill="#C9C9C9"/>
        <circle r="2.6259766"  cx="85.5898438" cy="10.828125" fill="#E0E1E2"/>
        <path  d="M85.5893555,8.7026367c1.1743164,0,2.1259766,0.9516602,2.1259766,2.1259766c0,1.1738281-0.9516602,2.1259766-2.1259766,2.1259766c-1.1738281,0-2.1259766-0.9521484-2.1259766-2.1259766C83.4633789,9.6542969,84.4155273,8.7026367,85.5893555,8.7026367z M85.5893555,7.7026367c-1.7236328,0-3.1259766,1.4023438-3.1259766,3.1259766s1.4023438,3.1259766,3.1259766,3.1259766s3.1259766-1.4023438,3.1259766-3.1259766S87.3129883,7.7026367,85.5893555,7.7026367z" fill="#2F79AD"/>
        <rect  y="9.7285156" height="2.2998047" x="84.4394531" width="2.300293" fill="#B1B3B5"/>
        <rect  y="10.2285156" height="1.199707" x="84.9897461" width="1.199707" fill="#B1B3B5"/>
        <polygon  points="85.3393555,11.9282227 85.8393555,11.4282227 85.8393555,10.2285156 85.3393555,9.7285156 " fill="#D6D6D6"/>
        <polygon  points="86.1894531,10.2285156 84.9897461,10.2285156 84.4897461,9.7285156 86.6894531,9.7285156 " fill="#BCBCBC"/>
        <polygon  points="85.3393555,11.4282227 85.3393555,10.2285156 85.8393555,9.7285156 85.8393555,11.9282227 " fill="#B3B3B3"/>
        <polygon  points="84.4897461,11.9282227 84.9897461,11.4282227 86.1894531,11.4282227 86.6894531,11.9282227 " fill="#C9C9C9"/>
        <path  d="M77.9985275,33.0000076c0,18.0034142-14.5947266,32.5986328-32.5986328,32.5986328c-18.003418,0-32.5981483-14.5952187-32.5981483-32.5986328S27.3964767,0.40137,45.3998947,0.40137C63.403801,0.40137,77.9985275,14.9965887,77.9985275,33.0000076" fill="#E9EDED"/>
        <path  d="M75.1635742,65.5986404H15.6362343c-1.565424,0-2.834487-1.2695236-2.834487-2.8349762V3.2363231c0-1.565424,1.269063-2.8349531,2.834487-2.8349531h59.5273399c1.565918,0,2.8349533,1.2695291,2.8349533,2.8349531v59.5273399C77.9985275,64.3291168,76.7294922,65.5986404,75.1635742,65.5986404" fill="#D7EFF6"/>
        <path  d="M37.0789833,62.6855927l-0.0575027,0.0995598l-4.5814705-0.0103035c1.8468933,0.8069992,3.7838707,1.4472809,5.7895851,1.901123L37.0789833,62.6855927 M59.3660927,62.3144646h-5.2300453l-1.3339272,2.3081322C55.092453,64.0866776,57.2895393,63.3077927,59.3660927,62.3144646 M24.2589893,55.6552734h-2.1029625c1.2946033,1.3280106,2.7011871,2.5453377,4.2052097,3.637455L24.2589893,55.6552734 M69.6058197,54.625h-2.7804489l0.1189651,0.2060471l-0.0361328,0.0615425l-2.6169205,4.5064545C66.2330551,58.0053596,68.0159225,56.4029427,69.6058197,54.625 M13.1392107,36.7263641c0.2386246,2.0792351,0.6742392,4.0991325,1.2879715,6.0409622l1.1039219-1.8990936L13.1392107,36.7263641 M77.7388077,35.9655495l-2.5181046,4.3488922h-0.3149185l0.207016,0.3501053l1.2408066,2.1626892C77.0522308,40.6316109,77.5232773,38.3343964,77.7388077,35.9655495 M14.2099981,23.9487667c-0.6222019,2.1407852-1.0294056,4.3712883-1.1967211,6.6681595l2.5252571-4.3701134L14.2099981,23.9487667 M76.4232254,23.3943367l-1.1616364,2.0178089l2.438446,4.2232666C77.4779205,27.4865723,77.0451279,25.3991318,76.4232254,23.3943367 M64.1562042,6.50454l2.360672,4.0999627h2.3773651C67.4516983,9.0918932,65.8647766,7.7175846,64.1562042,6.50454 M26.9683723,6.2769008c-2.1098385,1.4596596-4.0391827,3.1626925-5.7472801,5.0678172h2.8605003l-0.0259342-0.0449133L26.9683723,6.2769008 M38.0601883,1.3628482c-2.4033585,0.5574162-4.7055435,1.3824548-6.8728676,2.4418392h5.5888443l-0.0603409-0.1044941L38.0601883,1.3628482 M52.6604118,1.3445873l1.1838417,2.0608256l4.9431686,0.0103054C56.8393707,2.5306332,54.7898598,1.8327738,52.6604118,1.3445873" fill="#DAEEF4"/>
        <path  d="M45.3998947,0.2763696c-0.968029,0-1.9262466,0.0422422-2.8731651,0.1250004h0.0268021c0.9511185-0.0822481,1.9063568-0.1233106,2.8603172-0.1233106c0.9551239,0,1.9085999,0.0411245,2.8560143,0.1233106h0.0031967C47.3261414,0.3186118,46.3679237,0.2763696,45.3998947,0.2763696" fill="#EFEEED"/>
        <path  d="M12.8017473,30.1267662c-0.0290918,0.3328838-0.0530834,0.6655769-0.0720882,1.0012093l0.0120411-0.041069l0.0600471-0.1039162V30.1267662" fill="#5283AF"/>
        <path  d="M31.8248215,62.773468c2.1163521,0.9688721,4.3526039,1.7182159,6.6806679,2.2194366c-0.0173988-0.0037918-0.034977-0.0076447-0.0523643-0.011467l-0.0537186-0.0117188l-0.1698112-0.2937469c-2.0057144-0.4538422-3.9426918-1.0941238-5.7895851-1.901123L31.8248215,62.773468 M22.1560268,55.6552734h-0.3476295c1.4782887,1.5388756,3.1046925,2.9334221,4.8569508,4.1612854l-0.0037155-0.0040665l-0.300396-0.5197639C24.857214,58.2006111,23.4506302,56.983284,22.1560268,55.6552734 M12.8312864,36.1931534c0.2306433,2.3710709,0.7153864,4.6686211,1.4265919,6.8654289l0.1693039-0.291256c-0.6137323-1.9418297-1.0493469-3.9617271-1.2879715-6.0409622L12.8312864,36.1931534 M14.0373611,23.6501465c-0.6213369,2.0803947-1.0407228,4.2466202-1.2356138,6.4766197v0.8562241l0.2115297-0.3660641c0.1673155-2.2968712,0.5745192-4.5273743,1.1967211-6.6681595L14.0373611,23.6501465 M27.2577248,5.7779188c-2.3567829,1.5759349-4.4987679,3.4497337-6.3711185,5.5667992h0.334486c1.7080975-1.9051247,3.6374416-3.6081576,5.7472801-5.0678172L27.2577248,5.7779188 M51.1797752,0.7874863c0.4184799,0.0752325,0.8343277,0.1587517,1.247467,0.2506106h0.0094604C52.0200233,0.9464225,51.6021919,0.863062,51.1797752,0.7874863 M42.5535316,0.40137h-0.0268021c-4.2541275,0.3717997-8.2771721,1.5608821-11.9114819,3.4093204l0.0248852-0.0060031h0.5471878c2.1673241-1.0593843,4.4695091-1.8844229,6.8728676-2.4418392l0.1688118-0.2935011l0.0537186-0.0117249C39.6846733,0.7444351,41.1148148,0.5257837,42.5535316,0.40137 M48.2730598,0.40137h-0.0031967c0.1807632,0.0156807,0.3617058,0.0329045,0.5419579,0.0515731C48.6327553,0.4343078,48.4529648,0.4170931,48.2730598,0.40137" fill="#D2E3E9"/>
        <path  d="M78.0343323,35.4220886l-0.0157852,0.0603371l-0.0200195,0.0345688v0.3506126C78.0113983,35.7200127,78.0234375,35.5702324,78.0343323,35.4220886 M77.9985275,30.1324024v0.0831375c0.0329056,0.3482838,0.0593491,0.6990204,0.0793686,1.0550365C78.0579758,30.8899899,78.0314102,30.5094776,77.9985275,30.1324024" fill="#5283AF"/>
        <path  d="M59.9358711,62.3144646h-0.5697784c-2.0765533,0.9933281-4.2736397,1.772213-6.5639725,2.3081322l-0.1710243,0.295929C55.1916542,64.3386078,57.640564,63.4572983,59.9358711,62.3144646 M69.939949,54.625h-0.3341293c-1.5898972,1.7779427-3.3727646,3.3803596-5.314537,4.774044l-0.3006401,0.5177193C66.1823349,58.3983421,68.180481,56.6192818,69.939949,54.625 M77.9985275,35.5169945l-0.2597198,0.448555c-0.2155304,2.3688469-0.6865768,4.6660614-1.3852005,6.8616867l0.0965958,0.1683617l-0.0141754,0.0498199c-0.5263901,1.7621689-1.2163773,3.4848671-2.0524445,5.1362c1.9663925-3.73909,3.2302628-7.9022484,3.6149445-12.3140106V35.5169945 M76.5927505,23.099865l-0.1695251,0.2944717c0.6219025,2.0047951,1.0546951,4.0922356,1.2768097,6.2410755l0.2950821,0.5110722v0.0332127c0.001152,0.011961,0.0022812,0.0238781,0.0034103,0.0358429v-0.0831375C77.7866974,27.7029724,77.3082962,25.3493881,76.5927505,23.099865 M63.8629608,5.9952345L64.1562042,6.50454c1.7085724,1.2130446,3.2954941,2.5873532,4.7380371,4.0999627h0.3440018C67.6197586,8.8825912,65.8175507,7.3358884,63.8629608,5.9952345 M52.5042877,1.0530401l0.0142746,0.0446135l0.1418495,0.2469337c2.1294479,0.4881865,4.1789589,1.1860459,6.1270103,2.071131l0.5960274,0.0012426C57.210804,2.3857775,54.9063606,1.5869454,52.5042877,1.0530401" fill="#D2E3E9"/>
        <polyline  points="49.6191254,25.9199219 41.3513298,25.9199219 41.4150391,26.0302773 37.2235184,33.2897148 41.2173309,40.2070313 49.4646339,40.2070313 53.6664886,32.9296951 49.6191254,25.9199219 " fill="#DDEEF3"/>
        <polyline  points="37.2235184,33.2897148 37.2002106,33.3300819 41.170887,40.2070313 41.2173309,40.2070313 37.2235184,33.2897148 " fill="#D4E2E7"/>
        <polyline  points="49.5547829,11.1904297 41.2837219,11.1904297 41.3456955,11.297843 37.1500015,18.5618076 41.1784401,25.5400391 49.50354,25.5400391 53.671463,18.3214722 49.5547829,11.1904297 " fill="#DDEEF3"/>
        <polyline  points="49.50354,25.5400391 41.1784401,25.5400391 41.253418,25.66992 49.4747772,25.66992 49.451664,25.6298885 49.50354,25.5400391 " fill="#D8E4E9"/>
        <path  d="M37.1500015,18.5618076l-0.0233116,0.0403576l4.0053291,6.9378738h0.0464211L37.1500015,18.5618076 M49.5513992,11.1845675h-8.2710571l0.0033798,0.0058622h8.2710609L49.5513992,11.1845675" fill="#D4E2E7"/>
        <polyline  points="49.5441322,25.7900391 41.2763481,25.7900391 41.3513298,25.9199219 49.6191254,25.9199219 49.5441322,25.7900391 " fill="#D7E3E7"/>
        <polyline  points="41.1784401,25.5400391 41.132019,25.5400391 41.2763481,25.7900391 49.5441322,25.7900391 49.4747772,25.66992 41.253418,25.66992 41.1784401,25.5400391 " fill="#CFDBDE"/>
        <path  d="M45.4129715,0.5283122c-2.360424,0-4.7281342,0.2531558-7.0218582,0.7617233l-1.3872185,2.4101577l4.1782417,7.2343731h8.2249413l-0.0208588-0.0361309l4.2498131-7.3583021l-1.3049698-2.2676609c-0.3499641-0.0771972-0.7019005-0.1483794-1.0557785-0.2135912c-0.6792717-0.12463-1.3659286-0.2280924-2.0591354-0.3095935C47.9592857,0.6021202,46.6869926,0.5283122,45.4129715,0.5283122" fill="#DDEEF3"/>
        <path  d="M49.2161484,0.7492879c0.6932068,0.0815011,1.3798637,0.1849635,2.0591354,0.3095935C50.5948181,0.9334859,49.9078331,0.8302782,49.2161484,0.7492879" fill="#D6E5EA"/>
        <path  d="M52.4995041,1.0380969h-0.0628014c0.022747,0.0050045,0.0448532,0.0098913,0.067585,0.0149432L52.4995041,1.0380969 M48.811821,0.4529431c0.7977562,0.0830218,1.5881081,0.1950188,2.3679543,0.3345431C50.3977051,0.6468894,49.6076965,0.5353712,48.811821,0.4529431" fill="#D2E3E9"/>
        <path  d="M51.2752838,1.0588814c0.353878,0.0652118,0.7058144,0.136394,1.0557785,0.2135912l1.3049698,2.2676609l0.0192337-0.0333033V3.4150422l0.125-0.0097625l0.0639877,0.0001333l-1.1838417-2.0608256C52.2022057,1.2395405,51.7405968,1.1442549,51.2752838,1.0588814 M45.3998947,0.5263704c-2.5234604,0-4.9802856,0.2892525-7.3397064,0.8364778l-1.3443642,2.3373451l0.0603409,0.1044941h0.2462997l4.1170197,7.1357412h8.270977l-0.0033836-0.0058622h-8.2249413l-4.1782417-7.2343731l1.3872185-2.4101577c2.2937241-0.5085675,4.6614342-0.7617233,7.0218582-0.7617233c1.2740211,0,2.5463142,0.073808,3.8031769,0.2209757C47.9643555,0.6021124,46.6905861,0.5263704,45.3998947,0.5263704" fill="#D4E2E7"/>
        <path  d="M45.4138489,0.2780594c-0.9539604,0-1.9091988,0.0410625-2.8603172,0.1233106h5.7163315C47.3224487,0.3191839,46.3689728,0.2780594,45.4138489,0.2780594" fill="#E5E3E3"/>
        <path  d="M48.2698631,0.40137h-5.7163315c-1.4387169,0.1244137-2.8688583,0.3430651-4.270813,0.6562521L38.2290001,1.069347l-0.1688118,0.2935011c2.3594208-0.5472253,4.816246-0.8364778,7.3397064-0.8364778c1.2906914,0,2.5644608,0.0757419,3.8162537,0.2229175c0.6916847,0.0809903,1.3786697,0.184198,2.0591354,0.3095935c0.465313,0.0853735,0.9269218,0.1806591,1.385128,0.2857059l-0.1418495-0.2469337l-0.0142746-0.0446135c-0.0227318-0.005052-0.044838-0.0099387-0.067585-0.0149432h-0.0094604c-0.4131393-0.0918589-0.8289871-0.1753781-1.247467-0.2506106c-0.7798462-0.1395243-1.5701981-0.2515213-2.3679543-0.3345431C48.6315689,0.4342745,48.4506264,0.4170507,48.2698631,0.40137" fill="#CDDBE0"/>
        <polyline  points="49.4104614,10.9404287 41.1394844,10.9404287 41.2803421,11.1845675 49.5513992,11.1845675 49.4104614,10.9404287 " fill="#CFDBDE"/>
        <path  d="M49.7223511,55.1320763l-0.0314331,0.0544472h-8.4120712l0.065403,0.1132736l-0.0356674,0.0625l-4.0856018,7.0739708l1.3375549,2.3127632c1.2003975,0.2582932,2.4263916,0.4502182,3.6716118,0.5713425c1.0463638,0.1005936,2.103569,0.1509933,3.1613235,0.1509933c1.3342514,0,2.6696815-0.0800705,3.9884834-0.2405701c1.0456314-0.1283875,2.0743484-0.3063889,3.0870934-0.5321121l1.386425-2.3988914L49.7223511,55.1320763" fill="#DDEEF3"/>
        <path  d="M38.5605354,64.7490311L38.5605354,64.7490311c1.1988182,0.261261,2.4278488,0.4517746,3.6716118,0.5713425c-1.2452202-0.1211243-2.4712143-0.3130493-3.6716194-0.5713577 M52.4690475,64.6986847c-1.0127449,0.2257233-2.0414619,0.4037247-3.0870934,0.5321121c1.0426712-0.1268997,2.0747375-0.3040619,3.0867882-0.5315857L52.4690475,64.6986847" fill="#D6E5EA"/>
        <path  d="M42.8401794,65.6245193h-0.0228806c0.5249138,0.0409012,1.0526314,0.0693054,1.5821266,0.085144v-0.0010986C43.8767662,65.6927872,43.356472,65.66465,42.8401794,65.6245193 M47.9789772,65.6245193H47.95961c-0.5162926,0.0401306-1.0375443,0.0682907-1.5602036,0.0840759v0.0010376C46.9275551,65.6937943,47.454525,65.6653824,47.9789772,65.6245193" fill="#EFEEED"/>
        <path  d="M44.3994255,65.7085648v0.0010986c0.3328552,0.0099564,0.666275,0.0149384,1.0004692,0.0149384c0.3336983,0,0.6668434-0.0049973,0.9995117-0.0149689v-0.0010376c-0.3324013,0.0100327-0.6647224,0.0150452-0.9995117,0.0150452C45.0651016,65.7236404,44.7318268,65.7185974,44.3994255,65.7085648" fill="#419A55"/>
        <path  d="M42.5267334,65.5986404h-0.0222588c0.1041679,0.0091248,0.2084427,0.017746,0.3128242,0.0258789h0.0228806C42.7354088,65.6163788,42.6312294,65.6077728,42.5267334,65.5986404 M48.2917824,65.5986404H48.273056c-0.104496,0.0091324-0.2086754,0.0177383-0.313446,0.0258789h0.0193672C48.0833931,65.6163864,48.187542,65.6077652,48.2917824,65.5986404" fill="#5283AF"/>
        <path  d="M38.5054893,64.9929047c1.3056183,0.2846603,2.6428223,0.4869995,3.9989853,0.6057358h0.0222588C41.160759,65.4792633,39.8186531,65.2756195,38.5054893,64.9929047 M52.6310959,64.9185257c-1.4205818,0.3217316-2.8746414,0.5504684-4.3580399,0.6801147h0.0187263c1.4512749-0.1270447,2.8846741-0.3498688,4.2858467-0.6669922l0.0532265-0.0127106L52.6310959,64.9185257" fill="#D2E3E9"/>
        <path  d="M49.3819542,65.2307968c-1.3188019,0.1604996-2.654232,0.2405701-3.9884834,0.2405701c-1.0577545,0-2.1149597-0.0503998-3.1613235-0.1509933c1.0426598,0.1014252,2.0989113,0.1532669,3.1677475,0.1532669C46.7474174,65.4736404,48.077034,65.3910141,49.3819542,65.2307968 M37.2229805,62.4362679l-0.1439972,0.2493248l1.1506119,1.9903793c0.1105766,0.0250168,0.2199364,0.0491562,0.3309326,0.0730438L37.2229805,62.4362679 M49.7760048,55.0391388l-0.0536537,0.0929375l4.1331215,7.167717l-1.386425,2.3988914c0.1107063-0.0246735,0.2227936-0.0502777,0.3330727-0.076088l1.3339272-2.3081322h-0.1585159L49.7760048,55.0391388" fill="#D4E2E7"/>
        <path  d="M44.3994255,65.6245193h-1.5592461c0.5162926,0.0401306,1.0365868,0.0682678,1.5592461,0.0840454V65.6245193 M47.95961,65.6245193h-1.5602036v0.0840759C46.9220657,65.6928101,47.4433174,65.66465,47.95961,65.6245193" fill="#E5E3E3"/>
        <path  d="M46.3994064,65.6245193h-1.9999809v0.0840454c0.3324013,0.0100327,0.6656761,0.0150757,1.0004692,0.0150757c0.3347893,0,0.6671104-0.0050125,0.9995117-0.0150452V65.6245193" fill="#5D9F68"/>
        <path  d="M48.273056,65.5986404h-2.8731613l0,0l0,0h-2.8731613c0.104496,0.0091324,0.2086754,0.0177383,0.313446,0.0258789h1.5592461h1.9999809H47.95961C48.0643806,65.6163788,48.16856,65.6077728,48.273056,65.5986404" fill="#688CB1"/>
        <path  d="M52.8021202,64.6225967c-0.1102791,0.0258102-0.2223663,0.0514145-0.3330727,0.076088l-0.0003052,0.0005264c-1.0120506,0.2275238-2.044117,0.404686-3.0867882,0.5315857c-1.3049202,0.1602173-2.6345367,0.2428436-3.9820595,0.2428436c-1.0688362,0-2.1250877-0.0518417-3.1677475-0.1532669c-1.243763-0.1195679-2.4727936-0.3100815-3.6716118-0.5713425l0,0c-0.1110039-0.0239029-0.2203636-0.0480423-0.3309402-0.0730591l0.1698112,0.2937469l0.0537186,0.0117188c0.0173874,0.0038223,0.0349655,0.0076752,0.0523643,0.011467c1.3131638,0.2827148,2.6552696,0.4863586,4.021244,0.6057358h2.8731613h2.8731613c1.4833984-0.1296463,2.937458-0.3583832,4.3580399-0.6801147L52.8021202,64.6225967" fill="#CDDBE0"/>
        <polyline  points="49.5824776,40.5195313 41.3513222,40.5195313 41.4150391,40.6298866 37.1711388,47.9800453 41.1431236,54.8604889 41.175293,54.8046761 49.6225052,54.8046761 53.7260818,47.6962852 49.5824776,40.5195313 " fill="#DDEEF3"/>
        <polyline  points="49.5463943,40.4570313 41.3152351,40.4570313 41.3513222,40.5195313 49.5824776,40.5195313 49.5463943,40.4570313 " fill="#D8E4E9"/>
        <polyline  points="49.6225052,54.8046761 41.175293,54.8046761 41.1431236,54.8604889 41.1870155,54.9365196 49.5463943,54.9365196 49.6225052,54.8046761 " fill="#D8E4E9"/>
        <path  d="M37.1711388,47.9800453l-0.0265846,0.0460434l3.972332,6.8799286l0.0262375-0.0455284L37.1711388,47.9800453 M49.6191025,40.5195313h-0.0366249l4.1436043,7.176754l-4.1035767,7.1083908h0.0474472l4.0987167-7.0974236L49.6191025,40.5195313" fill="#D4E2E7"/>
        <polyline  points="49.4646339,40.2070313 41.2173309,40.2070313 41.253418,40.2695313 49.4747734,40.2695313 49.451664,40.2294998 49.4646339,40.2070313 " fill="#D7E3E7"/>
        <polyline  points="41.2173309,40.2070313 41.170887,40.2070313 41.3152351,40.4570313 49.5463943,40.4570313 49.5824776,40.5195313 49.6191025,40.5195313 49.4747734,40.2695313 41.253418,40.2695313 41.2173309,40.2070313 " fill="#CFDBDE"/>
        <polyline  points="49.6777229,55.0546761 41.3246994,55.0546761 41.2640114,55.1608276 41.2788467,55.1865234 49.690918,55.1865234 49.7223511,55.1320763 49.6777229,55.0546761 " fill="#D7E3E7"/>
        <polyline  points="49.6699524,54.8046761 49.6225052,54.8046761 49.5463943,54.9365196 41.1870155,54.9365196 41.1431236,54.8604889 41.1168861,54.9060173 41.2640114,55.1608276 41.3246994,55.0546761 49.6777229,55.0546761 49.7223511,55.1320763 49.7760048,55.0391388 49.6552773,54.8300896 49.6699524,54.8046761 " fill="#CFDBDE"/>
        <polyline  points="62.3541946,33.1191444 54.0307121,33.1191444 49.8329849,40.3893356 53.9131203,47.457119 53.9780197,47.3447342 62.3519325,47.3447342 66.4589767,40.2294998 62.3541946,33.1191444 " fill="#DDEEF3"/>
        <polyline  points="54.0307121,33.1191444 53.8459778,33.1191444 49.740715,40.2294998 49.8329849,40.3893356 54.0307121,33.1191444 " fill="#D8E4E9"/>
        <polyline  points="49.8329849,40.3893356 49.8145828,40.4212036 53.8950806,47.4883575 53.9131203,47.457119 49.8329849,40.3893356 " fill="#D4E2E7"/>
        <polyline  points="53.6664886,32.9296951 49.4646339,40.2070313 49.6493721,40.2070313 53.75877,33.0895157 53.6664886,32.9296951 " fill="#D7E3E7"/>
        <polyline  points="53.75877,33.0895157 49.6493721,40.2070313 49.690918,40.2070313 49.8145828,40.4212036 49.8329849,40.3893356 49.740715,40.2294998 53.8459778,33.1191444 53.7758751,33.1191444 53.75877,33.0895157 " fill="#CFDBDE"/>
        <polyline  points="49.8145828,40.4212036 49.7578087,40.5195313 49.6191025,40.5195313 53.7686691,47.7072525 53.8950806,47.4883575 49.8145828,40.4212036 " fill="#CFDBDE"/>
        <polyline  points="49.6493721,40.2070313 49.4646339,40.2070313 49.451664,40.2294998 49.4747734,40.2695313 49.6132851,40.2695313 49.6493721,40.2070313 " fill="#D1DBDE"/>
        <polyline  points="49.690918,40.2070313 49.6493721,40.2070313 49.6132851,40.2695313 49.4747734,40.2695313 49.6191025,40.5195313 49.7578087,40.5195313 49.8145828,40.4212036 49.690918,40.2070313 " fill="#CCD5D7"/>
        <polyline  points="62.4255676,33.1169548 62.424305,33.1191444 62.3541946,33.1191444 66.4589767,40.2294998 62.3519325,47.3447342 62.5038643,47.3447342 66.5634689,40.2890587 62.4255676,33.1169548 " fill="#D4E2E7"/>
        <polyline  points="62.2797775,18.3906345 54.0594788,18.3906345 54.0820236,18.4296837 49.867466,25.7299805 53.9145851,32.740242 62.3074303,32.740242 66.4366913,25.5912838 62.2797775,18.3906345 " fill="#DDEEF3"/>
        <polyline  points="49.867466,25.7299805 49.8329849,25.7897053 53.8459778,32.740242 53.9145851,32.740242 49.867466,25.7299805 " fill="#D8E4E9"/>
        <polyline  points="54.0594788,18.3906345 53.9204025,18.3906345 49.7751999,25.5701599 49.867466,25.7299805 54.0820236,18.4296837 54.0594788,18.3906345 " fill="#D8E4E9"/>
        <polyline  points="49.7751999,25.5701599 49.740715,25.6298885 49.8329849,25.7897053 49.867466,25.7299805 49.7751999,25.5701599 " fill="#D4DEE1"/>
        <polyline  points="62.3074303,32.740242 53.9145851,32.740242 53.9890022,32.8691444 62.2797775,32.8691444 62.281189,32.866703 62.2578011,32.8261681 62.3074303,32.740242 " fill="#D8E4E9"/>
        <polyline  points="53.9145851,32.740242 53.8459778,32.740242 53.9204025,32.8691444 53.9890022,32.8691444 53.9145851,32.740242 " fill="#D4DEE1"/>
        <polyline  points="62.3491898,18.3847713 54.0560913,18.3847713 54.0594788,18.3906345 62.2797775,18.3906345 66.4366913,25.5912838 66.4740829,25.5265484 62.3491898,18.3847713 " fill="#D4E2E7"/>
        <polyline  points="49.6882629,25.9199219 49.6191254,25.9199219 53.6664886,32.9296951 53.7007027,32.8704376 49.6882629,25.9199219 " fill="#D7E3E7"/>
        <polyline  points="49.8329849,25.7897053 49.7578087,25.9199219 49.6882629,25.9199219 53.7007027,32.8704376 53.7758751,32.740242 53.8459778,32.740242 49.8329849,25.7897053 " fill="#CFDBDE"/>
        <polyline  points="53.671463,18.3214722 49.50354,25.5400391 49.6882629,25.5400391 53.7929726,18.4296837 53.7670441,18.3847713 53.708004,18.3847713 53.671463,18.3214722 " fill="#D7E3E7"/>
        <polyline  points="49.6882629,25.5400391 49.50354,25.5400391 49.451664,25.6298885 49.4747772,25.66992 49.6132851,25.66992 49.6882629,25.5400391 " fill="#D2DCE0"/>
        <polyline  points="54.0560913,18.3847713 53.7670441,18.3847713 53.7929726,18.4296837 49.6882629,25.5400391 49.7578087,25.5400391 49.7751999,25.5701599 53.9204025,18.3906345 54.0594788,18.3906345 54.0560913,18.3847713 " fill="#CFDBDE"/>
        <polyline  points="49.6132851,25.7900391 49.5441322,25.7900391 49.6191254,25.9199219 49.6882629,25.9199219 49.6132851,25.7900391 " fill="#D1DBDE"/>
        <polyline  points="49.7578087,25.5400391 49.6882629,25.5400391 49.6132851,25.66992 49.4747772,25.66992 49.5441322,25.7900391 49.6132851,25.7900391 49.6882629,25.9199219 49.7578087,25.9199219 49.8329849,25.7897053 49.740715,25.6298885 49.7751999,25.5701599 49.7578087,25.5400391 " fill="#CCD5D7"/>
        <polyline  points="62.2797775,32.990242 54.0589142,32.990242 54.0820236,33.0302734 54.0307121,33.1191444 62.3541946,33.1191444 62.2797775,32.990242 " fill="#D7E3E7"/>
        <polyline  points="54.0589142,32.990242 53.9204025,32.990242 53.8459778,33.1191444 54.0307121,33.1191444 54.0820236,33.0302734 54.0589142,32.990242 " fill="#D2DCE0"/>
        <polyline  points="62.281189,32.866703 62.2797775,32.8691444 53.9890022,32.8691444 54.0589142,32.990242 62.2797775,32.990242 62.3541946,33.1191444 62.424305,33.1191444 62.4255676,33.1169548 62.281189,32.866703 " fill="#CFDBDE"/>
        <polyline  points="53.7007027,32.8704376 53.6664886,32.9296951 53.75877,33.0895157 53.7929726,33.0302734 53.7007027,32.8704376 " fill="#D1DBDE"/>
        <polyline  points="53.8459778,32.740242 53.7758751,32.740242 53.7007027,32.8704376 53.7929726,33.0302734 53.75877,33.0895157 53.7758751,33.1191444 53.8459778,33.1191444 53.9204025,32.990242 54.0589142,32.990242 53.9890022,32.8691444 53.9204025,32.8691444 53.8459778,32.740242 " fill="#CCD5D7"/>
        <path  d="M59.3026505,3.6552804h-5.3148613l0.0263634,0.0458941l-4.2185593,7.3046923l4.1161499,7.1289043h8.2930527l-0.0197487-0.0341949l4.1813316-7.2491646l-2.6918755-4.682404C62.2897873,5.2228518,60.8292542,4.3814363,59.3026505,3.6552804" fill="#DDEEF3"/>
        <path  d="M59.3120003,3.6552804h-0.0093498c1.5266037,0.726156,2.9871368,1.5675714,4.3718529,2.5137274L63.662117,6.1474633C62.2568436,5.1874919,60.7934608,4.3496017,59.3120003,3.6552804" fill="#D6E5EA"/>
        <polyline  points="49.7955933,11.005867 49.7645683,11.0595865 53.8525314,18.1347713 53.9117432,18.1347713 49.7955933,11.005867 " fill="#D8E4E9"/>
        <polyline  points="53.9877892,3.6552804 53.8579025,3.6552804 49.6743126,10.9003973 49.6967392,10.9404287 49.7578087,10.9404287 49.7955933,11.005867 54.0141525,3.7011745 53.9877892,3.6552804 " fill="#D8E4E9"/>
        <polyline  points="49.7578087,10.9404287 49.6967392,10.9404287 49.7290115,10.9980478 49.7645683,11.0595865 49.7955933,11.005867 49.7578087,10.9404287 " fill="#D4DEE1"/>
        <path  d="M59.3834496,3.416961c1.565239,0.7428958,3.0622253,1.6061547,4.4795113,2.5782735l-0.0045624-0.0079217l-0.0458946-0.0625H63.778801c-1.416996-0.9658341-2.8925705-1.809587-4.3862228-2.5078328L59.3834496,3.416961" fill="#D2E3E9"/>
        <path  d="M62.2047958,18.1347713h-8.2930527l0.0033875,0.0058613h8.2930527L62.2047958,18.1347713 M63.6745033,6.1690078l2.6918755,4.682404l0.1424179-0.2469091h0.0080795L64.1562042,6.50454C63.9968834,6.3914247,63.8359261,6.2793064,63.6745033,6.1690078 M53.8442535,3.4054129l0.1435356,0.2498674h5.3148613c-0.1705513-0.0811248-0.3430634-0.1613412-0.5152283-0.239562L53.8442535,3.4054129" fill="#D4E2E7"/>
        <path  d="M58.7874222,3.4157183c0.1721649,0.0782208,0.344677,0.1584373,0.5152283,0.239562h0.0093498c1.4814606,0.6943214,2.9448433,1.5322115,4.3501167,2.492183l0.0123863,0.0215445c0.1614227,0.1102986,0.3223801,0.2224169,0.4817009,0.3355322l-0.2932434-0.5093055c-1.4172859-0.9721189-2.9142723-1.8353777-4.4795113-2.5782735L58.7874222,3.4157183" fill="#CDDBE0"/>
        <polyline  points="49.6132851,11.1904297 49.5547829,11.1904297 53.671463,18.3214722 53.7009811,18.2703495 49.6132851,11.1904297 " fill="#D7E3E7"/>
        <polyline  points="49.7645683,11.0595865 49.6923904,11.1845675 49.5513992,11.1845675 49.5547829,11.1904297 49.6132851,11.1904297 53.7009811,18.2703495 53.7758751,18.1406326 53.9151306,18.1406326 53.9117432,18.1347713 53.8525314,18.1347713 49.7645683,11.0595865 " fill="#CFDBDE"/>
        <polyline  points="53.6360321,3.5401335 49.386219,10.8984356 49.4070778,10.9345665 49.5478401,10.9345665 53.7260818,3.6992121 53.6713829,3.6015615 53.6360321,3.5401335 " fill="#D7E3E7"/>
        <polyline  points="53.7802658,3.4052796 53.6552658,3.4150422 53.6552658,3.5068302 53.6360321,3.5401335 53.6713829,3.6015615 53.7260818,3.6992121 49.5478401,10.9345665 49.4070778,10.9345665 49.4104614,10.9404287 49.6967392,10.9404287 49.6743126,10.9003973 53.8579025,3.6552804 53.9877892,3.6552804 53.8442535,3.4054129 53.7802658,3.4052796 " fill="#CFDBDE"/>
        <polyline  points="49.6967392,10.9404287 49.4104614,10.9404287 49.5513992,11.1845675 49.6923904,11.1845675 49.7645683,11.0595865 49.7290115,10.9980478 49.6967392,10.9404287 " fill="#CCD5D7"/>
        <polyline  points="62.2081833,18.1406326 53.9151306,18.1406326 54.0560913,18.3847713 62.3491898,18.3847713 62.2081833,18.1406326 " fill="#CFDBDE"/>
        <polyline  points="53.7009811,18.2703495 53.671463,18.3214722 53.708004,18.3847713 53.7670441,18.3847713 53.7009811,18.2703495 " fill="#D1DBDE"/>
        <polyline  points="53.9151306,18.1406326 53.7758751,18.1406326 53.7009811,18.2703495 53.7670441,18.3847713 54.0560913,18.3847713 53.9151306,18.1406326 " fill="#CCD5D7"/>
        <path  d="M62.4870033,47.6111183l-0.0626984,0.1086159h-8.3753166l-4.10466,7.1103554l4.1777534,7.2343712h5.755043c1.3742638-0.687336,2.6925888-1.4688072,3.9477806-2.3368454l2.8303757-4.8985062l-0.2138672-0.3779449L62.4870033,47.6111183" fill="#DDEEF3"/>
        <path  d="M63.8249054,59.7276154c-1.2551918,0.8680382-2.5735168,1.6495094-3.9477806,2.3368454h0.0134926c1.3427734-0.6679764,2.6631012-1.448246,3.9252968-2.3212891L63.8249054,59.7276154" fill="#D6E5EA"/>
        <polyline  points="62.4775314,47.5947342 54.1215897,47.5947342 54.0878868,47.6523552 54.0489883,47.7197342 62.424305,47.7197342 62.4870033,47.6111183 62.4775314,47.5947342 " fill="#D8E4E9"/>
        <path  d="M63.9906425,59.9167633c-1.287693,0.8921204-2.6426277,1.6945953-4.0547714,2.3977013h0.0133476l0.0263672-0.0127068c1.3706131-0.6806602,2.7187614-1.4775352,4.0058517-2.3691444L63.9906425,59.9167633" fill="#D2E3E9"/>
        <path  d="M54.0489883,47.7197342h-0.0473938l-4.1348,7.1621437l4.277729,7.4179153l-0.0084763,0.0146713h5.2300453c0.1712723-0.0819283,0.3414268-0.1651726,0.5110321-0.2500038h-5.755043l-4.1777534-7.2343712L54.0489883,47.7197342 M62.5184669,47.5566139l-0.0314636,0.0545044l3.9544106,6.8400459l0.2138672,0.3779449l-2.8303757,4.8985062c0.1565819-0.1082878,0.3117981-0.2176208,0.4663773-0.3285713l2.6169205-4.5064545l0.0361328-0.0615425L66.8253708,54.625h-0.2394333L62.5184669,47.5566139" fill="#D4E2E7"/>
        <path  d="M64.2912827,59.399044c-0.1545792,0.1109505-0.3097954,0.2202835-0.4663773,0.3285713l-0.0089912,0.0155563c-1.2621956,0.8730431-2.5825233,1.6533127-3.9252968,2.3212891h-0.0134926c-0.1696053,0.0848312-0.3397598,0.1680756-0.5110321,0.2500038h0.5697784c1.4121437-0.7031059,2.7670784-1.5055809,4.0547714-2.3977013L64.2912827,59.399044" fill="#CDDBE0"/>
        <polyline  points="49.8667946,54.8818779 49.7760048,55.0391388 53.9775314,62.3144646 54.1360474,62.3144646 54.1445236,62.2997932 49.8667946,54.8818779 " fill="#CFDBDE"/>
        <polyline  points="53.7686691,47.7072525 49.6699524,54.8046761 49.8222733,54.8046761 49.8667946,54.8818779 54.0015945,47.7197342 53.7758751,47.7197342 53.7686691,47.7072525 " fill="#CFDBDE"/>
        <polyline  points="49.8222733,54.8046761 49.6699524,54.8046761 49.6552773,54.8300896 49.7760048,55.0391388 49.8667946,54.8818779 49.8222733,54.8046761 " fill="#CCD5D7"/>
        <polyline  points="62.3519325,47.3447342 53.9780197,47.3447342 53.9131203,47.457119 53.9204025,47.4697342 62.2797775,47.4697342 62.3519325,47.3447342 " fill="#D7E3E7"/>
        <polyline  points="62.5038643,47.3447342 62.3519325,47.3447342 62.2797775,47.4697342 53.9204025,47.4697342 53.9131203,47.457119 53.8950806,47.4883575 54.0151329,47.6962852 54.0015945,47.7197342 54.0489883,47.7197342 54.0878868,47.6523552 54.1215897,47.5947342 62.4775314,47.5947342 62.4870033,47.6111183 62.5184669,47.5566139 62.4502068,47.4379921 62.5038643,47.3447342 " fill="#CFDBDE"/>
        <polyline  points="53.8950806,47.4883575 53.7686691,47.7072525 53.7758751,47.7197342 54.0015945,47.7197342 54.0151329,47.6962852 53.8950806,47.4883575 " fill="#CCD5D7"/>
        <polyline  points="37.0207214,33.5195313 28.5900822,33.5195313 28.6137581,33.5605469 28.5786076,33.6220665 24.4726181,40.7431297 28.5497055,47.8046799 36.7808304,47.8046799 36.7182541,47.6962852 40.9621658,40.3461456 37.0207214,33.5195313 " fill="#DDEEF3"/>
        <polyline  points="41.1066017,40.5963097 37.007328,47.6962852 37.0267143,47.729866 41.125988,40.6298866 41.1066017,40.5963097 " fill="#E0EDF1"/>
        <polyline  points="40.9621658,40.3461456 36.7182541,47.6962852 36.7808304,47.8046799 36.9835167,47.8046799 37.0267143,47.729866 37.007328,47.6962852 41.1066017,40.5963097 40.9621658,40.3461456 " fill="#D8E4E9"/>
        <polyline  points="37.0671692,33.5195313 37.0207214,33.5195313 40.9621658,40.3461456 40.9854736,40.3057785 37.0671692,33.5195313 " fill="#D4E2E7"/>
        <polyline  points="37.2002106,33.3300819 37.0908241,33.5195313 37.0671692,33.5195313 40.9854736,40.3057785 41.0424919,40.2070313 41.170887,40.2070313 37.2002106,33.3300819 " fill="#CFDBDE"/>
        <polyline  points="41.3513222,40.5195313 41.1509323,40.5195313 41.1066017,40.5963097 41.125988,40.6298866 37.0267143,47.729866 37.1711388,47.9800453 41.4150391,40.6298866 41.3513222,40.5195313 " fill="#D7E3E7"/>
        <polyline  points="41.3152351,40.4570313 41.1870155,40.4570313 41.1509323,40.5195313 41.3513222,40.5195313 41.3152351,40.4570313 " fill="#D2DCE0"/>
        <path  d="M37.0267143,47.729866l-0.0431976,0.0748138h0.0443192l0.0644379,0.1308632l0.0522804,0.0905457l0.0265846-0.0460434L37.0267143,47.729866 M40.9854736,40.3057785l-0.0233078,0.0403671l0.1444359,0.250164l0.0443306-0.0767784h-0.0420418L40.9854736,40.3057785" fill="#CFDBDE"/>
        <polyline  points="41.170887,40.2070313 41.0424919,40.2070313 40.9854736,40.3057785 41.1088905,40.5195313 41.1509323,40.5195313 41.1870155,40.4570313 41.3152351,40.4570313 41.170887,40.2070313 " fill="#CCD5D7"/>
        <polyline  points="24.4726181,40.7431297 24.4046879,40.8609428 28.4117184,47.8046799 28.5497055,47.8046799 24.4726181,40.7431297 " fill="#D4E2E7"/>
        <polyline  points="36.9463005,18.790041 28.5869236,18.790041 24.4072342,26.0302773 28.5125008,33.1406326 36.8483963,33.1406326 36.7846794,33.0302734 40.9759331,25.7703457 36.9463005,18.790041 " fill="#DDEEF3"/>
        <polyline  points="41.1203613,26.0205269 37.0737305,33.0302734 37.0790825,33.0395508 41.125988,26.0302773 41.1203613,26.0205269 " fill="#E0EDF1"/>
        <polyline  points="40.9759331,25.7703457 36.7846794,33.0302734 36.8483963,33.1406326 37.0207214,33.1406326 37.0790825,33.0395508 37.0737305,33.0302734 41.1203613,26.0205269 40.9759331,25.7703457 " fill="#D8E4E9"/>
        <polyline  points="36.8483963,33.1406326 28.5125008,33.1406326 28.5869236,33.2695313 36.922821,33.2695313 36.8483963,33.1406326 " fill="#D8E4E9"/>
        <polyline  points="37.0207214,33.1406326 36.8483963,33.1406326 36.922821,33.2695313 36.9463005,33.2695313 37.0207214,33.1406326 " fill="#D4DEE1"/>
        <polyline  points="36.9898987,18.7851601 28.5185051,18.7851601 28.5444393,18.8300724 24.3264046,26.1339436 28.4068546,33.2021446 28.4423733,33.1406326 28.5125008,33.1406326 24.4072342,26.0302773 28.5869236,18.790041 36.9463005,18.790041 40.9759331,25.7703457 40.9992371,25.7299805 36.9898987,18.7851601 " fill="#D4E2E7"/>
        <polyline  points="41.3513298,25.9199219 41.1784401,25.9199219 41.1203613,26.0205269 41.125988,26.0302773 37.0790825,33.0395508 37.2235184,33.2897148 41.4150391,26.0302773 41.3513298,25.9199219 " fill="#D7E3E7"/>
        <path  d="M37.0790825,33.0395508l-0.0583611,0.1010818h0.0701027l0.1093864,0.1894493l0.0233078-0.0403671L37.0790825,33.0395508 M40.9992371,25.7299805l-0.023304,0.0403652l0.1444283,0.2501812l0.0580788-0.100605h-0.0695496L40.9992371,25.7299805" fill="#CFDBDE"/>
        <polyline  points="37.1266899,18.6021652 37.0209923,18.7851601 36.9898987,18.7851601 40.9992371,25.7299805 41.1088905,25.5400391 41.132019,25.5400391 37.1266899,18.6021652 " fill="#CFDBDE"/>
        <polyline  points="41.2763481,25.7900391 41.253418,25.7900391 41.1784401,25.9199219 41.3513298,25.9199219 41.2763481,25.7900391 " fill="#D1DBDE"/>
        <polyline  points="41.132019,25.5400391 41.1088905,25.5400391 40.9992371,25.7299805 41.1088905,25.9199219 41.1784401,25.9199219 41.253418,25.7900391 41.2763481,25.7900391 41.132019,25.5400391 " fill="#CCD5D7"/>
        <polyline  points="36.9463005,33.3906326 28.5869236,33.3906326 28.5512924,33.452343 28.5900822,33.5195313 37.0207214,33.5195313 36.9463005,33.3906326 " fill="#D7E3E7"/>
        <polyline  points="28.5125008,33.1406326 28.4423733,33.1406326 28.4068546,33.2021446 28.5512924,33.452343 28.5869236,33.3906326 36.9463005,33.3906326 37.0207214,33.5195313 37.0671692,33.5195313 36.922821,33.2695313 28.5869236,33.2695313 28.5125008,33.1406326 " fill="#CFDBDE"/>
        <polyline  points="37.0908241,33.1406326 37.0207214,33.1406326 36.9463005,33.2695313 36.922821,33.2695313 37.0671692,33.5195313 37.0908241,33.5195313 37.2002106,33.3300819 37.0908241,33.1406326 " fill="#CCD5D7"/>
        <path  d="M36.8779373,4.054688H30.686861c-1.1278973,0.5756741-2.2187996,1.2159081-3.266098,1.9147925l-3.0760288,5.3303242l4.1777267,7.2353554h8.3231087l-0.0608902-0.1054764l4.1915092-7.2594194L36.8779373,4.054688" fill="#DDEEF3"/>
        <path  d="M30.686861,4.054688h-0.0169487c-1.1337852,0.5781269-2.222168,1.2148538-3.2363243,1.8925691l-0.012825,0.0222235C28.4680614,5.270596,29.5589638,4.630362,30.686861,4.054688" fill="#D6E5EA"/>
        <polyline  points="40.9761887,11.1702642 36.7846794,18.4296837 36.8455696,18.5351601 36.8793831,18.5351601 36.9028358,18.4951286 41.0546837,11.3017673 41.0136681,11.235343 40.9761887,11.1702642 " fill="#D8E4E9"/>
        <path  d="M30.6152477,3.8106904l-0.0317516,0.0076597c-1.1616268,0.5908329-2.2763767,1.2422035-3.3129768,1.937506l-0.0127945,0.0220628C28.3337212,5.0584207,29.4547348,4.4009361,30.6152477,3.8106904" fill="#D2E3E9"/>
        <path  d="M27.420763,5.9694805c-0.1516705,0.1012135-0.3025246,0.2037377-0.4523907,0.3074203l-2.912714,5.0229039l0.0259342,0.0449133h0.1405697l4.1875095,7.2519655l0.0327015-0.0566425h8.4060154l-0.0028191-0.0048809h-8.3231087l-4.1777267-7.2353554L27.420763,5.9694805 M36.776165,3.8046873h-5.5888443c-0.1677094,0.0819762-0.3343773,0.1652331-0.5004597,0.2500007h6.1910763l4.0982513,7.1155763l0.0265656-0.0460148L36.776165,3.8046873" fill="#D4E2E7"/>
        <path  d="M31.1873207,3.8046873h-0.5471878l-0.0248852,0.0060031c-1.1605129,0.5902457-2.2815266,1.2477303-3.357523,1.9672284l-0.2893524,0.498982c0.1498661-0.1036825,0.3007202-0.2062068,0.4523907-0.3074203l0.012825-0.0222235c1.0141563-0.6777153,2.1025391-1.3144422,3.2363243-1.8925691h0.0169487C30.8529434,3.9699204,31.0196114,3.8866634,31.1873207,3.8046873" fill="#CDDBE0"/>
        <polyline  points="41.2837219,11.1904297 41.253418,11.1904297 37.0737305,18.4296837 37.1500015,18.5618076 41.3456955,11.297843 41.2837219,11.1904297 " fill="#D7E3E7"/>
        <polyline  points="41.0027542,11.1242495 40.9761887,11.1702642 41.0136681,11.235343 41.0546837,11.3017673 36.9028358,18.4951286 36.8793831,18.5351601 36.8455696,18.5351601 36.8483887,18.540041 37.0908241,18.540041 37.1266899,18.6021652 37.1500015,18.5618076 37.0737305,18.4296837 41.253418,11.1904297 41.2837219,11.1904297 41.2803421,11.1845675 41.0375862,11.1845675 41.0027542,11.1242495 " fill="#CFDBDE"/>
        <polyline  points="37.0224648,3.8046873 36.776165,3.8046873 41.0027542,11.1242495 41.1088905,10.9404287 41.1394844,10.9404287 37.0224648,3.8046873 " fill="#CFDBDE"/>
        <polyline  points="41.1394844,10.9404287 41.1088905,10.9404287 41.0027542,11.1242495 41.0375862,11.1845675 41.2803421,11.1845675 41.1394844,10.9404287 " fill="#CCD5D7"/>
        <polyline  points="36.8483887,18.540041 28.4423733,18.540041 28.4096718,18.5966835 28.5185051,18.7851601 36.9898987,18.7851601 36.8483887,18.540041 " fill="#CFDBDE"/>
        <polyline  points="37.0908241,18.540041 36.8483887,18.540041 36.9898987,18.7851601 37.0209923,18.7851601 37.1266899,18.6021652 37.0908241,18.540041 " fill="#CCD5D7"/>
        <path  d="M36.9102745,48.1191444h-8.3170891l0.0225353,0.0390472l-4.1929283,7.2686424l2.4296093,4.2156639c1.5873356,1.108532,3.2761192,2.0778618,5.0523376,2.8926544h4.9741554l0.0569496-0.0971718l-0.0798836-0.1381874l0.0356407-0.0625l4.0813675-7.0815697L36.9102745,48.1191444" fill="#DDEEF3"/>
        <path  d="M26.8524017,59.642498l0.0118656,0.0205879c1.5659142,1.0947342,3.2553577,2.0605431,5.0229511,2.8720665h0.0175209C30.128521,61.7203598,28.4397373,60.75103,26.8524017,59.642498" fill="#D6E5EA"/>
        <polyline  points="40.9729691,55.1557236 36.8916016,62.2372932 36.8559608,62.2997932 36.9358444,62.4379807 36.9721794,62.3759804 41.0561523,55.2997971 40.9729691,55.1557236 " fill="#D8E4E9"/>
        <polyline  points="36.8730545,48.0546799 28.5559864,48.0546799 28.5931854,48.1191444 36.9102745,48.1191444 36.8730545,48.0546799 " fill="#D8E4E9"/>
        <path  d="M26.6653481,59.8165588l0.0328827,0.0359917c1.5918159,1.1142578,3.3105469,2.0966759,5.1093903,2.9208755l0.0172005,0.000042C30.0106697,61.9429398,28.2840443,60.9508324,26.6653481,59.8165588" fill="#D2E3E9"/>
        <path  d="M36.9358444,62.4379807l-0.0569496,0.0971718h-4.9741554c0.1774368,0.0813942,0.356144,0.1614265,0.5352707,0.2396965l4.5814705,0.0103035l0.0575027-0.0995598L36.9358444,62.4379807 M24.4227924,55.4268341l-0.1317768,0.2284393h-0.0320263l2.1022472,3.637455c0.1621742,0.1177597,0.3267574,0.2349548,0.4911652,0.3497696L24.4227924,55.4268341 M36.9623756,48.1191444h-0.0521011l4.0626945,7.0365791l0.0258484-0.0448494L36.9623756,48.1191444" fill="#D4E2E7"/>
        <path  d="M26.3612366,59.2927284l0.300396,0.5197639l0.0037155,0.0040665c1.6186962,1.1342735,3.3453217,2.1263809,5.1594734,2.9569092l0.6151886,0.0013809c-0.1791267-0.07827-0.3578339-0.1583023-0.5352707-0.2396965h-0.0175209c-1.7675934-0.8115234-3.457037-1.7773323-5.0229511-2.8720665l-0.0118656-0.0205879C26.687994,59.5276833,26.5234108,59.4104881,26.3612366,59.2927284" fill="#CDDBE0"/>
        <polyline  points="41.2788467,55.1865234 41.2493172,55.1865234 41.2275391,55.224617 37.1440544,62.2997932 37.2229805,62.4362679 41.3085823,55.3622971 41.3442497,55.2997971 41.2788467,55.1865234 " fill="#D7E3E7"/>
        <polyline  points="40.9988174,55.1108742 40.9729691,55.1557236 41.0561523,55.2997971 36.9721794,62.3759804 36.9358444,62.4379807 37.0789833,62.6855927 37.2229805,62.4362679 37.1440544,62.2997932 41.2275391,55.224617 41.2493172,55.1865234 41.0424919,55.1865234 40.9988174,55.1108742 " fill="#CFDBDE"/>
        <polyline  points="37.1445541,48.0260887 37.0908241,48.1191444 36.9623756,48.1191444 40.9988174,55.1108742 41.1168861,54.9060173 37.1445541,48.0260887 " fill="#CFDBDE"/>
        <polyline  points="41.2640114,55.1608276 41.2493172,55.1865234 41.2788467,55.1865234 41.2640114,55.1608276 " fill="#D1DBDE"/>
        <polyline  points="41.1168861,54.9060173 40.9988174,55.1108742 41.0424919,55.1865234 41.2493172,55.1865234 41.2640114,55.1608276 41.1168861,54.9060173 " fill="#CCD5D7"/>
        <polyline  points="36.7808304,47.8046799 28.5497055,47.8046799 28.5869236,47.8691406 36.8180466,47.8691406 36.7808304,47.8046799 " fill="#D7E3E7"/>
        <polyline  points="36.9835167,47.8046799 36.7808304,47.8046799 36.8180466,47.8691406 36.9463005,47.8691406 36.9835167,47.8046799 " fill="#D2DCE0"/>
        <polyline  points="28.5497055,47.8046799 28.4117184,47.8046799 28.5559864,48.0546799 36.8730545,48.0546799 36.9102745,48.1191444 36.9623756,48.1191444 36.8180466,47.8691406 28.5869236,47.8691406 28.5497055,47.8046799 " fill="#CFDBDE"/>
        <polyline  points="37.0278358,47.8046799 36.9835167,47.8046799 36.9463005,47.8691406 36.8180466,47.8691406 36.9623756,48.1191444 37.0908241,48.1191444 37.1445541,48.0260887 37.0922737,47.9355431 37.0278358,47.8046799 " fill="#CCD5D7"/>
        <path  d="M74.7314453,40.490242h-8.0073318l-0.0839615,0.1386642l-3.9136009,6.8090858l0.2080078,0.3686485l3.7895546,6.5781212h3.0944443c1.8216705-2.0776138,3.3829269-4.388485,4.632637-6.8818932c0.6966858-1.4481888,1.2807007-2.9474182,1.7406921-4.4770012L74.7314453,40.490242" fill="#DDEEF3"/>
        <path  d="M74.4511948,47.5028687c-1.2497101,2.4934082-2.8109665,4.8042793-4.632637,6.8818932h0.1223526C71.7355194,52.3118134,73.2583847,49.9823647,74.4511948,47.5028687" fill="#D6E5EA"/>
        <path  d="M74.3835831,48.1816177c-1.2235336,2.3265419-2.7186966,4.4882355-4.443634,6.4433823h0.1093826l0.0356369-0.0415039C71.7703018,52.6445999,73.2187576,50.4822922,74.3835831,48.1816177" fill="#D2E3E9"/>
        <path  d="M74.9057846,40.3144417h-8.2067642l-4.0676041,7.0465012L66.8253708,54.625h2.7804489c0.0710678-0.0794716,0.1424408-0.1600647,0.212738-0.2402382h-3.0944443l-3.7895546-6.5781212l-0.2080078-0.3686485l3.9136009-6.8090858l0.0839615-0.1386642h8.0073318l1.4604416,2.5356255c-0.4599915,1.529583-1.0440063,3.0288124-1.7406921,4.4770012c0.7500153-1.4964104,1.3880463-3.0591049,1.9024124-4.6756325l-1.2408066-2.1626892L74.9057846,40.3144417" fill="#D4E2E7"/>
        <path  d="M76.3536072,42.8272362c-0.5143661,1.6165276-1.1523972,3.1792221-1.9024124,4.6756325c-1.1928101,2.479496-2.7156754,4.8089447-4.5102844,6.8818932h-0.1223526c-0.0702972,0.0801735-0.1416702,0.1607666-0.212738,0.2402382h0.3341293c1.7249374-1.9551468,3.2201004-4.1168404,4.443634-6.4433823c0.8360672-1.6513329,1.5260544-3.3740311,2.0524445-5.1362l0.0141754-0.0498199L76.3536072,42.8272362" fill="#CDDBE0"/>
        <polyline  points="66.5634689,40.2890587 62.5038643,47.3447342 62.6220589,47.3447342 62.6314163,47.3609428 66.6990204,40.3144417 66.5781174,40.3144417 66.5634689,40.2890587 " fill="#CFDBDE"/>
        <polyline  points="62.6314163,47.3609428 62.5184669,47.5566139 66.5859375,54.625 66.8253708,54.625 62.6314163,47.3609428 " fill="#CFDBDE"/>
        <polyline  points="62.6220589,47.3447342 62.5038643,47.3447342 62.4502068,47.4379921 62.5184669,47.5566139 62.6314163,47.3609428 62.6220589,47.3447342 " fill="#CCD5D7"/>
        <path  d="M75.0781174,25.594738h-8.3503571l0.0202942,0.0351505l-4.1820488,7.2438107l4.1566582,7.1907425h8.3574142l0.052742-0.0888443l2.6535645-4.5908089c0.0574646-0.7877846,0.0866547-1.5825882,0.0866547-2.3847809c0-0.5704994-0.0147324-1.1365681-0.0439453-1.6999264c-0.0204239-0.3655033-0.0477219-0.7254982-0.082016-1.0832958L75.0781174,25.594738" fill="#DDEEF3"/>
        <path  d="M77.8290939,31.3000813c0.029213,0.5633583,0.0439453,1.129427,0.0439453,1.6999264c0,0.8021927-0.0291901,1.5969963-0.0866547,2.3847809l0.001709-0.0029564C77.8457108,34.5771561,77.875,33.7822151,77.875,33.0000076C77.875,32.4131889,77.8598404,31.850378,77.8290939,31.3000813" fill="#D6E5EA"/>
        <polyline  points="66.7277603,25.594738 66.7216873,25.594738 66.6874924,25.6533146 62.5424843,32.8330116 62.5660057,32.8736992 66.7480545,25.6298885 66.7277603,25.594738 " fill="#D8E4E9"/>
        <path  d="M78.0778961,31.2705765c0.0299988,0.5730534,0.0451431,1.1490364,0.0451431,1.7294312c0,0.8149719-0.0298615,1.6218758-0.088707,2.422081l0.0008163-0.0031433C78.0947342,34.6152229,78.125,33.8007851,78.125,33.0000076C78.125,32.4028053,78.1093674,31.8301105,78.0778961,31.2705765" fill="#5283AF"/>
        <path  d="M62.5660057,32.8736992L62.53368,32.9296951l4.2143745,7.2998047l-0.0118408,0.020504h8.1314697l0.0381012,0.0644379h0.3149185l2.5181046-4.3488922c0.0175858-0.1933098,0.0334091-0.3864975,0.0475769-0.580761l-2.6535645,4.5908089l-0.052742,0.0888443h-8.3574142L62.5660057,32.8736992 M75.2615891,25.4121456l-0.0994873,0.1728058h-8.4399948l0.0056534,0.0097866h8.3503571l2.6689606,4.6220474c0.0342941,0.3577976,0.0615921,0.7177925,0.082016,1.0832958c-0.0289307-0.5579605-0.0721817-1.1144218-0.1290588-1.664669L75.2615891,25.4121456" fill="#D4E2E7"/>
        <path  d="M77.9985275,30.2155399v5.3014545l0.0200195-0.0345688l0.0157852-0.0603371c0.0588455-0.8002052,0.088707-1.6071091,0.088707-2.422081c0-0.5803947-0.0151443-1.1563778-0.0451431-1.7294312C78.0578766,30.9145603,78.0314331,30.5638237,77.9985275,30.2155399" fill="#688CB1"/>
        <path  d="M77.7000351,29.6354122c0.0568771,0.5502472,0.1001282,1.1067085,0.1290588,1.664669C77.8598404,31.850378,77.875,32.4131889,77.875,33.0000076c0,0.7822075-0.0292892,1.5771484-0.0869064,2.3818245l-0.001709,0.0029564c-0.0141678,0.1942635-0.0299911,0.3874512-0.0475769,0.580761l0.2597198-0.448555v-5.3014545c-0.0011292-0.0119648-0.0022583-0.0238819-0.0034103-0.0358429v-0.0332127L77.7000351,29.6354122" fill="#CDDBE0"/>
        <polyline  points="62.53368,32.9296951 62.4255676,33.1169548 66.5634689,40.2890587 66.5859375,40.2500038 66.7362137,40.2500038 66.7480545,40.2294998 62.53368,32.9296951 " fill="#CFDBDE"/>
        <polyline  points="66.4366913,25.5912838 62.3074303,32.740242 62.3541946,32.740242 66.4589767,25.6298885 66.4366913,25.5912838 " fill="#D7E3E7"/>
        <polyline  points="62.3541946,32.740242 62.3074303,32.740242 62.2578011,32.8261681 62.281189,32.866703 62.3541946,32.740242 " fill="#D2DCE0"/>
        <polyline  points="66.4740829,25.5265484 66.4366913,25.5912838 66.4589767,25.6298885 62.3541946,32.740242 62.424305,32.740242 62.53368,32.9296951 62.5660057,32.8736992 62.5424843,32.8330116 66.6874924,25.6533146 66.7216873,25.594738 66.7277603,25.594738 66.7221069,25.5849514 66.5078125,25.5849514 66.4740829,25.5265484 " fill="#CFDBDE"/>
        <polyline  points="62.424305,32.740242 62.3541946,32.740242 62.281189,32.866703 62.4255676,33.1169548 62.53368,32.9296951 62.424305,32.740242 " fill="#CCD5D7"/>
        <polyline  points="74.8676834,40.2500038 66.7362137,40.2500038 66.6990204,40.3144417 74.9057846,40.3144417 74.8676834,40.2500038 " fill="#CFDBDE"/>
        <polyline  points="66.7362137,40.2500038 66.5859375,40.2500038 66.5634689,40.2890587 66.5781174,40.3144417 66.6990204,40.3144417 66.7362137,40.2500038 " fill="#CCD5D7"/>
        <path  d="M69.1301651,10.8545036H66.66082l0.0247345,0.0429506l-4.1858978,7.2437143l4.1526794,7.1937828h8.365242l1.3034515-2.2639904C74.8395309,18.4674225,72.3569412,14.3099556,69.1301651,10.8545036" fill="#DDEEF3"/>
        <path  d="M69.1464844,10.8545036h-0.0163193c3.2267761,3.455452,5.7093658,7.6129189,7.1908646,12.2164574l0.0031891-0.0055428C74.8828125,18.5517654,72.4023361,14.3320217,69.1464844,10.8545036" fill="#D6E5EA"/>
        <polyline  points="66.66082,10.8545036 66.6513596,10.8545036 66.6171875,10.9130793 62.4751053,18.0986385 62.4996567,18.1411686 66.6855545,10.8974543 66.66082,10.8545036 " fill="#D8E4E9"/>
        <path  d="M69.2538986,10.6045027h-0.0156555c3.3119278,3.5235815,5.8545685,7.7798433,7.3545074,12.4953623l0.0029602-0.0051346l-0.0166092-0.0527382c-1.4560471-4.5849571-3.9755783-8.8720589-7.2880936-12.3984394L69.2538986,10.6045027" fill="#D2E3E9"/>
        <path  d="M62.4996567,18.1411686l-0.0375404,0.0649605l4.1213112,7.1386089h8.6392365l0.0389252,0.0674076l1.1616364-2.0178089c-0.0335693-0.1082325-0.0675201-0.2156258-0.1021957-0.3233757l-1.3034515,2.2639904h-8.365242L62.4996567,18.1411686 M68.8942413,10.6045027h-2.3773651l0.1439438,0.250001h2.4693451C69.0518646,10.7706585,68.9734116,10.6875162,68.8942413,10.6045027" fill="#D4E2E7"/>
        <path  d="M69.2382431,10.6045027h-0.3440018c0.0791702,0.0830135,0.1576233,0.1661558,0.2359238,0.250001h0.0163193c3.2558517,3.4775181,5.7363281,7.6972618,7.1777344,12.2109146l-0.0031891,0.0055428c0.0346756,0.1077499,0.0686264,0.2151432,0.1021957,0.3233757l0.1695251-0.2944717C75.0928116,18.384346,72.5501709,14.1280842,69.2382431,10.6045027" fill="#CDDBE0"/>
        <polyline  points="62.4621162,18.2061291 62.3588867,18.3847713 62.3491898,18.3847713 66.4740829,25.5265484 66.5790939,25.344738 66.5834274,25.344738 62.4621162,18.2061291 " fill="#CFDBDE"/>
        <polyline  points="66.3663788,10.8514118 62.1850471,18.1005764 62.2047958,18.1347713 62.2212029,18.1347713 62.2514725,18.0771523 66.3945389,10.9003973 66.3663788,10.8514118 " fill="#D7E3E7"/>
        <polyline  points="66.5168762,10.6045027 66.5087967,10.6045027 66.3663788,10.8514118 66.3945389,10.9003973 62.2514725,18.0771523 62.2212029,18.1347713 62.2047958,18.1347713 62.2081833,18.1406326 62.424305,18.1406326 62.4621162,18.2061291 62.4996567,18.1411686 62.4751053,18.0986385 66.6171875,10.9130793 66.6513596,10.8545036 66.66082,10.8545036 66.5168762,10.6045027 " fill="#CFDBDE"/>
        <polyline  points="62.424305,18.1406326 62.2081833,18.1406326 62.3491898,18.3847713 62.3588867,18.3847713 62.4621162,18.2061291 62.424305,18.1406326 " fill="#CCD5D7"/>
        <polyline  points="75.2226639,25.344738 66.5834274,25.344738 66.7221069,25.5849514 75.1621017,25.5849514 75.2615891,25.4121456 75.2226639,25.344738 " fill="#CFDBDE"/>
        <polyline  points="66.5834274,25.344738 66.5790939,25.344738 66.4740829,25.5265484 66.5078125,25.5849514 66.7221069,25.5849514 66.5834274,25.344738 " fill="#CCD5D7"/>
        <path  d="M24.2286015,41.0546837h-8.5277081l-1.1705685,2.0331612c1.5250511,4.6553154,4.0764065,8.8511925,7.384552,12.3174286h2.199625l-0.059824-0.1035156l4.1929531-7.2686806L24.2286015,41.0546837" fill="#DDEEF3"/>
        <path  d="M14.5303249,43.0878448l-0.0039597,0.0068741c1.4868088,4.5498085,4.0332012,8.8047028,7.3671989,12.3105545h0.0213127C18.6067314,51.9390373,16.0553761,47.7431602,14.5303249,43.0878448" fill="#D6E5EA"/>
        <polyline  points="28.2476311,48.0330772 24.054678,55.3017578 24.114502,55.4052734 24.1494083,55.4052734 24.1728592,55.365242 28.324707,48.162117 28.2836933,48.0956917 28.2476311,48.0330772 " fill="#D8E4E9"/>
        <polyline  points="24.3281803,40.9936295 24.2929783,41.0546837 24.2286015,41.0546837 28.2476311,48.0330772 28.3201218,47.9074097 24.3281803,40.9936295 " fill="#D4E2E7"/>
        <polyline  points="24.4046879,40.8609428 24.3281803,40.9936295 28.3201218,47.9074097 28.3793831,47.8046799 28.4117184,47.8046799 24.4046879,40.8609428 " fill="#CFDBDE"/>
        <path  d="M14.2578783,43.0585823l-0.0039825,0.0068512l0.0175877,0.0537186c1.5014763,4.6220703,4.0869188,8.9443207,7.4780207,12.4970703l0.036623,0.0390511h0.0222702C18.4131546,52.1208725,15.8017788,47.8274536,14.2578783,43.0585823" fill="#D2E3E9"/>
        <path  d="M24.114502,55.4052734h-2.199625c0.0799007,0.0837173,0.1603699,0.1671371,0.2411499,0.25h2.1029625L24.114502,55.4052734 M15.5311041,40.8682327l-1.1039219,1.8990936c0.0338182,0.1069984,0.0682468,0.2139969,0.1031427,0.3205185l1.1705685-2.0331612h-0.0636778l-0.0756969-0.1337814L15.5311041,40.8682327" fill="#D4E2E7"/>
        <path  d="M14.4271822,42.7673264l-0.1693039,0.291256c1.5439005,4.7688713,4.1552763,9.0622902,7.550519,12.5966911h0.3476295c-0.08078-0.0828629-0.1612492-0.1662827-0.2411499-0.25h-0.0213127c-3.3339977-3.5058517-5.8803902-7.760746-7.3671989-12.3105545l0.0039597-0.0068741C14.495429,42.9813232,14.4610004,42.8743248,14.4271822,42.7673264" fill="#CDDBE0"/>
        <polyline  points="28.5931854,48.1191444 28.4834957,48.1191444 24.3456917,55.2978592 24.3867283,55.3642578 24.4227924,55.4268341 28.6157207,48.1581917 28.5931854,48.1191444 " fill="#D7E3E7"/>
        <polyline  points="28.5559864,48.0546799 28.5209885,48.0546799 28.4975643,48.0947342 28.4834957,48.1191444 28.5931854,48.1191444 28.5559864,48.0546799 " fill="#D2DCE0"/>
        <polyline  points="28.3201218,47.9074097 28.2476311,48.0330772 28.2836933,48.0956917 28.324707,48.162117 24.1728592,55.365242 24.1494083,55.4052734 24.114502,55.4052734 24.2589893,55.6552734 24.2910156,55.6552734 24.4227924,55.4268341 24.3867283,55.3642578 24.3456917,55.2978592 28.4834957,48.1191444 28.4423733,48.1191444 28.3201218,47.9074097 " fill="#CFDBDE"/>
        <polyline  points="28.4117184,47.8046799 28.3793831,47.8046799 28.3201218,47.9074097 28.4423733,48.1191444 28.4834957,48.1191444 28.4975643,48.0947342 28.5209885,48.0546799 28.5559864,48.0546799 28.4117184,47.8046799 " fill="#CCD5D7"/>
        <path  d="M24.1479378,26.3251915h-8.3657055l-2.8050623,4.854208c-0.0334692,0.6027184-0.0504217,1.2096691-0.0504217,1.8206081c0,1.0502853,0.0502262,2.0902138,0.1481953,3.1152611l2.632782,4.5595322h8.4363651l-0.0259323-0.0449142l4.1465549-7.1815605L24.1479378,26.3251915" fill="#DDEEF3"/>
        <path  d="M12.97717,31.1793995l-0.0035467,0.0061378c-0.0326977,0.6679783-0.0488129,1.2617283-0.0488129,1.8144703c0,1.0517578,0.0483227,2.0703049,0.1484261,3.1123009l0.0017071,0.0029602c-0.0979691-1.0250473-0.1481953-2.0649757-0.1481953-3.1152611C12.9267483,32.3890686,12.9437008,31.7821178,12.97717,31.1793995" fill="#D6E5EA"/>
        <polyline  points="28.2647133,33.4483261 24.1181583,40.6298866 24.1440907,40.6748009 24.2291203,40.6748009 28.3266697,33.5585823 28.3007908,33.5107498 28.2647133,33.4483261 " fill="#D8E4E9"/>
        <polyline  points="24.1440907,40.6748009 15.7077255,40.6748009 15.7827225,40.8046799 24.1518612,40.797863 24.1849155,40.7455063 24.1440907,40.6748009 " fill="#D8E4E9"/>
        <polyline  points="24.2291203,40.6748009 24.1440907,40.6748009 24.1849155,40.7455063 24.2246151,40.6826248 24.2291203,40.6748009 " fill="#D4DEE1"/>
        <path  d="M12.7296591,31.1279755l-0.0045652,0.0155697c-0.0336781,0.6836014-0.0502844,1.2910175-0.0502844,1.8564625c0,0.979454,0.0416775,1.9292831,0.1269379,2.8948555v-0.0216179c-0.0827579-0.9469414-0.125-1.9051819-0.125-2.8732376C12.6767473,32.3722572,12.6946001,31.7471046,12.7296591,31.1279755" fill="#5283AF"/>
        <path  d="M12.8017473,35.8732452v0.0216179c0.0074835,0.0847473,0.0152941,0.1695366,0.0234499,0.2545586v0.0331879l0.0060892,0.0105438C12.820941,36.0867958,12.8110685,35.9798965,12.8017473,35.8732452" fill="#D2E3E9"/>
        <path  d="M13.0749435,36.1152687c0.0195732,0.2047958,0.0408916,0.4074173,0.0642672,0.6110954l2.3918934,4.1418686l0.1124401-0.1934319h0.0641813L13.0749435,36.1152687 M15.5385342,26.2468128l-2.5252571,4.3701134c-0.0136042,0.1867561-0.0256891,0.3748646-0.0361071,0.5624733l2.8050623-4.854208h8.3657055l4.1167755,7.1231346l0.0682735-0.1182442l-4.0807838-7.0676498l-0.0300407,0.0520153h-8.6445274L15.5385342,26.2468128" fill="#D4E2E7"/>
        <path  d="M12.8017473,30.9829903l-0.0600471,0.1039162l-0.0120411,0.041069c-0.035059,0.6191292-0.0529118,1.2442818-0.0529118,1.8720322c0,0.9680557,0.0422421,1.9262962,0.125,2.8732376v-2.8732376l0,0l0,0l0,0l0,0V30.9829903" fill="#688CB1"/>
        <path  d="M13.0132771,30.6169262l-0.2115297,0.3660641v2.0170174v2.8732376c0.0093212,0.1066513,0.0191936,0.2135506,0.0295391,0.3199081l0.3079243,0.5332108c-0.0233755-0.2036781-0.0446939-0.4062996-0.0642672-0.6110954l-0.0017071-0.0029602c-0.1001034-1.041996-0.1484261-2.0605431-0.1484261-3.1123009c0-0.552742,0.0161152-1.146492,0.0488129-1.8144703l0.0035467-0.0061378C12.9875879,30.9917908,12.9996729,30.8036823,13.0132771,30.6169262" fill="#CDDBE0"/>
        <polyline  points="28.5900822,33.5195313 28.5125008,33.5195313 24.4072342,40.6298866 24.4726181,40.7431297 28.5786076,33.6220665 28.6137581,33.5605469 28.5900822,33.5195313 " fill="#D7E3E7"/>
        <polyline  points="28.3329868,33.3300819 28.2647133,33.4483261 28.3007908,33.5107498 28.3266697,33.5585823 24.2291203,40.6748009 24.2866249,40.6748009 24.3637695,40.7900391 24.4046879,40.8609428 24.4726181,40.7431297 24.4072342,40.6298866 28.5125008,33.5195313 28.4423733,33.5195313 28.3329868,33.3300819 " fill="#CFDBDE"/>
        <polyline  points="24.3264046,26.1339436 24.252203,26.2624321 28.3329868,33.3300819 28.4068546,33.2021446 24.3264046,26.1339436 " fill="#CFDBDE"/>
        <polyline  points="28.5512924,33.452343 28.5125008,33.5195313 28.5900822,33.5195313 28.5512924,33.452343 " fill="#D1DBDE"/>
        <polyline  points="28.4068546,33.2021446 28.3329868,33.3300819 28.4423733,33.5195313 28.5125008,33.5195313 28.5512924,33.452343 28.4068546,33.2021446 " fill="#CCD5D7"/>
        <polyline  points="24.1537991,40.9248009 15.7734261,40.9286995 15.7008934,41.0546837 24.2286015,41.0546837 24.1537991,40.9248009 " fill="#D7E3E7"/>
        <polyline  points="15.7077255,40.6748009 15.6435442,40.6748009 15.5311041,40.8682327 15.5615187,40.9209023 15.6372156,41.0546837 15.7008934,41.0546837 15.7734261,40.9286995 24.1537991,40.9248009 24.2286015,41.0546837 24.2929783,41.0546837 24.3281803,40.9936295 24.1849155,40.7455063 24.1518612,40.797863 15.7827225,40.8046799 15.7077255,40.6748009 " fill="#CFDBDE"/>
        <polyline  points="24.2866249,40.6748009 24.2291203,40.6748009 24.2246151,40.6826248 24.1849155,40.7455063 24.3281803,40.9936295 24.4046879,40.8609428 24.3637695,40.7900391 24.2866249,40.6748009 " fill="#CCD5D7"/>
        <path  d="M24.0776367,11.5947189h-3.0783901c-3.0242462,3.443327-5.3328257,7.5291958-6.691432,12.0240841l1.4143457,2.4456444h8.3554764l4.1777267-7.234375L24.0776367,11.5947189" fill="#DDEEF3"/>
        <path  d="M20.9992466,11.5947189H20.98633c-3.0449219,3.4531355-5.353529,7.6074371-6.6811438,12.0195389l0.0026283,0.0045452C15.6664209,19.1239147,17.9750004,15.0380459,20.9992466,11.5947189" fill="#D6E5EA"/>
        <path  d="M20.8866062,11.344718H20.874012l-0.0375786,0.0419941c-3.0991325,3.5019484-5.4458084,7.7236319-6.786129,12.2070398l-0.015625,0.0517559l0.0026817,0.0046387C15.4133081,19.043129,17.779129,14.8583422,20.8866062,11.344718" fill="#D2E3E9"/>
        <path  d="M24.0815926,11.344718h-2.8605003c-0.0745602,0.0831604-0.1481323,0.1660728-0.2218456,0.250001h3.0783901l4.1777267,7.2353535l-4.1777267,7.234375h-8.3554764l-1.4143457-2.4456444c-0.0331144,0.1095581-0.065834,0.219923-0.0978165,0.3299637l1.328536,2.2980461l0.0991726-0.1716232h8.5063839l-0.0259323-0.0449123l4.2212372-7.311861L24.0815926,11.344718" fill="#D4E2E7"/>
        <path  d="M21.2210922,11.344718h-0.334486c-3.1074772,3.5136242-5.4732981,7.698411-6.8492451,12.3054285l0.172637,0.2986202c0.0319824-0.1100407,0.064702-0.2204056,0.0978165-0.3299637l-0.0026283-0.0045452c1.3276148-4.4121017,3.6362219-8.5664034,6.6811438-12.0195389h0.0129166C21.0729599,11.5107908,21.1465321,11.4278784,21.2210922,11.344718" fill="#CDDBE0"/>
        <polyline  points="28.3393955,18.7184162 24.1181583,26.0302773 24.1440907,26.0751896 24.2924881,26.0751896 24.3264046,26.1339436 28.5444393,18.8300724 28.5185051,18.7851601 28.3779354,18.7851601 28.3393955,18.7184162 " fill="#CFDBDE"/>
        <polyline  points="24.2221622,11.344718 24.0815926,11.344718 28.3393955,18.7184162 28.4096718,18.5966835 24.2221622,11.344718 " fill="#CFDBDE"/>
        <polyline  points="28.4096718,18.5966835 28.3393955,18.7184162 28.3779354,18.7851601 28.5185051,18.7851601 28.4096718,18.5966835 " fill="#CCD5D7"/>
        <polyline  points="24.1440907,26.0751896 15.6377068,26.0751896 15.5385342,26.2468128 15.5776348,26.3144474 24.2221622,26.3144474 24.252203,26.2624321 24.1440907,26.0751896 " fill="#CFDBDE"/>
        <polyline  points="24.2924881,26.0751896 24.1440907,26.0751896 24.252203,26.2624321 24.3264046,26.1339436 24.2924881,26.0751896 " fill="#CCD5D7"/>
        <path  d="M11.5419922,54.7353516H8.1313477v-0.1821289h1.4863281v-0.0068359c-0.171875-0.0556641-0.3100586-0.159668-0.4145508-0.3120117c-0.1044922-0.152832-0.1572266-0.3320313-0.1572266-0.5366211c0-0.2695313,0.0820313-0.4868164,0.2470703-0.6513672c0.1645508-0.1645508,0.3837891-0.2470703,0.6582031-0.2470703h1.5908203v0.1821289H9.9746094c-0.234375,0-0.4204102,0.0688477-0.5576172,0.2055664c-0.137207,0.137207-0.2055664,0.3208008-0.2055664,0.5507813c0,0.2412109,0.0800781,0.4375,0.2407227,0.5883789c0.1611328,0.1513672,0.3691406,0.2270508,0.6240234,0.2270508h1.4658203V54.7353516z"/>
        <path  d="M8.4384766,52.1328125v-0.1816406h0.6450195v-0.4941406h0.1586914v0.4941406h1.7348633c0.1445313,0,0.2485352-0.0283203,0.3120117-0.0854492c0.0629883-0.0566406,0.0942383-0.1474609,0.0942383-0.2714844l-0.0009766-0.0864258l-0.0014648-0.0839844h0.1611328c0.0029297,0.0224609,0.0043945,0.0874023,0.0043945,0.1962891c0,0.1811523-0.043457,0.3120117-0.1308594,0.3920898c-0.0874023,0.0805664-0.2324219,0.1206055-0.434082,0.1206055H9.2421875v0.3666992H9.0834961v-0.3666992H8.4384766z"/>
        <path  d="M8.4384766,50.8686523v-0.1821289h0.6450195v-0.4941406h0.1586914v0.4941406h1.7348633c0.1445313,0,0.2485352-0.0283203,0.3120117-0.0849609c0.0629883-0.0571289,0.0942383-0.1474609,0.0942383-0.2719727l-0.0009766-0.0864258l-0.0014648-0.0839844h0.1611328c0.0029297,0.0224609,0.0043945,0.0878906,0.0043945,0.1962891c0,0.1811523-0.043457,0.3120117-0.1308594,0.3925781c-0.0874023,0.0800781-0.2324219,0.1206055-0.434082,0.1206055H9.2421875v0.3662109H9.0834961v-0.3662109H8.4384766z"/>
        <path  d="M9.0458984,48.6445313c0-0.309082,0.1162109-0.5600586,0.3496094-0.7529297s0.5390625-0.2895508,0.9169922-0.2895508c0.378418,0,0.684082,0.0961914,0.9174805,0.2880859c0.2333984,0.1923828,0.3496094,0.4428711,0.3496094,0.7519531c0,0.2207031-0.0644531,0.4130859-0.1938477,0.5776367s-0.2924805,0.2753906-0.4892578,0.3320313v0.0048828h1.4511719v0.1845703H9.0834961v-0.1728516h0.659668v-0.0068359c-0.203125-0.0581055-0.3706055-0.1704102-0.5009766-0.3359375C9.1113281,49.0605469,9.0458984,48.8666992,9.0458984,48.6445313z M11.4140625,48.6655273c0-0.2612305-0.1010742-0.4731445-0.3037109-0.6347656s-0.4672852-0.2421875-0.7954102-0.2421875c-0.3291016,0-0.5957031,0.0805664-0.7988281,0.2421875s-0.3046875,0.3735352-0.3046875,0.6347656c0,0.2631836,0.1020508,0.4780273,0.3061523,0.644043c0.2036133,0.1665039,0.46875,0.2495117,0.7949219,0.2495117s0.5917969-0.0830078,0.7954102-0.2495117C11.3120117,49.1435547,11.4140625,48.9287109,11.4140625,48.6655273z"/>
        <path  d="M9.7290039,46.8666992l-0.0463867,0.1123047l-0.1118164,0.0463867l-0.1103516-0.0463867l-0.0458984-0.1123047l0.0458984-0.1098633l0.1103516-0.0458984l0.1118164,0.0458984L9.7290039,46.8666992z M11.5605469,46.8666992l-0.0458984,0.1123047l-0.1123047,0.0463867l-0.1098633-0.0463867l-0.0458984-0.1123047l0.0458984-0.1098633l0.1098633-0.0458984l0.1123047,0.0458984L11.5605469,46.8666992z"/>
        <polygon  points="12.253418,46.112793 12.253418,46.2807617 8.1313477,45.0751953 8.1313477,44.9077148 "/>
        <polygon  points="12.253418,44.7397461 12.253418,44.9077148 8.1313477,43.7021484 8.1313477,43.5341797 "/>
        <polygon  points="9.0834961,40.2822266 11.5419922,40.9980469 11.5419922,41.2109375 9.3198242,41.8964844 9.3198242,41.9033203 11.5419922,42.5839844 11.5419922,42.8017578 9.0834961,43.5151367 9.0834961,43.3237305 11.3383789,42.6928711 11.3383789,42.6879883 9.0834961,42.0024414 9.0834961,41.7949219 11.3383789,41.1118164 11.3383789,41.1044922 9.0834961,40.4755859 "/>
        <polygon  points="9.0834961,37.0107422 11.5419922,37.7270508 11.5419922,37.9394531 9.3198242,38.625 9.3198242,38.6323242 11.5419922,39.3129883 11.5419922,39.5302734 9.0834961,40.2441406 9.0834961,40.0527344 11.3383789,39.421875 11.3383789,39.4169922 9.0834961,38.7314453 9.0834961,38.5234375 11.3383789,37.840332 11.3383789,37.8334961 9.0834961,37.2045898 "/>
        <polygon  points="9.0834961,33.7397461 11.5419922,34.4555664 11.5419922,34.668457 9.3198242,35.3540039 9.3198242,35.3608398 11.5419922,36.0415039 11.5419922,36.2592773 9.0834961,36.9731445 9.0834961,36.7817383 11.3383789,36.1503906 11.3383789,36.1455078 9.0834961,35.4604492 9.0834961,35.2524414 11.3383789,34.5693359 11.3383789,34.5620117 9.0834961,33.9335938 "/>
        <polygon  points="11.5605469,33.4868164 11.5146484,33.5991211 11.4023438,33.6450195 11.2924805,33.5991211 11.246582,33.4868164 11.2924805,33.3769531 11.4023438,33.3305664 11.5146484,33.3769531 "/>
        <path  d="M9.7124023,32.7539063c-0.1938477,0-0.3535156-0.0786133-0.4785156-0.2363281c-0.1254883-0.1572266-0.1879883-0.3583984-0.1879883-0.6025391c0-0.2490234,0.0668945-0.4526367,0.199707-0.6113281c0.1328125-0.1582031,0.3139648-0.2480469,0.5424805-0.2705078v0.1772461c-0.1826172,0.0253906-0.3256836,0.1005859-0.4291992,0.2260742c-0.1030273,0.125-0.1547852,0.2856445-0.1547852,0.480957c0,0.1904297,0.0473633,0.3476563,0.1420898,0.4711914c0.0942383,0.1240234,0.2143555,0.1855469,0.3588867,0.1855469c0.1201172,0,0.2163086-0.0439453,0.2895508-0.1323242s0.1333008-0.2304688,0.1787109-0.4277344l0.0800781-0.340332c0.0585938-0.2441406,0.1367188-0.418457,0.2353516-0.5234375s0.2333984-0.1572266,0.4052734-0.1572266c0.2016602,0,0.3666992,0.0839844,0.4941406,0.2529297c0.1274414,0.168457,0.1914063,0.3852539,0.1914063,0.6499023c0,0.2568359-0.0678711,0.4726563-0.2045898,0.6474609c-0.1362305,0.175293-0.3110352,0.2719727-0.5258789,0.2910156v-0.1821289c0.1704102-0.0219727,0.3081055-0.1030273,0.4135742-0.2436523c0.105957-0.1401367,0.1586914-0.3125,0.1586914-0.5175781c0-0.2094727-0.0478516-0.3808594-0.1445313-0.5136719c-0.0961914-0.1333008-0.2197266-0.2001953-0.3710938-0.2001953c-0.1293945,0-0.2314453,0.0424805-0.3071289,0.1264648c-0.0756836,0.0844727-0.137207,0.2260742-0.184082,0.4243164l-0.0830078,0.3544922c-0.0537109,0.2304688-0.1303711,0.3999023-0.2314453,0.5083008C9.9990234,32.699707,9.8701172,32.7539063,9.7124023,32.7539063z"/>
        <path  d="M8.4384766,30.449707v-0.1821289h0.6450195v-0.4941406h0.1586914v0.4941406h1.7348633c0.1445313,0,0.2485352-0.0283203,0.3120117-0.0849609c0.0629883-0.0571289,0.0942383-0.1474609,0.0942383-0.2719727l-0.0009766-0.0864258l-0.0014648-0.0839844h0.1611328c0.0029297,0.0224609,0.0043945,0.0878906,0.0043945,0.1962891c0,0.1811523-0.043457,0.3120117-0.1308594,0.3925781c-0.0874023,0.0800781-0.2324219,0.1206055-0.434082,0.1206055H9.2421875v0.3662109H9.0834961V30.449707H8.4384766z"/>
        <path  d="M9.0834961,27.4101563h2.4584961v0.1723633h-0.5341797v0.0068359c0.1669922,0.0556641,0.3041992,0.1621094,0.4111328,0.3203125c0.1069336,0.1586914,0.1606445,0.3383789,0.1606445,0.5400391c0,0.2666016-0.0810547,0.480957-0.2421875,0.6430664s-0.3793945,0.2436523-0.6538086,0.2436523H9.0834961v-0.1821289h1.5717773c0.2382813,0,0.4238281-0.0668945,0.5581055-0.2011719c0.1337891-0.1337891,0.2006836-0.3139648,0.2006836-0.5410156c0-0.2363281-0.0786133-0.4316406-0.2348633-0.5859375c-0.1567383-0.1547852-0.3637695-0.2319336-0.6206055-0.2319336H9.0834961V27.4101563z"/>
        <path  d="M11.5795898,25.9423828c0,0.3085938-0.1171875,0.5600586-0.3510742,0.7548828s-0.5395508,0.2919922-0.9160156,0.2919922c-0.3759766,0-0.6816406-0.097168-0.9155273-0.2905273c-0.2338867-0.1938477-0.3510742-0.4453125-0.3510742-0.7543945c0-0.222168,0.0644531-0.4165039,0.1938477-0.5834961s0.2924805-0.2788086,0.4892578-0.3359375v-0.0043945H8.1313477v-0.1845703h3.4106445v0.1723633h-0.659668v0.0073242c0.203125,0.0581055,0.3706055,0.1713867,0.5009766,0.3393555C11.5141602,25.5224609,11.5795898,25.7182617,11.5795898,25.9423828z M9.2114258,25.918457c0,0.2617188,0.1010742,0.4746094,0.3037109,0.6396484c0.2026367,0.1645508,0.4672852,0.246582,0.7954102,0.246582c0.3291016,0,0.5952148-0.0820313,0.7988281-0.246582c0.203125-0.1650391,0.3046875-0.3779297,0.3046875-0.6396484c0-0.2646484-0.1020508-0.480957-0.3071289-0.6489258c-0.2050781-0.1674805-0.4697266-0.2514648-0.7944336-0.2514648c-0.3242188,0-0.5888672,0.0839844-0.7939453,0.2514648C9.3134766,25.4375,9.2114258,25.6538086,9.2114258,25.918457z"/>
        <path  d="M8.4360352,24.0537109l0.0424805,0.1015625l-0.0424805,0.1015625l-0.1015625,0.0424805l-0.1005859-0.0424805l-0.0415039-0.1015625l0.0415039-0.1015625l0.1005859-0.0424805L8.4360352,24.0537109z M11.5419922,24.2475586H9.0834961v-0.1845703h2.4584961V24.2475586z"/>
        <path  d="M11.2368164,21.7314453c0.2285156,0.2006836,0.3427734,0.4658203,0.3427734,0.7954102s-0.1142578,0.5942383-0.3427734,0.7939453c-0.2285156,0.2001953-0.5366211,0.300293-0.9243164,0.300293c-0.387207,0-0.6953125-0.1000977-0.9238281-0.300293c-0.2290039-0.199707-0.3427734-0.4643555-0.3427734-0.7939453s0.1137695-0.5947266,0.3427734-0.7954102c0.2285156-0.2006836,0.5366211-0.3012695,0.9238281-0.3012695C10.7001953,21.4301758,11.0083008,21.5307617,11.2368164,21.7314453z M11.1176758,23.1884766c0.1977539-0.1655273,0.2963867-0.3862305,0.2963867-0.6616211c0-0.2758789-0.0991211-0.496582-0.2978516-0.6630859c-0.1982422-0.1665039-0.4663086-0.2495117-0.8037109-0.2495117c-0.3383789,0-0.6064453,0.0830078-0.8046875,0.2495117c-0.1977539,0.1665039-0.2963867,0.387207-0.2963867,0.6630859c0,0.2753906,0.0986328,0.4960938,0.2963867,0.6616211c0.1982422,0.1655273,0.4663086,0.2480469,0.8046875,0.2480469C10.6513672,23.4365234,10.9194336,23.3540039,11.1176758,23.1884766z"/>
        <path  d="M9.0458984,19.9125977c0-0.3085938,0.1162109-0.5595703,0.3496094-0.7529297c0.2333984-0.1928711,0.5390625-0.2895508,0.9169922-0.2895508c0.378418,0,0.684082,0.0961914,0.9174805,0.2885742s0.3496094,0.4428711,0.3496094,0.7514648c0,0.2207031-0.0644531,0.4135742-0.1938477,0.578125s-0.2924805,0.2753906-0.4892578,0.3320313v0.0048828h1.4511719v0.184082H9.0834961v-0.1723633h0.659668v-0.0073242c-0.203125-0.0581055-0.3706055-0.1699219-0.5009766-0.3354492C9.1113281,20.3286133,9.0458984,20.1347656,9.0458984,19.9125977z M11.4140625,19.934082c0-0.2617188-0.1010742-0.4731445-0.3037109-0.6347656s-0.4672852-0.2421875-0.7954102-0.2421875c-0.3291016,0-0.5957031,0.0805664-0.7988281,0.2421875s-0.3046875,0.3730469-0.3046875,0.6347656c0,0.2631836,0.1020508,0.4775391,0.3061523,0.644043c0.2036133,0.1660156,0.46875,0.2490234,0.7949219,0.2490234s0.5917969-0.0830078,0.7954102-0.2490234C11.3120117,20.4116211,11.4140625,20.1972656,11.4140625,19.934082z"/>
        <path  d="M8.4360352,18.234375l0.0424805,0.1015625l-0.0424805,0.1020508l-0.1015625,0.0424805l-0.1005859-0.0424805l-0.0415039-0.1020508l0.0415039-0.1015625l0.1005859-0.0424805L8.4360352,18.234375z M11.5419922,18.4282227H9.0834961v-0.184082h2.4584961V18.4282227z"/>
        <path  d="M10.8540039,15.8852539v-0.1845703c0.2143555,0.0424805,0.3886719,0.1538086,0.5234375,0.3334961s0.2021484,0.4033203,0.2021484,0.6708984c0,0.3374023-0.1123047,0.6044922-0.3369141,0.8012695c-0.2246094,0.1972656-0.5336914,0.2954102-0.9277344,0.2954102c-0.3808594,0-0.6884766-0.0981445-0.9204102-0.2954102c-0.2324219-0.1967773-0.3486328-0.4575195-0.3486328-0.7822266c0-0.3164063,0.109375-0.5717773,0.3286133-0.7646484s0.5073242-0.2895508,0.8647461-0.2895508h0.1040039v1.9453125h0.0097656c0.3305664,0,0.5908203-0.0825195,0.7797852-0.2470703s0.2836914-0.3862305,0.2836914-0.6650391c0-0.2192383-0.0517578-0.4008789-0.1557617-0.5449219S11.0209961,15.9228516,10.8540039,15.8852539z M9.2089844,16.7265625c0,0.2539063,0.0898438,0.4619141,0.2695313,0.6240234s0.4165039,0.2495117,0.7114258,0.262207v-1.7539063c-0.2915039,0.0019531-0.527832,0.0820313-0.7089844,0.2412109C9.2993164,16.2592773,9.2089844,16.4682617,9.2089844,16.7265625z"/>
        <path  d="M8.4384766,15.1147461v-0.1821289h0.6450195v-0.4941406h0.1586914v0.4941406h1.7348633c0.1445313,0,0.2485352-0.0283203,0.3120117-0.0849609c0.0629883-0.0566406,0.0942383-0.1474609,0.0942383-0.2719727l-0.0009766-0.0864258l-0.0014648-0.0834961h0.1611328c0.0029297,0.0219727,0.0043945,0.0874023,0.0043945,0.1958008c0,0.1811523-0.043457,0.3120117-0.1308594,0.3925781c-0.0874023,0.0800781-0.2324219,0.1206055-0.434082,0.1206055H9.2421875v0.3662109H9.0834961v-0.3662109H8.4384766z"/>
        <path  d="M10.8540039,12.2973633V12.112793c0.2143555,0.0424805,0.3886719,0.1538086,0.5234375,0.3334961s0.2021484,0.4033203,0.2021484,0.6708984c0,0.3374023-0.1123047,0.6044922-0.3369141,0.8012695c-0.2246094,0.1972656-0.5336914,0.2954102-0.9277344,0.2954102c-0.3808594,0-0.6884766-0.0981445-0.9204102-0.2954102c-0.2324219-0.1967773-0.3486328-0.4575195-0.3486328-0.7822266c0-0.3168945,0.109375-0.5717773,0.3286133-0.7646484s0.5073242-0.2895508,0.8647461-0.2895508h0.1040039v1.9453125h0.0097656c0.3305664,0,0.5908203-0.0825195,0.7797852-0.2470703s0.2836914-0.3862305,0.2836914-0.6650391c0-0.2192383-0.0517578-0.4008789-0.1557617-0.5449219C11.1567383,12.4257813,11.0209961,12.3349609,10.8540039,12.2973633z M9.2089844,13.1386719c0,0.2539063,0.0898438,0.4619141,0.2695313,0.6240234s0.4165039,0.2495117,0.7114258,0.262207v-1.7539063c-0.2915039,0.0014648-0.527832,0.0820313-0.7089844,0.2412109C9.2993164,12.6713867,9.2089844,12.8798828,9.2089844,13.1386719z"/>
        <path  d="M11.5419922,11.6635742H9.0834961v-0.1723633h0.4848633v-0.0048828c-0.168457-0.050293-0.2978516-0.1323242-0.3876953-0.2456055s-0.1347656-0.2514648-0.1347656-0.4135742l0.0400391-0.2294922h0.1845703c-0.0332031,0.0664063-0.0498047,0.1513672-0.0498047,0.2553711c0,0.1904297,0.0732422,0.3427734,0.2197266,0.4560547c0.1464844,0.1137695,0.3364258,0.1704102,0.5698242,0.1704102h1.5317383V11.6635742z"/>
        <path  d="M9.7124023,10.3496094c-0.1938477,0-0.3535156-0.0791016-0.4785156-0.2363281C9.1083984,9.9555664,9.0458984,9.7548828,9.0458984,9.5107422c0-0.2490234,0.0668945-0.4526367,0.199707-0.6113281C9.378418,8.7412109,9.5595703,8.6508789,9.7880859,8.6289063v0.1772461C9.6054688,8.831543,9.4624023,8.9067383,9.3588867,9.0317383c-0.1030273,0.1254883-0.1547852,0.2856445-0.1547852,0.480957c0,0.190918,0.0473633,0.3481445,0.1420898,0.4716797c0.0942383,0.1240234,0.2143555,0.1855469,0.3588867,0.1855469c0.1201172,0,0.2163086-0.0439453,0.2895508-0.1323242s0.1333008-0.230957,0.1787109-0.4277344l0.0800781-0.340332c0.0585938-0.2446289,0.1367188-0.4189453,0.2353516-0.5234375c0.0986328-0.1049805,0.2333984-0.1572266,0.4052734-0.1572266c0.2016602,0,0.3666992,0.0839844,0.4941406,0.2529297c0.1274414,0.168457,0.1914063,0.3852539,0.1914063,0.6499023c0,0.2568359-0.0678711,0.4726563-0.2045898,0.6474609c-0.1362305,0.1748047-0.3110352,0.2719727-0.5258789,0.2910156v-0.1821289c0.1704102-0.0224609,0.3081055-0.1030273,0.4135742-0.2436523c0.105957-0.1401367,0.1586914-0.3125,0.1586914-0.5175781c0-0.2094727-0.0478516-0.3808594-0.1445313-0.5141602c-0.0961914-0.1333008-0.2197266-0.199707-0.3710938-0.199707c-0.1293945,0-0.2314453,0.0424805-0.3071289,0.1264648c-0.0756836,0.0844727-0.137207,0.2260742-0.184082,0.4243164L10.331543,9.6782227c-0.0537109,0.2304688-0.1303711,0.3994141-0.2314453,0.5083008S9.8701172,10.3496094,9.7124023,10.3496094z"/>
        <polygon  points="11.5605469,7.9858398 11.5146484,8.0981445 11.4023438,8.1445313 11.2924805,8.0981445 11.246582,7.9858398 11.2924805,7.8759766 11.4023438,7.8300781 11.5146484,7.8759766 "/>
        <path  d="M11.5419922,7.1279297H9.0834961V6.9555664h0.5341797V6.9506836C9.4458008,6.894043,9.3076172,6.7895508,9.203125,6.6376953C9.0986328,6.4853516,9.0458984,6.3066406,9.0458984,6.1000977c0-0.2709961,0.081543-0.4887695,0.2446289-0.6523438c0.1630859-0.1640625,0.3823242-0.2460938,0.6582031-0.2460938h1.5932617v0.1845703H9.972168c-0.2363281,0-0.4223633,0.0683594-0.5576172,0.2055664s-0.203125,0.3203125-0.203125,0.5507813c0,0.237793,0.0795898,0.4311523,0.2397461,0.5791016s0.3676758,0.222168,0.6230469,0.222168h1.4677734V7.1279297z"/>
        <rect  y="4.4667969" height="0.184082" x="8.1313477" width="3.4106445"/>
    </g>
</svg>
